<svg width="310" height="379" viewBox="0 0 310 379" fill="none" xmlns="http://www.w3.org/2000/svg">
<rect width="310" height="379" fill="white"/>
<path d="M27.392 263H24.5966L30.8778 245.545H33.9205L40.2017 263H37.4062L32.4716 248.716H32.3352L27.392 263ZM27.8608 256.165H36.929V258.381H27.8608V256.165ZM47.821 263.264C46.554 263.264 45.4631 262.977 44.5483 262.403C43.6392 261.824 42.9403 261.026 42.4517 260.009C41.9631 258.991 41.7188 257.827 41.7188 256.514C41.7188 255.185 41.9688 254.011 42.4688 252.994C42.9688 251.972 43.6733 251.173 44.5824 250.599C45.4915 250.026 46.5625 249.739 47.7955 249.739C48.7898 249.739 49.6761 249.923 50.4545 250.293C51.233 250.656 51.8608 251.168 52.3381 251.827C52.821 252.486 53.108 253.256 53.1989 254.136H50.7188C50.5824 253.523 50.2699 252.994 49.7812 252.551C49.2983 252.108 48.6506 251.886 47.8381 251.886C47.1278 251.886 46.5057 252.074 45.9716 252.449C45.4432 252.818 45.0313 253.347 44.7358 254.034C44.4403 254.716 44.2926 255.523 44.2926 256.455C44.2926 257.409 44.4375 258.233 44.7273 258.926C45.017 259.619 45.4261 260.156 45.9545 260.537C46.4886 260.918 47.1165 261.108 47.8381 261.108C48.321 261.108 48.7585 261.02 49.1506 260.844C49.5483 260.662 49.8807 260.403 50.1477 260.068C50.4205 259.733 50.6108 259.33 50.7188 258.858H53.1989C53.108 259.705 52.8324 260.46 52.3722 261.125C51.9119 261.79 51.2955 262.312 50.5227 262.693C49.7557 263.074 48.8551 263.264 47.821 263.264ZM61.5661 263.264C60.2763 263.264 59.1655 262.989 58.2337 262.438C57.3075 261.881 56.5916 261.099 56.0859 260.094C55.5859 259.082 55.3359 257.898 55.3359 256.54C55.3359 255.199 55.5859 254.017 56.0859 252.994C56.5916 251.972 57.2962 251.173 58.1996 250.599C59.1087 250.026 60.1712 249.739 61.3871 249.739C62.1257 249.739 62.8416 249.861 63.5348 250.105C64.228 250.349 64.8501 250.733 65.4013 251.256C65.9524 251.778 66.3871 252.457 66.7053 253.293C67.0234 254.122 67.1825 255.131 67.1825 256.318V257.222H56.7763V255.312H64.6854C64.6854 254.642 64.549 254.048 64.2763 253.531C64.0036 253.009 63.62 252.597 63.1257 252.295C62.6371 251.994 62.0632 251.844 61.4041 251.844C60.6882 251.844 60.0632 252.02 59.5291 252.372C59.0007 252.719 58.5916 253.173 58.3018 253.736C58.0178 254.293 57.8757 254.898 57.8757 255.551V257.043C57.8757 257.918 58.0291 258.662 58.3359 259.276C58.6484 259.889 59.0831 260.358 59.6399 260.682C60.1967 261 60.8473 261.159 61.5916 261.159C62.0746 261.159 62.5149 261.091 62.9126 260.955C63.3104 260.812 63.6541 260.602 63.9439 260.324C64.2337 260.045 64.4553 259.702 64.6087 259.293L67.0206 259.727C66.8274 260.437 66.4808 261.06 65.9808 261.594C65.4865 262.122 64.8643 262.534 64.1143 262.83C63.37 263.119 62.5206 263.264 61.5661 263.264ZM72.5582 245.545V263H70.0099V245.545H72.5582ZM81.6286 263.264C80.3388 263.264 79.228 262.989 78.2962 262.438C77.37 261.881 76.6541 261.099 76.1484 260.094C75.6484 259.082 75.3984 257.898 75.3984 256.54C75.3984 255.199 75.6484 254.017 76.1484 252.994C76.6541 251.972 77.3587 251.173 78.2621 250.599C79.1712 250.026 80.2337 249.739 81.4496 249.739C82.1882 249.739 82.9041 249.861 83.5973 250.105C84.2905 250.349 84.9126 250.733 85.4638 251.256C86.0149 251.778 86.4496 252.457 86.7678 253.293C87.0859 254.122 87.245 255.131 87.245 256.318V257.222H76.8388V255.312H84.7479C84.7479 254.642 84.6115 254.048 84.3388 253.531C84.0661 253.009 83.6825 252.597 83.1882 252.295C82.6996 251.994 82.1257 251.844 81.4666 251.844C80.7507 251.844 80.1257 252.02 79.5916 252.372C79.0632 252.719 78.6541 253.173 78.3643 253.736C78.0803 254.293 77.9382 254.898 77.9382 255.551V257.043C77.9382 257.918 78.0916 258.662 78.3984 259.276C78.7109 259.889 79.1456 260.358 79.7024 260.682C80.2592 261 80.9098 261.159 81.6541 261.159C82.1371 261.159 82.5774 261.091 82.9751 260.955C83.3729 260.812 83.7166 260.602 84.0064 260.324C84.2962 260.045 84.5178 259.702 84.6712 259.293L87.0831 259.727C86.8899 260.437 86.5433 261.06 86.0433 261.594C85.549 262.122 84.9268 262.534 84.1768 262.83C83.4325 263.119 82.5831 263.264 81.6286 263.264ZM90.0724 263V249.909H92.5355V251.989H92.6719C92.9105 251.284 93.331 250.73 93.9332 250.327C94.5412 249.918 95.2287 249.713 95.9957 249.713C96.1548 249.713 96.3423 249.719 96.5582 249.73C96.7798 249.741 96.9531 249.756 97.0781 249.773V252.21C96.9759 252.182 96.794 252.151 96.5327 252.116C96.2713 252.077 96.0099 252.057 95.7486 252.057C95.1463 252.057 94.6094 252.185 94.1378 252.44C93.6719 252.69 93.3026 253.04 93.0298 253.489C92.7571 253.932 92.6207 254.437 92.6207 255.006V263H90.0724ZM102.976 263.29C102.146 263.29 101.396 263.136 100.726 262.83C100.055 262.517 99.5241 262.065 99.1321 261.474C98.7457 260.884 98.5526 260.159 98.5526 259.301C98.5526 258.562 98.6946 257.955 98.9787 257.477C99.2628 257 99.6463 256.622 100.129 256.344C100.612 256.065 101.152 255.855 101.749 255.713C102.345 255.571 102.953 255.463 103.572 255.389C104.357 255.298 104.993 255.224 105.482 255.168C105.97 255.105 106.325 255.006 106.547 254.869C106.768 254.733 106.879 254.511 106.879 254.205V254.145C106.879 253.401 106.669 252.824 106.249 252.415C105.834 252.006 105.214 251.801 104.391 251.801C103.533 251.801 102.857 251.991 102.362 252.372C101.874 252.747 101.536 253.165 101.348 253.625L98.9531 253.08C99.2372 252.284 99.652 251.642 100.197 251.153C100.749 250.659 101.382 250.301 102.098 250.08C102.814 249.852 103.567 249.739 104.357 249.739C104.879 249.739 105.433 249.801 106.018 249.926C106.609 250.045 107.161 250.267 107.672 250.591C108.189 250.915 108.612 251.378 108.942 251.98C109.271 252.577 109.436 253.352 109.436 254.307V263H106.947V261.21H106.845C106.68 261.54 106.433 261.864 106.104 262.182C105.774 262.5 105.351 262.764 104.834 262.974C104.317 263.185 103.697 263.29 102.976 263.29ZM103.53 261.244C104.234 261.244 104.837 261.105 105.337 260.827C105.842 260.548 106.226 260.185 106.487 259.736C106.754 259.281 106.888 258.795 106.888 258.278V256.591C106.797 256.682 106.621 256.767 106.359 256.847C106.104 256.92 105.811 256.986 105.482 257.043C105.152 257.094 104.831 257.142 104.518 257.188C104.206 257.227 103.945 257.261 103.734 257.29C103.24 257.352 102.788 257.457 102.379 257.605C101.976 257.753 101.652 257.966 101.408 258.244C101.169 258.517 101.05 258.881 101.05 259.335C101.05 259.966 101.283 260.443 101.749 260.767C102.214 261.085 102.808 261.244 103.53 261.244ZM118.344 263.264C117.077 263.264 115.987 262.977 115.072 262.403C114.163 261.824 113.464 261.026 112.975 260.009C112.487 258.991 112.242 257.827 112.242 256.514C112.242 255.185 112.492 254.011 112.992 252.994C113.492 251.972 114.197 251.173 115.106 250.599C116.015 250.026 117.086 249.739 118.319 249.739C119.313 249.739 120.2 249.923 120.978 250.293C121.756 250.656 122.384 251.168 122.862 251.827C123.344 252.486 123.631 253.256 123.722 254.136H121.242C121.106 253.523 120.793 252.994 120.305 252.551C119.822 252.108 119.174 251.886 118.362 251.886C117.651 251.886 117.029 252.074 116.495 252.449C115.967 252.818 115.555 253.347 115.259 254.034C114.964 254.716 114.816 255.523 114.816 256.455C114.816 257.409 114.961 258.233 115.251 258.926C115.54 259.619 115.95 260.156 116.478 260.537C117.012 260.918 117.64 261.108 118.362 261.108C118.844 261.108 119.282 261.02 119.674 260.844C120.072 260.662 120.404 260.403 120.671 260.068C120.944 259.733 121.134 259.33 121.242 258.858H123.722C123.631 259.705 123.356 260.46 122.896 261.125C122.435 261.79 121.819 262.312 121.046 262.693C120.279 263.074 119.379 263.264 118.344 263.264ZM117.424 262.932H119.094L118.958 263.631C119.452 263.71 119.884 263.909 120.254 264.227C120.623 264.545 120.808 265.026 120.808 265.668C120.813 266.435 120.481 267.057 119.81 267.534C119.146 268.011 118.183 268.25 116.921 268.25L116.87 266.827C117.461 266.827 117.938 266.741 118.302 266.571C118.671 266.401 118.859 266.125 118.864 265.744C118.87 265.364 118.728 265.097 118.438 264.943C118.154 264.79 117.7 264.682 117.075 264.619L117.424 262.932ZM130.257 263.29C129.428 263.29 128.678 263.136 128.007 262.83C127.337 262.517 126.805 262.065 126.413 261.474C126.027 260.884 125.834 260.159 125.834 259.301C125.834 258.562 125.976 257.955 126.26 257.477C126.544 257 126.928 256.622 127.411 256.344C127.893 256.065 128.433 255.855 129.03 255.713C129.626 255.571 130.234 255.463 130.854 255.389C131.638 255.298 132.274 255.224 132.763 255.168C133.251 255.105 133.607 255.006 133.828 254.869C134.05 254.733 134.161 254.511 134.161 254.205V254.145C134.161 253.401 133.95 252.824 133.53 252.415C133.115 252.006 132.496 251.801 131.672 251.801C130.814 251.801 130.138 251.991 129.643 252.372C129.155 252.747 128.817 253.165 128.629 253.625L126.234 253.08C126.518 252.284 126.933 251.642 127.479 251.153C128.03 250.659 128.663 250.301 129.379 250.08C130.095 249.852 130.848 249.739 131.638 249.739C132.161 249.739 132.714 249.801 133.3 249.926C133.891 250.045 134.442 250.267 134.953 250.591C135.47 250.915 135.893 251.378 136.223 251.98C136.553 252.577 136.717 253.352 136.717 254.307V263H134.229V261.21H134.126C133.962 261.54 133.714 261.864 133.385 262.182C133.055 262.5 132.632 262.764 132.115 262.974C131.598 263.185 130.979 263.29 130.257 263.29ZM130.811 261.244C131.516 261.244 132.118 261.105 132.618 260.827C133.124 260.548 133.507 260.185 133.768 259.736C134.036 259.281 134.169 258.795 134.169 258.278V256.591C134.078 256.682 133.902 256.767 133.641 256.847C133.385 256.92 133.092 256.986 132.763 257.043C132.433 257.094 132.112 257.142 131.8 257.188C131.487 257.227 131.226 257.261 131.016 257.29C130.521 257.352 130.07 257.457 129.661 257.605C129.257 257.753 128.933 257.966 128.689 258.244C128.45 258.517 128.331 258.881 128.331 259.335C128.331 259.966 128.564 260.443 129.03 260.767C129.496 261.085 130.089 261.244 130.811 261.244ZM129.209 248.324L127.496 248.273C127.496 247.33 127.749 246.577 128.254 246.014C128.766 245.452 129.396 245.17 130.146 245.17C130.493 245.17 130.797 245.23 131.058 245.349C131.32 245.463 131.564 245.597 131.791 245.75C132.024 245.898 132.254 246.031 132.482 246.151C132.714 246.264 132.973 246.321 133.257 246.321C133.587 246.321 133.854 246.196 134.058 245.946C134.268 245.696 134.374 245.386 134.374 245.017L136.053 245.128C136.053 246.077 135.797 246.824 135.286 247.369C134.774 247.909 134.146 248.182 133.402 248.188C132.999 248.188 132.663 248.131 132.396 248.017C132.135 247.898 131.902 247.764 131.697 247.616C131.493 247.463 131.283 247.327 131.067 247.207C130.851 247.088 130.592 247.028 130.291 247.028C129.973 247.028 129.712 247.153 129.507 247.403C129.308 247.648 129.209 247.955 129.209 248.324ZM145.626 263.264C144.398 263.264 143.327 262.983 142.413 262.42C141.498 261.858 140.788 261.071 140.282 260.06C139.776 259.048 139.523 257.866 139.523 256.514C139.523 255.156 139.776 253.969 140.282 252.952C140.788 251.935 141.498 251.145 142.413 250.582C143.327 250.02 144.398 249.739 145.626 249.739C146.853 249.739 147.924 250.02 148.839 250.582C149.754 251.145 150.464 251.935 150.969 252.952C151.475 253.969 151.728 255.156 151.728 256.514C151.728 257.866 151.475 259.048 150.969 260.06C150.464 261.071 149.754 261.858 148.839 262.42C147.924 262.983 146.853 263.264 145.626 263.264ZM145.634 261.125C146.43 261.125 147.089 260.915 147.612 260.494C148.134 260.074 148.521 259.514 148.771 258.815C149.026 258.116 149.154 257.347 149.154 256.506C149.154 255.67 149.026 254.903 148.771 254.205C148.521 253.5 148.134 252.935 147.612 252.509C147.089 252.082 146.43 251.869 145.634 251.869C144.833 251.869 144.168 252.082 143.64 252.509C143.117 252.935 142.728 253.5 142.472 254.205C142.222 254.903 142.097 255.67 142.097 256.506C142.097 257.347 142.222 258.116 142.472 258.815C142.728 259.514 143.117 260.074 143.64 260.494C144.168 260.915 144.833 261.125 145.634 261.125Z" fill="black"/>
<path d="M25.4091 295V283.364H32.4318V284.614H26.8182V288.545H32.0682V289.795H26.8182V293.75H32.5227V295H25.4091ZM34.7898 295V286.273H36.0852V287.636H36.1989C36.3807 287.17 36.6742 286.809 37.0795 286.551C37.4848 286.29 37.9716 286.159 38.5398 286.159C39.1155 286.159 39.5947 286.29 39.9773 286.551C40.3636 286.809 40.6648 287.17 40.8807 287.636H40.9716C41.1951 287.186 41.5303 286.828 41.9773 286.562C42.4242 286.294 42.9602 286.159 43.5852 286.159C44.3655 286.159 45.0038 286.403 45.5 286.892C45.9962 287.377 46.2443 288.133 46.2443 289.159V295H44.9034V289.159C44.9034 288.515 44.7273 288.055 44.375 287.778C44.0227 287.502 43.608 287.364 43.1307 287.364C42.517 287.364 42.0417 287.549 41.7045 287.92C41.3674 288.288 41.1989 288.754 41.1989 289.318V295H39.8352V289.023C39.8352 288.527 39.6742 288.127 39.3523 287.824C39.0303 287.517 38.6155 287.364 38.108 287.364C37.7595 287.364 37.4337 287.456 37.1307 287.642C36.8314 287.828 36.589 288.085 36.4034 288.415C36.2216 288.741 36.1307 289.117 36.1307 289.545V295H34.7898ZM53.196 295V286.273H54.4915V287.636H54.6051C54.7869 287.17 55.0805 286.809 55.4858 286.551C55.8911 286.29 56.3778 286.159 56.946 286.159C57.5218 286.159 58.0009 286.29 58.3835 286.551C58.7699 286.809 59.071 287.17 59.2869 287.636H59.3778C59.6013 287.186 59.9366 286.828 60.3835 286.562C60.8305 286.294 61.3665 286.159 61.9915 286.159C62.7718 286.159 63.41 286.403 63.9062 286.892C64.4025 287.377 64.6506 288.133 64.6506 289.159V295H63.3097V289.159C63.3097 288.515 63.1335 288.055 62.7812 287.778C62.429 287.502 62.0142 287.364 61.5369 287.364C60.9233 287.364 60.4479 287.549 60.1108 287.92C59.7737 288.288 59.6051 288.754 59.6051 289.318V295H58.2415V289.023C58.2415 288.527 58.0805 288.127 57.7585 287.824C57.4366 287.517 57.0218 287.364 56.5142 287.364C56.1657 287.364 55.84 287.456 55.5369 287.642C55.2377 287.828 54.9953 288.085 54.8097 288.415C54.6278 288.741 54.5369 289.117 54.5369 289.545V295H53.196ZM70.7614 295.182C69.9205 295.182 69.1951 294.996 68.5852 294.625C67.9792 294.25 67.5114 293.727 67.1818 293.057C66.8561 292.383 66.6932 291.598 66.6932 290.705C66.6932 289.811 66.8561 289.023 67.1818 288.341C67.5114 287.655 67.9697 287.121 68.5568 286.739C69.1477 286.352 69.8371 286.159 70.625 286.159C71.0795 286.159 71.5284 286.235 71.9716 286.386C72.4148 286.538 72.8182 286.784 73.1818 287.125C73.5455 287.462 73.8352 287.909 74.0511 288.466C74.267 289.023 74.375 289.708 74.375 290.523V291.091H67.6477V289.932H73.0114C73.0114 289.439 72.9129 289 72.7159 288.614C72.5227 288.227 72.2462 287.922 71.8864 287.699C71.5303 287.475 71.1098 287.364 70.625 287.364C70.0909 287.364 69.6288 287.496 69.2386 287.761C68.8523 288.023 68.5549 288.364 68.3466 288.784C68.1383 289.205 68.0341 289.655 68.0341 290.136V290.909C68.0341 291.568 68.1477 292.127 68.375 292.585C68.6061 293.04 68.9261 293.386 69.3352 293.625C69.7443 293.86 70.2197 293.977 70.7614 293.977C71.1136 293.977 71.4318 293.928 71.7159 293.83C72.0038 293.727 72.2519 293.576 72.4602 293.375C72.6686 293.17 72.8295 292.917 72.9432 292.614L74.2386 292.977C74.1023 293.417 73.8731 293.803 73.5511 294.136C73.2292 294.466 72.8314 294.723 72.358 294.909C71.8845 295.091 71.3523 295.182 70.7614 295.182ZM69.9432 285.091L71.3295 282.455H72.8977L71.125 285.091H69.9432ZM79.7102 295.182C78.983 295.182 78.3409 294.998 77.7841 294.631C77.2273 294.259 76.7917 293.737 76.4773 293.062C76.1629 292.384 76.0057 291.583 76.0057 290.659C76.0057 289.742 76.1629 288.947 76.4773 288.273C76.7917 287.598 77.2292 287.078 77.7898 286.71C78.3504 286.343 78.9981 286.159 79.733 286.159C80.3011 286.159 80.75 286.254 81.0795 286.443C81.4129 286.629 81.6667 286.841 81.8409 287.08C82.0189 287.314 82.1572 287.508 82.2557 287.659H82.3693V283.364H83.7102V295H82.4148V293.659H82.2557C82.1572 293.818 82.017 294.019 81.8352 294.261C81.6534 294.5 81.3939 294.714 81.0568 294.903C80.7197 295.089 80.2708 295.182 79.7102 295.182ZM79.892 293.977C80.4299 293.977 80.8845 293.837 81.2557 293.557C81.6269 293.273 81.9091 292.881 82.1023 292.381C82.2955 291.877 82.392 291.295 82.392 290.636C82.392 289.985 82.2973 289.415 82.108 288.926C81.9186 288.434 81.6383 288.051 81.267 287.778C80.8958 287.502 80.4375 287.364 79.892 287.364C79.3239 287.364 78.8504 287.509 78.4716 287.801C78.0966 288.089 77.8144 288.481 77.625 288.977C77.4394 289.47 77.3466 290.023 77.3466 290.636C77.3466 291.258 77.4413 291.822 77.6307 292.33C77.8239 292.833 78.108 293.235 78.483 293.534C78.8617 293.83 79.3314 293.977 79.892 293.977ZM86.3523 295V286.273H87.6932V295H86.3523ZM87.0341 284.818C86.7727 284.818 86.5473 284.729 86.358 284.551C86.1723 284.373 86.0795 284.159 86.0795 283.909C86.0795 283.659 86.1723 283.445 86.358 283.267C86.5473 283.089 86.7727 283 87.0341 283C87.2955 283 87.5189 283.089 87.7045 283.267C87.8939 283.445 87.9886 283.659 87.9886 283.909C87.9886 284.159 87.8939 284.373 87.7045 284.551C87.5189 284.729 87.2955 284.818 87.0341 284.818ZM92.7173 295.205C92.1643 295.205 91.6624 295.1 91.2116 294.892C90.7609 294.68 90.4029 294.375 90.1378 293.977C89.8726 293.576 89.7401 293.091 89.7401 292.523C89.7401 292.023 89.8385 291.617 90.0355 291.307C90.2325 290.992 90.4957 290.746 90.8253 290.568C91.1548 290.39 91.5185 290.258 91.9162 290.17C92.3177 290.08 92.7211 290.008 93.1264 289.955C93.6567 289.886 94.0866 289.835 94.4162 289.801C94.7495 289.763 94.992 289.701 95.1435 289.614C95.2988 289.527 95.3764 289.375 95.3764 289.159V289.114C95.3764 288.553 95.223 288.117 94.9162 287.807C94.6132 287.496 94.1529 287.341 93.5355 287.341C92.8954 287.341 92.3935 287.481 92.0298 287.761C91.6662 288.042 91.4105 288.341 91.2628 288.659L89.9901 288.205C90.2173 287.674 90.5204 287.261 90.8991 286.966C91.2817 286.667 91.6984 286.458 92.1491 286.341C92.6037 286.22 93.0507 286.159 93.4901 286.159C93.7704 286.159 94.0923 286.193 94.456 286.261C94.8234 286.326 95.1776 286.46 95.5185 286.665C95.8632 286.869 96.1491 287.178 96.3764 287.591C96.6037 288.004 96.7173 288.557 96.7173 289.25V295H95.3764V293.818H95.3082C95.2173 294.008 95.0658 294.21 94.8537 294.426C94.6416 294.642 94.3594 294.826 94.0071 294.977C93.6548 295.129 93.2249 295.205 92.7173 295.205ZM92.9219 294C93.4522 294 93.8991 293.896 94.2628 293.688C94.6302 293.479 94.9067 293.21 95.0923 292.881C95.2817 292.551 95.3764 292.205 95.3764 291.841V290.614C95.3196 290.682 95.1946 290.744 95.0014 290.801C94.812 290.854 94.5923 290.902 94.3423 290.943C94.0961 290.981 93.8556 291.015 93.6207 291.045C93.3897 291.072 93.2022 291.095 93.0582 291.114C92.7098 291.159 92.384 291.233 92.081 291.335C91.7817 291.434 91.5393 291.583 91.3537 291.784C91.1719 291.981 91.081 292.25 91.081 292.591C91.081 293.057 91.2533 293.409 91.598 293.648C91.9465 293.883 92.3878 294 92.9219 294ZM101.165 293.409L101.074 294.023C101.009 294.455 100.911 294.917 100.778 295.409C100.65 295.902 100.515 296.366 100.375 296.801C100.235 297.237 100.119 297.583 100.028 297.841H99.0057C99.0549 297.598 99.1193 297.278 99.1989 296.881C99.2784 296.483 99.358 296.038 99.4375 295.545C99.5208 295.057 99.589 294.557 99.642 294.045L99.7102 293.409H101.165ZM109.49 289.75V295H108.149V286.273H109.445V287.636H109.558C109.763 287.193 110.073 286.837 110.49 286.568C110.907 286.295 111.445 286.159 112.104 286.159C112.695 286.159 113.212 286.28 113.655 286.523C114.098 286.761 114.443 287.125 114.689 287.614C114.935 288.098 115.058 288.712 115.058 289.455V295H113.717V289.545C113.717 288.86 113.539 288.326 113.183 287.943C112.827 287.557 112.339 287.364 111.717 287.364C111.289 287.364 110.907 287.456 110.57 287.642C110.236 287.828 109.973 288.098 109.78 288.455C109.587 288.811 109.49 289.242 109.49 289.75ZM121.054 295.182C120.266 295.182 119.575 294.994 118.98 294.619C118.389 294.244 117.927 293.72 117.594 293.045C117.264 292.371 117.099 291.583 117.099 290.682C117.099 289.773 117.264 288.979 117.594 288.301C117.927 287.623 118.389 287.097 118.98 286.722C119.575 286.347 120.266 286.159 121.054 286.159C121.842 286.159 122.531 286.347 123.122 286.722C123.717 287.097 124.179 287.623 124.509 288.301C124.842 288.979 125.009 289.773 125.009 290.682C125.009 291.583 124.842 292.371 124.509 293.045C124.179 293.72 123.717 294.244 123.122 294.619C122.531 294.994 121.842 295.182 121.054 295.182ZM121.054 293.977C121.652 293.977 122.145 293.824 122.531 293.517C122.918 293.21 123.204 292.807 123.389 292.307C123.575 291.807 123.668 291.265 123.668 290.682C123.668 290.098 123.575 289.555 123.389 289.051C123.204 288.547 122.918 288.14 122.531 287.83C122.145 287.519 121.652 287.364 121.054 287.364C120.455 287.364 119.963 287.519 119.577 287.83C119.19 288.14 118.904 288.547 118.719 289.051C118.533 289.555 118.44 290.098 118.44 290.682C118.44 291.265 118.533 291.807 118.719 292.307C118.904 292.807 119.19 293.21 119.577 293.517C119.963 293.824 120.455 293.977 121.054 293.977ZM133.237 288.227L132.033 288.568C131.957 288.367 131.845 288.172 131.697 287.983C131.554 287.79 131.357 287.631 131.107 287.506C130.857 287.381 130.536 287.318 130.146 287.318C129.612 287.318 129.167 287.441 128.811 287.688C128.459 287.93 128.283 288.239 128.283 288.614C128.283 288.947 128.404 289.21 128.646 289.403C128.889 289.597 129.268 289.758 129.783 289.886L131.078 290.205C131.858 290.394 132.44 290.684 132.822 291.074C133.205 291.46 133.396 291.958 133.396 292.568C133.396 293.068 133.252 293.515 132.964 293.909C132.68 294.303 132.283 294.614 131.771 294.841C131.26 295.068 130.665 295.182 129.987 295.182C129.097 295.182 128.36 294.989 127.777 294.602C127.194 294.216 126.824 293.652 126.669 292.909L127.942 292.591C128.063 293.061 128.292 293.413 128.629 293.648C128.97 293.883 129.415 294 129.964 294C130.589 294 131.086 293.867 131.453 293.602C131.824 293.333 132.01 293.011 132.01 292.636C132.01 292.333 131.904 292.08 131.692 291.875C131.48 291.667 131.154 291.511 130.714 291.409L129.26 291.068C128.461 290.879 127.874 290.585 127.499 290.188C127.127 289.786 126.942 289.284 126.942 288.682C126.942 288.189 127.08 287.754 127.357 287.375C127.637 286.996 128.018 286.699 128.499 286.483C128.983 286.267 129.533 286.159 130.146 286.159C131.01 286.159 131.688 286.348 132.18 286.727C132.677 287.106 133.029 287.606 133.237 288.227ZM141.597 288.227L140.392 288.568C140.316 288.367 140.205 288.172 140.057 287.983C139.913 287.79 139.716 287.631 139.466 287.506C139.216 287.381 138.896 287.318 138.506 287.318C137.972 287.318 137.527 287.441 137.17 287.688C136.818 287.93 136.642 288.239 136.642 288.614C136.642 288.947 136.763 289.21 137.006 289.403C137.248 289.597 137.627 289.758 138.142 289.886L139.438 290.205C140.218 290.394 140.799 290.684 141.182 291.074C141.564 291.46 141.756 291.958 141.756 292.568C141.756 293.068 141.612 293.515 141.324 293.909C141.04 294.303 140.642 294.614 140.131 294.841C139.619 295.068 139.025 295.182 138.347 295.182C137.456 295.182 136.72 294.989 136.136 294.602C135.553 294.216 135.184 293.652 135.028 292.909L136.301 292.591C136.422 293.061 136.652 293.413 136.989 293.648C137.33 293.883 137.775 294 138.324 294C138.949 294 139.445 293.867 139.812 293.602C140.184 293.333 140.369 293.011 140.369 292.636C140.369 292.333 140.263 292.08 140.051 291.875C139.839 291.667 139.513 291.511 139.074 291.409L137.619 291.068C136.82 290.879 136.233 290.585 135.858 290.188C135.487 289.786 135.301 289.284 135.301 288.682C135.301 288.189 135.439 287.754 135.716 287.375C135.996 286.996 136.377 286.699 136.858 286.483C137.343 286.267 137.892 286.159 138.506 286.159C139.369 286.159 140.047 286.348 140.54 286.727C141.036 287.106 141.388 287.606 141.597 288.227ZM147.32 295.182C146.532 295.182 145.84 294.994 145.246 294.619C144.655 294.244 144.193 293.72 143.859 293.045C143.53 292.371 143.365 291.583 143.365 290.682C143.365 289.773 143.53 288.979 143.859 288.301C144.193 287.623 144.655 287.097 145.246 286.722C145.84 286.347 146.532 286.159 147.32 286.159C148.107 286.159 148.797 286.347 149.388 286.722C149.982 287.097 150.445 287.623 150.774 288.301C151.107 288.979 151.274 289.773 151.274 290.682C151.274 291.583 151.107 292.371 150.774 293.045C150.445 293.72 149.982 294.244 149.388 294.619C148.797 294.994 148.107 295.182 147.32 295.182ZM147.32 293.977C147.918 293.977 148.411 293.824 148.797 293.517C149.183 293.21 149.469 292.807 149.655 292.307C149.84 291.807 149.933 291.265 149.933 290.682C149.933 290.098 149.84 289.555 149.655 289.051C149.469 288.547 149.183 288.14 148.797 287.83C148.411 287.519 147.918 287.364 147.32 287.364C146.721 287.364 146.229 287.519 145.842 287.83C145.456 288.14 145.17 288.547 144.984 289.051C144.799 289.555 144.706 290.098 144.706 290.682C144.706 291.265 144.799 291.807 144.984 292.307C145.17 292.807 145.456 293.21 145.842 293.517C146.229 293.824 146.721 293.977 147.32 293.977ZM159.503 288.227L158.298 288.568C158.223 288.367 158.111 288.172 157.963 287.983C157.819 287.79 157.622 287.631 157.372 287.506C157.122 287.381 156.802 287.318 156.412 287.318C155.878 287.318 155.433 287.441 155.077 287.688C154.724 287.93 154.548 288.239 154.548 288.614C154.548 288.947 154.67 289.21 154.912 289.403C155.154 289.597 155.533 289.758 156.048 289.886L157.344 290.205C158.124 290.394 158.705 290.684 159.088 291.074C159.471 291.46 159.662 291.958 159.662 292.568C159.662 293.068 159.518 293.515 159.23 293.909C158.946 294.303 158.548 294.614 158.037 294.841C157.526 295.068 156.931 295.182 156.253 295.182C155.363 295.182 154.626 294.989 154.043 294.602C153.459 294.216 153.09 293.652 152.935 292.909L154.207 292.591C154.329 293.061 154.558 293.413 154.895 293.648C155.236 293.883 155.681 294 156.23 294C156.855 294 157.351 293.867 157.719 293.602C158.09 293.333 158.276 293.011 158.276 292.636C158.276 292.333 158.17 292.08 157.957 291.875C157.745 291.667 157.42 291.511 156.98 291.409L155.526 291.068C154.726 290.879 154.139 290.585 153.764 290.188C153.393 289.786 153.207 289.284 153.207 288.682C153.207 288.189 153.346 287.754 153.622 287.375C153.902 286.996 154.283 286.699 154.764 286.483C155.249 286.267 155.798 286.159 156.412 286.159C157.276 286.159 157.954 286.348 158.446 286.727C158.942 287.106 159.295 287.606 159.503 288.227ZM169.726 295.182C168.908 295.182 168.203 294.989 167.612 294.602C167.021 294.216 166.567 293.684 166.249 293.006C165.93 292.328 165.771 291.553 165.771 290.682C165.771 289.795 165.934 289.013 166.26 288.335C166.589 287.653 167.048 287.121 167.635 286.739C168.226 286.352 168.915 286.159 169.703 286.159C170.317 286.159 170.87 286.273 171.362 286.5C171.855 286.727 172.258 287.045 172.572 287.455C172.887 287.864 173.082 288.341 173.158 288.886H171.817C171.714 288.489 171.487 288.136 171.135 287.83C170.786 287.519 170.317 287.364 169.726 287.364C169.203 287.364 168.745 287.5 168.351 287.773C167.961 288.042 167.656 288.422 167.436 288.915C167.22 289.403 167.112 289.977 167.112 290.636C167.112 291.311 167.218 291.898 167.43 292.398C167.646 292.898 167.949 293.286 168.339 293.562C168.733 293.839 169.196 293.977 169.726 293.977C170.074 293.977 170.391 293.917 170.675 293.795C170.959 293.674 171.199 293.5 171.396 293.273C171.593 293.045 171.733 292.773 171.817 292.455H173.158C173.082 292.97 172.894 293.434 172.595 293.847C172.3 294.256 171.908 294.581 171.419 294.824C170.934 295.062 170.37 295.182 169.726 295.182ZM176.459 283.364V295H175.118V283.364H176.459ZM178.915 295V286.273H180.256V295H178.915ZM179.597 284.818C179.335 284.818 179.11 284.729 178.92 284.551C178.735 284.373 178.642 284.159 178.642 283.909C178.642 283.659 178.735 283.445 178.92 283.267C179.11 283.089 179.335 283 179.597 283C179.858 283 180.081 283.089 180.267 283.267C180.456 283.445 180.551 283.659 180.551 283.909C180.551 284.159 180.456 284.373 180.267 284.551C180.081 284.729 179.858 284.818 179.597 284.818ZM186.371 295.182C185.53 295.182 184.804 294.996 184.195 294.625C183.589 294.25 183.121 293.727 182.791 293.057C182.465 292.383 182.303 291.598 182.303 290.705C182.303 289.811 182.465 289.023 182.791 288.341C183.121 287.655 183.579 287.121 184.166 286.739C184.757 286.352 185.446 286.159 186.234 286.159C186.689 286.159 187.138 286.235 187.581 286.386C188.024 286.538 188.428 286.784 188.791 287.125C189.155 287.462 189.445 287.909 189.661 288.466C189.876 289.023 189.984 289.708 189.984 290.523V291.091H183.257V289.932H188.621C188.621 289.439 188.522 289 188.325 288.614C188.132 288.227 187.856 287.922 187.496 287.699C187.14 287.475 186.719 287.364 186.234 287.364C185.7 287.364 185.238 287.496 184.848 287.761C184.462 288.023 184.164 288.364 183.956 288.784C183.748 289.205 183.643 289.655 183.643 290.136V290.909C183.643 291.568 183.757 292.127 183.984 292.585C184.215 293.04 184.536 293.386 184.945 293.625C185.354 293.86 185.829 293.977 186.371 293.977C186.723 293.977 187.041 293.928 187.325 293.83C187.613 293.727 187.861 293.576 188.07 293.375C188.278 293.17 188.439 292.917 188.553 292.614L189.848 292.977C189.712 293.417 189.482 293.803 189.161 294.136C188.839 294.466 188.441 294.723 187.967 294.909C187.494 295.091 186.962 295.182 186.371 295.182ZM193.365 289.75V295H192.024V286.273H193.32V287.636H193.433C193.638 287.193 193.948 286.837 194.365 286.568C194.782 286.295 195.32 286.159 195.979 286.159C196.57 286.159 197.087 286.28 197.53 286.523C197.973 286.761 198.318 287.125 198.564 287.614C198.81 288.098 198.933 288.712 198.933 289.455V295H197.592V289.545C197.592 288.86 197.414 288.326 197.058 287.943C196.702 287.557 196.214 287.364 195.592 287.364C195.164 287.364 194.782 287.456 194.445 287.642C194.111 287.828 193.848 288.098 193.655 288.455C193.462 288.811 193.365 289.242 193.365 289.75ZM205.179 286.273V287.409H200.656V286.273H205.179ZM201.974 284.182H203.315V292.5C203.315 292.879 203.37 293.163 203.48 293.352C203.594 293.538 203.738 293.663 203.912 293.727C204.09 293.788 204.277 293.818 204.474 293.818C204.622 293.818 204.743 293.811 204.838 293.795C204.933 293.777 205.009 293.761 205.065 293.75L205.338 294.955C205.247 294.989 205.12 295.023 204.957 295.057C204.795 295.095 204.588 295.114 204.338 295.114C203.959 295.114 203.588 295.032 203.224 294.869C202.865 294.706 202.565 294.458 202.327 294.125C202.092 293.792 201.974 293.371 201.974 292.864V284.182ZM210.761 295.182C209.92 295.182 209.195 294.996 208.585 294.625C207.979 294.25 207.511 293.727 207.182 293.057C206.856 292.383 206.693 291.598 206.693 290.705C206.693 289.811 206.856 289.023 207.182 288.341C207.511 287.655 207.97 287.121 208.557 286.739C209.148 286.352 209.837 286.159 210.625 286.159C211.08 286.159 211.528 286.235 211.972 286.386C212.415 286.538 212.818 286.784 213.182 287.125C213.545 287.462 213.835 287.909 214.051 288.466C214.267 289.023 214.375 289.708 214.375 290.523V291.091H207.648V289.932H213.011C213.011 289.439 212.913 289 212.716 288.614C212.523 288.227 212.246 287.922 211.886 287.699C211.53 287.475 211.11 287.364 210.625 287.364C210.091 287.364 209.629 287.496 209.239 287.761C208.852 288.023 208.555 288.364 208.347 288.784C208.138 289.205 208.034 289.655 208.034 290.136V290.909C208.034 291.568 208.148 292.127 208.375 292.585C208.606 293.04 208.926 293.386 209.335 293.625C209.744 293.86 210.22 293.977 210.761 293.977C211.114 293.977 211.432 293.928 211.716 293.83C212.004 293.727 212.252 293.576 212.46 293.375C212.669 293.17 212.83 292.917 212.943 292.614L214.239 292.977C214.102 293.417 213.873 293.803 213.551 294.136C213.229 294.466 212.831 294.723 212.358 294.909C211.884 295.091 211.352 295.182 210.761 295.182ZM222.597 288.227L221.392 288.568C221.316 288.367 221.205 288.172 221.057 287.983C220.913 287.79 220.716 287.631 220.466 287.506C220.216 287.381 219.896 287.318 219.506 287.318C218.972 287.318 218.527 287.441 218.17 287.688C217.818 287.93 217.642 288.239 217.642 288.614C217.642 288.947 217.763 289.21 218.006 289.403C218.248 289.597 218.627 289.758 219.142 289.886L220.438 290.205C221.218 290.394 221.799 290.684 222.182 291.074C222.564 291.46 222.756 291.958 222.756 292.568C222.756 293.068 222.612 293.515 222.324 293.909C222.04 294.303 221.642 294.614 221.131 294.841C220.619 295.068 220.025 295.182 219.347 295.182C218.456 295.182 217.72 294.989 217.136 294.602C216.553 294.216 216.184 293.652 216.028 292.909L217.301 292.591C217.422 293.061 217.652 293.413 217.989 293.648C218.33 293.883 218.775 294 219.324 294C219.949 294 220.445 293.867 220.812 293.602C221.184 293.333 221.369 293.011 221.369 292.636C221.369 292.333 221.263 292.08 221.051 291.875C220.839 291.667 220.513 291.511 220.074 291.409L218.619 291.068C217.82 290.879 217.233 290.585 216.858 290.188C216.487 289.786 216.301 289.284 216.301 288.682C216.301 288.189 216.439 287.754 216.716 287.375C216.996 286.996 217.377 286.699 217.858 286.483C218.343 286.267 218.892 286.159 219.506 286.159C220.369 286.159 221.047 286.348 221.54 286.727C222.036 287.106 222.388 287.606 222.597 288.227ZM28.8864 321.182C28.0455 321.182 27.3201 320.996 26.7102 320.625C26.1042 320.25 25.6364 319.727 25.3068 319.057C24.9811 318.383 24.8182 317.598 24.8182 316.705C24.8182 315.811 24.9811 315.023 25.3068 314.341C25.6364 313.655 26.0947 313.121 26.6818 312.739C27.2727 312.352 27.9621 312.159 28.75 312.159C29.2045 312.159 29.6534 312.235 30.0966 312.386C30.5398 312.538 30.9432 312.784 31.3068 313.125C31.6705 313.462 31.9602 313.909 32.1761 314.466C32.392 315.023 32.5 315.708 32.5 316.523V317.091H25.7727V315.932H31.1364C31.1364 315.439 31.0379 315 30.8409 314.614C30.6477 314.227 30.3712 313.922 30.0114 313.699C29.6553 313.475 29.2348 313.364 28.75 313.364C28.2159 313.364 27.7538 313.496 27.3636 313.761C26.9773 314.023 26.6799 314.364 26.4716 314.784C26.2633 315.205 26.1591 315.655 26.1591 316.136V316.909C26.1591 317.568 26.2727 318.127 26.5 318.585C26.7311 319.04 27.0511 319.386 27.4602 319.625C27.8693 319.86 28.3447 319.977 28.8864 319.977C29.2386 319.977 29.5568 319.928 29.8409 319.83C30.1288 319.727 30.3769 319.576 30.5852 319.375C30.7936 319.17 30.9545 318.917 31.0682 318.614L32.3636 318.977C32.2273 319.417 31.9981 319.803 31.6761 320.136C31.3542 320.466 30.9564 320.723 30.483 320.909C30.0095 321.091 29.4773 321.182 28.8864 321.182ZM35.8807 315.75V321H34.5398V312.273H35.8352V313.636H35.9489C36.1534 313.193 36.464 312.837 36.8807 312.568C37.2973 312.295 37.8352 312.159 38.4943 312.159C39.0852 312.159 39.6023 312.28 40.0455 312.523C40.4886 312.761 40.8333 313.125 41.0795 313.614C41.3258 314.098 41.4489 314.712 41.4489 315.455V321H40.108V315.545C40.108 314.86 39.9299 314.326 39.5739 313.943C39.2178 313.557 38.7292 313.364 38.108 313.364C37.6799 313.364 37.2973 313.456 36.9602 313.642C36.6269 313.828 36.3636 314.098 36.1705 314.455C35.9773 314.811 35.8807 315.242 35.8807 315.75ZM47.4446 321.182C46.6264 321.182 45.9219 320.989 45.331 320.602C44.7401 320.216 44.2855 319.684 43.9673 319.006C43.6491 318.328 43.4901 317.553 43.4901 316.682C43.4901 315.795 43.6529 315.013 43.9787 314.335C44.3082 313.653 44.7666 313.121 45.3537 312.739C45.9446 312.352 46.634 312.159 47.4219 312.159C48.0355 312.159 48.5885 312.273 49.081 312.5C49.5734 312.727 49.9768 313.045 50.2912 313.455C50.6056 313.864 50.8007 314.341 50.8764 314.886H49.5355C49.4332 314.489 49.206 314.136 48.8537 313.83C48.5052 313.519 48.0355 313.364 47.4446 313.364C46.9219 313.364 46.4635 313.5 46.0696 313.773C45.6795 314.042 45.3745 314.422 45.1548 314.915C44.9389 315.403 44.831 315.977 44.831 316.636C44.831 317.311 44.937 317.898 45.1491 318.398C45.3651 318.898 45.6681 319.286 46.0582 319.562C46.4522 319.839 46.9143 319.977 47.4446 319.977C47.7931 319.977 48.1094 319.917 48.3935 319.795C48.6776 319.674 48.9181 319.5 49.1151 319.273C49.312 319.045 49.4522 318.773 49.5355 318.455H50.8764C50.8007 318.97 50.6132 319.434 50.3139 319.847C50.0185 320.256 49.6264 320.581 49.1378 320.824C48.6529 321.062 48.0885 321.182 47.4446 321.182ZM56.3821 321.182C55.5942 321.182 54.9029 320.994 54.3082 320.619C53.7173 320.244 53.2552 319.72 52.9219 319.045C52.5923 318.371 52.4276 317.583 52.4276 316.682C52.4276 315.773 52.5923 314.979 52.9219 314.301C53.2552 313.623 53.7173 313.097 54.3082 312.722C54.9029 312.347 55.5942 312.159 56.3821 312.159C57.17 312.159 57.8594 312.347 58.4503 312.722C59.045 313.097 59.5071 313.623 59.8366 314.301C60.17 314.979 60.3366 315.773 60.3366 316.682C60.3366 317.583 60.17 318.371 59.8366 319.045C59.5071 319.72 59.045 320.244 58.4503 320.619C57.8594 320.994 57.17 321.182 56.3821 321.182ZM56.3821 319.977C56.9806 319.977 57.473 319.824 57.8594 319.517C58.2457 319.21 58.5317 318.807 58.7173 318.307C58.9029 317.807 58.9957 317.265 58.9957 316.682C58.9957 316.098 58.9029 315.555 58.7173 315.051C58.5317 314.547 58.2457 314.14 57.8594 313.83C57.473 313.519 56.9806 313.364 56.3821 313.364C55.7836 313.364 55.2912 313.519 54.9048 313.83C54.5185 314.14 54.2325 314.547 54.0469 315.051C53.8613 315.555 53.7685 316.098 53.7685 316.682C53.7685 317.265 53.8613 317.807 54.0469 318.307C54.2325 318.807 54.5185 319.21 54.9048 319.517C55.2912 319.824 55.7836 319.977 56.3821 319.977ZM63.7244 315.75V321H62.3835V312.273H63.679V313.636H63.7926C63.9972 313.193 64.3078 312.837 64.7244 312.568C65.1411 312.295 65.679 312.159 66.3381 312.159C66.929 312.159 67.446 312.28 67.8892 312.523C68.3324 312.761 68.6771 313.125 68.9233 313.614C69.1695 314.098 69.2926 314.712 69.2926 315.455V321H67.9517V315.545C67.9517 314.86 67.7737 314.326 67.4176 313.943C67.0616 313.557 66.5729 313.364 65.9517 313.364C65.5237 313.364 65.1411 313.456 64.804 313.642C64.4706 313.828 64.2074 314.098 64.0142 314.455C63.821 314.811 63.7244 315.242 63.7244 315.75ZM75.5384 312.273V313.409H71.0156V312.273H75.5384ZM72.3338 310.182H73.6747V318.5C73.6747 318.879 73.7296 319.163 73.8395 319.352C73.9531 319.538 74.0971 319.663 74.2713 319.727C74.4493 319.788 74.6368 319.818 74.8338 319.818C74.9815 319.818 75.1027 319.811 75.1974 319.795C75.2921 319.777 75.3679 319.761 75.4247 319.75L75.6974 320.955C75.6065 320.989 75.4796 321.023 75.3168 321.057C75.1539 321.095 74.9474 321.114 74.6974 321.114C74.3187 321.114 73.9474 321.032 73.5838 320.869C73.224 320.706 72.9247 320.458 72.6861 320.125C72.4512 319.792 72.3338 319.371 72.3338 318.864V310.182ZM77.5554 321V312.273H78.8509V313.591H78.9418C79.1009 313.159 79.3887 312.809 79.8054 312.54C80.2221 312.271 80.6918 312.136 81.2145 312.136C81.313 312.136 81.4361 312.138 81.5838 312.142C81.7315 312.146 81.8433 312.152 81.919 312.159V313.523C81.8736 313.511 81.7694 313.494 81.6065 313.472C81.4474 313.445 81.2789 313.432 81.1009 313.432C80.6766 313.432 80.2978 313.521 79.9645 313.699C79.6349 313.873 79.3736 314.116 79.1804 314.426C78.991 314.733 78.8963 315.083 78.8963 315.477V321H77.5554ZM86.0767 321.205C85.5237 321.205 85.0218 321.1 84.571 320.892C84.1203 320.68 83.7623 320.375 83.4972 319.977C83.232 319.576 83.0994 319.091 83.0994 318.523C83.0994 318.023 83.1979 317.617 83.3949 317.307C83.5919 316.992 83.8551 316.746 84.1847 316.568C84.5142 316.39 84.8778 316.258 85.2756 316.17C85.6771 316.08 86.0805 316.008 86.4858 315.955C87.0161 315.886 87.446 315.835 87.7756 315.801C88.1089 315.763 88.3513 315.701 88.5028 315.614C88.6581 315.527 88.7358 315.375 88.7358 315.159V315.114C88.7358 314.553 88.5824 314.117 88.2756 313.807C87.9725 313.496 87.5123 313.341 86.8949 313.341C86.2547 313.341 85.7528 313.481 85.3892 313.761C85.0256 314.042 84.7699 314.341 84.6222 314.659L83.3494 314.205C83.5767 313.674 83.8797 313.261 84.2585 312.966C84.6411 312.667 85.0578 312.458 85.5085 312.341C85.9631 312.22 86.41 312.159 86.8494 312.159C87.1297 312.159 87.4517 312.193 87.8153 312.261C88.1828 312.326 88.5369 312.46 88.8778 312.665C89.2225 312.869 89.5085 313.178 89.7358 313.591C89.9631 314.004 90.0767 314.557 90.0767 315.25V321H88.7358V319.818H88.6676C88.5767 320.008 88.4252 320.21 88.2131 320.426C88.0009 320.642 87.7188 320.826 87.3665 320.977C87.0142 321.129 86.5843 321.205 86.0767 321.205ZM86.2812 320C86.8116 320 87.2585 319.896 87.6222 319.688C87.9896 319.479 88.2661 319.21 88.4517 318.881C88.6411 318.551 88.7358 318.205 88.7358 317.841V316.614C88.679 316.682 88.554 316.744 88.3608 316.801C88.1714 316.854 87.9517 316.902 87.7017 316.943C87.4555 316.981 87.215 317.015 86.9801 317.045C86.7491 317.072 86.5616 317.095 86.4176 317.114C86.0691 317.159 85.7434 317.233 85.4403 317.335C85.1411 317.434 84.8987 317.583 84.7131 317.784C84.5313 317.981 84.4403 318.25 84.4403 318.591C84.4403 319.057 84.6127 319.409 84.9574 319.648C85.3059 319.883 85.7472 320 86.2812 320ZM92.5241 321V312.273H93.8196V313.636H93.9332C94.1151 313.17 94.4086 312.809 94.8139 312.551C95.2192 312.29 95.706 312.159 96.2741 312.159C96.8499 312.159 97.3291 312.29 97.7116 312.551C98.098 312.809 98.3991 313.17 98.6151 313.636H98.706C98.9295 313.186 99.2647 312.828 99.7116 312.562C100.159 312.294 100.695 312.159 101.32 312.159C102.1 312.159 102.738 312.403 103.234 312.892C103.731 313.377 103.979 314.133 103.979 315.159V321H102.638V315.159C102.638 314.515 102.462 314.055 102.109 313.778C101.757 313.502 101.342 313.364 100.865 313.364C100.251 313.364 99.776 313.549 99.4389 313.92C99.1018 314.288 98.9332 314.754 98.9332 315.318V321H97.5696V315.023C97.5696 314.527 97.4086 314.127 97.0866 313.824C96.7647 313.517 96.3499 313.364 95.8423 313.364C95.4938 313.364 95.1681 313.456 94.8651 313.642C94.5658 313.828 94.3234 314.085 94.1378 314.415C93.956 314.741 93.8651 315.117 93.8651 315.545V321H92.5241ZM114.589 321.182C113.749 321.182 113.023 320.996 112.413 320.625C111.807 320.25 111.339 319.727 111.01 319.057C110.684 318.383 110.521 317.598 110.521 316.705C110.521 315.811 110.684 315.023 111.01 314.341C111.339 313.655 111.798 313.121 112.385 312.739C112.976 312.352 113.665 312.159 114.453 312.159C114.908 312.159 115.357 312.235 115.8 312.386C116.243 312.538 116.646 312.784 117.01 313.125C117.374 313.462 117.663 313.909 117.879 314.466C118.095 315.023 118.203 315.708 118.203 316.523V317.091H111.476V315.932H116.839C116.839 315.439 116.741 315 116.544 314.614C116.351 314.227 116.074 313.922 115.714 313.699C115.358 313.475 114.938 313.364 114.453 313.364C113.919 313.364 113.457 313.496 113.067 313.761C112.68 314.023 112.383 314.364 112.175 314.784C111.966 315.205 111.862 315.655 111.862 316.136V316.909C111.862 317.568 111.976 318.127 112.203 318.585C112.434 319.04 112.754 319.386 113.163 319.625C113.572 319.86 114.048 319.977 114.589 319.977C114.942 319.977 115.26 319.928 115.544 319.83C115.832 319.727 116.08 319.576 116.288 319.375C116.497 319.17 116.658 318.917 116.771 318.614L118.067 318.977C117.93 319.417 117.701 319.803 117.379 320.136C117.057 320.466 116.66 320.723 116.186 320.909C115.713 321.091 115.18 321.182 114.589 321.182ZM120.243 321V312.273H121.538V313.636H121.652C121.834 313.17 122.127 312.809 122.533 312.551C122.938 312.29 123.425 312.159 123.993 312.159C124.569 312.159 125.048 312.29 125.43 312.551C125.817 312.809 126.118 313.17 126.334 313.636H126.425C126.648 313.186 126.983 312.828 127.43 312.562C127.877 312.294 128.413 312.159 129.038 312.159C129.819 312.159 130.457 312.403 130.953 312.892C131.449 313.377 131.697 314.133 131.697 315.159V321H130.357V315.159C130.357 314.515 130.18 314.055 129.828 313.778C129.476 313.502 129.061 313.364 128.584 313.364C127.97 313.364 127.495 313.549 127.158 313.92C126.821 314.288 126.652 314.754 126.652 315.318V321H125.288V315.023C125.288 314.527 125.127 314.127 124.805 313.824C124.483 313.517 124.069 313.364 123.561 313.364C123.213 313.364 122.887 313.456 122.584 313.642C122.285 313.828 122.042 314.085 121.857 314.415C121.675 314.741 121.584 315.117 121.584 315.545V321H120.243ZM134.149 324.273V312.273H135.445V313.659H135.604C135.702 313.508 135.839 313.314 136.013 313.08C136.191 312.841 136.445 312.629 136.774 312.443C137.107 312.254 137.558 312.159 138.126 312.159C138.861 312.159 139.509 312.343 140.07 312.71C140.63 313.078 141.068 313.598 141.382 314.273C141.696 314.947 141.854 315.742 141.854 316.659C141.854 317.583 141.696 318.384 141.382 319.062C141.068 319.737 140.632 320.259 140.075 320.631C139.518 320.998 138.876 321.182 138.149 321.182C137.589 321.182 137.14 321.089 136.803 320.903C136.465 320.714 136.206 320.5 136.024 320.261C135.842 320.019 135.702 319.818 135.604 319.659H135.49V324.273H134.149ZM135.467 316.636C135.467 317.295 135.564 317.877 135.757 318.381C135.95 318.881 136.232 319.273 136.604 319.557C136.975 319.837 137.429 319.977 137.967 319.977C138.528 319.977 138.996 319.83 139.371 319.534C139.75 319.235 140.034 318.833 140.223 318.33C140.416 317.822 140.513 317.258 140.513 316.636C140.513 316.023 140.418 315.47 140.229 314.977C140.043 314.481 139.761 314.089 139.382 313.801C139.007 313.509 138.536 313.364 137.967 313.364C137.422 313.364 136.964 313.502 136.592 313.778C136.221 314.051 135.941 314.434 135.751 314.926C135.562 315.415 135.467 315.985 135.467 316.636ZM143.899 321V312.273H145.195V313.591H145.286C145.445 313.159 145.732 312.809 146.149 312.54C146.566 312.271 147.036 312.136 147.558 312.136C147.657 312.136 147.78 312.138 147.928 312.142C148.075 312.146 148.187 312.152 148.263 312.159V313.523C148.217 313.511 148.113 313.494 147.95 313.472C147.791 313.445 147.623 313.432 147.445 313.432C147.02 313.432 146.642 313.521 146.308 313.699C145.979 313.873 145.717 314.116 145.524 314.426C145.335 314.733 145.24 315.083 145.24 315.477V321H143.899ZM153.246 321.182C152.405 321.182 151.679 320.996 151.07 320.625C150.464 320.25 149.996 319.727 149.666 319.057C149.34 318.383 149.178 317.598 149.178 316.705C149.178 315.811 149.34 315.023 149.666 314.341C149.996 313.655 150.454 313.121 151.041 312.739C151.632 312.352 152.321 312.159 153.109 312.159C153.564 312.159 154.013 312.235 154.456 312.386C154.899 312.538 155.303 312.784 155.666 313.125C156.03 313.462 156.32 313.909 156.536 314.466C156.751 315.023 156.859 315.708 156.859 316.523V317.091H150.132V315.932H155.496C155.496 315.439 155.397 315 155.2 314.614C155.007 314.227 154.731 313.922 154.371 313.699C154.015 313.475 153.594 313.364 153.109 313.364C152.575 313.364 152.113 313.496 151.723 313.761C151.337 314.023 151.039 314.364 150.831 314.784C150.623 315.205 150.518 315.655 150.518 316.136V316.909C150.518 317.568 150.632 318.127 150.859 318.585C151.09 319.04 151.411 319.386 151.82 319.625C152.229 319.86 152.704 319.977 153.246 319.977C153.598 319.977 153.916 319.928 154.2 319.83C154.488 319.727 154.736 319.576 154.945 319.375C155.153 319.17 155.314 318.917 155.428 318.614L156.723 318.977C156.587 319.417 156.357 319.803 156.036 320.136C155.714 320.466 155.316 320.723 154.842 320.909C154.369 321.091 153.837 321.182 153.246 321.182ZM162.422 324.455C161.774 324.455 161.217 324.371 160.751 324.205C160.286 324.042 159.897 323.826 159.587 323.557C159.28 323.292 159.036 323.008 158.854 322.705L159.922 321.955C160.043 322.114 160.196 322.295 160.382 322.5C160.568 322.708 160.821 322.888 161.143 323.04C161.469 323.195 161.895 323.273 162.422 323.273C163.126 323.273 163.708 323.102 164.166 322.761C164.625 322.42 164.854 321.886 164.854 321.159V319.386H164.74C164.642 319.545 164.501 319.742 164.32 319.977C164.142 320.208 163.884 320.415 163.547 320.597C163.214 320.775 162.763 320.864 162.195 320.864C161.49 320.864 160.857 320.697 160.297 320.364C159.74 320.03 159.299 319.545 158.973 318.909C158.651 318.273 158.49 317.5 158.49 316.591C158.49 315.697 158.647 314.919 158.962 314.256C159.276 313.589 159.714 313.074 160.274 312.71C160.835 312.343 161.482 312.159 162.217 312.159C162.786 312.159 163.236 312.254 163.57 312.443C163.907 312.629 164.164 312.841 164.342 313.08C164.524 313.314 164.664 313.508 164.763 313.659H164.899V312.273H166.195V321.25C166.195 322 166.024 322.61 165.683 323.08C165.346 323.553 164.892 323.9 164.32 324.119C163.751 324.343 163.119 324.455 162.422 324.455ZM162.376 319.659C162.914 319.659 163.369 319.536 163.74 319.29C164.111 319.044 164.393 318.689 164.587 318.227C164.78 317.765 164.876 317.212 164.876 316.568C164.876 315.939 164.782 315.384 164.592 314.903C164.403 314.422 164.123 314.045 163.751 313.773C163.38 313.5 162.922 313.364 162.376 313.364C161.808 313.364 161.335 313.508 160.956 313.795C160.581 314.083 160.299 314.47 160.109 314.955C159.924 315.439 159.831 315.977 159.831 316.568C159.831 317.174 159.926 317.71 160.115 318.176C160.308 318.638 160.592 319.002 160.967 319.267C161.346 319.528 161.816 319.659 162.376 319.659ZM172.195 321.182C171.407 321.182 170.715 320.994 170.121 320.619C169.53 320.244 169.068 319.72 168.734 319.045C168.405 318.371 168.24 317.583 168.24 316.682C168.24 315.773 168.405 314.979 168.734 314.301C169.068 313.623 169.53 313.097 170.121 312.722C170.715 312.347 171.407 312.159 172.195 312.159C172.982 312.159 173.672 312.347 174.263 312.722C174.857 313.097 175.32 313.623 175.649 314.301C175.982 314.979 176.149 315.773 176.149 316.682C176.149 317.583 175.982 318.371 175.649 319.045C175.32 319.72 174.857 320.244 174.263 320.619C173.672 320.994 172.982 321.182 172.195 321.182ZM172.195 319.977C172.793 319.977 173.286 319.824 173.672 319.517C174.058 319.21 174.344 318.807 174.53 318.307C174.715 317.807 174.808 317.265 174.808 316.682C174.808 316.098 174.715 315.555 174.53 315.051C174.344 314.547 174.058 314.14 173.672 313.83C173.286 313.519 172.793 313.364 172.195 313.364C171.596 313.364 171.104 313.519 170.717 313.83C170.331 314.14 170.045 314.547 169.859 315.051C169.674 315.555 169.581 316.098 169.581 316.682C169.581 317.265 169.674 317.807 169.859 318.307C170.045 318.807 170.331 319.21 170.717 319.517C171.104 319.824 171.596 319.977 172.195 319.977ZM186.241 321.182C185.423 321.182 184.719 320.989 184.128 320.602C183.537 320.216 183.082 319.684 182.764 319.006C182.446 318.328 182.287 317.553 182.287 316.682C182.287 315.795 182.45 315.013 182.776 314.335C183.105 313.653 183.563 313.121 184.151 312.739C184.741 312.352 185.431 312.159 186.219 312.159C186.832 312.159 187.385 312.273 187.878 312.5C188.37 312.727 188.774 313.045 189.088 313.455C189.402 313.864 189.598 314.341 189.673 314.886H188.332C188.23 314.489 188.003 314.136 187.651 313.83C187.302 313.519 186.832 313.364 186.241 313.364C185.719 313.364 185.26 313.5 184.866 313.773C184.476 314.042 184.171 314.422 183.952 314.915C183.736 315.403 183.628 315.977 183.628 316.636C183.628 317.311 183.734 317.898 183.946 318.398C184.162 318.898 184.465 319.286 184.855 319.562C185.249 319.839 185.711 319.977 186.241 319.977C186.59 319.977 186.906 319.917 187.19 319.795C187.474 319.674 187.715 319.5 187.912 319.273C188.109 319.045 188.249 318.773 188.332 318.455H189.673C189.598 318.97 189.41 319.434 189.111 319.847C188.815 320.256 188.423 320.581 187.935 320.824C187.45 321.062 186.885 321.182 186.241 321.182ZM191.634 321V312.273H192.974V321H191.634ZM192.315 310.818C192.054 310.818 191.829 310.729 191.639 310.551C191.454 310.373 191.361 310.159 191.361 309.909C191.361 309.659 191.454 309.445 191.639 309.267C191.829 309.089 192.054 309 192.315 309C192.577 309 192.8 309.089 192.986 309.267C193.175 309.445 193.27 309.659 193.27 309.909C193.27 310.159 193.175 310.373 192.986 310.551C192.8 310.729 192.577 310.818 192.315 310.818ZM196.771 315.75V321H195.43V312.273H196.726V313.636H196.839C197.044 313.193 197.355 312.837 197.771 312.568C198.188 312.295 198.726 312.159 199.385 312.159C199.976 312.159 200.493 312.28 200.936 312.523C201.379 312.761 201.724 313.125 201.97 313.614C202.216 314.098 202.339 314.712 202.339 315.455V321H200.999V315.545C200.999 314.86 200.821 314.326 200.464 313.943C200.108 313.557 199.62 313.364 198.999 313.364C198.571 313.364 198.188 313.456 197.851 313.642C197.518 313.828 197.254 314.098 197.061 314.455C196.868 314.811 196.771 315.242 196.771 315.75ZM208.335 321.182C207.517 321.182 206.813 320.989 206.222 320.602C205.631 320.216 205.176 319.684 204.858 319.006C204.54 318.328 204.381 317.553 204.381 316.682C204.381 315.795 204.544 315.013 204.869 314.335C205.199 313.653 205.657 313.121 206.244 312.739C206.835 312.352 207.525 312.159 208.312 312.159C208.926 312.159 209.479 312.273 209.972 312.5C210.464 312.727 210.867 313.045 211.182 313.455C211.496 313.864 211.691 314.341 211.767 314.886H210.426C210.324 314.489 210.097 314.136 209.744 313.83C209.396 313.519 208.926 313.364 208.335 313.364C207.813 313.364 207.354 313.5 206.96 313.773C206.57 314.042 206.265 314.422 206.045 314.915C205.83 315.403 205.722 315.977 205.722 316.636C205.722 317.311 205.828 317.898 206.04 318.398C206.256 318.898 206.559 319.286 206.949 319.562C207.343 319.839 207.805 319.977 208.335 319.977C208.684 319.977 209 319.917 209.284 319.795C209.568 319.674 209.809 319.5 210.006 319.273C210.203 319.045 210.343 318.773 210.426 318.455H211.767C211.691 318.97 211.504 319.434 211.205 319.847C210.909 320.256 210.517 320.581 210.028 320.824C209.544 321.062 208.979 321.182 208.335 321.182ZM217.273 321.182C216.485 321.182 215.794 320.994 215.199 320.619C214.608 320.244 214.146 319.72 213.812 319.045C213.483 318.371 213.318 317.583 213.318 316.682C213.318 315.773 213.483 314.979 213.812 314.301C214.146 313.623 214.608 313.097 215.199 312.722C215.794 312.347 216.485 312.159 217.273 312.159C218.061 312.159 218.75 312.347 219.341 312.722C219.936 313.097 220.398 313.623 220.727 314.301C221.061 314.979 221.227 315.773 221.227 316.682C221.227 317.583 221.061 318.371 220.727 319.045C220.398 319.72 219.936 320.244 219.341 320.619C218.75 320.994 218.061 321.182 217.273 321.182ZM217.273 319.977C217.871 319.977 218.364 319.824 218.75 319.517C219.136 319.21 219.422 318.807 219.608 318.307C219.794 317.807 219.886 317.265 219.886 316.682C219.886 316.098 219.794 315.555 219.608 315.051C219.422 314.547 219.136 314.14 218.75 313.83C218.364 313.519 217.871 313.364 217.273 313.364C216.674 313.364 216.182 313.519 215.795 313.83C215.409 314.14 215.123 314.547 214.938 315.051C214.752 315.555 214.659 316.098 214.659 316.682C214.659 317.265 214.752 317.807 214.938 318.307C215.123 318.807 215.409 319.21 215.795 319.517C216.182 319.824 216.674 319.977 217.273 319.977ZM234.911 312.273L231.683 321H230.32L227.092 312.273H228.547L230.956 319.227H231.047L233.456 312.273H234.911ZM240.027 321.182C239.186 321.182 238.461 320.996 237.851 320.625C237.245 320.25 236.777 319.727 236.447 319.057C236.122 318.383 235.959 317.598 235.959 316.705C235.959 315.811 236.122 315.023 236.447 314.341C236.777 313.655 237.235 313.121 237.822 312.739C238.413 312.352 239.103 312.159 239.891 312.159C240.345 312.159 240.794 312.235 241.237 312.386C241.68 312.538 242.084 312.784 242.447 313.125C242.811 313.462 243.101 313.909 243.317 314.466C243.533 315.023 243.641 315.708 243.641 316.523V317.091H236.913V315.932H242.277C242.277 315.439 242.179 315 241.982 314.614C241.788 314.227 241.512 313.922 241.152 313.699C240.796 313.475 240.375 313.364 239.891 313.364C239.357 313.364 238.894 313.496 238.504 313.761C238.118 314.023 237.821 314.364 237.612 314.784C237.404 315.205 237.3 315.655 237.3 316.136V316.909C237.3 317.568 237.413 318.127 237.641 318.585C237.872 319.04 238.192 319.386 238.601 319.625C239.01 319.86 239.485 319.977 240.027 319.977C240.379 319.977 240.697 319.928 240.982 319.83C241.269 319.727 241.518 319.576 241.726 319.375C241.934 319.17 242.095 318.917 242.209 318.614L243.504 318.977C243.368 319.417 243.139 319.803 242.817 320.136C242.495 320.466 242.097 320.723 241.624 320.909C241.15 321.091 240.618 321.182 240.027 321.182ZM245.43 321V319.977L250.385 313.614V313.523H245.589V312.273H252.112V313.341L247.294 319.659V319.75H252.271V321H245.43ZM257.746 321.182C256.905 321.182 256.179 320.996 255.57 320.625C254.964 320.25 254.496 319.727 254.166 319.057C253.84 318.383 253.678 317.598 253.678 316.705C253.678 315.811 253.84 315.023 254.166 314.341C254.496 313.655 254.954 313.121 255.541 312.739C256.132 312.352 256.821 312.159 257.609 312.159C258.064 312.159 258.513 312.235 258.956 312.386C259.399 312.538 259.803 312.784 260.166 313.125C260.53 313.462 260.82 313.909 261.036 314.466C261.251 315.023 261.359 315.708 261.359 316.523V317.091H254.632V315.932H259.996C259.996 315.439 259.897 315 259.7 314.614C259.507 314.227 259.231 313.922 258.871 313.699C258.515 313.475 258.094 313.364 257.609 313.364C257.075 313.364 256.613 313.496 256.223 313.761C255.837 314.023 255.539 314.364 255.331 314.784C255.123 315.205 255.018 315.655 255.018 316.136V316.909C255.018 317.568 255.132 318.127 255.359 318.585C255.59 319.04 255.911 319.386 256.32 319.625C256.729 319.86 257.204 319.977 257.746 319.977C258.098 319.977 258.416 319.928 258.7 319.83C258.988 319.727 259.236 319.576 259.445 319.375C259.653 319.17 259.814 318.917 259.928 318.614L261.223 318.977C261.087 319.417 260.857 319.803 260.536 320.136C260.214 320.466 259.816 320.723 259.342 320.909C258.869 321.091 258.337 321.182 257.746 321.182ZM269.581 314.227L268.376 314.568C268.301 314.367 268.189 314.172 268.041 313.983C267.897 313.79 267.7 313.631 267.45 313.506C267.2 313.381 266.88 313.318 266.49 313.318C265.956 313.318 265.511 313.441 265.155 313.688C264.803 313.93 264.626 314.239 264.626 314.614C264.626 314.947 264.748 315.21 264.99 315.403C265.232 315.597 265.611 315.758 266.126 315.886L267.422 316.205C268.202 316.394 268.784 316.684 269.166 317.074C269.549 317.46 269.74 317.958 269.74 318.568C269.74 319.068 269.596 319.515 269.308 319.909C269.024 320.303 268.626 320.614 268.115 320.841C267.604 321.068 267.009 321.182 266.331 321.182C265.441 321.182 264.704 320.989 264.121 320.602C263.537 320.216 263.168 319.652 263.013 318.909L264.286 318.591C264.407 319.061 264.636 319.413 264.973 319.648C265.314 319.883 265.759 320 266.308 320C266.933 320 267.429 319.867 267.797 319.602C268.168 319.333 268.354 319.011 268.354 318.636C268.354 318.333 268.248 318.08 268.036 317.875C267.823 317.667 267.498 317.511 267.058 317.409L265.604 317.068C264.804 316.879 264.217 316.585 263.842 316.188C263.471 315.786 263.286 315.284 263.286 314.682C263.286 314.189 263.424 313.754 263.7 313.375C263.981 312.996 264.361 312.699 264.842 312.483C265.327 312.267 265.876 312.159 266.49 312.159C267.354 312.159 268.032 312.348 268.524 312.727C269.02 313.106 269.373 313.606 269.581 314.227ZM25.2273 347V338.273H26.5227V339.636H26.6364C26.8182 339.17 27.1117 338.809 27.517 338.551C27.9223 338.29 28.4091 338.159 28.9773 338.159C29.553 338.159 30.0322 338.29 30.4148 338.551C30.8011 338.809 31.1023 339.17 31.3182 339.636H31.4091C31.6326 339.186 31.9678 338.828 32.4148 338.562C32.8617 338.294 33.3977 338.159 34.0227 338.159C34.803 338.159 35.4413 338.403 35.9375 338.892C36.4337 339.377 36.6818 340.133 36.6818 341.159V347H35.3409V341.159C35.3409 340.515 35.1648 340.055 34.8125 339.778C34.4602 339.502 34.0455 339.364 33.5682 339.364C32.9545 339.364 32.4792 339.549 32.142 339.92C31.8049 340.288 31.6364 340.754 31.6364 341.318V347H30.2727V341.023C30.2727 340.527 30.1117 340.127 29.7898 339.824C29.4678 339.517 29.053 339.364 28.5455 339.364C28.197 339.364 27.8712 339.456 27.5682 339.642C27.2689 339.828 27.0265 340.085 26.8409 340.415C26.6591 340.741 26.5682 341.117 26.5682 341.545V347H25.2273ZM41.7017 347.205C41.1487 347.205 40.6468 347.1 40.196 346.892C39.7453 346.68 39.3873 346.375 39.1222 345.977C38.857 345.576 38.7244 345.091 38.7244 344.523C38.7244 344.023 38.8229 343.617 39.0199 343.307C39.2169 342.992 39.4801 342.746 39.8097 342.568C40.1392 342.39 40.5028 342.258 40.9006 342.17C41.3021 342.08 41.7055 342.008 42.1108 341.955C42.6411 341.886 43.071 341.835 43.4006 341.801C43.7339 341.763 43.9763 341.701 44.1278 341.614C44.2831 341.527 44.3608 341.375 44.3608 341.159V341.114C44.3608 340.553 44.2074 340.117 43.9006 339.807C43.5975 339.496 43.1373 339.341 42.5199 339.341C41.8797 339.341 41.3778 339.481 41.0142 339.761C40.6506 340.042 40.3949 340.341 40.2472 340.659L38.9744 340.205C39.2017 339.674 39.5047 339.261 39.8835 338.966C40.2661 338.667 40.6828 338.458 41.1335 338.341C41.5881 338.22 42.035 338.159 42.4744 338.159C42.7547 338.159 43.0767 338.193 43.4403 338.261C43.8078 338.326 44.1619 338.46 44.5028 338.665C44.8475 338.869 45.1335 339.178 45.3608 339.591C45.5881 340.004 45.7017 340.557 45.7017 341.25V347H44.3608V345.818H44.2926C44.2017 346.008 44.0502 346.21 43.8381 346.426C43.6259 346.642 43.3438 346.826 42.9915 346.977C42.6392 347.129 42.2093 347.205 41.7017 347.205ZM41.9062 346C42.4366 346 42.8835 345.896 43.2472 345.688C43.6146 345.479 43.8911 345.21 44.0767 344.881C44.2661 344.551 44.3608 344.205 44.3608 343.841V342.614C44.304 342.682 44.179 342.744 43.9858 342.801C43.7964 342.854 43.5767 342.902 43.3267 342.943C43.0805 342.981 42.84 343.015 42.6051 343.045C42.3741 343.072 42.1866 343.095 42.0426 343.114C41.6941 343.159 41.3684 343.233 41.0653 343.335C40.7661 343.434 40.5237 343.583 40.3381 343.784C40.1563 343.981 40.0653 344.25 40.0653 344.591C40.0653 345.057 40.2377 345.409 40.5824 345.648C40.9309 345.883 41.3722 346 41.9062 346ZM48.1491 347V338.273H49.4901V347H48.1491ZM48.831 336.818C48.5696 336.818 48.3442 336.729 48.1548 336.551C47.9692 336.373 47.8764 336.159 47.8764 335.909C47.8764 335.659 47.9692 335.445 48.1548 335.267C48.3442 335.089 48.5696 335 48.831 335C49.0923 335 49.3158 335.089 49.5014 335.267C49.6908 335.445 49.7855 335.659 49.7855 335.909C49.7855 336.159 49.6908 336.373 49.5014 336.551C49.3158 336.729 49.0923 336.818 48.831 336.818ZM58.1278 340.227L56.9233 340.568C56.8475 340.367 56.7358 340.172 56.5881 339.983C56.4441 339.79 56.2472 339.631 55.9972 339.506C55.7472 339.381 55.4271 339.318 55.0369 339.318C54.5028 339.318 54.0578 339.441 53.7017 339.688C53.3494 339.93 53.1733 340.239 53.1733 340.614C53.1733 340.947 53.2945 341.21 53.5369 341.403C53.7794 341.597 54.1581 341.758 54.6733 341.886L55.9688 342.205C56.7491 342.394 57.3305 342.684 57.7131 343.074C58.0956 343.46 58.2869 343.958 58.2869 344.568C58.2869 345.068 58.143 345.515 57.8551 345.909C57.571 346.303 57.1733 346.614 56.6619 346.841C56.1506 347.068 55.5559 347.182 54.8778 347.182C53.9877 347.182 53.2509 346.989 52.6676 346.602C52.0843 346.216 51.715 345.652 51.5597 344.909L52.8324 344.591C52.9536 345.061 53.1828 345.413 53.5199 345.648C53.8608 345.883 54.3059 346 54.8551 346C55.4801 346 55.9763 345.867 56.3438 345.602C56.715 345.333 56.9006 345.011 56.9006 344.636C56.9006 344.333 56.7945 344.08 56.5824 343.875C56.3703 343.667 56.0445 343.511 55.6051 343.409L54.1506 343.068C53.3513 342.879 52.7642 342.585 52.3892 342.188C52.018 341.786 51.8324 341.284 51.8324 340.682C51.8324 340.189 51.9706 339.754 52.2472 339.375C52.5275 338.996 52.9081 338.699 53.3892 338.483C53.8741 338.267 54.4233 338.159 55.0369 338.159C55.9006 338.159 56.5786 338.348 57.071 338.727C57.5672 339.106 57.9195 339.606 58.1278 340.227ZM64.8054 347V338.273H66.1009V339.591H66.1918C66.3509 339.159 66.6387 338.809 67.0554 338.54C67.4721 338.271 67.9418 338.136 68.4645 338.136C68.563 338.136 68.6861 338.138 68.8338 338.142C68.9815 338.146 69.0933 338.152 69.169 338.159V339.523C69.1236 339.511 69.0194 339.494 68.8565 339.472C68.6974 339.445 68.5289 339.432 68.3509 339.432C67.9266 339.432 67.5478 339.521 67.2145 339.699C66.8849 339.873 66.6236 340.116 66.4304 340.426C66.241 340.733 66.1463 341.083 66.1463 341.477V347H64.8054ZM73.3267 347.205C72.7737 347.205 72.2718 347.1 71.821 346.892C71.3703 346.68 71.0123 346.375 70.7472 345.977C70.482 345.576 70.3494 345.091 70.3494 344.523C70.3494 344.023 70.4479 343.617 70.6449 343.307C70.8419 342.992 71.1051 342.746 71.4347 342.568C71.7642 342.39 72.1278 342.258 72.5256 342.17C72.9271 342.08 73.3305 342.008 73.7358 341.955C74.2661 341.886 74.696 341.835 75.0256 341.801C75.3589 341.763 75.6013 341.701 75.7528 341.614C75.9081 341.527 75.9858 341.375 75.9858 341.159V341.114C75.9858 340.553 75.8324 340.117 75.5256 339.807C75.2225 339.496 74.7623 339.341 74.1449 339.341C73.5047 339.341 73.0028 339.481 72.6392 339.761C72.2756 340.042 72.0199 340.341 71.8722 340.659L70.5994 340.205C70.8267 339.674 71.1297 339.261 71.5085 338.966C71.8911 338.667 72.3078 338.458 72.7585 338.341C73.2131 338.22 73.66 338.159 74.0994 338.159C74.3797 338.159 74.7017 338.193 75.0653 338.261C75.4328 338.326 75.7869 338.46 76.1278 338.665C76.4725 338.869 76.7585 339.178 76.9858 339.591C77.2131 340.004 77.3267 340.557 77.3267 341.25V347H75.9858V345.818H75.9176C75.8267 346.008 75.6752 346.21 75.4631 346.426C75.2509 346.642 74.9688 346.826 74.6165 346.977C74.2642 347.129 73.8343 347.205 73.3267 347.205ZM73.5312 346C74.0616 346 74.5085 345.896 74.8722 345.688C75.2396 345.479 75.5161 345.21 75.7017 344.881C75.8911 344.551 75.9858 344.205 75.9858 343.841V342.614C75.929 342.682 75.804 342.744 75.6108 342.801C75.4214 342.854 75.2017 342.902 74.9517 342.943C74.7055 342.981 74.465 343.015 74.2301 343.045C73.9991 343.072 73.8116 343.095 73.6676 343.114C73.3191 343.159 72.9934 343.233 72.6903 343.335C72.3911 343.434 72.1487 343.583 71.9631 343.784C71.7813 343.981 71.6903 344.25 71.6903 344.591C71.6903 345.057 71.8627 345.409 72.2074 345.648C72.5559 345.883 72.9972 346 73.5312 346ZM73.5767 337.091L74.9631 334.455H76.5312L74.7585 337.091H73.5767ZM79.7741 350.273V338.273H81.0696V339.659H81.2287C81.3272 339.508 81.4635 339.314 81.6378 339.08C81.8158 338.841 82.0696 338.629 82.3991 338.443C82.7325 338.254 83.1832 338.159 83.7514 338.159C84.4863 338.159 85.134 338.343 85.6946 338.71C86.2552 339.078 86.6927 339.598 87.0071 340.273C87.3215 340.947 87.4787 341.742 87.4787 342.659C87.4787 343.583 87.3215 344.384 87.0071 345.062C86.6927 345.737 86.2571 346.259 85.7003 346.631C85.1435 346.998 84.5014 347.182 83.7741 347.182C83.2135 347.182 82.7647 347.089 82.4276 346.903C82.0904 346.714 81.831 346.5 81.6491 346.261C81.4673 346.019 81.3272 345.818 81.2287 345.659H81.1151V350.273H79.7741ZM81.0923 342.636C81.0923 343.295 81.1889 343.877 81.3821 344.381C81.5753 344.881 81.8575 345.273 82.2287 345.557C82.5999 345.837 83.0545 345.977 83.5923 345.977C84.1529 345.977 84.6207 345.83 84.9957 345.534C85.3745 345.235 85.6586 344.833 85.848 344.33C86.0412 343.822 86.1378 343.258 86.1378 342.636C86.1378 342.023 86.0431 341.47 85.8537 340.977C85.6681 340.481 85.3859 340.089 85.0071 339.801C84.6321 339.509 84.1605 339.364 83.5923 339.364C83.0469 339.364 82.5885 339.502 82.2173 339.778C81.8461 340.051 81.5658 340.434 81.3764 340.926C81.187 341.415 81.0923 341.985 81.0923 342.636ZM89.5241 347V338.273H90.8651V347H89.5241ZM90.206 336.818C89.9446 336.818 89.7192 336.729 89.5298 336.551C89.3442 336.373 89.2514 336.159 89.2514 335.909C89.2514 335.659 89.3442 335.445 89.5298 335.267C89.7192 335.089 89.9446 335 90.206 335C90.4673 335 90.6908 335.089 90.8764 335.267C91.0658 335.445 91.1605 335.659 91.1605 335.909C91.1605 336.159 91.0658 336.373 90.8764 336.551C90.6908 336.729 90.4673 336.818 90.206 336.818ZM96.6165 347.182C95.8892 347.182 95.2472 346.998 94.6903 346.631C94.1335 346.259 93.6979 345.737 93.3835 345.062C93.0691 344.384 92.9119 343.583 92.9119 342.659C92.9119 341.742 93.0691 340.947 93.3835 340.273C93.6979 339.598 94.1354 339.078 94.696 338.71C95.2566 338.343 95.9044 338.159 96.6392 338.159C97.2074 338.159 97.6563 338.254 97.9858 338.443C98.3191 338.629 98.5729 338.841 98.7472 339.08C98.9252 339.314 99.0634 339.508 99.1619 339.659H99.2756V335.364H100.616V347H99.321V345.659H99.1619C99.0634 345.818 98.9233 346.019 98.7415 346.261C98.5597 346.5 98.3002 346.714 97.9631 346.903C97.6259 347.089 97.1771 347.182 96.6165 347.182ZM96.7983 345.977C97.3362 345.977 97.7907 345.837 98.1619 345.557C98.5331 345.273 98.8153 344.881 99.0085 344.381C99.2017 343.877 99.2983 343.295 99.2983 342.636C99.2983 341.985 99.2036 341.415 99.0142 340.926C98.8248 340.434 98.5445 340.051 98.1733 339.778C97.8021 339.502 97.3438 339.364 96.7983 339.364C96.2301 339.364 95.7566 339.509 95.3778 339.801C95.0028 340.089 94.7206 340.481 94.5312 340.977C94.3456 341.47 94.2528 342.023 94.2528 342.636C94.2528 343.258 94.3475 343.822 94.5369 344.33C94.7301 344.833 95.0142 345.235 95.3892 345.534C95.768 345.83 96.2377 345.977 96.7983 345.977ZM106.804 347.182C106.016 347.182 105.325 346.994 104.73 346.619C104.139 346.244 103.677 345.72 103.344 345.045C103.014 344.371 102.849 343.583 102.849 342.682C102.849 341.773 103.014 340.979 103.344 340.301C103.677 339.623 104.139 339.097 104.73 338.722C105.325 338.347 106.016 338.159 106.804 338.159C107.592 338.159 108.281 338.347 108.872 338.722C109.467 339.097 109.929 339.623 110.259 340.301C110.592 340.979 110.759 341.773 110.759 342.682C110.759 343.583 110.592 344.371 110.259 345.045C109.929 345.72 109.467 346.244 108.872 346.619C108.281 346.994 107.592 347.182 106.804 347.182ZM106.804 345.977C107.402 345.977 107.895 345.824 108.281 345.517C108.668 345.21 108.954 344.807 109.139 344.307C109.325 343.807 109.418 343.265 109.418 342.682C109.418 342.098 109.325 341.555 109.139 341.051C108.954 340.547 108.668 340.14 108.281 339.83C107.895 339.519 107.402 339.364 106.804 339.364C106.205 339.364 105.713 339.519 105.327 339.83C104.94 340.14 104.654 340.547 104.469 341.051C104.283 341.555 104.19 342.098 104.19 342.682C104.19 343.265 104.283 343.807 104.469 344.307C104.654 344.807 104.94 345.21 105.327 345.517C105.713 345.824 106.205 345.977 106.804 345.977ZM114.578 335.364L114.464 343.727H113.146L113.033 335.364H114.578ZM113.805 347.091C113.525 347.091 113.285 346.991 113.084 346.79C112.883 346.589 112.783 346.348 112.783 346.068C112.783 345.788 112.883 345.547 113.084 345.347C113.285 345.146 113.525 345.045 113.805 345.045C114.086 345.045 114.326 345.146 114.527 345.347C114.728 345.547 114.828 345.788 114.828 346.068C114.828 346.254 114.781 346.424 114.686 346.58C114.595 346.735 114.472 346.86 114.317 346.955C114.165 347.045 113.995 347.091 113.805 347.091Z" fill="black"/>
<path d="M98.9121 154.533H126.404V212.383H98.9121V154.533Z" fill="#64AAFF"/>
<path d="M140.148 128.058H167.646V212.383H140.148V128.058Z" fill="#64AAFF"/>
<path d="M181.389 95.0508H208.881V212.383H181.389V95.0508Z" fill="#64AAFF"/>
<mask id="mask0_451_211" style="mask-type:luminance" maskUnits="userSpaceOnUse" x="83" y="209" width="140" height="6">
<path d="M83.4 209.173H222.823V214.841H83.4V209.173Z" fill="white"/>
</mask>
<g mask="url(#mask0_451_211)">
<path d="M220.172 214.824H85.9034C84.5528 214.824 83.4565 213.728 83.4565 212.383C83.4565 211.033 84.5528 209.942 85.9034 209.942H220.172C221.523 209.942 222.619 211.033 222.619 212.383C222.619 213.728 221.523 214.824 220.172 214.824Z" fill="#101820"/>
</g>
<mask id="mask1_451_211" style="mask-type:luminance" maskUnits="userSpaceOnUse" x="74" y="63" width="123" height="97">
<path d="M74.1775 63.0601H196.24V159.987H74.1775V63.0601Z" fill="white"/>
</mask>
<g mask="url(#mask1_451_211)">
<path d="M77.0652 158.569C76.5114 158.569 75.9519 158.376 75.4942 157.992C74.46 157.122 74.3301 155.585 75.2003 154.556L95.0807 131.059C95.8662 130.132 97.2111 129.923 98.2396 130.568L108.886 137.208L138.277 102.143C139.04 101.233 140.351 101.007 141.38 101.606L153.354 108.574L190.504 64.473C191.374 63.4445 192.912 63.3089 193.946 64.1792C194.98 65.0438 195.11 66.5809 194.245 67.615L155.767 113.287C154.999 114.197 153.693 114.423 152.665 113.824L140.702 106.856L111.265 141.966C110.48 142.904 109.129 143.113 108.095 142.469L97.4485 135.823L78.9357 157.704C78.4497 158.275 77.7602 158.569 77.0652 158.569Z" fill="#101820"/>
</g>
<mask id="mask2_451_211" style="mask-type:luminance" maskUnits="userSpaceOnUse" x="177" y="49" width="31" height="33">
<path d="M177.433 49.9214H207.813V81.8667H177.433V49.9214Z" fill="white"/>
</mask>
<g mask="url(#mask2_451_211)">
<path d="M206.513 49.9214L196.455 81.1151L191.595 67.6261L177.456 65.1566L206.513 49.9214Z" fill="#101820"/>
</g>
</svg>
