<svg width="310" height="379" viewBox="0 0 310 379" fill="none" xmlns="http://www.w3.org/2000/svg">
<rect width="310" height="379" fill="white"/>
<path d="M27.392 263H24.5966L30.8778 245.545H33.9205L40.2017 263H37.4062L32.4716 248.716H32.3352L27.392 263ZM27.8608 256.165H36.929V258.381H27.8608V256.165ZM50.8104 257.571V249.909H53.3672V263H50.8615V260.733H50.7251C50.424 261.432 49.9411 262.014 49.2763 262.48C48.6172 262.94 47.7962 263.17 46.8132 263.17C45.9723 263.17 45.228 262.986 44.5803 262.616C43.9382 262.241 43.4325 261.688 43.0632 260.955C42.6996 260.222 42.5178 259.315 42.5178 258.236V249.909H45.0661V257.929C45.0661 258.821 45.3132 259.531 45.8075 260.06C46.3018 260.588 46.9439 260.852 47.7337 260.852C48.2109 260.852 48.6854 260.733 49.157 260.494C49.6342 260.256 50.0291 259.895 50.3416 259.412C50.6598 258.929 50.8161 258.315 50.8104 257.571ZM62.902 249.909V251.955H55.7514V249.909H62.902ZM57.669 246.773H60.2173V259.156C60.2173 259.651 60.2912 260.023 60.4389 260.273C60.5866 260.517 60.777 260.685 61.0099 260.776C61.2486 260.861 61.5071 260.903 61.7855 260.903C61.9901 260.903 62.169 260.889 62.3224 260.861C62.4759 260.832 62.5952 260.81 62.6804 260.793L63.1406 262.898C62.9929 262.955 62.7827 263.011 62.5099 263.068C62.2372 263.131 61.8963 263.165 61.4872 263.17C60.8168 263.182 60.1918 263.062 59.6122 262.812C59.0327 262.562 58.5639 262.176 58.206 261.653C57.848 261.131 57.669 260.474 57.669 259.685V246.773ZM71.0945 263.264C69.8672 263.264 68.7962 262.983 67.8814 262.42C66.9666 261.858 66.2564 261.071 65.7507 260.06C65.245 259.048 64.9922 257.866 64.9922 256.514C64.9922 255.156 65.245 253.969 65.7507 252.952C66.2564 251.935 66.9666 251.145 67.8814 250.582C68.7962 250.02 69.8672 249.739 71.0945 249.739C72.3217 249.739 73.3928 250.02 74.3075 250.582C75.2223 251.145 75.9325 251.935 76.4382 252.952C76.9439 253.969 77.1967 255.156 77.1967 256.514C77.1967 257.866 76.9439 259.048 76.4382 260.06C75.9325 261.071 75.2223 261.858 74.3075 262.42C73.3928 262.983 72.3217 263.264 71.0945 263.264ZM71.103 261.125C71.8984 261.125 72.5575 260.915 73.0803 260.494C73.603 260.074 73.9893 259.514 74.2393 258.815C74.495 258.116 74.6229 257.347 74.6229 256.506C74.6229 255.67 74.495 254.903 74.2393 254.205C73.9893 253.5 73.603 252.935 73.0803 252.509C72.5575 252.082 71.8984 251.869 71.103 251.869C70.3018 251.869 69.6371 252.082 69.1087 252.509C68.5859 252.935 68.1967 253.5 67.9411 254.205C67.6911 254.903 67.5661 255.67 67.5661 256.506C67.5661 257.347 67.6911 258.116 67.9411 258.815C68.1967 259.514 68.5859 260.074 69.1087 260.494C69.6371 260.915 70.3018 261.125 71.103 261.125ZM80.0412 263V249.909H82.4872V252.04H82.6491C82.9219 251.318 83.3679 250.756 83.9872 250.352C84.6065 249.943 85.348 249.739 86.2116 249.739C87.0866 249.739 87.8196 249.943 88.4105 250.352C89.0071 250.761 89.4474 251.324 89.7315 252.04H89.8679C90.1804 251.341 90.6776 250.784 91.3594 250.369C92.0412 249.949 92.8537 249.739 93.7969 249.739C94.9844 249.739 95.9531 250.111 96.7031 250.855C97.4588 251.599 97.8366 252.722 97.8366 254.222V263H95.2884V254.46C95.2884 253.574 95.0469 252.932 94.5639 252.534C94.081 252.136 93.5043 251.938 92.8338 251.938C92.0043 251.938 91.3594 252.193 90.8991 252.705C90.4389 253.21 90.2088 253.861 90.2088 254.656V263H87.669V254.298C87.669 253.588 87.4474 253.017 87.0043 252.585C86.5611 252.153 85.9844 251.938 85.2741 251.938C84.7912 251.938 84.3452 252.065 83.9361 252.321C83.5327 252.571 83.206 252.92 82.956 253.369C82.7116 253.818 82.5895 254.338 82.5895 254.929V263H80.0412ZM105.062 263.29C104.232 263.29 103.482 263.136 102.812 262.83C102.141 262.517 101.61 262.065 101.218 261.474C100.832 260.884 100.638 260.159 100.638 259.301C100.638 258.562 100.781 257.955 101.065 257.477C101.349 257 101.732 256.622 102.215 256.344C102.698 256.065 103.238 255.855 103.835 255.713C104.431 255.571 105.039 255.463 105.658 255.389C106.442 255.298 107.079 255.224 107.567 255.168C108.056 255.105 108.411 255.006 108.633 254.869C108.854 254.733 108.965 254.511 108.965 254.205V254.145C108.965 253.401 108.755 252.824 108.335 252.415C107.92 252.006 107.3 251.801 106.477 251.801C105.619 251.801 104.942 251.991 104.448 252.372C103.96 252.747 103.621 253.165 103.434 253.625L101.039 253.08C101.323 252.284 101.738 251.642 102.283 251.153C102.835 250.659 103.468 250.301 104.184 250.08C104.9 249.852 105.653 249.739 106.442 249.739C106.965 249.739 107.519 249.801 108.104 249.926C108.695 250.045 109.246 250.267 109.758 250.591C110.275 250.915 110.698 251.378 111.028 251.98C111.357 252.577 111.522 253.352 111.522 254.307V263H109.033V261.21H108.931C108.766 261.54 108.519 261.864 108.19 262.182C107.86 262.5 107.437 262.764 106.92 262.974C106.403 263.185 105.783 263.29 105.062 263.29ZM105.616 261.244C106.32 261.244 106.923 261.105 107.423 260.827C107.928 260.548 108.312 260.185 108.573 259.736C108.84 259.281 108.974 258.795 108.974 258.278V256.591C108.883 256.682 108.707 256.767 108.445 256.847C108.19 256.92 107.897 256.986 107.567 257.043C107.238 257.094 106.917 257.142 106.604 257.188C106.292 257.227 106.031 257.261 105.82 257.29C105.326 257.352 104.874 257.457 104.465 257.605C104.062 257.753 103.738 257.966 103.494 258.244C103.255 258.517 103.136 258.881 103.136 259.335C103.136 259.966 103.369 260.443 103.835 260.767C104.3 261.085 104.894 261.244 105.616 261.244ZM120.43 263.264C119.163 263.264 118.072 262.977 117.158 262.403C116.249 261.824 115.55 261.026 115.061 260.009C114.572 258.991 114.328 257.827 114.328 256.514C114.328 255.185 114.578 254.011 115.078 252.994C115.578 251.972 116.283 251.173 117.192 250.599C118.101 250.026 119.172 249.739 120.405 249.739C121.399 249.739 122.286 249.923 123.064 250.293C123.842 250.656 124.47 251.168 124.947 251.827C125.43 252.486 125.717 253.256 125.808 254.136H123.328C123.192 253.523 122.879 252.994 122.391 252.551C121.908 252.108 121.26 251.886 120.447 251.886C119.737 251.886 119.115 252.074 118.581 252.449C118.053 252.818 117.641 253.347 117.345 254.034C117.05 254.716 116.902 255.523 116.902 256.455C116.902 257.409 117.047 258.233 117.337 258.926C117.626 259.619 118.036 260.156 118.564 260.537C119.098 260.918 119.726 261.108 120.447 261.108C120.93 261.108 121.368 261.02 121.76 260.844C122.158 260.662 122.49 260.403 122.757 260.068C123.03 259.733 123.22 259.33 123.328 258.858H125.808C125.717 259.705 125.442 260.46 124.982 261.125C124.521 261.79 123.905 262.312 123.132 262.693C122.365 263.074 121.464 263.264 120.43 263.264ZM119.51 262.932H121.18L121.044 263.631C121.538 263.71 121.97 263.909 122.339 264.227C122.709 264.545 122.893 265.026 122.893 265.668C122.899 266.435 122.567 267.057 121.896 267.534C121.232 268.011 120.268 268.25 119.007 268.25L118.956 266.827C119.547 266.827 120.024 266.741 120.388 266.571C120.757 266.401 120.945 266.125 120.95 265.744C120.956 265.364 120.814 265.097 120.524 264.943C120.24 264.79 119.786 264.682 119.161 264.619L119.51 262.932ZM132.343 263.29C131.513 263.29 130.763 263.136 130.093 262.83C129.423 262.517 128.891 262.065 128.499 261.474C128.113 260.884 127.92 260.159 127.92 259.301C127.92 258.562 128.062 257.955 128.346 257.477C128.63 257 129.013 256.622 129.496 256.344C129.979 256.065 130.519 255.855 131.116 255.713C131.712 255.571 132.32 255.463 132.94 255.389C133.724 255.298 134.36 255.224 134.849 255.168C135.337 255.105 135.692 255.006 135.914 254.869C136.136 254.733 136.246 254.511 136.246 254.205V254.145C136.246 253.401 136.036 252.824 135.616 252.415C135.201 252.006 134.582 251.801 133.758 251.801C132.9 251.801 132.224 251.991 131.729 252.372C131.241 252.747 130.903 253.165 130.715 253.625L128.32 253.08C128.604 252.284 129.019 251.642 129.565 251.153C130.116 250.659 130.749 250.301 131.465 250.08C132.181 249.852 132.934 249.739 133.724 249.739C134.246 249.739 134.8 249.801 135.386 249.926C135.977 250.045 136.528 250.267 137.039 250.591C137.556 250.915 137.979 251.378 138.309 251.98C138.638 252.577 138.803 253.352 138.803 254.307V263H136.315V261.21H136.212C136.048 261.54 135.8 261.864 135.471 262.182C135.141 262.5 134.718 262.764 134.201 262.974C133.684 263.185 133.065 263.29 132.343 263.29ZM132.897 261.244C133.602 261.244 134.204 261.105 134.704 260.827C135.21 260.548 135.593 260.185 135.854 259.736C136.121 259.281 136.255 258.795 136.255 258.278V256.591C136.164 256.682 135.988 256.767 135.727 256.847C135.471 256.92 135.178 256.986 134.849 257.043C134.519 257.094 134.198 257.142 133.886 257.188C133.573 257.227 133.312 257.261 133.102 257.29C132.607 257.352 132.156 257.457 131.746 257.605C131.343 257.753 131.019 257.966 130.775 258.244C130.536 258.517 130.417 258.881 130.417 259.335C130.417 259.966 130.65 260.443 131.116 260.767C131.582 261.085 132.175 261.244 132.897 261.244ZM131.295 248.324L129.582 248.273C129.582 247.33 129.835 246.577 130.34 246.014C130.852 245.452 131.482 245.17 132.232 245.17C132.579 245.17 132.883 245.23 133.144 245.349C133.406 245.463 133.65 245.597 133.877 245.75C134.11 245.898 134.34 246.031 134.567 246.151C134.8 246.264 135.059 246.321 135.343 246.321C135.673 246.321 135.94 246.196 136.144 245.946C136.354 245.696 136.46 245.386 136.46 245.017L138.138 245.128C138.138 246.077 137.883 246.824 137.371 247.369C136.86 247.909 136.232 248.182 135.488 248.188C135.085 248.188 134.749 248.131 134.482 248.017C134.221 247.898 133.988 247.764 133.783 247.616C133.579 247.463 133.369 247.327 133.153 247.207C132.937 247.088 132.678 247.028 132.377 247.028C132.059 247.028 131.798 247.153 131.593 247.403C131.394 247.648 131.295 247.955 131.295 248.324ZM147.712 263.264C146.484 263.264 145.413 262.983 144.499 262.42C143.584 261.858 142.874 261.071 142.368 260.06C141.862 259.048 141.609 257.866 141.609 256.514C141.609 255.156 141.862 253.969 142.368 252.952C142.874 251.935 143.584 251.145 144.499 250.582C145.413 250.02 146.484 249.739 147.712 249.739C148.939 249.739 150.01 250.02 150.925 250.582C151.839 251.145 152.55 251.935 153.055 252.952C153.561 253.969 153.814 255.156 153.814 256.514C153.814 257.866 153.561 259.048 153.055 260.06C152.55 261.071 151.839 261.858 150.925 262.42C150.01 262.983 148.939 263.264 147.712 263.264ZM147.72 261.125C148.516 261.125 149.175 260.915 149.697 260.494C150.22 260.074 150.607 259.514 150.857 258.815C151.112 258.116 151.24 257.347 151.24 256.506C151.24 255.67 151.112 254.903 150.857 254.205C150.607 253.5 150.22 252.935 149.697 252.509C149.175 252.082 148.516 251.869 147.72 251.869C146.919 251.869 146.254 252.082 145.726 252.509C145.203 252.935 144.814 253.5 144.558 254.205C144.308 254.903 144.183 255.67 144.183 256.506C144.183 257.347 144.308 258.116 144.558 258.815C144.814 259.514 145.203 260.074 145.726 260.494C146.254 260.915 146.919 261.125 147.72 261.125Z" fill="black"/>
<path d="M29.6364 291.364H31.1818L32.4773 293.068L32.8182 293.523L34.75 296.091H33.2045L31.9318 294.386L31.6136 293.955L29.6364 291.364ZM35.2273 289.182C35.2273 290.409 35.0057 291.47 34.5625 292.364C34.1193 293.258 33.5114 293.947 32.7386 294.432C31.9659 294.917 31.0833 295.159 30.0909 295.159C29.0985 295.159 28.2159 294.917 27.4432 294.432C26.6705 293.947 26.0625 293.258 25.6193 292.364C25.1761 291.47 24.9545 290.409 24.9545 289.182C24.9545 287.955 25.1761 286.894 25.6193 286C26.0625 285.106 26.6705 284.417 27.4432 283.932C28.2159 283.447 29.0985 283.205 30.0909 283.205C31.0833 283.205 31.9659 283.447 32.7386 283.932C33.5114 284.417 34.1193 285.106 34.5625 286C35.0057 286.894 35.2273 287.955 35.2273 289.182ZM33.8636 289.182C33.8636 288.174 33.6951 287.324 33.358 286.631C33.0246 285.938 32.572 285.413 32 285.057C31.4318 284.701 30.7955 284.523 30.0909 284.523C29.3864 284.523 28.7481 284.701 28.1761 285.057C27.608 285.413 27.1553 285.938 26.8182 286.631C26.4848 287.324 26.3182 288.174 26.3182 289.182C26.3182 290.189 26.4848 291.04 26.8182 291.733C27.1553 292.426 27.608 292.951 28.1761 293.307C28.7481 293.663 29.3864 293.841 30.0909 293.841C30.7955 293.841 31.4318 293.663 32 293.307C32.572 292.951 33.0246 292.426 33.358 291.733C33.6951 291.04 33.8636 290.189 33.8636 289.182ZM42.9148 291.432V286.273H44.2557V295H42.9148V293.523H42.8239C42.6193 293.966 42.3011 294.343 41.8693 294.653C41.4375 294.96 40.892 295.114 40.233 295.114C39.6875 295.114 39.2027 294.994 38.7784 294.756C38.3542 294.513 38.0208 294.15 37.7784 293.665C37.536 293.176 37.4148 292.561 37.4148 291.818V286.273H38.7557V291.727C38.7557 292.364 38.9337 292.871 39.2898 293.25C39.6496 293.629 40.108 293.818 40.6648 293.818C40.9981 293.818 41.3371 293.733 41.6818 293.562C42.0303 293.392 42.322 293.131 42.5568 292.778C42.7955 292.426 42.9148 291.977 42.9148 291.432ZM49.2798 295.205C48.7268 295.205 48.2249 295.1 47.7741 294.892C47.3234 294.68 46.9654 294.375 46.7003 293.977C46.4351 293.576 46.3026 293.091 46.3026 292.523C46.3026 292.023 46.401 291.617 46.598 291.307C46.795 290.992 47.0582 290.746 47.3878 290.568C47.7173 290.39 48.081 290.258 48.4787 290.17C48.8802 290.08 49.2836 290.008 49.6889 289.955C50.2192 289.886 50.6491 289.835 50.9787 289.801C51.312 289.763 51.5545 289.701 51.706 289.614C51.8613 289.527 51.9389 289.375 51.9389 289.159V289.114C51.9389 288.553 51.7855 288.117 51.4787 287.807C51.1757 287.496 50.7154 287.341 50.098 287.341C49.4579 287.341 48.956 287.481 48.5923 287.761C48.2287 288.042 47.973 288.341 47.8253 288.659L46.5526 288.205C46.7798 287.674 47.0829 287.261 47.4616 286.966C47.8442 286.667 48.2609 286.458 48.7116 286.341C49.1662 286.22 49.6132 286.159 50.0526 286.159C50.3329 286.159 50.6548 286.193 51.0185 286.261C51.3859 286.326 51.7401 286.46 52.081 286.665C52.4257 286.869 52.7116 287.178 52.9389 287.591C53.1662 288.004 53.2798 288.557 53.2798 289.25V295H51.9389V293.818H51.8707C51.7798 294.008 51.6283 294.21 51.4162 294.426C51.2041 294.642 50.9219 294.826 50.5696 294.977C50.2173 295.129 49.7874 295.205 49.2798 295.205ZM49.4844 294C50.0147 294 50.4616 293.896 50.8253 293.688C51.1927 293.479 51.4692 293.21 51.6548 292.881C51.8442 292.551 51.9389 292.205 51.9389 291.841V290.614C51.8821 290.682 51.7571 290.744 51.5639 290.801C51.3745 290.854 51.1548 290.902 50.9048 290.943C50.6586 290.981 50.4181 291.015 50.1832 291.045C49.9522 291.072 49.7647 291.095 49.6207 291.114C49.2723 291.159 48.9465 291.233 48.6435 291.335C48.3442 291.434 48.1018 291.583 47.9162 291.784C47.7344 291.981 47.6435 292.25 47.6435 292.591C47.6435 293.057 47.8158 293.409 48.1605 293.648C48.509 293.883 48.9503 294 49.4844 294ZM57.0682 289.75V295H55.7273V286.273H57.0227V287.636H57.1364C57.3409 287.193 57.6515 286.837 58.0682 286.568C58.4848 286.295 59.0227 286.159 59.6818 286.159C60.2727 286.159 60.7898 286.28 61.233 286.523C61.6761 286.761 62.0208 287.125 62.267 287.614C62.5133 288.098 62.6364 288.712 62.6364 289.455V295H61.2955V289.545C61.2955 288.86 61.1174 288.326 60.7614 287.943C60.4053 287.557 59.9167 287.364 59.2955 287.364C58.8674 287.364 58.4848 287.456 58.1477 287.642C57.8144 287.828 57.5511 288.098 57.358 288.455C57.1648 288.811 57.0682 289.242 57.0682 289.75ZM68.3821 295.182C67.6548 295.182 67.0128 294.998 66.456 294.631C65.8991 294.259 65.4635 293.737 65.1491 293.062C64.8348 292.384 64.6776 291.583 64.6776 290.659C64.6776 289.742 64.8348 288.947 65.1491 288.273C65.4635 287.598 65.901 287.078 66.4616 286.71C67.0223 286.343 67.67 286.159 68.4048 286.159C68.973 286.159 69.4219 286.254 69.7514 286.443C70.0848 286.629 70.3385 286.841 70.5128 287.08C70.6908 287.314 70.8291 287.508 70.9276 287.659H71.0412V283.364H72.3821V295H71.0866V293.659H70.9276C70.8291 293.818 70.6889 294.019 70.5071 294.261C70.3253 294.5 70.0658 294.714 69.7287 294.903C69.3916 295.089 68.9427 295.182 68.3821 295.182ZM68.5639 293.977C69.1018 293.977 69.5563 293.837 69.9276 293.557C70.2988 293.273 70.581 292.881 70.7741 292.381C70.9673 291.877 71.0639 291.295 71.0639 290.636C71.0639 289.985 70.9692 289.415 70.7798 288.926C70.5904 288.434 70.3101 288.051 69.9389 287.778C69.5677 287.502 69.1094 287.364 68.5639 287.364C67.9957 287.364 67.5223 287.509 67.1435 287.801C66.7685 288.089 66.4863 288.481 66.2969 288.977C66.1113 289.47 66.0185 290.023 66.0185 290.636C66.0185 291.258 66.1132 291.822 66.3026 292.33C66.4957 292.833 66.7798 293.235 67.1548 293.534C67.5336 293.83 68.0033 293.977 68.5639 293.977ZM78.5696 295.182C77.7817 295.182 77.0904 294.994 76.4957 294.619C75.9048 294.244 75.4427 293.72 75.1094 293.045C74.7798 292.371 74.6151 291.583 74.6151 290.682C74.6151 289.773 74.7798 288.979 75.1094 288.301C75.4427 287.623 75.9048 287.097 76.4957 286.722C77.0904 286.347 77.7817 286.159 78.5696 286.159C79.3575 286.159 80.0469 286.347 80.6378 286.722C81.2325 287.097 81.6946 287.623 82.0241 288.301C82.3575 288.979 82.5241 289.773 82.5241 290.682C82.5241 291.583 82.3575 292.371 82.0241 293.045C81.6946 293.72 81.2325 294.244 80.6378 294.619C80.0469 294.994 79.3575 295.182 78.5696 295.182ZM78.5696 293.977C79.1681 293.977 79.6605 293.824 80.0469 293.517C80.4332 293.21 80.7192 292.807 80.9048 292.307C81.0904 291.807 81.1832 291.265 81.1832 290.682C81.1832 290.098 81.0904 289.555 80.9048 289.051C80.7192 288.547 80.4332 288.14 80.0469 287.83C79.6605 287.519 79.1681 287.364 78.5696 287.364C77.9711 287.364 77.4787 287.519 77.0923 287.83C76.706 288.14 76.42 288.547 76.2344 289.051C76.0488 289.555 75.956 290.098 75.956 290.682C75.956 291.265 76.0488 291.807 76.2344 292.307C76.42 292.807 76.706 293.21 77.0923 293.517C77.4787 293.824 77.9711 293.977 78.5696 293.977ZM92.6165 295.182C91.7983 295.182 91.0938 294.989 90.5028 294.602C89.9119 294.216 89.4574 293.684 89.1392 293.006C88.821 292.328 88.6619 291.553 88.6619 290.682C88.6619 289.795 88.8248 289.013 89.1506 288.335C89.4801 287.653 89.9384 287.121 90.5256 286.739C91.1165 286.352 91.8059 286.159 92.5938 286.159C93.2074 286.159 93.7604 286.273 94.2528 286.5C94.7453 286.727 95.1487 287.045 95.4631 287.455C95.7775 287.864 95.9725 288.341 96.0483 288.886H94.7074C94.6051 288.489 94.3778 288.136 94.0256 287.83C93.6771 287.519 93.2074 287.364 92.6165 287.364C92.0938 287.364 91.6354 287.5 91.2415 287.773C90.8513 288.042 90.5464 288.422 90.3267 288.915C90.1108 289.403 90.0028 289.977 90.0028 290.636C90.0028 291.311 90.1089 291.898 90.321 292.398C90.5369 292.898 90.84 293.286 91.2301 293.562C91.6241 293.839 92.0862 293.977 92.6165 293.977C92.965 293.977 93.2812 293.917 93.5653 293.795C93.8494 293.674 94.09 293.5 94.2869 293.273C94.4839 293.045 94.6241 292.773 94.7074 292.455H96.0483C95.9725 292.97 95.785 293.434 95.4858 293.847C95.1903 294.256 94.7983 294.581 94.3097 294.824C93.8248 295.062 93.2604 295.182 92.6165 295.182ZM101.554 295.182C100.766 295.182 100.075 294.994 99.4801 294.619C98.8892 294.244 98.4271 293.72 98.0938 293.045C97.7642 292.371 97.5994 291.583 97.5994 290.682C97.5994 289.773 97.7642 288.979 98.0938 288.301C98.4271 287.623 98.8892 287.097 99.4801 286.722C100.075 286.347 100.766 286.159 101.554 286.159C102.342 286.159 103.031 286.347 103.622 286.722C104.217 287.097 104.679 287.623 105.009 288.301C105.342 288.979 105.509 289.773 105.509 290.682C105.509 291.583 105.342 292.371 105.009 293.045C104.679 293.72 104.217 294.244 103.622 294.619C103.031 294.994 102.342 295.182 101.554 295.182ZM101.554 293.977C102.152 293.977 102.645 293.824 103.031 293.517C103.418 293.21 103.704 292.807 103.889 292.307C104.075 291.807 104.168 291.265 104.168 290.682C104.168 290.098 104.075 289.555 103.889 289.051C103.704 288.547 103.418 288.14 103.031 287.83C102.645 287.519 102.152 287.364 101.554 287.364C100.955 287.364 100.463 287.519 100.077 287.83C99.6903 288.14 99.4044 288.547 99.2188 289.051C99.0331 289.555 98.9403 290.098 98.9403 290.682C98.9403 291.265 99.0331 291.807 99.2188 292.307C99.4044 292.807 99.6903 293.21 100.077 293.517C100.463 293.824 100.955 293.977 101.554 293.977ZM107.555 295V286.273H108.851V287.636H108.964C109.146 287.17 109.44 286.809 109.845 286.551C110.25 286.29 110.737 286.159 111.305 286.159C111.881 286.159 112.36 286.29 112.743 286.551C113.129 286.809 113.43 287.17 113.646 287.636H113.737C113.961 287.186 114.296 286.828 114.743 286.562C115.19 286.294 115.726 286.159 116.351 286.159C117.131 286.159 117.769 286.403 118.266 286.892C118.762 287.377 119.01 288.133 119.01 289.159V295H117.669V289.159C117.669 288.515 117.493 288.055 117.141 287.778C116.788 287.502 116.374 287.364 115.896 287.364C115.283 287.364 114.807 287.549 114.47 287.92C114.133 288.288 113.964 288.754 113.964 289.318V295H112.601V289.023C112.601 288.527 112.44 288.127 112.118 287.824C111.796 287.517 111.381 287.364 110.874 287.364C110.525 287.364 110.199 287.456 109.896 287.642C109.597 287.828 109.355 288.085 109.169 288.415C108.987 288.741 108.896 289.117 108.896 289.545V295H107.555ZM121.462 298.273V286.273H122.757V287.659H122.916C123.015 287.508 123.151 287.314 123.325 287.08C123.503 286.841 123.757 286.629 124.087 286.443C124.42 286.254 124.871 286.159 125.439 286.159C126.174 286.159 126.821 286.343 127.382 286.71C127.943 287.078 128.38 287.598 128.695 288.273C129.009 288.947 129.166 289.742 129.166 290.659C129.166 291.583 129.009 292.384 128.695 293.062C128.38 293.737 127.945 294.259 127.388 294.631C126.831 294.998 126.189 295.182 125.462 295.182C124.901 295.182 124.452 295.089 124.115 294.903C123.778 294.714 123.518 294.5 123.337 294.261C123.155 294.019 123.015 293.818 122.916 293.659H122.803V298.273H121.462ZM122.78 290.636C122.78 291.295 122.876 291.877 123.07 292.381C123.263 292.881 123.545 293.273 123.916 293.557C124.287 293.837 124.742 293.977 125.28 293.977C125.84 293.977 126.308 293.83 126.683 293.534C127.062 293.235 127.346 292.833 127.536 292.33C127.729 291.822 127.825 291.258 127.825 290.636C127.825 290.023 127.731 289.47 127.541 288.977C127.356 288.481 127.073 288.089 126.695 287.801C126.32 287.509 125.848 287.364 125.28 287.364C124.734 287.364 124.276 287.502 123.905 287.778C123.534 288.051 123.253 288.434 123.064 288.926C122.875 289.415 122.78 289.985 122.78 290.636ZM131.212 295V286.273H132.507V287.591H132.598C132.757 287.159 133.045 286.809 133.462 286.54C133.878 286.271 134.348 286.136 134.871 286.136C134.969 286.136 135.092 286.138 135.24 286.142C135.388 286.146 135.5 286.152 135.575 286.159V287.523C135.53 287.511 135.426 287.494 135.263 287.472C135.104 287.445 134.935 287.432 134.757 287.432C134.333 287.432 133.954 287.521 133.621 287.699C133.291 287.873 133.03 288.116 132.837 288.426C132.647 288.733 132.553 289.083 132.553 289.477V295H131.212ZM139.733 295.205C139.18 295.205 138.678 295.1 138.227 294.892C137.777 294.68 137.419 294.375 137.153 293.977C136.888 293.576 136.756 293.091 136.756 292.523C136.756 292.023 136.854 291.617 137.051 291.307C137.248 290.992 137.511 290.746 137.841 290.568C138.17 290.39 138.534 290.258 138.932 290.17C139.333 290.08 139.737 290.008 140.142 289.955C140.672 289.886 141.102 289.835 141.432 289.801C141.765 289.763 142.008 289.701 142.159 289.614C142.314 289.527 142.392 289.375 142.392 289.159V289.114C142.392 288.553 142.239 288.117 141.932 287.807C141.629 287.496 141.169 287.341 140.551 287.341C139.911 287.341 139.409 287.481 139.045 287.761C138.682 288.042 138.426 288.341 138.278 288.659L137.006 288.205C137.233 287.674 137.536 287.261 137.915 286.966C138.297 286.667 138.714 286.458 139.165 286.341C139.619 286.22 140.066 286.159 140.506 286.159C140.786 286.159 141.108 286.193 141.472 286.261C141.839 286.326 142.193 286.46 142.534 286.665C142.879 286.869 143.165 287.178 143.392 287.591C143.619 288.004 143.733 288.557 143.733 289.25V295H142.392V293.818H142.324C142.233 294.008 142.081 294.21 141.869 294.426C141.657 294.642 141.375 294.826 141.023 294.977C140.67 295.129 140.241 295.205 139.733 295.205ZM139.938 294C140.468 294 140.915 293.896 141.278 293.688C141.646 293.479 141.922 293.21 142.108 292.881C142.297 292.551 142.392 292.205 142.392 291.841V290.614C142.335 290.682 142.21 290.744 142.017 290.801C141.828 290.854 141.608 290.902 141.358 290.943C141.112 290.981 140.871 291.015 140.636 291.045C140.405 291.072 140.218 291.095 140.074 291.114C139.725 291.159 139.4 291.233 139.097 291.335C138.797 291.434 138.555 291.583 138.369 291.784C138.188 291.981 138.097 292.25 138.097 292.591C138.097 293.057 138.269 293.409 138.614 293.648C138.962 293.883 139.403 294 139.938 294ZM149.476 295.182C148.749 295.182 148.107 294.998 147.55 294.631C146.993 294.259 146.557 293.737 146.243 293.062C145.929 292.384 145.771 291.583 145.771 290.659C145.771 289.742 145.929 288.947 146.243 288.273C146.557 287.598 146.995 287.078 147.555 286.71C148.116 286.343 148.764 286.159 149.499 286.159C150.067 286.159 150.516 286.254 150.845 286.443C151.179 286.629 151.432 286.841 151.607 287.08C151.785 287.314 151.923 287.508 152.021 287.659H152.135V283.364H153.476V295H152.18V293.659H152.021C151.923 293.818 151.783 294.019 151.601 294.261C151.419 294.5 151.16 294.714 150.822 294.903C150.485 295.089 150.036 295.182 149.476 295.182ZM149.658 293.977C150.196 293.977 150.65 293.837 151.021 293.557C151.393 293.273 151.675 292.881 151.868 292.381C152.061 291.877 152.158 291.295 152.158 290.636C152.158 289.985 152.063 289.415 151.874 288.926C151.684 288.434 151.404 288.051 151.033 287.778C150.661 287.502 150.203 287.364 149.658 287.364C149.089 287.364 148.616 287.509 148.237 287.801C147.862 288.089 147.58 288.481 147.391 288.977C147.205 289.47 147.112 290.023 147.112 290.636C147.112 291.258 147.207 291.822 147.396 292.33C147.589 292.833 147.874 293.235 148.249 293.534C148.627 293.83 149.097 293.977 149.658 293.977ZM159.663 295.182C158.875 295.182 158.184 294.994 157.589 294.619C156.999 294.244 156.536 293.72 156.203 293.045C155.874 292.371 155.709 291.583 155.709 290.682C155.709 289.773 155.874 288.979 156.203 288.301C156.536 287.623 156.999 287.097 157.589 286.722C158.184 286.347 158.875 286.159 159.663 286.159C160.451 286.159 161.141 286.347 161.732 286.722C162.326 287.097 162.788 287.623 163.118 288.301C163.451 288.979 163.618 289.773 163.618 290.682C163.618 291.583 163.451 292.371 163.118 293.045C162.788 293.72 162.326 294.244 161.732 294.619C161.141 294.994 160.451 295.182 159.663 295.182ZM159.663 293.977C160.262 293.977 160.754 293.824 161.141 293.517C161.527 293.21 161.813 292.807 161.999 292.307C162.184 291.807 162.277 291.265 162.277 290.682C162.277 290.098 162.184 289.555 161.999 289.051C161.813 288.547 161.527 288.14 161.141 287.83C160.754 287.519 160.262 287.364 159.663 287.364C159.065 287.364 158.572 287.519 158.186 287.83C157.8 288.14 157.514 288.547 157.328 289.051C157.143 289.555 157.05 290.098 157.05 290.682C157.05 291.265 157.143 291.807 157.328 292.307C157.514 292.807 157.8 293.21 158.186 293.517C158.572 293.824 159.065 293.977 159.663 293.977ZM172.733 295.205C172.18 295.205 171.678 295.1 171.227 294.892C170.777 294.68 170.419 294.375 170.153 293.977C169.888 293.576 169.756 293.091 169.756 292.523C169.756 292.023 169.854 291.617 170.051 291.307C170.248 290.992 170.511 290.746 170.841 290.568C171.17 290.39 171.534 290.258 171.932 290.17C172.333 290.08 172.737 290.008 173.142 289.955C173.672 289.886 174.102 289.835 174.432 289.801C174.765 289.763 175.008 289.701 175.159 289.614C175.314 289.527 175.392 289.375 175.392 289.159V289.114C175.392 288.553 175.239 288.117 174.932 287.807C174.629 287.496 174.169 287.341 173.551 287.341C172.911 287.341 172.409 287.481 172.045 287.761C171.682 288.042 171.426 288.341 171.278 288.659L170.006 288.205C170.233 287.674 170.536 287.261 170.915 286.966C171.297 286.667 171.714 286.458 172.165 286.341C172.619 286.22 173.066 286.159 173.506 286.159C173.786 286.159 174.108 286.193 174.472 286.261C174.839 286.326 175.193 286.46 175.534 286.665C175.879 286.869 176.165 287.178 176.392 287.591C176.619 288.004 176.733 288.557 176.733 289.25V295H175.392V293.818H175.324C175.233 294.008 175.081 294.21 174.869 294.426C174.657 294.642 174.375 294.826 174.023 294.977C173.67 295.129 173.241 295.205 172.733 295.205ZM172.938 294C173.468 294 173.915 293.896 174.278 293.688C174.646 293.479 174.922 293.21 175.108 292.881C175.297 292.551 175.392 292.205 175.392 291.841V290.614C175.335 290.682 175.21 290.744 175.017 290.801C174.828 290.854 174.608 290.902 174.358 290.943C174.112 290.981 173.871 291.015 173.636 291.045C173.405 291.072 173.218 291.095 173.074 291.114C172.725 291.159 172.4 291.233 172.097 291.335C171.797 291.434 171.555 291.583 171.369 291.784C171.188 291.981 171.097 292.25 171.097 292.591C171.097 293.057 171.269 293.409 171.614 293.648C171.962 293.883 172.403 294 172.938 294ZM183.68 295V286.273H185.021V295H183.68ZM184.362 284.818C184.101 284.818 183.875 284.729 183.686 284.551C183.5 284.373 183.408 284.159 183.408 283.909C183.408 283.659 183.5 283.445 183.686 283.267C183.875 283.089 184.101 283 184.362 283C184.624 283 184.847 283.089 185.033 283.267C185.222 283.445 185.317 283.659 185.317 283.909C185.317 284.159 185.222 284.373 185.033 284.551C184.847 284.729 184.624 284.818 184.362 284.818ZM188.818 289.75V295H187.477V286.273H188.773V287.636H188.886C189.091 287.193 189.402 286.837 189.818 286.568C190.235 286.295 190.773 286.159 191.432 286.159C192.023 286.159 192.54 286.28 192.983 286.523C193.426 286.761 193.771 287.125 194.017 287.614C194.263 288.098 194.386 288.712 194.386 289.455V295H193.045V289.545C193.045 288.86 192.867 288.326 192.511 287.943C192.155 287.557 191.667 287.364 191.045 287.364C190.617 287.364 190.235 287.456 189.898 287.642C189.564 287.828 189.301 288.098 189.108 288.455C188.915 288.811 188.818 289.242 188.818 289.75ZM203.018 288.227L201.814 288.568C201.738 288.367 201.626 288.172 201.479 287.983C201.335 287.79 201.138 287.631 200.888 287.506C200.638 287.381 200.318 287.318 199.928 287.318C199.393 287.318 198.948 287.441 198.592 287.688C198.24 287.93 198.064 288.239 198.064 288.614C198.064 288.947 198.185 289.21 198.428 289.403C198.67 289.597 199.049 289.758 199.564 289.886L200.859 290.205C201.64 290.394 202.221 290.684 202.604 291.074C202.986 291.46 203.178 291.958 203.178 292.568C203.178 293.068 203.034 293.515 202.746 293.909C202.462 294.303 202.064 294.614 201.553 294.841C201.041 295.068 200.446 295.182 199.768 295.182C198.878 295.182 198.142 294.989 197.558 294.602C196.975 294.216 196.606 293.652 196.45 292.909L197.723 292.591C197.844 293.061 198.073 293.413 198.411 293.648C198.751 293.883 199.196 294 199.746 294C200.371 294 200.867 293.867 201.234 293.602C201.606 293.333 201.791 293.011 201.791 292.636C201.791 292.333 201.685 292.08 201.473 291.875C201.261 291.667 200.935 291.511 200.496 291.409L199.041 291.068C198.242 290.879 197.655 290.585 197.28 290.188C196.909 289.786 196.723 289.284 196.723 288.682C196.723 288.189 196.861 287.754 197.138 287.375C197.418 286.996 197.799 286.699 198.28 286.483C198.765 286.267 199.314 286.159 199.928 286.159C200.791 286.159 201.469 286.348 201.962 286.727C202.458 287.106 202.81 287.606 203.018 288.227ZM208.741 295.182C207.923 295.182 207.219 294.989 206.628 294.602C206.037 294.216 205.582 293.684 205.264 293.006C204.946 292.328 204.787 291.553 204.787 290.682C204.787 289.795 204.95 289.013 205.276 288.335C205.605 287.653 206.063 287.121 206.651 286.739C207.241 286.352 207.931 286.159 208.719 286.159C209.332 286.159 209.885 286.273 210.378 286.5C210.87 286.727 211.274 287.045 211.588 287.455C211.902 287.864 212.098 288.341 212.173 288.886H210.832C210.73 288.489 210.503 288.136 210.151 287.83C209.802 287.519 209.332 287.364 208.741 287.364C208.219 287.364 207.76 287.5 207.366 287.773C206.976 288.042 206.671 288.422 206.452 288.915C206.236 289.403 206.128 289.977 206.128 290.636C206.128 291.311 206.234 291.898 206.446 292.398C206.662 292.898 206.965 293.286 207.355 293.562C207.749 293.839 208.211 293.977 208.741 293.977C209.09 293.977 209.406 293.917 209.69 293.795C209.974 293.674 210.215 293.5 210.412 293.273C210.609 293.045 210.749 292.773 210.832 292.455H212.173C212.098 292.97 211.91 293.434 211.611 293.847C211.315 294.256 210.923 294.581 210.435 294.824C209.95 295.062 209.385 295.182 208.741 295.182ZM214.134 295V286.273H215.429V287.591H215.52C215.679 287.159 215.967 286.809 216.384 286.54C216.8 286.271 217.27 286.136 217.793 286.136C217.891 286.136 218.014 286.138 218.162 286.142C218.31 286.146 218.421 286.152 218.497 286.159V287.523C218.452 287.511 218.348 287.494 218.185 287.472C218.026 287.445 217.857 287.432 217.679 287.432C217.255 287.432 216.876 287.521 216.543 287.699C216.213 287.873 215.952 288.116 215.759 288.426C215.569 288.733 215.474 289.083 215.474 289.477V295H214.134ZM220.087 295V286.273H221.428V295H220.087ZM220.768 284.818C220.507 284.818 220.282 284.729 220.092 284.551C219.907 284.373 219.814 284.159 219.814 283.909C219.814 283.659 219.907 283.445 220.092 283.267C220.282 283.089 220.507 283 220.768 283C221.03 283 221.253 283.089 221.439 283.267C221.628 283.445 221.723 283.659 221.723 283.909C221.723 284.159 221.628 284.373 221.439 284.551C221.253 284.729 221.03 284.818 220.768 284.818ZM227.429 295.182C226.611 295.182 225.906 294.989 225.315 294.602C224.724 294.216 224.27 293.684 223.952 293.006C223.634 292.328 223.474 291.553 223.474 290.682C223.474 289.795 223.637 289.013 223.963 288.335C224.293 287.653 224.751 287.121 225.338 286.739C225.929 286.352 226.618 286.159 227.406 286.159C228.02 286.159 228.573 286.273 229.065 286.5C229.558 286.727 229.961 287.045 230.276 287.455C230.59 287.864 230.785 288.341 230.861 288.886H229.52C229.418 288.489 229.19 288.136 228.838 287.83C228.49 287.519 228.02 287.364 227.429 287.364C226.906 287.364 226.448 287.5 226.054 287.773C225.664 288.042 225.359 288.422 225.139 288.915C224.923 289.403 224.815 289.977 224.815 290.636C224.815 291.311 224.921 291.898 225.134 292.398C225.349 292.898 225.652 293.286 226.043 293.562C226.437 293.839 226.899 293.977 227.429 293.977C227.777 293.977 228.094 293.917 228.378 293.795C228.662 293.674 228.902 293.5 229.099 293.273C229.296 293.045 229.437 292.773 229.52 292.455H230.861C230.785 292.97 230.598 293.434 230.298 293.847C230.003 294.256 229.611 294.581 229.122 294.824C228.637 295.062 228.073 295.182 227.429 295.182ZM226.793 294.955H227.906L227.815 295.409C228.111 295.455 228.382 295.578 228.628 295.778C228.874 295.983 228.997 296.307 228.997 296.75C228.997 297.239 228.795 297.636 228.389 297.943C227.988 298.254 227.395 298.409 226.611 298.409L226.565 297.523C226.918 297.523 227.209 297.466 227.44 297.352C227.675 297.242 227.793 297.057 227.793 296.795C227.793 296.534 227.696 296.356 227.503 296.261C227.31 296.167 226.997 296.102 226.565 296.068L226.793 294.955ZM235.389 295.205C234.836 295.205 234.334 295.1 233.884 294.892C233.433 294.68 233.075 294.375 232.81 293.977C232.545 293.576 232.412 293.091 232.412 292.523C232.412 292.023 232.51 291.617 232.707 291.307C232.904 290.992 233.168 290.746 233.497 290.568C233.827 290.39 234.19 290.258 234.588 290.17C234.99 290.08 235.393 290.008 235.798 289.955C236.329 289.886 236.759 289.835 237.088 289.801C237.421 289.763 237.664 289.701 237.815 289.614C237.971 289.527 238.048 289.375 238.048 289.159V289.114C238.048 288.553 237.895 288.117 237.588 287.807C237.285 287.496 236.825 287.341 236.207 287.341C235.567 287.341 235.065 287.481 234.702 287.761C234.338 288.042 234.082 288.341 233.935 288.659L232.662 288.205C232.889 287.674 233.192 287.261 233.571 286.966C233.954 286.667 234.37 286.458 234.821 286.341C235.276 286.22 235.723 286.159 236.162 286.159C236.442 286.159 236.764 286.193 237.128 286.261C237.495 286.326 237.849 286.46 238.19 286.665C238.535 286.869 238.821 287.178 239.048 287.591C239.276 288.004 239.389 288.557 239.389 289.25V295H238.048V293.818H237.98C237.889 294.008 237.738 294.21 237.526 294.426C237.313 294.642 237.031 294.826 236.679 294.977C236.327 295.129 235.897 295.205 235.389 295.205ZM235.594 294C236.124 294 236.571 293.896 236.935 293.688C237.302 293.479 237.579 293.21 237.764 292.881C237.954 292.551 238.048 292.205 238.048 291.841V290.614C237.991 290.682 237.866 290.744 237.673 290.801C237.484 290.854 237.264 290.902 237.014 290.943C236.768 290.981 236.527 291.015 236.293 291.045C236.062 291.072 235.874 291.095 235.73 291.114C235.382 291.159 235.056 291.233 234.753 291.335C234.454 291.434 234.211 291.583 234.026 291.784C233.844 291.981 233.753 292.25 233.753 292.591C233.753 293.057 233.925 293.409 234.27 293.648C234.618 293.883 235.06 294 235.594 294ZM234.503 285.227L233.457 285.182C233.457 284.602 233.622 284.129 233.952 283.761C234.285 283.39 234.696 283.205 235.185 283.205C235.401 283.205 235.592 283.242 235.759 283.318C235.925 283.39 236.084 283.473 236.236 283.568C236.387 283.663 236.543 283.748 236.702 283.824C236.865 283.896 237.048 283.932 237.253 283.932C237.469 283.932 237.651 283.848 237.798 283.682C237.95 283.511 238.026 283.307 238.026 283.068L239.048 283.159C239.048 283.75 238.882 284.22 238.548 284.568C238.219 284.917 237.81 285.091 237.321 285.091C237.06 285.091 236.844 285.055 236.673 284.983C236.503 284.907 236.351 284.822 236.219 284.727C236.086 284.633 235.946 284.549 235.798 284.477C235.651 284.402 235.469 284.364 235.253 284.364C235.037 284.364 234.857 284.449 234.713 284.619C234.573 284.786 234.503 284.989 234.503 285.227ZM245.382 295.182C244.594 295.182 243.903 294.994 243.308 294.619C242.717 294.244 242.255 293.72 241.922 293.045C241.592 292.371 241.428 291.583 241.428 290.682C241.428 289.773 241.592 288.979 241.922 288.301C242.255 287.623 242.717 287.097 243.308 286.722C243.903 286.347 244.594 286.159 245.382 286.159C246.17 286.159 246.859 286.347 247.45 286.722C248.045 287.097 248.507 287.623 248.837 288.301C249.17 288.979 249.337 289.773 249.337 290.682C249.337 291.583 249.17 292.371 248.837 293.045C248.507 293.72 248.045 294.244 247.45 294.619C246.859 294.994 246.17 295.182 245.382 295.182ZM245.382 293.977C245.981 293.977 246.473 293.824 246.859 293.517C247.246 293.21 247.532 292.807 247.717 292.307C247.903 291.807 247.996 291.265 247.996 290.682C247.996 290.098 247.903 289.555 247.717 289.051C247.532 288.547 247.246 288.14 246.859 287.83C246.473 287.519 245.981 287.364 245.382 287.364C244.784 287.364 244.291 287.519 243.905 287.83C243.518 288.14 243.232 288.547 243.047 289.051C242.861 289.555 242.768 290.098 242.768 290.682C242.768 291.265 242.861 291.807 243.047 292.307C243.232 292.807 243.518 293.21 243.905 293.517C244.291 293.824 244.784 293.977 245.382 293.977ZM253.384 293.409L253.293 294.023C253.228 294.455 253.13 294.917 252.997 295.409C252.868 295.902 252.734 296.366 252.594 296.801C252.454 297.237 252.338 297.583 252.247 297.841H251.224C251.274 297.598 251.338 297.278 251.418 296.881C251.497 296.483 251.577 296.038 251.656 295.545C251.74 295.057 251.808 294.557 251.861 294.045L251.929 293.409H253.384ZM28.8864 321.182C28.0455 321.182 27.3201 320.996 26.7102 320.625C26.1042 320.25 25.6364 319.727 25.3068 319.057C24.9811 318.383 24.8182 317.598 24.8182 316.705C24.8182 315.811 24.9811 315.023 25.3068 314.341C25.6364 313.655 26.0947 313.121 26.6818 312.739C27.2727 312.352 27.9621 312.159 28.75 312.159C29.2045 312.159 29.6534 312.235 30.0966 312.386C30.5398 312.538 30.9432 312.784 31.3068 313.125C31.6705 313.462 31.9602 313.909 32.1761 314.466C32.392 315.023 32.5 315.708 32.5 316.523V317.091H25.7727V315.932H31.1364C31.1364 315.439 31.0379 315 30.8409 314.614C30.6477 314.227 30.3712 313.922 30.0114 313.699C29.6553 313.475 29.2348 313.364 28.75 313.364C28.2159 313.364 27.7538 313.496 27.3636 313.761C26.9773 314.023 26.6799 314.364 26.4716 314.784C26.2633 315.205 26.1591 315.655 26.1591 316.136V316.909C26.1591 317.568 26.2727 318.127 26.5 318.585C26.7311 319.04 27.0511 319.386 27.4602 319.625C27.8693 319.86 28.3447 319.977 28.8864 319.977C29.2386 319.977 29.5568 319.928 29.8409 319.83C30.1288 319.727 30.3769 319.576 30.5852 319.375C30.7936 319.17 30.9545 318.917 31.0682 318.614L32.3636 318.977C32.2273 319.417 31.9981 319.803 31.6761 320.136C31.3542 320.466 30.9564 320.723 30.483 320.909C30.0095 321.091 29.4773 321.182 28.8864 321.182ZM34.5398 321V312.273H35.8352V313.636H35.9489C36.1307 313.17 36.4242 312.809 36.8295 312.551C37.2348 312.29 37.7216 312.159 38.2898 312.159C38.8655 312.159 39.3447 312.29 39.7273 312.551C40.1136 312.809 40.4148 313.17 40.6307 313.636H40.7216C40.9451 313.186 41.2803 312.828 41.7273 312.562C42.1742 312.294 42.7102 312.159 43.3352 312.159C44.1155 312.159 44.7538 312.403 45.25 312.892C45.7462 313.377 45.9943 314.133 45.9943 315.159V321H44.6534V315.159C44.6534 314.515 44.4773 314.055 44.125 313.778C43.7727 313.502 43.358 313.364 42.8807 313.364C42.267 313.364 41.7917 313.549 41.4545 313.92C41.1174 314.288 40.9489 314.754 40.9489 315.318V321H39.5852V315.023C39.5852 314.527 39.4242 314.127 39.1023 313.824C38.7803 313.517 38.3655 313.364 37.858 313.364C37.5095 313.364 37.1837 313.456 36.8807 313.642C36.5814 313.828 36.339 314.085 36.1534 314.415C35.9716 314.741 35.8807 315.117 35.8807 315.545V321H34.5398ZM48.446 324.273V312.273H49.7415V313.659H49.9006C49.9991 313.508 50.1354 313.314 50.3097 313.08C50.4877 312.841 50.7415 312.629 51.071 312.443C51.4044 312.254 51.8551 312.159 52.4233 312.159C53.1581 312.159 53.8059 312.343 54.3665 312.71C54.9271 313.078 55.3646 313.598 55.679 314.273C55.9934 314.947 56.1506 315.742 56.1506 316.659C56.1506 317.583 55.9934 318.384 55.679 319.062C55.3646 319.737 54.929 320.259 54.3722 320.631C53.8153 320.998 53.1733 321.182 52.446 321.182C51.8854 321.182 51.4366 321.089 51.0994 320.903C50.7623 320.714 50.5028 320.5 50.321 320.261C50.1392 320.019 49.9991 319.818 49.9006 319.659H49.7869V324.273H48.446ZM49.7642 316.636C49.7642 317.295 49.8608 317.877 50.054 318.381C50.2472 318.881 50.5294 319.273 50.9006 319.557C51.2718 319.837 51.7263 319.977 52.2642 319.977C52.8248 319.977 53.2926 319.83 53.6676 319.534C54.0464 319.235 54.3305 318.833 54.5199 318.33C54.7131 317.822 54.8097 317.258 54.8097 316.636C54.8097 316.023 54.715 315.47 54.5256 314.977C54.34 314.481 54.0578 314.089 53.679 313.801C53.304 313.509 52.8324 313.364 52.2642 313.364C51.7188 313.364 51.2604 313.502 50.8892 313.778C50.518 314.051 50.2377 314.434 50.0483 314.926C49.8589 315.415 49.7642 315.985 49.7642 316.636ZM58.196 321V312.273H59.4915V313.591H59.5824C59.7415 313.159 60.0294 312.809 60.446 312.54C60.8627 312.271 61.3324 312.136 61.8551 312.136C61.9536 312.136 62.0767 312.138 62.2244 312.142C62.3722 312.146 62.4839 312.152 62.5597 312.159V313.523C62.5142 313.511 62.41 313.494 62.2472 313.472C62.0881 313.445 61.9195 313.432 61.7415 313.432C61.3172 313.432 60.9384 313.521 60.6051 313.699C60.2756 313.873 60.0142 314.116 59.821 314.426C59.6316 314.733 59.5369 315.083 59.5369 315.477V321H58.196ZM67.5426 321.182C66.7017 321.182 65.9763 320.996 65.3665 320.625C64.7604 320.25 64.2926 319.727 63.9631 319.057C63.6373 318.383 63.4744 317.598 63.4744 316.705C63.4744 315.811 63.6373 315.023 63.9631 314.341C64.2926 313.655 64.7509 313.121 65.3381 312.739C65.929 312.352 66.6184 312.159 67.4062 312.159C67.8608 312.159 68.3097 312.235 68.7528 312.386C69.196 312.538 69.5994 312.784 69.9631 313.125C70.3267 313.462 70.6165 313.909 70.8324 314.466C71.0483 315.023 71.1562 315.708 71.1562 316.523V317.091H64.429V315.932H69.7926C69.7926 315.439 69.6941 315 69.4972 314.614C69.304 314.227 69.0275 313.922 68.6676 313.699C68.3116 313.475 67.8911 313.364 67.4062 313.364C66.8722 313.364 66.41 313.496 66.0199 313.761C65.6335 314.023 65.3362 314.364 65.1278 314.784C64.9195 315.205 64.8153 315.655 64.8153 316.136V316.909C64.8153 317.568 64.929 318.127 65.1562 318.585C65.3873 319.04 65.7074 319.386 66.1165 319.625C66.5256 319.86 67.0009 319.977 67.5426 319.977C67.8949 319.977 68.2131 319.928 68.4972 319.83C68.785 319.727 69.0331 319.576 69.2415 319.375C69.4498 319.17 69.6108 318.917 69.7244 318.614L71.0199 318.977C70.8835 319.417 70.6544 319.803 70.3324 320.136C70.0104 320.466 69.6127 320.723 69.1392 320.909C68.6657 321.091 68.1335 321.182 67.5426 321.182ZM76.7188 324.455C76.071 324.455 75.5142 324.371 75.0483 324.205C74.5824 324.042 74.1941 323.826 73.8835 323.557C73.5767 323.292 73.3324 323.008 73.1506 322.705L74.2188 321.955C74.34 322.114 74.4934 322.295 74.679 322.5C74.8646 322.708 75.1184 322.888 75.4403 323.04C75.7661 323.195 76.1922 323.273 76.7188 323.273C77.4233 323.273 78.0047 323.102 78.4631 322.761C78.9214 322.42 79.1506 321.886 79.1506 321.159V319.386H79.0369C78.9384 319.545 78.7983 319.742 78.6165 319.977C78.4384 320.208 78.1809 320.415 77.8438 320.597C77.5104 320.775 77.0597 320.864 76.4915 320.864C75.7869 320.864 75.1544 320.697 74.5938 320.364C74.0369 320.03 73.5956 319.545 73.2699 318.909C72.9479 318.273 72.7869 317.5 72.7869 316.591C72.7869 315.697 72.9441 314.919 73.2585 314.256C73.5729 313.589 74.0104 313.074 74.571 312.71C75.1316 312.343 75.7794 312.159 76.5142 312.159C77.0824 312.159 77.5331 312.254 77.8665 312.443C78.2036 312.629 78.4612 312.841 78.6392 313.08C78.821 313.314 78.9612 313.508 79.0597 313.659H79.196V312.273H80.4915V321.25C80.4915 322 80.321 322.61 79.9801 323.08C79.643 323.553 79.1884 323.9 78.6165 324.119C78.0483 324.343 77.4157 324.455 76.7188 324.455ZM76.6733 319.659C77.2112 319.659 77.6657 319.536 78.0369 319.29C78.4081 319.044 78.6903 318.689 78.8835 318.227C79.0767 317.765 79.1733 317.212 79.1733 316.568C79.1733 315.939 79.0786 315.384 78.8892 314.903C78.6998 314.422 78.4195 314.045 78.0483 313.773C77.6771 313.5 77.2188 313.364 76.6733 313.364C76.1051 313.364 75.6316 313.508 75.2528 313.795C74.8778 314.083 74.5956 314.47 74.4062 314.955C74.2206 315.439 74.1278 315.977 74.1278 316.568C74.1278 317.174 74.2225 317.71 74.4119 318.176C74.6051 318.638 74.8892 319.002 75.2642 319.267C75.643 319.528 76.1127 319.659 76.6733 319.659ZM86.4915 321.182C85.7036 321.182 85.0123 320.994 84.4176 320.619C83.8267 320.244 83.3646 319.72 83.0312 319.045C82.7017 318.371 82.5369 317.583 82.5369 316.682C82.5369 315.773 82.7017 314.979 83.0312 314.301C83.3646 313.623 83.8267 313.097 84.4176 312.722C85.0123 312.347 85.7036 312.159 86.4915 312.159C87.2794 312.159 87.9688 312.347 88.5597 312.722C89.1544 313.097 89.6165 313.623 89.946 314.301C90.2794 314.979 90.446 315.773 90.446 316.682C90.446 317.583 90.2794 318.371 89.946 319.045C89.6165 319.72 89.1544 320.244 88.5597 320.619C87.9688 320.994 87.2794 321.182 86.4915 321.182ZM86.4915 319.977C87.09 319.977 87.5824 319.824 87.9688 319.517C88.3551 319.21 88.6411 318.807 88.8267 318.307C89.0123 317.807 89.1051 317.265 89.1051 316.682C89.1051 316.098 89.0123 315.555 88.8267 315.051C88.6411 314.547 88.3551 314.14 87.9688 313.83C87.5824 313.519 87.09 313.364 86.4915 313.364C85.893 313.364 85.4006 313.519 85.0142 313.83C84.6278 314.14 84.3419 314.547 84.1562 315.051C83.9706 315.555 83.8778 316.098 83.8778 316.682C83.8778 317.265 83.9706 317.807 84.1562 318.307C84.3419 318.807 84.6278 319.21 85.0142 319.517C85.4006 319.824 85.893 319.977 86.4915 319.977ZM98.6747 314.227L97.4702 314.568C97.3944 314.367 97.2827 314.172 97.1349 313.983C96.991 313.79 96.794 313.631 96.544 313.506C96.294 313.381 95.974 313.318 95.5838 313.318C95.0497 313.318 94.6046 313.441 94.2486 313.688C93.8963 313.93 93.7202 314.239 93.7202 314.614C93.7202 314.947 93.8414 315.21 94.0838 315.403C94.3262 315.597 94.705 315.758 95.2202 315.886L96.5156 316.205C97.2959 316.394 97.8774 316.684 98.2599 317.074C98.6425 317.46 98.8338 317.958 98.8338 318.568C98.8338 319.068 98.6899 319.515 98.402 319.909C98.1179 320.303 97.7202 320.614 97.2088 320.841C96.6974 321.068 96.1027 321.182 95.4247 321.182C94.5346 321.182 93.7978 320.989 93.2145 320.602C92.6312 320.216 92.2618 319.652 92.1065 318.909L93.3793 318.591C93.5005 319.061 93.7296 319.413 94.0668 319.648C94.4077 319.883 94.8527 320 95.402 320C96.027 320 96.5232 319.867 96.8906 319.602C97.2618 319.333 97.4474 319.011 97.4474 318.636C97.4474 318.333 97.3414 318.08 97.1293 317.875C96.9171 317.667 96.5914 317.511 96.152 317.409L94.6974 317.068C93.8982 316.879 93.3111 316.585 92.9361 316.188C92.5649 315.786 92.3793 315.284 92.3793 314.682C92.3793 314.189 92.5175 313.754 92.794 313.375C93.0743 312.996 93.455 312.699 93.9361 312.483C94.4209 312.267 94.9702 312.159 95.5838 312.159C96.4474 312.159 97.1255 312.348 97.6179 312.727C98.1141 313.106 98.4664 313.606 98.6747 314.227ZM111.534 314.227L110.33 314.568C110.254 314.367 110.142 314.172 109.994 313.983C109.85 313.79 109.653 313.631 109.403 313.506C109.153 313.381 108.833 313.318 108.443 313.318C107.909 313.318 107.464 313.441 107.108 313.688C106.756 313.93 106.58 314.239 106.58 314.614C106.58 314.947 106.701 315.21 106.943 315.403C107.186 315.597 107.564 315.758 108.08 315.886L109.375 316.205C110.155 316.394 110.737 316.684 111.119 317.074C111.502 317.46 111.693 317.958 111.693 318.568C111.693 319.068 111.549 319.515 111.261 319.909C110.977 320.303 110.58 320.614 110.068 320.841C109.557 321.068 108.962 321.182 108.284 321.182C107.394 321.182 106.657 320.989 106.074 320.602C105.491 320.216 105.121 319.652 104.966 318.909L106.239 318.591C106.36 319.061 106.589 319.413 106.926 319.648C107.267 319.883 107.712 320 108.261 320C108.886 320 109.383 319.867 109.75 319.602C110.121 319.333 110.307 319.011 110.307 318.636C110.307 318.333 110.201 318.08 109.989 317.875C109.777 317.667 109.451 317.511 109.011 317.409L107.557 317.068C106.758 316.879 106.17 316.585 105.795 316.188C105.424 315.786 105.239 315.284 105.239 314.682C105.239 314.189 105.377 313.754 105.653 313.375C105.934 312.996 106.314 312.699 106.795 312.483C107.28 312.267 107.83 312.159 108.443 312.159C109.307 312.159 109.985 312.348 110.477 312.727C110.973 313.106 111.326 313.606 111.534 314.227ZM116.28 321.205C115.727 321.205 115.225 321.1 114.774 320.892C114.323 320.68 113.965 320.375 113.7 319.977C113.435 319.576 113.303 319.091 113.303 318.523C113.303 318.023 113.401 317.617 113.598 317.307C113.795 316.992 114.058 316.746 114.388 316.568C114.717 316.39 115.081 316.258 115.479 316.17C115.88 316.08 116.284 316.008 116.689 315.955C117.219 315.886 117.649 315.835 117.979 315.801C118.312 315.763 118.554 315.701 118.706 315.614C118.861 315.527 118.939 315.375 118.939 315.159V315.114C118.939 314.553 118.786 314.117 118.479 313.807C118.176 313.496 117.715 313.341 117.098 313.341C116.458 313.341 115.956 313.481 115.592 313.761C115.229 314.042 114.973 314.341 114.825 314.659L113.553 314.205C113.78 313.674 114.083 313.261 114.462 312.966C114.844 312.667 115.261 312.458 115.712 312.341C116.166 312.22 116.613 312.159 117.053 312.159C117.333 312.159 117.655 312.193 118.018 312.261C118.386 312.326 118.74 312.46 119.081 312.665C119.426 312.869 119.712 313.178 119.939 313.591C120.166 314.004 120.28 314.557 120.28 315.25V321H118.939V319.818H118.871C118.78 320.008 118.628 320.21 118.416 320.426C118.204 320.642 117.922 320.826 117.57 320.977C117.217 321.129 116.787 321.205 116.28 321.205ZM116.484 320C117.015 320 117.462 319.896 117.825 319.688C118.193 319.479 118.469 319.21 118.655 318.881C118.844 318.551 118.939 318.205 118.939 317.841V316.614C118.882 316.682 118.757 316.744 118.564 316.801C118.375 316.854 118.155 316.902 117.905 316.943C117.659 316.981 117.418 317.015 117.183 317.045C116.952 317.072 116.765 317.095 116.621 317.114C116.272 317.159 115.946 317.233 115.643 317.335C115.344 317.434 115.102 317.583 114.916 317.784C114.734 317.981 114.643 318.25 114.643 318.591C114.643 319.057 114.816 319.409 115.161 319.648C115.509 319.883 115.95 320 116.484 320ZM115.393 311.227L114.348 311.182C114.348 310.602 114.513 310.129 114.842 309.761C115.176 309.39 115.587 309.205 116.075 309.205C116.291 309.205 116.482 309.242 116.649 309.318C116.816 309.39 116.975 309.473 117.126 309.568C117.278 309.663 117.433 309.748 117.592 309.824C117.755 309.896 117.939 309.932 118.143 309.932C118.359 309.932 118.541 309.848 118.689 309.682C118.84 309.511 118.916 309.307 118.916 309.068L119.939 309.159C119.939 309.75 119.772 310.22 119.439 310.568C119.109 310.917 118.7 311.091 118.212 311.091C117.95 311.091 117.734 311.055 117.564 310.983C117.393 310.907 117.242 310.822 117.109 310.727C116.977 310.633 116.837 310.549 116.689 310.477C116.541 310.402 116.359 310.364 116.143 310.364C115.928 310.364 115.748 310.449 115.604 310.619C115.464 310.786 115.393 310.989 115.393 311.227ZM126.273 321.182C125.485 321.182 124.794 320.994 124.199 320.619C123.608 320.244 123.146 319.72 122.812 319.045C122.483 318.371 122.318 317.583 122.318 316.682C122.318 315.773 122.483 314.979 122.812 314.301C123.146 313.623 123.608 313.097 124.199 312.722C124.794 312.347 125.485 312.159 126.273 312.159C127.061 312.159 127.75 312.347 128.341 312.722C128.936 313.097 129.398 313.623 129.727 314.301C130.061 314.979 130.227 315.773 130.227 316.682C130.227 317.583 130.061 318.371 129.727 319.045C129.398 319.72 128.936 320.244 128.341 320.619C127.75 320.994 127.061 321.182 126.273 321.182ZM126.273 319.977C126.871 319.977 127.364 319.824 127.75 319.517C128.136 319.21 128.422 318.807 128.608 318.307C128.794 317.807 128.886 317.265 128.886 316.682C128.886 316.098 128.794 315.555 128.608 315.051C128.422 314.547 128.136 314.14 127.75 313.83C127.364 313.519 126.871 313.364 126.273 313.364C125.674 313.364 125.182 313.519 124.795 313.83C124.409 314.14 124.123 314.547 123.938 315.051C123.752 315.555 123.659 316.098 123.659 316.682C123.659 317.265 123.752 317.807 123.938 318.307C124.123 318.807 124.409 319.21 124.795 319.517C125.182 319.824 125.674 319.977 126.273 319.977ZM136.774 324.273V312.273H138.07V313.659H138.229C138.327 313.508 138.464 313.314 138.638 313.08C138.816 312.841 139.07 312.629 139.399 312.443C139.732 312.254 140.183 312.159 140.751 312.159C141.486 312.159 142.134 312.343 142.695 312.71C143.255 313.078 143.693 313.598 144.007 314.273C144.321 314.947 144.479 315.742 144.479 316.659C144.479 317.583 144.321 318.384 144.007 319.062C143.693 319.737 143.257 320.259 142.7 320.631C142.143 320.998 141.501 321.182 140.774 321.182C140.214 321.182 139.765 321.089 139.428 320.903C139.09 320.714 138.831 320.5 138.649 320.261C138.467 320.019 138.327 319.818 138.229 319.659H138.115V324.273H136.774ZM138.092 316.636C138.092 317.295 138.189 317.877 138.382 318.381C138.575 318.881 138.857 319.273 139.229 319.557C139.6 319.837 140.054 319.977 140.592 319.977C141.153 319.977 141.621 319.83 141.996 319.534C142.375 319.235 142.659 318.833 142.848 318.33C143.041 317.822 143.138 317.258 143.138 316.636C143.138 316.023 143.043 315.47 142.854 314.977C142.668 314.481 142.386 314.089 142.007 313.801C141.632 313.509 141.161 313.364 140.592 313.364C140.047 313.364 139.589 313.502 139.217 313.778C138.846 314.051 138.566 314.434 138.376 314.926C138.187 315.415 138.092 315.985 138.092 316.636ZM146.524 321V312.273H147.82V313.591H147.911C148.07 313.159 148.357 312.809 148.774 312.54C149.191 312.271 149.661 312.136 150.183 312.136C150.282 312.136 150.405 312.138 150.553 312.142C150.7 312.146 150.812 312.152 150.888 312.159V313.523C150.842 313.511 150.738 313.494 150.575 313.472C150.416 313.445 150.248 313.432 150.07 313.432C149.645 313.432 149.267 313.521 148.933 313.699C148.604 313.873 148.342 314.116 148.149 314.426C147.96 314.733 147.865 315.083 147.865 315.477V321H146.524ZM155.757 321.182C154.969 321.182 154.278 320.994 153.683 320.619C153.092 320.244 152.63 319.72 152.297 319.045C151.967 318.371 151.803 317.583 151.803 316.682C151.803 315.773 151.967 314.979 152.297 314.301C152.63 313.623 153.092 313.097 153.683 312.722C154.278 312.347 154.969 312.159 155.757 312.159C156.545 312.159 157.234 312.347 157.825 312.722C158.42 313.097 158.882 313.623 159.212 314.301C159.545 314.979 159.712 315.773 159.712 316.682C159.712 317.583 159.545 318.371 159.212 319.045C158.882 319.72 158.42 320.244 157.825 320.619C157.234 320.994 156.545 321.182 155.757 321.182ZM155.757 319.977C156.356 319.977 156.848 319.824 157.234 319.517C157.621 319.21 157.907 318.807 158.092 318.307C158.278 317.807 158.371 317.265 158.371 316.682C158.371 316.098 158.278 315.555 158.092 315.051C157.907 314.547 157.621 314.14 157.234 313.83C156.848 313.519 156.356 313.364 155.757 313.364C155.159 313.364 154.666 313.519 154.28 313.83C153.893 314.14 153.607 314.547 153.422 315.051C153.236 315.555 153.143 316.098 153.143 316.682C153.143 317.265 153.236 317.807 153.422 318.307C153.607 318.807 153.893 319.21 154.28 319.517C154.666 319.824 155.159 319.977 155.757 319.977ZM165.304 321.182C164.486 321.182 163.781 320.989 163.19 320.602C162.599 320.216 162.145 319.684 161.827 319.006C161.509 318.328 161.349 317.553 161.349 316.682C161.349 315.795 161.512 315.013 161.838 314.335C162.168 313.653 162.626 313.121 163.213 312.739C163.804 312.352 164.493 312.159 165.281 312.159C165.895 312.159 166.448 312.273 166.94 312.5C167.433 312.727 167.836 313.045 168.151 313.455C168.465 313.864 168.66 314.341 168.736 314.886H167.395C167.293 314.489 167.065 314.136 166.713 313.83C166.365 313.519 165.895 313.364 165.304 313.364C164.781 313.364 164.323 313.5 163.929 313.773C163.539 314.042 163.234 314.422 163.014 314.915C162.798 315.403 162.69 315.977 162.69 316.636C162.69 317.311 162.796 317.898 163.009 318.398C163.224 318.898 163.527 319.286 163.918 319.562C164.312 319.839 164.774 319.977 165.304 319.977C165.652 319.977 165.969 319.917 166.253 319.795C166.537 319.674 166.777 319.5 166.974 319.273C167.171 319.045 167.312 318.773 167.395 318.455H168.736C168.66 318.97 168.473 319.434 168.173 319.847C167.878 320.256 167.486 320.581 166.997 320.824C166.512 321.062 165.948 321.182 165.304 321.182ZM176.196 317.432V312.273H177.537V321H176.196V319.523H176.105C175.901 319.966 175.582 320.343 175.151 320.653C174.719 320.96 174.173 321.114 173.514 321.114C172.969 321.114 172.484 320.994 172.06 320.756C171.635 320.513 171.302 320.15 171.06 319.665C170.817 319.176 170.696 318.561 170.696 317.818V312.273H172.037V317.727C172.037 318.364 172.215 318.871 172.571 319.25C172.931 319.629 173.389 319.818 173.946 319.818C174.279 319.818 174.618 319.733 174.963 319.562C175.312 319.392 175.603 319.131 175.838 318.778C176.077 318.426 176.196 317.977 176.196 317.432ZM179.993 321V312.273H181.288V313.591H181.379C181.538 313.159 181.826 312.809 182.243 312.54C182.66 312.271 183.129 312.136 183.652 312.136C183.75 312.136 183.874 312.138 184.021 312.142C184.169 312.146 184.281 312.152 184.357 312.159V313.523C184.311 313.511 184.207 313.494 184.044 313.472C183.885 313.445 183.716 313.432 183.538 313.432C183.114 313.432 182.735 313.521 182.402 313.699C182.072 313.873 181.811 314.116 181.618 314.426C181.429 314.733 181.334 315.083 181.334 315.477V321H179.993ZM188.514 321.205C187.961 321.205 187.459 321.1 187.009 320.892C186.558 320.68 186.2 320.375 185.935 319.977C185.67 319.576 185.537 319.091 185.537 318.523C185.537 318.023 185.635 317.617 185.832 317.307C186.029 316.992 186.293 316.746 186.622 316.568C186.952 316.39 187.315 316.258 187.713 316.17C188.115 316.08 188.518 316.008 188.923 315.955C189.454 315.886 189.884 315.835 190.213 315.801C190.546 315.763 190.789 315.701 190.94 315.614C191.096 315.527 191.173 315.375 191.173 315.159V315.114C191.173 314.553 191.02 314.117 190.713 313.807C190.41 313.496 189.95 313.341 189.332 313.341C188.692 313.341 188.19 313.481 187.827 313.761C187.463 314.042 187.207 314.341 187.06 314.659L185.787 314.205C186.014 313.674 186.317 313.261 186.696 312.966C187.079 312.667 187.495 312.458 187.946 312.341C188.401 312.22 188.848 312.159 189.287 312.159C189.567 312.159 189.889 312.193 190.253 312.261C190.62 312.326 190.974 312.46 191.315 312.665C191.66 312.869 191.946 313.178 192.173 313.591C192.401 314.004 192.514 314.557 192.514 315.25V321H191.173V319.818H191.105C191.014 320.008 190.863 320.21 190.651 320.426C190.438 320.642 190.156 320.826 189.804 320.977C189.452 321.129 189.022 321.205 188.514 321.205ZM188.719 320C189.249 320 189.696 319.896 190.06 319.688C190.427 319.479 190.704 319.21 190.889 318.881C191.079 318.551 191.173 318.205 191.173 317.841V316.614C191.116 316.682 190.991 316.744 190.798 316.801C190.609 316.854 190.389 316.902 190.139 316.943C189.893 316.981 189.652 317.015 189.418 317.045C189.187 317.072 188.999 317.095 188.855 317.114C188.507 317.159 188.181 317.233 187.878 317.335C187.579 317.434 187.336 317.583 187.151 317.784C186.969 317.981 186.878 318.25 186.878 318.591C186.878 319.057 187.05 319.409 187.395 319.648C187.743 319.883 188.185 320 188.719 320ZM198.257 321.182C197.53 321.182 196.888 320.998 196.331 320.631C195.774 320.259 195.339 319.737 195.024 319.062C194.71 318.384 194.553 317.583 194.553 316.659C194.553 315.742 194.71 314.947 195.024 314.273C195.339 313.598 195.776 313.078 196.337 312.71C196.897 312.343 197.545 312.159 198.28 312.159C198.848 312.159 199.297 312.254 199.626 312.443C199.96 312.629 200.214 312.841 200.388 313.08C200.566 313.314 200.704 313.508 200.803 313.659H200.916V309.364H202.257V321H200.962V319.659H200.803C200.704 319.818 200.564 320.019 200.382 320.261C200.2 320.5 199.941 320.714 199.604 320.903C199.267 321.089 198.818 321.182 198.257 321.182ZM198.439 319.977C198.977 319.977 199.431 319.837 199.803 319.557C200.174 319.273 200.456 318.881 200.649 318.381C200.842 317.877 200.939 317.295 200.939 316.636C200.939 315.985 200.844 315.415 200.655 314.926C200.465 314.434 200.185 314.051 199.814 313.778C199.443 313.502 198.984 313.364 198.439 313.364C197.871 313.364 197.397 313.509 197.018 313.801C196.643 314.089 196.361 314.481 196.172 314.977C195.986 315.47 195.893 316.023 195.893 316.636C195.893 317.258 195.988 317.822 196.178 318.33C196.371 318.833 196.655 319.235 197.03 319.534C197.409 319.83 197.878 319.977 198.439 319.977ZM208.445 321.182C207.657 321.182 206.965 320.994 206.371 320.619C205.78 320.244 205.318 319.72 204.984 319.045C204.655 318.371 204.49 317.583 204.49 316.682C204.49 315.773 204.655 314.979 204.984 314.301C205.318 313.623 205.78 313.097 206.371 312.722C206.965 312.347 207.657 312.159 208.445 312.159C209.232 312.159 209.922 312.347 210.513 312.722C211.107 313.097 211.57 313.623 211.899 314.301C212.232 314.979 212.399 315.773 212.399 316.682C212.399 317.583 212.232 318.371 211.899 319.045C211.57 319.72 211.107 320.244 210.513 320.619C209.922 320.994 209.232 321.182 208.445 321.182ZM208.445 319.977C209.043 319.977 209.536 319.824 209.922 319.517C210.308 319.21 210.594 318.807 210.78 318.307C210.965 317.807 211.058 317.265 211.058 316.682C211.058 316.098 210.965 315.555 210.78 315.051C210.594 314.547 210.308 314.14 209.922 313.83C209.536 313.519 209.043 313.364 208.445 313.364C207.846 313.364 207.354 313.519 206.967 313.83C206.581 314.14 206.295 314.547 206.109 315.051C205.924 315.555 205.831 316.098 205.831 316.682C205.831 317.265 205.924 317.807 206.109 318.307C206.295 318.807 206.581 319.21 206.967 319.517C207.354 319.824 207.846 319.977 208.445 319.977ZM220.628 314.227L219.423 314.568C219.348 314.367 219.236 314.172 219.088 313.983C218.944 313.79 218.747 313.631 218.497 313.506C218.247 313.381 217.927 313.318 217.537 313.318C217.003 313.318 216.558 313.441 216.202 313.688C215.849 313.93 215.673 314.239 215.673 314.614C215.673 314.947 215.795 315.21 216.037 315.403C216.279 315.597 216.658 315.758 217.173 315.886L218.469 316.205C219.249 316.394 219.83 316.684 220.213 317.074C220.596 317.46 220.787 317.958 220.787 318.568C220.787 319.068 220.643 319.515 220.355 319.909C220.071 320.303 219.673 320.614 219.162 320.841C218.651 321.068 218.056 321.182 217.378 321.182C216.488 321.182 215.751 320.989 215.168 320.602C214.584 320.216 214.215 319.652 214.06 318.909L215.332 318.591C215.454 319.061 215.683 319.413 216.02 319.648C216.361 319.883 216.806 320 217.355 320C217.98 320 218.476 319.867 218.844 319.602C219.215 319.333 219.401 319.011 219.401 318.636C219.401 318.333 219.295 318.08 219.082 317.875C218.87 317.667 218.545 317.511 218.105 317.409L216.651 317.068C215.851 316.879 215.264 316.585 214.889 316.188C214.518 315.786 214.332 315.284 214.332 314.682C214.332 314.189 214.471 313.754 214.747 313.375C215.027 312.996 215.408 312.699 215.889 312.483C216.374 312.267 216.923 312.159 217.537 312.159C218.401 312.159 219.079 312.348 219.571 312.727C220.067 313.106 220.42 313.606 220.628 314.227ZM27.7955 347.205C27.2424 347.205 26.7405 347.1 26.2898 346.892C25.839 346.68 25.4811 346.375 25.2159 345.977C24.9508 345.576 24.8182 345.091 24.8182 344.523C24.8182 344.023 24.9167 343.617 25.1136 343.307C25.3106 342.992 25.5739 342.746 25.9034 342.568C26.233 342.39 26.5966 342.258 26.9943 342.17C27.3958 342.08 27.7992 342.008 28.2045 341.955C28.7348 341.886 29.1648 341.835 29.4943 341.801C29.8277 341.763 30.0701 341.701 30.2216 341.614C30.3769 341.527 30.4545 341.375 30.4545 341.159V341.114C30.4545 340.553 30.3011 340.117 29.9943 339.807C29.6913 339.496 29.2311 339.341 28.6136 339.341C27.9735 339.341 27.4716 339.481 27.108 339.761C26.7443 340.042 26.4886 340.341 26.3409 340.659L25.0682 340.205C25.2955 339.674 25.5985 339.261 25.9773 338.966C26.3598 338.667 26.7765 338.458 27.2273 338.341C27.6818 338.22 28.1288 338.159 28.5682 338.159C28.8485 338.159 29.1705 338.193 29.5341 338.261C29.9015 338.326 30.2557 338.46 30.5966 338.665C30.9413 338.869 31.2273 339.178 31.4545 339.591C31.6818 340.004 31.7955 340.557 31.7955 341.25V347H30.4545V345.818H30.3864C30.2955 346.008 30.1439 346.21 29.9318 346.426C29.7197 346.642 29.4375 346.826 29.0852 346.977C28.733 347.129 28.303 347.205 27.7955 347.205ZM28 346C28.5303 346 28.9773 345.896 29.3409 345.688C29.7083 345.479 29.9848 345.21 30.1705 344.881C30.3598 344.551 30.4545 344.205 30.4545 343.841V342.614C30.3977 342.682 30.2727 342.744 30.0795 342.801C29.8902 342.854 29.6705 342.902 29.4205 342.943C29.1742 342.981 28.9337 343.015 28.6989 343.045C28.4678 343.072 28.2803 343.095 28.1364 343.114C27.7879 343.159 27.4621 343.233 27.1591 343.335C26.8598 343.434 26.6174 343.583 26.4318 343.784C26.25 343.981 26.1591 344.25 26.1591 344.591C26.1591 345.057 26.3314 345.409 26.6761 345.648C27.0246 345.883 27.4659 346 28 346ZM39.7429 343.432V338.273H41.0838V347H39.7429V345.523H39.652C39.4474 345.966 39.1293 346.343 38.6974 346.653C38.2656 346.96 37.7202 347.114 37.0611 347.114C36.5156 347.114 36.0308 346.994 35.6065 346.756C35.1823 346.513 34.849 346.15 34.6065 345.665C34.3641 345.176 34.2429 344.561 34.2429 343.818V338.273H35.5838V343.727C35.5838 344.364 35.7618 344.871 36.1179 345.25C36.4777 345.629 36.9361 345.818 37.4929 345.818C37.8262 345.818 38.1652 345.733 38.5099 345.562C38.8584 345.392 39.1501 345.131 39.3849 344.778C39.6236 344.426 39.7429 343.977 39.7429 343.432ZM47.3352 338.273V339.409H42.8125V338.273H47.3352ZM44.1307 336.182H45.4716V344.5C45.4716 344.879 45.5265 345.163 45.6364 345.352C45.75 345.538 45.8939 345.663 46.0682 345.727C46.2462 345.788 46.4337 345.818 46.6307 345.818C46.7784 345.818 46.8996 345.811 46.9943 345.795C47.089 345.777 47.1648 345.761 47.2216 345.75L47.4943 346.955C47.4034 346.989 47.2765 347.023 47.1136 347.057C46.9508 347.095 46.7443 347.114 46.4943 347.114C46.1155 347.114 45.7443 347.032 45.3807 346.869C45.0208 346.706 44.7216 346.458 44.483 346.125C44.2481 345.792 44.1307 345.371 44.1307 344.864V336.182ZM52.804 347.182C52.0161 347.182 51.3248 346.994 50.7301 346.619C50.1392 346.244 49.6771 345.72 49.3438 345.045C49.0142 344.371 48.8494 343.583 48.8494 342.682C48.8494 341.773 49.0142 340.979 49.3438 340.301C49.6771 339.623 50.1392 339.097 50.7301 338.722C51.3248 338.347 52.0161 338.159 52.804 338.159C53.5919 338.159 54.2813 338.347 54.8722 338.722C55.4669 339.097 55.929 339.623 56.2585 340.301C56.5919 340.979 56.7585 341.773 56.7585 342.682C56.7585 343.583 56.5919 344.371 56.2585 345.045C55.929 345.72 55.4669 346.244 54.8722 346.619C54.2813 346.994 53.5919 347.182 52.804 347.182ZM52.804 345.977C53.4025 345.977 53.8949 345.824 54.2812 345.517C54.6676 345.21 54.9536 344.807 55.1392 344.307C55.3248 343.807 55.4176 343.265 55.4176 342.682C55.4176 342.098 55.3248 341.555 55.1392 341.051C54.9536 340.547 54.6676 340.14 54.2812 339.83C53.8949 339.519 53.4025 339.364 52.804 339.364C52.2055 339.364 51.7131 339.519 51.3267 339.83C50.9403 340.14 50.6544 340.547 50.4688 341.051C50.2831 341.555 50.1903 342.098 50.1903 342.682C50.1903 343.265 50.2831 343.807 50.4688 344.307C50.6544 344.807 50.9403 345.21 51.3267 345.517C51.7131 345.824 52.2055 345.977 52.804 345.977ZM58.8054 347V338.273H60.1009V339.636H60.2145C60.3963 339.17 60.6899 338.809 61.0952 338.551C61.5005 338.29 61.9872 338.159 62.5554 338.159C63.1312 338.159 63.6103 338.29 63.9929 338.551C64.3793 338.809 64.6804 339.17 64.8963 339.636H64.9872C65.2107 339.186 65.5459 338.828 65.9929 338.562C66.4399 338.294 66.9759 338.159 67.6009 338.159C68.3812 338.159 69.0194 338.403 69.5156 338.892C70.0118 339.377 70.2599 340.133 70.2599 341.159V347H68.919V341.159C68.919 340.515 68.7429 340.055 68.3906 339.778C68.0384 339.502 67.6236 339.364 67.1463 339.364C66.5327 339.364 66.0573 339.549 65.7202 339.92C65.383 340.288 65.2145 340.754 65.2145 341.318V347H63.8509V341.023C63.8509 340.527 63.6899 340.127 63.3679 339.824C63.0459 339.517 62.6312 339.364 62.1236 339.364C61.7751 339.364 61.4493 339.456 61.1463 339.642C60.8471 339.828 60.6046 340.085 60.419 340.415C60.2372 340.741 60.1463 341.117 60.1463 341.545V347H58.8054ZM75.2798 347.205C74.7268 347.205 74.2249 347.1 73.7741 346.892C73.3234 346.68 72.9654 346.375 72.7003 345.977C72.4351 345.576 72.3026 345.091 72.3026 344.523C72.3026 344.023 72.401 343.617 72.598 343.307C72.795 342.992 73.0582 342.746 73.3878 342.568C73.7173 342.39 74.081 342.258 74.4787 342.17C74.8802 342.08 75.2836 342.008 75.6889 341.955C76.2192 341.886 76.6491 341.835 76.9787 341.801C77.312 341.763 77.5545 341.701 77.706 341.614C77.8613 341.527 77.9389 341.375 77.9389 341.159V341.114C77.9389 340.553 77.7855 340.117 77.4787 339.807C77.1757 339.496 76.7154 339.341 76.098 339.341C75.4579 339.341 74.956 339.481 74.5923 339.761C74.2287 340.042 73.973 340.341 73.8253 340.659L72.5526 340.205C72.7798 339.674 73.0829 339.261 73.4616 338.966C73.8442 338.667 74.2609 338.458 74.7116 338.341C75.1662 338.22 75.6132 338.159 76.0526 338.159C76.3329 338.159 76.6548 338.193 77.0185 338.261C77.3859 338.326 77.7401 338.46 78.081 338.665C78.4257 338.869 78.7116 339.178 78.9389 339.591C79.1662 340.004 79.2798 340.557 79.2798 341.25V347H77.9389V345.818H77.8707C77.7798 346.008 77.6283 346.21 77.4162 346.426C77.2041 346.642 76.9219 346.826 76.5696 346.977C76.2173 347.129 75.7874 347.205 75.2798 347.205ZM75.4844 346C76.0147 346 76.4616 345.896 76.8253 345.688C77.1927 345.479 77.4692 345.21 77.6548 344.881C77.8442 344.551 77.9389 344.205 77.9389 343.841V342.614C77.8821 342.682 77.7571 342.744 77.5639 342.801C77.3745 342.854 77.1548 342.902 76.9048 342.943C76.6586 342.981 76.4181 343.015 76.1832 343.045C75.9522 343.072 75.7647 343.095 75.6207 343.114C75.2723 343.159 74.9465 343.233 74.6435 343.335C74.3442 343.434 74.1018 343.583 73.9162 343.784C73.7344 343.981 73.6435 344.25 73.6435 344.591C73.6435 345.057 73.8158 345.409 74.1605 345.648C74.509 345.883 74.9503 346 75.4844 346ZM85.5227 338.273V339.409H81V338.273H85.5227ZM82.3182 336.182H83.6591V344.5C83.6591 344.879 83.714 345.163 83.8239 345.352C83.9375 345.538 84.0814 345.663 84.2557 345.727C84.4337 345.788 84.6212 345.818 84.8182 345.818C84.9659 345.818 85.0871 345.811 85.1818 345.795C85.2765 345.777 85.3523 345.761 85.4091 345.75L85.6818 346.955C85.5909 346.989 85.464 347.023 85.3011 347.057C85.1383 347.095 84.9318 347.114 84.6818 347.114C84.303 347.114 83.9318 347.032 83.5682 346.869C83.2083 346.706 82.9091 346.458 82.6705 346.125C82.4356 345.792 82.3182 345.371 82.3182 344.864V336.182ZM87.5398 347V338.273H88.8807V347H87.5398ZM88.2216 336.818C87.9602 336.818 87.7348 336.729 87.5455 336.551C87.3598 336.373 87.267 336.159 87.267 335.909C87.267 335.659 87.3598 335.445 87.5455 335.267C87.7348 335.089 87.9602 335 88.2216 335C88.483 335 88.7064 335.089 88.892 335.267C89.0814 335.445 89.1761 335.659 89.1761 335.909C89.1761 336.159 89.0814 336.373 88.892 336.551C88.7064 336.729 88.483 336.818 88.2216 336.818ZM94.8821 347.182C94.0639 347.182 93.3594 346.989 92.7685 346.602C92.1776 346.216 91.723 345.684 91.4048 345.006C91.0866 344.328 90.9276 343.553 90.9276 342.682C90.9276 341.795 91.0904 341.013 91.4162 340.335C91.7457 339.653 92.2041 339.121 92.7912 338.739C93.3821 338.352 94.0715 338.159 94.8594 338.159C95.473 338.159 96.026 338.273 96.5185 338.5C97.0109 338.727 97.4143 339.045 97.7287 339.455C98.0431 339.864 98.2382 340.341 98.3139 340.886H96.973C96.8707 340.489 96.6435 340.136 96.2912 339.83C95.9427 339.519 95.473 339.364 94.8821 339.364C94.3594 339.364 93.901 339.5 93.5071 339.773C93.117 340.042 92.812 340.422 92.5923 340.915C92.3764 341.403 92.2685 341.977 92.2685 342.636C92.2685 343.311 92.3745 343.898 92.5866 344.398C92.8026 344.898 93.1056 345.286 93.4957 345.562C93.8897 345.839 94.3518 345.977 94.8821 345.977C95.2306 345.977 95.5469 345.917 95.831 345.795C96.1151 345.674 96.3556 345.5 96.5526 345.273C96.7495 345.045 96.8897 344.773 96.973 344.455H98.3139C98.2382 344.97 98.0507 345.434 97.7514 345.847C97.456 346.256 97.0639 346.581 96.5753 346.824C96.0904 347.062 95.526 347.182 94.8821 347.182ZM102.842 347.205C102.289 347.205 101.787 347.1 101.337 346.892C100.886 346.68 100.528 346.375 100.263 345.977C99.9976 345.576 99.8651 345.091 99.8651 344.523C99.8651 344.023 99.9635 343.617 100.161 343.307C100.357 342.992 100.621 342.746 100.95 342.568C101.28 342.39 101.643 342.258 102.041 342.17C102.443 342.08 102.846 342.008 103.251 341.955C103.782 341.886 104.212 341.835 104.541 341.801C104.875 341.763 105.117 341.701 105.268 341.614C105.424 341.527 105.501 341.375 105.501 341.159V341.114C105.501 340.553 105.348 340.117 105.041 339.807C104.738 339.496 104.278 339.341 103.661 339.341C103.02 339.341 102.518 339.481 102.155 339.761C101.791 340.042 101.536 340.341 101.388 340.659L100.115 340.205C100.342 339.674 100.645 339.261 101.024 338.966C101.407 338.667 101.823 338.458 102.274 338.341C102.729 338.22 103.176 338.159 103.615 338.159C103.895 338.159 104.217 338.193 104.581 338.261C104.948 338.326 105.303 338.46 105.643 338.665C105.988 338.869 106.274 339.178 106.501 339.591C106.729 340.004 106.842 340.557 106.842 341.25V347H105.501V345.818H105.433C105.342 346.008 105.191 346.21 104.979 346.426C104.767 346.642 104.484 346.826 104.132 346.977C103.78 347.129 103.35 347.205 102.842 347.205ZM103.047 346C103.577 346 104.024 345.896 104.388 345.688C104.755 345.479 105.032 345.21 105.217 344.881C105.407 344.551 105.501 344.205 105.501 343.841V342.614C105.445 342.682 105.32 342.744 105.126 342.801C104.937 342.854 104.717 342.902 104.467 342.943C104.221 342.981 103.981 343.015 103.746 343.045C103.515 343.072 103.327 343.095 103.183 343.114C102.835 343.159 102.509 343.233 102.206 343.335C101.907 343.434 101.664 343.583 101.479 343.784C101.297 343.981 101.206 344.25 101.206 344.591C101.206 345.057 101.378 345.409 101.723 345.648C102.071 345.883 102.513 346 103.047 346ZM109.29 347V338.273H110.585V339.636H110.699C110.881 339.17 111.174 338.809 111.58 338.551C111.985 338.29 112.472 338.159 113.04 338.159C113.616 338.159 114.095 338.29 114.477 338.551C114.864 338.809 115.165 339.17 115.381 339.636H115.472C115.695 339.186 116.03 338.828 116.477 338.562C116.924 338.294 117.46 338.159 118.085 338.159C118.866 338.159 119.504 338.403 120 338.892C120.496 339.377 120.744 340.133 120.744 341.159V347H119.403V341.159C119.403 340.515 119.227 340.055 118.875 339.778C118.523 339.502 118.108 339.364 117.631 339.364C117.017 339.364 116.542 339.549 116.205 339.92C115.867 340.288 115.699 340.754 115.699 341.318V347H114.335V341.023C114.335 340.527 114.174 340.127 113.852 339.824C113.53 339.517 113.116 339.364 112.608 339.364C112.259 339.364 111.934 339.456 111.631 339.642C111.331 339.828 111.089 340.085 110.903 340.415C110.722 340.741 110.631 341.117 110.631 341.545V347H109.29ZM126.855 347.182C126.014 347.182 125.289 346.996 124.679 346.625C124.073 346.25 123.605 345.727 123.276 345.057C122.95 344.383 122.787 343.598 122.787 342.705C122.787 341.811 122.95 341.023 123.276 340.341C123.605 339.655 124.063 339.121 124.651 338.739C125.241 338.352 125.931 338.159 126.719 338.159C127.173 338.159 127.622 338.235 128.065 338.386C128.509 338.538 128.912 338.784 129.276 339.125C129.639 339.462 129.929 339.909 130.145 340.466C130.361 341.023 130.469 341.708 130.469 342.523V343.091H123.741V341.932H129.105C129.105 341.439 129.007 341 128.81 340.614C128.616 340.227 128.34 339.922 127.98 339.699C127.624 339.475 127.204 339.364 126.719 339.364C126.185 339.364 125.723 339.496 125.332 339.761C124.946 340.023 124.649 340.364 124.44 340.784C124.232 341.205 124.128 341.655 124.128 342.136V342.909C124.128 343.568 124.241 344.127 124.469 344.585C124.7 345.04 125.02 345.386 125.429 345.625C125.838 345.86 126.313 345.977 126.855 345.977C127.207 345.977 127.526 345.928 127.81 345.83C128.098 345.727 128.346 345.576 128.554 345.375C128.762 345.17 128.923 344.917 129.037 344.614L130.332 344.977C130.196 345.417 129.967 345.803 129.645 346.136C129.323 346.466 128.925 346.723 128.452 346.909C127.978 347.091 127.446 347.182 126.855 347.182ZM133.849 341.75V347H132.509V338.273H133.804V339.636H133.918C134.122 339.193 134.433 338.837 134.849 338.568C135.266 338.295 135.804 338.159 136.463 338.159C137.054 338.159 137.571 338.28 138.014 338.523C138.457 338.761 138.802 339.125 139.048 339.614C139.295 340.098 139.418 340.712 139.418 341.455V347H138.077V341.545C138.077 340.86 137.899 340.326 137.543 339.943C137.187 339.557 136.698 339.364 136.077 339.364C135.649 339.364 135.266 339.456 134.929 339.642C134.596 339.828 134.332 340.098 134.139 340.455C133.946 340.811 133.849 341.242 133.849 341.75ZM145.663 338.273V339.409H141.141V338.273H145.663ZM142.459 336.182H143.8V344.5C143.8 344.879 143.855 345.163 143.964 345.352C144.078 345.538 144.222 345.663 144.396 345.727C144.574 345.788 144.762 345.818 144.959 345.818C145.107 345.818 145.228 345.811 145.322 345.795C145.417 345.777 145.493 345.761 145.55 345.75L145.822 346.955C145.732 346.989 145.605 347.023 145.442 347.057C145.279 347.095 145.072 347.114 144.822 347.114C144.444 347.114 144.072 347.032 143.709 346.869C143.349 346.706 143.05 346.458 142.811 346.125C142.576 345.792 142.459 345.371 142.459 344.864V336.182ZM151.246 347.182C150.405 347.182 149.679 346.996 149.07 346.625C148.464 346.25 147.996 345.727 147.666 345.057C147.34 344.383 147.178 343.598 147.178 342.705C147.178 341.811 147.34 341.023 147.666 340.341C147.996 339.655 148.454 339.121 149.041 338.739C149.632 338.352 150.321 338.159 151.109 338.159C151.564 338.159 152.013 338.235 152.456 338.386C152.899 338.538 153.303 338.784 153.666 339.125C154.03 339.462 154.32 339.909 154.536 340.466C154.751 341.023 154.859 341.708 154.859 342.523V343.091H148.132V341.932H153.496C153.496 341.439 153.397 341 153.2 340.614C153.007 340.227 152.731 339.922 152.371 339.699C152.015 339.475 151.594 339.364 151.109 339.364C150.575 339.364 150.113 339.496 149.723 339.761C149.337 340.023 149.039 340.364 148.831 340.784C148.623 341.205 148.518 341.655 148.518 342.136V342.909C148.518 343.568 148.632 344.127 148.859 344.585C149.09 345.04 149.411 345.386 149.82 345.625C150.229 345.86 150.704 345.977 151.246 345.977C151.598 345.977 151.916 345.928 152.2 345.83C152.488 345.727 152.736 345.576 152.945 345.375C153.153 345.17 153.314 344.917 153.428 344.614L154.723 344.977C154.587 345.417 154.357 345.803 154.036 346.136C153.714 346.466 153.316 346.723 152.842 346.909C152.369 347.091 151.837 347.182 151.246 347.182ZM157.876 347.091C157.596 347.091 157.356 346.991 157.155 346.79C156.954 346.589 156.854 346.348 156.854 346.068C156.854 345.788 156.954 345.547 157.155 345.347C157.356 345.146 157.596 345.045 157.876 345.045C158.157 345.045 158.397 345.146 158.598 345.347C158.799 345.547 158.899 345.788 158.899 346.068C158.899 346.254 158.852 346.424 158.757 346.58C158.666 346.735 158.543 346.86 158.388 346.955C158.236 347.045 158.066 347.091 157.876 347.091Z" fill="black"/>
<path d="M122.333 128.005C122.323 128.005 122.323 128.005 122.333 128.005C115.141 128.005 108.604 130.927 103.896 135.641C99.1823 140.349 96.2552 146.896 96.2604 154.083C96.2604 161.276 99.1823 167.818 103.896 172.526C108.599 177.24 115.135 180.162 122.318 180.162H122.323C129.516 180.162 136.052 177.24 140.755 172.526C145.464 167.818 148.396 161.271 148.385 154.083H141.979C141.979 159.526 139.781 164.422 136.224 167.99C132.656 171.557 127.766 173.75 122.323 173.75C116.885 173.75 111.995 171.552 108.427 167.99C104.865 164.422 102.672 159.521 102.672 154.083C102.672 148.641 104.87 143.745 108.427 140.172C111.995 136.61 116.891 134.417 122.323 134.417C127.766 134.417 132.656 136.61 136.224 140.172C139.786 143.745 141.979 148.641 141.979 154.083H148.385C148.385 146.891 145.464 140.349 140.755 135.641C136.052 130.927 129.516 128.005 122.333 128.005Z" fill="#60C3D8"/>
<mask id="mask0_451_211" style="mask-type:luminance" maskUnits="userSpaceOnUse" x="62" y="93" width="121" height="122">
<path d="M62.2031 93H183V214.208H62.2031V93Z" fill="white"/>
</mask>
<g mask="url(#mask0_451_211)">
<path d="M148.339 111.068C144.042 108.463 139.333 106.495 134.333 105.271L133.573 108.385H136.776V102.656C136.776 100.266 135.802 98.0833 134.24 96.5155C132.682 94.953 130.49 93.9687 128.104 93.9791H116.552C114.167 93.9791 111.984 94.953 110.417 96.5155C108.854 98.0728 107.875 100.271 107.88 102.656V108.385H111.083L110.323 105.271C105.323 106.495 100.609 108.463 96.3177 111.068L97.9792 113.812L100.25 111.542L96.1979 107.495C95.3594 106.656 94.3698 106.016 93.3281 105.588C92.2813 105.167 91.1719 104.958 90.0677 104.958C88.9583 104.958 87.849 105.167 86.8021 105.588C85.7604 106.016 84.7708 106.656 83.9323 107.495L75.7604 115.672C74.9219 116.51 74.2813 117.5 73.8594 118.542C73.4375 119.588 73.224 120.698 73.224 121.807C73.224 122.917 73.4375 124.026 73.8594 125.073C74.2813 126.12 74.9219 127.104 75.7604 127.943L79.8125 132L82.0729 129.729L79.3333 128.068C76.7292 132.365 74.7604 137.078 73.5365 142.078L76.651 142.844V139.635H70.9219C68.5417 139.635 66.3542 140.609 64.7917 142.177C63.2292 143.734 62.2448 145.927 62.2552 148.312V159.875C62.2552 162.26 63.2292 164.448 64.7917 166.01C66.349 167.573 68.5417 168.557 70.9219 168.552H76.651V165.344L73.5365 166.109C74.7604 171.109 76.7292 175.828 79.3333 180.12L82.0729 178.458L79.8125 176.187L75.7604 180.24C74.9219 181.078 74.2813 182.068 73.8594 183.115C73.4375 184.156 73.224 185.266 73.224 186.375C73.224 187.484 73.4375 188.594 73.8594 189.641C74.2813 190.687 74.9219 191.672 75.7604 192.516L83.9323 200.693C84.7708 201.531 85.7604 202.172 86.8021 202.594C87.849 203.016 88.9583 203.229 90.0677 203.229C91.1719 203.229 92.2813 203.016 93.3281 202.594C94.3698 202.172 95.3594 201.531 96.1979 200.693L100.25 196.635L97.9792 194.375L96.3177 197.109C100.615 199.713 105.323 201.682 110.323 202.911L111.083 199.792H107.88V205.526C107.88 207.911 108.854 210.099 110.417 211.661C111.974 213.229 114.167 214.208 116.552 214.203H128.104C130.49 214.203 132.677 213.229 134.24 211.661C135.802 210.104 136.781 207.911 136.776 205.526V199.792H133.573L134.333 202.911C139.333 201.682 144.042 199.713 148.339 197.109L146.677 194.375L144.417 196.635L148.458 200.693C149.297 201.531 150.286 202.172 151.328 202.594C152.375 203.016 153.484 203.229 154.594 203.229C155.698 203.229 156.807 203.016 157.854 202.594C158.896 202.172 159.885 201.531 160.724 200.693L168.896 192.516C169.734 191.672 170.375 190.687 170.797 189.641C171.219 188.594 171.432 187.484 171.432 186.375C171.432 185.266 171.219 184.156 170.797 183.115C170.375 182.068 169.734 181.078 168.896 180.24L164.844 176.187L162.583 178.458L165.323 180.12C167.927 175.823 169.896 171.109 171.12 166.109L168.005 165.344V168.552H173.734C176.115 168.552 178.307 167.573 179.865 166.01C181.427 164.453 182.411 162.26 182.401 159.875C182.401 158.104 180.969 156.667 179.198 156.667C177.432 156.667 175.995 158.104 175.995 159.875C175.995 160.51 175.745 161.052 175.333 161.479C174.917 161.896 174.37 162.135 173.734 162.146H165.49L164.896 164.588C163.828 168.953 162.109 173.062 159.844 176.802L158.547 178.953L164.37 184.781C164.594 185.01 164.755 185.255 164.87 185.526C164.979 185.792 165.036 186.088 165.036 186.375C165.036 186.667 164.979 186.958 164.87 187.229C164.76 187.5 164.599 187.75 164.37 187.974L156.198 196.151C155.974 196.38 155.724 196.536 155.458 196.651C155.188 196.76 154.891 196.818 154.604 196.818C154.307 196.818 154.021 196.76 153.75 196.651C153.484 196.542 153.234 196.38 153 196.151L147.177 190.323L145.031 191.625C141.292 193.891 137.188 195.604 132.823 196.677L130.38 197.271V205.521C130.38 206.156 130.13 206.698 129.719 207.12C129.302 207.536 128.755 207.781 128.12 207.786H116.563C115.927 207.786 115.385 207.536 114.964 207.12C114.547 206.703 114.302 206.161 114.297 205.521V197.271L111.854 196.677C107.49 195.604 103.38 193.885 99.6458 191.625L97.5 190.323L91.6719 196.151C91.4427 196.38 91.1979 196.536 90.9323 196.651C90.6615 196.76 90.3646 196.818 90.0781 196.818C89.7813 196.818 89.4948 196.76 89.224 196.651C88.9583 196.542 88.7083 196.38 88.474 196.151L80.3073 187.974C80.0833 187.745 79.9219 187.5 79.8073 187.229C79.6979 186.958 79.6406 186.667 79.6406 186.375C79.6406 186.088 79.6979 185.792 79.8073 185.526C79.9167 185.255 80.0729 185.005 80.3073 184.781L86.1302 178.953L84.8281 176.802C82.5625 173.062 80.849 168.953 79.7813 164.588L79.1771 162.146H70.9219C70.2917 162.146 69.7448 161.896 69.3229 161.479C68.9063 161.062 68.6615 160.516 68.6563 159.875V148.312C68.6563 147.677 68.9063 147.13 69.3229 146.708C69.7396 146.292 70.2813 146.047 70.9219 146.047H79.1667L79.7656 143.604C80.8385 139.24 82.5573 135.125 84.8177 131.391L86.1198 129.24L80.2917 123.411C80.0677 123.182 79.9063 122.937 79.7917 122.661C79.6823 122.391 79.625 122.104 79.625 121.807C79.625 121.516 79.6823 121.224 79.7917 120.953C79.901 120.687 80.0625 120.437 80.2917 120.213L88.4635 112.036C88.6927 111.812 88.9375 111.651 89.2083 111.536C89.474 111.427 89.7708 111.37 90.0573 111.37C90.3542 111.37 90.6406 111.427 90.9115 111.536C91.1823 111.646 91.4323 111.802 91.6615 112.036L97.4844 117.865L99.6354 116.562C103.37 114.297 107.479 112.578 111.844 111.51L114.281 110.911V102.667C114.281 102.031 114.531 101.484 114.948 101.062C115.365 100.646 115.911 100.401 116.552 100.401H128.104C128.74 100.401 129.286 100.651 129.708 101.062C130.125 101.479 130.37 102.031 130.37 102.667V110.911L132.807 111.51C137.172 112.578 141.281 114.297 145.016 116.562C146.531 117.479 148.505 117 149.422 115.484C150.328 113.958 149.849 111.984 148.339 111.068Z" fill="#60C3D8"/>
</g>
<path d="M187.682 100.912H187.677C182.224 100.912 177.25 103.136 173.682 106.714C170.104 110.287 167.88 115.261 167.88 120.719C167.88 126.177 170.104 131.151 173.682 134.724C177.25 138.302 182.219 140.526 187.672 140.526C187.672 140.526 187.672 140.526 187.677 140.526C193.13 140.526 198.104 138.302 201.672 134.724C205.25 131.151 207.474 126.177 207.474 120.719H201.062C201.062 124.427 199.573 127.761 197.141 130.188C194.708 132.62 191.38 134.115 187.677 134.115C183.974 134.115 180.641 132.62 178.214 130.188C175.781 127.755 174.292 124.427 174.292 120.719C174.292 117.011 175.781 113.677 178.214 111.245C180.646 108.818 183.974 107.323 187.677 107.323C191.38 107.323 194.714 108.818 197.141 111.245C199.573 113.682 201.057 117.011 201.062 120.719H207.474C207.474 115.261 205.25 110.287 201.672 106.714C198.104 103.136 193.135 100.912 187.682 100.912Z" fill="#3FD395"/>
<mask id="mask1_451_211" style="mask-type:luminance" maskUnits="userSpaceOnUse" x="143" y="76" width="90" height="91">
<path d="M143 76.2085H232.203V166.333H143V76.2085Z" fill="white"/>
</mask>
<g mask="url(#mask1_451_211)">
<path d="M169.521 95.5368L171.672 94.2347C174.302 92.6357 177.198 91.4274 180.281 90.667L182.724 90.0732V83.391C182.724 83.1722 182.802 83.0003 182.948 82.8493C183.094 82.7087 183.271 82.6253 183.484 82.6253H191.87C192.094 82.6253 192.26 82.7087 192.406 82.8493C192.547 83.0003 192.63 83.1722 192.63 83.391V90.068L195.073 90.6618C198.156 91.417 201.052 92.6305 203.687 94.2295L205.833 95.5316L210.547 90.8076C210.63 90.7347 210.708 90.6826 210.797 90.641C210.891 90.6045 210.984 90.5837 211.089 90.5837C211.182 90.5837 211.286 90.6045 211.375 90.641C211.464 90.6826 211.542 90.7347 211.625 90.8076L217.552 96.7399C217.63 96.8232 217.682 96.9014 217.719 96.9899C217.76 97.0837 217.776 97.1774 217.776 97.2816C217.776 97.3805 217.76 97.4795 217.719 97.568C217.682 97.6566 217.63 97.7347 217.552 97.818L212.839 102.537L214.135 104.688C215.734 107.323 216.943 110.219 217.703 113.308L218.297 115.75H224.969C225.187 115.75 225.359 115.834 225.505 115.974C225.646 116.12 225.729 116.292 225.729 116.511V124.901C225.729 125.125 225.646 125.292 225.505 125.438C225.359 125.578 225.187 125.662 224.969 125.662H218.297L217.703 128.104C216.943 131.188 215.734 134.089 214.135 136.724L212.839 138.87L217.552 143.594C217.63 143.677 217.682 143.75 217.719 143.844C217.76 143.933 217.776 144.026 217.776 144.131C217.776 144.235 217.76 144.328 217.719 144.417C217.682 144.511 217.63 144.589 217.552 144.672L211.625 150.599C211.542 150.683 211.464 150.735 211.375 150.766C211.286 150.808 211.187 150.823 211.089 150.823C210.984 150.823 210.891 150.808 210.797 150.766C210.708 150.729 210.63 150.677 210.547 150.599L205.833 145.881L203.687 147.183C201.052 148.782 198.156 149.99 195.073 150.75L192.63 151.349V158.026C192.63 158.25 192.547 158.417 192.406 158.568C192.26 158.709 192.089 158.792 191.87 158.792H183.484C183.271 158.792 183.094 158.714 182.948 158.568C182.807 158.417 182.724 158.245 182.724 158.026V151.349L180.281 150.75C177.198 149.99 174.302 148.782 171.672 147.183L169.521 145.881L164.807 150.599C164.724 150.683 164.646 150.735 164.557 150.766C164.469 150.808 164.37 150.823 164.266 150.823C164.167 150.823 164.068 150.808 163.979 150.766C163.891 150.729 163.812 150.677 163.729 150.599L157.802 144.672C157.719 144.589 157.667 144.511 157.635 144.417C157.599 144.328 157.578 144.235 157.578 144.131C157.578 144.026 157.599 143.933 157.635 143.844C157.672 143.75 157.724 143.677 157.802 143.594L162.521 138.87L161.219 136.724C159.62 134.089 158.411 131.188 157.656 128.104L157.052 125.662H150.38C150.161 125.662 149.99 125.578 149.844 125.438C149.703 125.292 149.62 125.12 149.62 124.901V116.511C149.62 116.287 149.693 116.12 149.844 115.974C149.99 115.834 150.161 115.75 150.38 115.75H157.052L157.656 113.308C158.411 110.219 159.62 107.323 161.219 104.688L162.521 102.537L157.802 97.818C157.719 97.7347 157.667 97.6566 157.635 97.568C157.599 97.4795 157.578 97.3805 157.578 97.2816C157.578 97.1774 157.599 97.0837 157.635 96.9899C157.672 96.9014 157.724 96.8232 157.802 96.7399L163.729 90.8076C163.812 90.7347 163.891 90.6826 163.979 90.641C164.068 90.6045 164.167 90.5837 164.266 90.5837C164.37 90.5837 164.469 90.6045 164.557 90.641C164.646 90.6826 164.724 90.7347 164.807 90.8076L169.521 95.5368ZM191.88 76.2139H191.875H183.495H183.484C181.521 76.2139 179.714 77.0212 178.422 78.318C177.13 79.6045 176.323 81.4222 176.323 83.391V85.1305C174.328 85.7607 172.406 86.5628 170.568 87.5055L169.344 86.2816C168.651 85.5889 167.839 85.0576 166.974 84.7035C166.109 84.3545 165.193 84.1774 164.276 84.1774C163.359 84.1774 162.443 84.3545 161.578 84.7035C160.714 85.0576 159.896 85.5837 159.203 86.2816L153.276 92.2139C152.583 92.9066 152.052 93.7191 151.703 94.5889C151.349 95.4535 151.177 96.3701 151.177 97.2868C151.177 98.2035 151.349 99.1201 151.703 99.9847C152.052 100.854 152.583 101.667 153.276 102.36L154.5 103.584C153.552 105.417 152.76 107.349 152.125 109.344H150.396H150.385C149.146 109.344 147.958 109.667 146.932 110.235C147.411 110.506 147.891 110.776 148.354 111.063C149.87 111.979 150.354 113.953 149.432 115.469C148.828 116.459 147.771 117.011 146.687 117.011C146.125 117.011 145.547 116.865 145.031 116.542C144.458 116.198 143.875 115.865 143.286 115.542C143.24 115.865 143.224 116.193 143.224 116.516V124.907C143.224 126.875 144.031 128.688 145.323 129.979C146.615 131.271 148.422 132.084 150.396 132.084C150.396 132.084 150.396 132.084 150.401 132.084H152.13C152.766 134.078 153.568 136 154.51 137.839L153.286 139.063C152.594 139.756 152.062 140.573 151.708 141.438C151.354 142.302 151.182 143.219 151.182 144.136C151.182 145.052 151.354 145.969 151.708 146.839C152.062 147.703 152.594 148.516 153.286 149.209L159.214 155.141C159.906 155.834 160.719 156.365 161.583 156.719C162.448 157.073 163.365 157.245 164.281 157.245C165.198 157.245 166.115 157.073 166.979 156.719C167.844 156.365 168.656 155.834 169.349 155.141L170.573 153.917C172.406 154.865 174.328 155.662 176.328 156.297V158.026C176.328 158.162 176.333 158.292 176.344 158.417C176.865 157.365 177.958 156.641 179.214 156.641C180.979 156.641 182.417 158.078 182.417 159.849C182.417 161.646 181.865 163.328 180.922 164.724C181.724 165.032 182.594 165.203 183.5 165.203C183.5 165.203 183.5 165.203 183.505 165.203H191.885H191.896C193.859 165.203 195.667 164.396 196.958 163.099C198.25 161.813 199.057 159.995 199.057 158.026V156.297C201.052 155.662 202.979 154.86 204.812 153.917L206.036 155.141C206.729 155.834 207.542 156.365 208.406 156.719C209.276 157.073 210.193 157.245 211.104 157.245C212.021 157.245 212.937 157.073 213.802 156.719C214.672 156.365 215.484 155.834 216.177 155.141L222.104 149.209C222.797 148.516 223.328 147.703 223.682 146.839C224.031 145.969 224.203 145.052 224.203 144.136C224.203 143.219 224.031 142.302 223.682 141.438C223.328 140.573 222.802 139.756 222.104 139.063L220.88 137.839C221.828 136.006 222.62 134.084 223.255 132.084H224.995C226.958 132.084 228.776 131.271 230.062 129.979C231.359 128.688 232.167 126.875 232.167 124.907V116.516C232.167 114.547 231.359 112.735 230.062 111.448C228.776 110.157 226.969 109.344 225 109.344H224.995H223.255C222.62 107.349 221.823 105.417 220.88 103.584L222.104 102.36C222.797 101.667 223.328 100.854 223.682 99.9847C224.031 99.1201 224.203 98.2035 224.203 97.2868C224.203 96.3701 224.031 95.4535 223.682 94.5889C223.328 93.7191 222.797 92.9066 222.104 92.2139L216.177 86.2816C215.484 85.5889 214.672 85.0576 213.802 84.7035C212.937 84.3545 212.021 84.1774 211.104 84.1774C210.193 84.1774 209.276 84.3545 208.406 84.7035C207.542 85.0576 206.729 85.5837 206.036 86.2816L204.812 87.5055C202.979 86.5576 201.052 85.7607 199.057 85.1305V83.3962C199.057 81.4274 198.25 79.6149 196.958 78.3232C195.656 77.0316 193.849 76.2139 191.88 76.2139Z" fill="#3FD395"/>
</g>
<path d="M179.193 156.662C177.938 156.662 176.849 157.386 176.323 158.438C176.417 160.261 177.208 161.922 178.411 163.12C179.104 163.818 179.953 164.375 180.896 164.74C181.839 163.349 182.396 161.662 182.391 159.87C182.396 158.099 180.964 156.662 179.193 156.662ZM146.917 110.24C146.318 110.568 145.781 110.979 145.307 111.453C144.229 112.521 143.484 113.964 143.276 115.552C143.865 115.87 144.448 116.203 145.016 116.552C145.536 116.865 146.104 117.016 146.677 117.016C147.76 117.016 148.818 116.469 149.422 115.474C150.339 113.958 149.854 111.985 148.344 111.068C147.87 110.787 147.396 110.511 146.917 110.24Z" fill="#4C98A8"/>
</svg>
