<svg xmlns="http://www.w3.org/2000/svg" xmlns:xlink="http://www.w3.org/1999/xlink" width="200" zoomAndPan="magnify" viewBox="0 0 150 149.999998" height="200" preserveAspectRatio="xMidYMid meet" version="1.0"><defs><clipPath id="28917a827e"><path d="M 68 29.171875 L 114 29.171875 L 114 75 L 68 75 Z M 68 29.171875 " clip-rule="nonzero"/></clipPath><clipPath id="0fedc352d0"><path d="M 18.042969 76 L 132 76 L 132 120.671875 L 18.042969 120.671875 Z M 18.042969 76 " clip-rule="nonzero"/></clipPath></defs><g clip-path="url(#28917a827e)"><path fill="#101820" d="M 91.347656 74.167969 C 103.78125 74.167969 113.898438 64.078125 113.898438 51.675781 C 113.898438 39.273438 103.78125 29.183594 91.347656 29.183594 C 78.914062 29.183594 68.800781 39.273438 68.800781 51.675781 C 68.800781 64.078125 78.914062 74.167969 91.347656 74.167969 Z M 72.550781 51.675781 C 72.550781 41.335938 80.984375 32.921875 91.347656 32.921875 C 101.714844 32.921875 110.148438 41.335938 110.148438 51.675781 C 110.148438 62.015625 101.714844 70.429688 91.347656 70.429688 C 80.984375 70.429688 72.550781 62.015625 72.550781 51.675781 Z M 72.550781 51.675781 " fill-opacity="1" fill-rule="nonzero"/></g><path fill="#101820" d="M 85.839844 61.976562 C 86.816406 62.925781 88.113281 63.59375 89.539062 63.886719 L 89.523438 65.875 C 89.515625 66.878906 90.328125 67.699219 91.335938 67.707031 L 91.347656 67.707031 C 92.347656 67.707031 93.164062 66.898438 93.171875 65.902344 L 93.1875 63.878906 C 94.609375 63.582031 95.902344 62.910156 96.871094 61.964844 C 97.992188 60.863281 98.613281 59.453125 98.613281 57.996094 L 98.613281 57.191406 C 98.613281 55.25 97.519531 53.417969 95.6875 52.285156 L 89.183594 48.269531 C 88.417969 47.796875 87.980469 47.140625 87.980469 46.460938 L 87.980469 45.203125 C 87.980469 44.59375 88.320312 44.003906 88.9375 43.546875 C 89.609375 43.050781 90.507812 42.777344 91.472656 42.777344 C 92.4375 42.777344 93.339844 43.050781 94.011719 43.546875 C 94.625 44.003906 94.964844 44.59375 94.964844 45.203125 L 94.964844 46.621094 C 94.964844 47.625 95.785156 48.441406 96.789062 48.441406 C 97.796875 48.441406 98.613281 47.625 98.613281 46.621094 L 98.613281 45.203125 C 98.613281 42.433594 96.40625 40.035156 93.296875 39.339844 L 93.296875 37.464844 C 93.296875 36.460938 92.480469 35.644531 91.472656 35.644531 C 90.46875 35.644531 89.648438 36.460938 89.648438 37.464844 L 89.648438 39.339844 C 86.539062 40.035156 84.332031 42.429688 84.332031 45.203125 L 84.332031 46.460938 C 84.332031 48.398438 85.429688 50.230469 87.261719 51.363281 L 93.765625 55.378906 C 94.527344 55.851562 94.964844 56.511719 94.964844 57.191406 L 94.964844 57.992188 C 94.964844 58.605469 94.625 59.191406 94.011719 59.648438 C 93.339844 60.144531 92.4375 60.417969 91.472656 60.417969 L 91.226562 60.417969 C 90.261719 60.417969 89.359375 60.144531 88.6875 59.648438 C 88.074219 59.191406 87.734375 58.605469 87.734375 57.992188 L 87.734375 57.214844 C 87.734375 56.210938 86.914062 55.394531 85.910156 55.394531 C 84.902344 55.394531 84.085938 56.210938 84.085938 57.214844 L 84.085938 57.992188 C 84.085938 59.460938 84.707031 60.875 85.839844 61.976562 Z M 85.839844 61.976562 " fill-opacity="1" fill-rule="nonzero"/><g clip-path="url(#0fedc352d0)"><path fill="#101820" d="M 129.382812 79.574219 C 126.839844 76.753906 122.777344 76.472656 119.921875 78.914062 L 103.175781 92.425781 C 103.183594 92.261719 103.183594 92.09375 103.183594 91.929688 C 103.117188 87.898438 99.945312 84.621094 96.109375 84.621094 L 77.515625 84.621094 C 76.441406 84.621094 75.433594 84.003906 74.808594 82.96875 C 74.675781 82.746094 74.492188 82.5625 74.285156 82.398438 C 66.671875 76.410156 56.441406 75.625 47.679688 79.507812 L 44.441406 80.945312 L 37.933594 80.945312 L 37.933594 77.980469 C 37.933594 76.917969 37.070312 76.054688 36.003906 76.054688 L 19.972656 76.054688 C 18.90625 76.054688 18.042969 76.917969 18.042969 77.980469 L 18.042969 113.59375 C 18.042969 114.660156 18.90625 115.519531 19.972656 115.519531 L 36.003906 115.519531 C 37.070312 115.519531 37.933594 114.660156 37.933594 113.59375 L 37.933594 110.539062 L 44.550781 110.539062 L 67.445312 117.792969 C 72.640625 119.707031 76.992188 120.664062 81.34375 120.664062 C 84.835938 120.664062 88.324219 120.046875 92.246094 118.816406 C 92.605469 118.707031 92.972656 118.585938 93.339844 118.464844 C 94.132812 118.160156 94.90625 117.796875 95.648438 117.382812 C 96.261719 117.042969 96.839844 116.644531 97.382812 116.203125 L 129.375 90.167969 C 129.480469 90.082031 129.578125 89.984375 129.664062 89.878906 C 132.042969 86.910156 131.921875 82.382812 129.382812 79.574219 Z M 34.074219 111.671875 L 21.902344 111.671875 L 21.902344 79.90625 L 34.074219 79.90625 Z M 126.761719 87.324219 L 96.921875 111.609375 C 94.316406 113.730469 91.261719 115.234375 87.984375 116 C 81.5 117.511719 76.152344 116.902344 68.746094 114.164062 C 68.714844 114.152344 68.6875 114.144531 68.660156 114.136719 L 45.433594 106.78125 C 45.246094 106.71875 45.046875 106.6875 44.851562 106.6875 L 37.933594 106.6875 L 37.933594 84.796875 L 44.851562 84.796875 C 45.121094 84.796875 45.386719 84.738281 45.632812 84.628906 L 49.246094 83.027344 C 56.628906 79.753906 65.007812 80.613281 71.730469 85.3125 C 73.078125 87.300781 75.210938 88.472656 77.515625 88.472656 L 96.109375 88.472656 C 97.847656 88.472656 99.289062 90.050781 99.320312 91.992188 C 99.339844 93.066406 98.953125 94.082031 98.257812 94.785156 C 97.917969 95.132812 97.519531 95.382812 97.09375 95.523438 C 96.546875 95.609375 95.988281 95.65625 95.425781 95.65625 L 74.738281 95.65625 C 73.679688 95.65625 72.792969 96.496094 72.78125 97.554688 C 72.765625 98.632812 73.636719 99.507812 74.710938 99.507812 L 96.277344 99.507812 C 96.855469 99.507812 97.425781 99.429688 97.976562 99.28125 C 100.382812 98.847656 102.65625 97.796875 104.652344 96.1875 L 122.375 81.890625 C 122.390625 81.875 122.40625 81.863281 122.421875 81.847656 C 123.667969 80.773438 125.390625 80.902344 126.515625 82.148438 C 127.757812 83.527344 127.855469 85.8125 126.761719 87.324219 Z M 126.761719 87.324219 " fill-opacity="1" fill-rule="nonzero"/></g></svg>