<svg width="28" height="28" viewBox="0 0 28 28" fill="none" xmlns="http://www.w3.org/2000/svg">
<mask id="mask0_419_2983" style="mask-type:luminance" maskUnits="userSpaceOnUse" x="2" y="3" width="24" height="22">
<path d="M2.12625 3.90625H25.9263V24.0662H2.12625V3.90625Z" fill="white"/>
</mask>
<g mask="url(#mask0_419_2983)">
<path d="M23.6833 3.91406H4.36917C3.1325 3.91406 2.12625 4.9174 2.12625 6.14896V21.8231C2.12625 23.0547 3.1325 24.058 4.36917 24.058H23.6833C24.92 24.058 25.9263 23.0547 25.9263 21.8231V6.14896C25.9263 4.9174 24.92 3.91406 23.6833 3.91406ZM3.95136 6.14896C3.95136 5.92292 4.14167 5.7326 4.36917 5.7326H23.6833C23.9108 5.7326 24.1011 5.92292 24.1011 6.14896V6.43844L14.2414 16.2632C14.124 16.3799 13.9285 16.3799 13.8111 16.2632L3.95136 6.43844V6.14896ZM24.1011 21.8253C24.1011 22.0521 23.9108 22.2417 23.6833 22.2417H4.36917C4.14167 22.2417 3.95136 22.0521 3.95136 21.8253V9.00948L12.5191 17.5458C12.9194 17.9454 13.4546 18.1671 14.0241 18.1671C14.5928 18.1671 15.128 17.9476 15.5291 17.5458L24.0968 9.00948V21.8253H24.1011Z" fill="#101820"/>
</g>
</svg>
