<svg width="171" height="169" viewBox="0 0 171 169" fill="none" xmlns="http://www.w3.org/2000/svg">
<mask id="mask0_416_614" style="mask-type:luminance" maskUnits="userSpaceOnUse" x="22" y="26" width="127" height="117">
<path d="M22.3636 26.3138H148.904V142.924H22.3636V26.3138Z" fill="white"/>
</mask>
<g mask="url(#mask0_416_614)">
<path d="M144.633 113.771H113.635C112.33 111.993 110.705 110.435 108.794 109.177L99.7945 103.244C100.783 102.439 101.683 101.532 102.493 100.546V101.277C102.493 102.43 103.433 103.358 104.599 103.358H113.025C114.191 103.358 115.136 102.43 115.136 101.277V90.7319C115.812 90.8199 116.512 90.8683 117.242 90.8683C123.761 90.8683 126.878 87.4091 128.343 84.5088C128.798 83.6154 129.114 82.722 129.341 81.9078L138.065 87.6556C142.179 90.3622 144.633 94.8953 144.633 99.7804V113.771ZM113.025 138.76H58.2424V124.77C58.2424 119.884 60.6961 115.351 64.8107 112.64L73.5344 106.893C73.7615 107.711 74.0777 108.605 74.5319 109.498C75.997 112.398 79.1142 115.853 85.6336 115.853C92.1529 115.853 95.2701 112.398 96.7397 109.498C97.1894 108.605 97.51 107.711 97.7327 106.893L106.456 112.64C110.571 115.351 113.025 119.884 113.025 124.77V138.76ZM26.6341 113.771V99.7804C26.6341 94.8953 29.0922 90.3622 33.2025 87.6556L41.9306 81.9078C42.1532 82.722 42.4739 83.6154 42.9236 84.5088C44.3932 87.4091 47.5104 90.8683 54.0297 90.8683C54.7511 90.8683 55.4592 90.8199 56.1361 90.7363V101.277C56.1361 102.43 57.0801 103.358 58.2424 103.358H66.6722C67.8344 103.358 68.7785 102.43 68.7785 101.277V100.546C69.5845 101.532 70.4885 102.439 71.4771 103.244L62.4729 109.177C60.5669 110.435 58.9371 111.993 57.6323 113.771H26.6341ZM56.1361 82.5372V86.5157C55.4814 86.6389 54.7779 86.7005 54.0297 86.7005C50.5207 86.7005 48.1427 85.411 46.7489 82.7572C46.5618 82.4007 46.4104 82.0442 46.2768 81.6922C48.0625 82.2423 49.9551 82.5372 51.919 82.5372H56.1361ZM37.1702 63.7975V53.235C37.8604 53.3318 38.564 53.3846 39.2765 53.3846H70.8848V56.4478C62.7178 60.664 56.9554 68.8323 56.2162 78.3694C56.1895 78.3694 56.1628 78.3738 56.1361 78.3738H51.919C43.7875 78.3738 37.1702 71.8338 37.1702 63.7975ZM28.7404 38.8084V32.5633H56.1361C64.2675 32.5633 70.8848 39.0989 70.8848 47.1396V49.2213H39.2765C33.4697 49.2213 28.7404 44.5474 28.7404 38.8084ZM93.382 106.677C93.2529 107.029 93.097 107.39 92.91 107.746C91.5206 110.4 89.1426 111.69 85.6336 111.69C82.129 111.69 79.7465 110.4 78.3572 107.746C78.1701 107.39 78.0143 107.029 77.8851 106.677C79.6664 107.227 81.5634 107.526 83.5272 107.526H87.7399C89.7037 107.526 91.6008 107.227 93.382 106.677ZM87.7399 103.358H83.5272C75.3958 103.358 68.7785 96.8229 68.7785 88.7822V87.682C70.8848 85.9171 76.1217 81.1948 78.3171 76.2701C82.6856 80.4202 91.8412 87.8052 102.493 88.6942V88.7822C102.493 96.8229 95.8757 103.358 87.7399 103.358ZM83.5272 57.548H87.7399C100.52 57.548 110.918 67.8245 110.918 80.4555V99.1951H106.706V86.7005C106.706 85.5519 105.762 84.6188 104.599 84.6188C91.0129 84.6188 78.9272 70.9096 78.8069 70.7688C78.2325 70.1086 77.3018 69.871 76.4735 70.1746C75.6497 70.4739 75.0975 71.2529 75.0975 72.1243C75.0975 75.9356 69.1214 82.0926 65.354 85.0765C64.8553 85.4726 64.5614 86.0712 64.5614 86.7005V99.1951H60.3487V80.4555C60.3487 67.8245 70.7468 57.548 83.5272 57.548ZM119.348 78.3738H115.051C114.312 68.8367 108.554 60.664 100.382 56.4478V55.4663C100.382 54.3177 101.331 53.3846 102.493 53.3846H131.991C133.153 53.3846 134.097 54.3177 134.097 55.4663V63.7975C134.097 71.8338 127.48 78.3738 119.348 78.3738ZM115.136 82.5372H119.348C121.312 82.5372 123.209 82.2423 124.99 81.6922C124.875 82.0046 124.736 82.3259 124.576 82.6472C123.196 85.3758 120.795 86.7005 117.242 86.7005C116.494 86.7005 115.79 86.6389 115.136 86.5157V82.5372ZM91.957 53.3846C91.957 40.7537 102.355 30.4772 115.136 30.4772H119.348C132.129 30.4772 142.527 40.7537 142.527 53.3846V85.8159C141.863 85.2306 141.155 84.6849 140.403 84.1875L131.398 78.2549C135.615 74.8177 138.314 69.6113 138.314 63.7975V55.4663C138.314 52.0203 135.477 49.2213 131.991 49.2213V45.0535C131.991 43.9048 131.047 42.9718 129.884 42.9718C128.722 42.9718 127.778 43.9048 127.778 45.0535V49.2213H123.561V45.0535C123.561 43.9048 122.617 42.9718 121.455 42.9718C120.292 42.9718 119.348 43.9048 119.348 45.0535V49.2213H115.136V45.0535C115.136 43.9048 114.191 42.9718 113.025 42.9718C111.862 42.9718 110.918 43.9048 110.918 45.0535V49.2213H106.706V45.0535C106.706 43.9048 105.762 42.9718 104.599 42.9718C103.433 42.9718 102.493 43.9048 102.493 45.0535V49.2213C99.2646 49.2213 96.5972 51.6242 96.2186 54.7138C94.8426 54.2693 93.4176 53.9304 91.957 53.7059V53.3846ZM146.739 91.1896V53.3846C146.739 38.4563 134.453 26.3138 119.348 26.3138H115.136C100.031 26.3138 87.7399 38.4563 87.7399 53.3846H83.5272C80.5882 53.3846 77.756 53.8468 75.0975 54.6962V47.1396C75.0975 36.8059 66.592 28.3955 56.1361 28.3955H26.6341C25.4718 28.3955 24.5278 29.3286 24.5278 30.4772V38.8084C24.5278 44.6134 27.9789 49.6306 32.9575 51.9763V63.7975C32.9575 69.6113 35.6517 74.8177 39.8688 78.2549L30.8646 84.1875C25.5787 87.6732 22.4214 93.5001 22.4214 99.7804V115.853C22.4214 117.006 23.3655 117.935 24.5278 117.935H55.33C54.4795 120.082 54.0297 122.393 54.0297 124.77V140.842C54.0297 141.991 54.9693 142.924 56.1361 142.924H115.136C116.298 142.924 117.242 141.991 117.242 140.842V124.77C117.242 122.393 116.788 120.082 115.942 117.935H146.739C147.906 117.935 148.846 117.006 148.846 115.853V99.7804C148.846 96.7393 148.106 93.8038 146.739 91.1896Z" fill="#101820"/>
</g>
</svg>
