<svg xmlns="http://www.w3.org/2000/svg" xmlns:xlink="http://www.w3.org/1999/xlink" width="200" zoomAndPan="magnify" viewBox="0 0 150 149.999998" height="200" preserveAspectRatio="xMidYMid meet" version="1.0"><defs><clipPath id="f3aedf472d"><path d="M 11.402344 36 L 102 36 L 102 126.90625 L 11.402344 126.90625 Z M 11.402344 36 " clip-rule="nonzero"/></clipPath><clipPath id="59b4b59efd"><path d="M 72 23.40625 L 138.902344 23.40625 L 138.902344 91 L 72 91 Z M 72 23.40625 " clip-rule="nonzero"/></clipPath></defs><path fill="#60c3d8" d="M 56.5 62.253906 C 56.492188 62.253906 56.492188 62.253906 56.5 62.253906 C 51.105469 62.253906 46.203125 64.445312 42.671875 67.980469 C 39.136719 71.511719 36.941406 76.421875 36.945312 81.8125 C 36.945312 87.207031 39.136719 92.113281 42.671875 95.644531 C 46.199219 99.179688 51.101562 101.371094 56.488281 101.371094 C 56.488281 101.371094 56.492188 101.371094 56.492188 101.371094 C 61.886719 101.371094 66.789062 99.179688 70.316406 95.644531 C 73.847656 92.113281 76.046875 87.203125 76.039062 81.8125 L 71.234375 81.8125 C 71.234375 85.894531 69.585938 89.566406 66.917969 92.242188 C 64.242188 94.917969 60.574219 96.5625 56.492188 96.5625 C 52.414062 96.5625 48.746094 94.914062 46.070312 92.242188 C 43.398438 89.566406 41.753906 85.890625 41.753906 81.8125 C 41.753906 77.730469 43.402344 74.058594 46.070312 71.378906 C 48.746094 68.707031 52.417969 67.0625 56.492188 67.0625 C 60.574219 67.0625 64.242188 68.707031 66.917969 71.378906 C 69.589844 74.058594 71.234375 77.730469 71.234375 81.8125 L 76.039062 81.8125 C 76.039062 76.417969 73.847656 71.511719 70.316406 67.980469 C 66.789062 64.445312 61.886719 62.253906 56.5 62.253906 " fill-opacity="1" fill-rule="nonzero"/><g clip-path="url(#f3aedf472d)"><path fill="#60c3d8" d="M 76.003906 49.550781 C 72.78125 47.597656 69.25 46.121094 65.5 45.203125 L 64.929688 47.539062 L 67.332031 47.539062 L 67.332031 43.242188 C 67.332031 41.449219 66.601562 39.8125 65.429688 38.636719 C 64.261719 37.464844 62.617188 36.726562 60.828125 36.734375 L 52.164062 36.734375 C 50.375 36.734375 48.738281 37.464844 47.5625 38.636719 C 46.390625 39.804688 45.65625 41.453125 45.660156 43.242188 L 45.660156 47.539062 L 48.0625 47.539062 L 47.492188 45.203125 C 43.742188 46.121094 40.207031 47.597656 36.988281 49.550781 L 38.234375 51.609375 L 39.9375 49.90625 L 36.898438 46.871094 C 36.269531 46.242188 35.527344 45.761719 34.746094 45.441406 C 33.960938 45.125 33.128906 44.96875 32.300781 44.96875 C 31.46875 44.96875 30.636719 45.125 29.851562 45.441406 C 29.070312 45.761719 28.328125 46.242188 27.699219 46.871094 L 21.570312 53.003906 C 20.941406 53.632812 20.460938 54.375 20.144531 55.15625 C 19.828125 55.941406 19.667969 56.773438 19.667969 57.605469 C 19.667969 58.4375 19.828125 59.269531 20.144531 60.054688 C 20.460938 60.839844 20.941406 61.578125 21.570312 62.207031 L 24.609375 65.25 L 26.304688 63.546875 L 24.25 62.300781 C 22.296875 65.523438 20.820312 69.058594 19.902344 72.808594 L 22.238281 73.382812 L 22.238281 70.976562 L 17.941406 70.976562 C 16.15625 70.976562 14.515625 71.707031 13.34375 72.882812 C 12.171875 74.050781 11.433594 75.695312 11.441406 77.484375 L 11.441406 86.15625 C 11.441406 87.945312 12.171875 89.585938 13.34375 90.757812 C 14.511719 91.929688 16.15625 92.667969 17.941406 92.664062 L 22.238281 92.664062 L 22.238281 90.257812 L 19.902344 90.832031 C 20.820312 94.582031 22.296875 98.121094 24.25 101.339844 L 26.304688 100.09375 L 24.609375 98.390625 L 21.570312 101.429688 C 20.941406 102.058594 20.460938 102.800781 20.144531 103.585938 C 19.828125 104.367188 19.667969 105.199219 19.667969 106.03125 C 19.667969 106.863281 19.828125 107.695312 20.144531 108.480469 C 20.460938 109.265625 20.941406 110.003906 21.570312 110.636719 L 27.699219 116.769531 C 28.328125 117.398438 29.070312 117.878906 29.851562 118.195312 C 30.636719 118.511719 31.46875 118.671875 32.300781 118.671875 C 33.128906 118.671875 33.960938 118.511719 34.746094 118.195312 C 35.527344 117.878906 36.269531 117.398438 36.898438 116.769531 L 39.9375 113.726562 L 38.234375 112.03125 L 36.988281 114.082031 C 40.210938 116.035156 43.742188 117.511719 47.492188 118.433594 L 48.0625 116.09375 L 45.660156 116.09375 L 45.660156 120.394531 C 45.660156 122.183594 46.390625 123.824219 47.5625 124.996094 C 48.730469 126.171875 50.375 126.90625 52.164062 126.902344 L 60.828125 126.902344 C 62.617188 126.902344 64.257812 126.171875 65.429688 124.996094 C 66.601562 123.828125 67.335938 122.183594 67.332031 120.394531 L 67.332031 116.09375 L 64.929688 116.09375 L 65.5 118.433594 C 69.25 117.511719 72.78125 116.035156 76.003906 114.082031 L 74.757812 112.03125 L 73.0625 113.726562 L 76.09375 116.769531 C 76.722656 117.398438 77.464844 117.878906 78.246094 118.195312 C 79.03125 118.511719 79.863281 118.671875 80.695312 118.671875 C 81.523438 118.671875 82.355469 118.511719 83.140625 118.195312 C 83.921875 117.878906 84.664062 117.398438 85.292969 116.769531 L 91.421875 110.636719 C 92.050781 110.003906 92.53125 109.265625 92.847656 108.480469 C 93.164062 107.695312 93.324219 106.863281 93.324219 106.03125 C 93.324219 105.199219 93.164062 104.367188 92.847656 103.585938 C 92.53125 102.800781 92.050781 102.058594 91.421875 101.429688 L 88.382812 98.390625 L 86.6875 100.09375 L 88.742188 101.339844 C 90.695312 98.117188 92.171875 94.582031 93.089844 90.832031 L 90.753906 90.257812 L 90.753906 92.664062 L 95.050781 92.664062 C 96.835938 92.664062 98.480469 91.929688 99.648438 90.757812 C 100.820312 89.589844 101.558594 87.945312 101.550781 86.15625 C 101.550781 84.828125 100.476562 83.75 99.148438 83.75 C 97.824219 83.75 96.746094 84.828125 96.746094 86.15625 C 96.746094 86.632812 96.558594 87.039062 96.25 87.359375 C 95.9375 87.671875 95.527344 87.851562 95.050781 87.859375 L 88.867188 87.859375 L 88.421875 89.691406 C 87.621094 92.964844 86.332031 96.046875 84.632812 98.851562 L 83.660156 100.464844 L 88.027344 104.835938 C 88.195312 105.007812 88.316406 105.191406 88.402344 105.394531 C 88.484375 105.59375 88.527344 105.816406 88.527344 106.03125 C 88.527344 106.25 88.484375 106.46875 88.402344 106.671875 C 88.320312 106.875 88.199219 107.0625 88.027344 107.230469 L 81.898438 113.363281 C 81.730469 113.535156 81.542969 113.652344 81.34375 113.738281 C 81.140625 113.820312 80.917969 113.863281 80.703125 113.863281 C 80.480469 113.863281 80.265625 113.820312 80.0625 113.738281 C 79.863281 113.65625 79.675781 113.535156 79.5 113.363281 L 75.132812 108.992188 L 73.523438 109.96875 C 70.71875 111.667969 67.640625 112.953125 64.367188 113.757812 L 62.535156 114.203125 L 62.535156 120.390625 C 62.535156 120.867188 62.347656 121.273438 62.039062 121.589844 C 61.726562 121.902344 61.316406 122.085938 60.839844 122.089844 L 52.171875 122.089844 C 51.695312 122.089844 51.289062 121.902344 50.972656 121.589844 C 50.660156 121.277344 50.476562 120.871094 50.472656 120.390625 L 50.472656 114.203125 L 48.640625 113.757812 C 45.367188 112.953125 42.285156 111.664062 39.484375 109.96875 L 37.875 108.992188 L 33.503906 113.363281 C 33.332031 113.535156 33.148438 113.652344 32.949219 113.738281 C 32.746094 113.820312 32.523438 113.863281 32.308594 113.863281 C 32.085938 113.863281 31.871094 113.820312 31.667969 113.738281 C 31.46875 113.65625 31.28125 113.535156 31.105469 113.363281 L 24.980469 107.230469 C 24.8125 107.058594 24.691406 106.875 24.605469 106.671875 C 24.523438 106.46875 24.480469 106.25 24.480469 106.03125 C 24.480469 105.816406 24.523438 105.59375 24.605469 105.394531 C 24.6875 105.191406 24.804688 105.003906 24.980469 104.835938 L 29.347656 100.464844 L 28.371094 98.851562 C 26.671875 96.046875 25.386719 92.964844 24.585938 89.691406 L 24.132812 87.859375 L 17.941406 87.859375 C 17.46875 87.859375 17.058594 87.671875 16.742188 87.359375 C 16.429688 87.046875 16.246094 86.636719 16.242188 86.15625 L 16.242188 77.484375 C 16.242188 77.007812 16.429688 76.597656 16.742188 76.28125 C 17.054688 75.96875 17.460938 75.785156 17.941406 75.785156 L 24.125 75.785156 L 24.574219 73.953125 C 25.378906 70.679688 26.667969 67.59375 28.363281 64.792969 L 29.339844 63.179688 L 24.96875 58.808594 C 24.800781 58.636719 24.679688 58.453125 24.59375 58.246094 C 24.511719 58.042969 24.46875 57.828125 24.46875 57.605469 C 24.46875 57.386719 24.511719 57.167969 24.59375 56.964844 C 24.675781 56.765625 24.796875 56.578125 24.96875 56.410156 L 31.097656 50.277344 C 31.269531 50.109375 31.453125 49.988281 31.65625 49.902344 C 31.855469 49.820312 32.078125 49.777344 32.292969 49.777344 C 32.515625 49.777344 32.730469 49.820312 32.933594 49.902344 C 33.136719 49.984375 33.324219 50.101562 33.496094 50.277344 L 37.863281 54.648438 L 39.476562 53.671875 C 42.277344 51.972656 45.359375 50.683594 48.632812 49.882812 L 50.460938 49.433594 L 50.460938 43.25 C 50.460938 42.773438 50.648438 42.363281 50.960938 42.046875 C 51.273438 41.734375 51.683594 41.550781 52.164062 41.550781 L 60.828125 41.550781 C 61.304688 41.550781 61.714844 41.738281 62.03125 42.046875 C 62.34375 42.359375 62.527344 42.773438 62.527344 43.25 L 62.527344 49.433594 L 64.355469 49.882812 C 67.628906 50.683594 70.710938 51.972656 73.511719 53.671875 C 74.648438 54.359375 76.128906 54 76.816406 52.863281 C 77.496094 51.71875 77.136719 50.238281 76.003906 49.550781 " fill-opacity="1" fill-rule="nonzero"/></g><path fill="#3fd395" d="M 105.511719 41.933594 C 105.511719 41.933594 105.507812 41.933594 105.507812 41.933594 C 101.417969 41.933594 97.6875 43.601562 95.011719 46.285156 C 92.328125 48.964844 90.660156 52.695312 90.660156 56.789062 C 90.660156 60.882812 92.328125 64.613281 95.011719 67.292969 C 97.6875 69.976562 101.414062 71.644531 105.503906 71.644531 C 105.503906 71.644531 105.503906 71.644531 105.507812 71.644531 C 109.597656 71.644531 113.328125 69.976562 116.003906 67.292969 C 118.6875 64.613281 120.355469 60.882812 120.355469 56.789062 L 115.546875 56.789062 C 115.546875 59.570312 114.429688 62.070312 112.605469 63.890625 C 110.78125 65.714844 108.285156 66.835938 105.507812 66.835938 C 102.730469 66.835938 100.230469 65.714844 98.410156 63.890625 C 96.585938 62.066406 95.46875 59.570312 95.46875 56.789062 C 95.46875 54.007812 96.585938 51.507812 98.410156 49.683594 C 100.234375 47.863281 102.730469 46.742188 105.507812 46.742188 C 108.285156 46.742188 110.785156 47.863281 112.605469 49.683594 C 114.429688 51.511719 115.542969 54.007812 115.546875 56.789062 L 120.355469 56.789062 C 120.355469 52.695312 118.6875 48.964844 116.003906 46.285156 C 113.328125 43.601562 109.601562 41.933594 105.511719 41.933594 " fill-opacity="1" fill-rule="nonzero"/><g clip-path="url(#59b4b59efd)"><path fill="#3fd395" d="M 91.890625 37.902344 L 93.503906 36.925781 C 95.476562 35.726562 97.648438 34.820312 99.960938 34.25 L 101.792969 33.804688 L 101.792969 28.792969 C 101.792969 28.628906 101.851562 28.5 101.960938 28.386719 C 102.070312 28.28125 102.203125 28.21875 102.363281 28.21875 L 108.652344 28.21875 C 108.820312 28.21875 108.945312 28.28125 109.054688 28.386719 C 109.160156 28.5 109.222656 28.628906 109.222656 28.792969 L 109.222656 33.800781 L 111.054688 34.246094 C 113.367188 34.8125 115.539062 35.722656 117.515625 36.921875 L 119.125 37.898438 L 122.660156 34.355469 C 122.722656 34.300781 122.78125 34.261719 122.847656 34.230469 C 122.917969 34.203125 122.988281 34.1875 123.066406 34.1875 C 123.136719 34.1875 123.214844 34.203125 123.28125 34.230469 C 123.347656 34.261719 123.40625 34.300781 123.46875 34.355469 L 127.914062 38.804688 C 127.972656 38.867188 128.011719 38.925781 128.039062 38.992188 C 128.070312 39.0625 128.082031 39.132812 128.082031 39.210938 C 128.082031 39.285156 128.070312 39.359375 128.039062 39.425781 C 128.011719 39.492188 127.972656 39.550781 127.914062 39.613281 L 124.378906 43.152344 L 125.351562 44.765625 C 126.550781 46.742188 127.457031 48.914062 128.027344 51.230469 L 128.472656 53.0625 L 133.476562 53.0625 C 133.640625 53.0625 133.769531 53.125 133.878906 53.230469 C 133.984375 53.339844 134.046875 53.46875 134.046875 53.632812 L 134.046875 59.925781 C 134.046875 60.09375 133.984375 60.21875 133.878906 60.328125 C 133.769531 60.433594 133.640625 60.496094 133.476562 60.496094 L 128.472656 60.496094 L 128.027344 62.328125 C 127.457031 64.640625 126.550781 66.816406 125.351562 68.792969 L 124.378906 70.402344 L 127.914062 73.945312 C 127.972656 74.007812 128.011719 74.0625 128.039062 74.132812 C 128.070312 74.199219 128.082031 74.269531 128.082031 74.347656 C 128.082031 74.425781 128.070312 74.496094 128.039062 74.5625 C 128.011719 74.632812 127.972656 74.691406 127.914062 74.753906 L 123.46875 79.199219 C 123.40625 79.261719 123.347656 79.300781 123.28125 79.324219 C 123.214844 79.355469 123.140625 79.367188 123.066406 79.367188 C 122.988281 79.367188 122.917969 79.355469 122.847656 79.324219 C 122.78125 79.296875 122.722656 79.257812 122.660156 79.199219 L 119.125 75.660156 L 117.515625 76.636719 C 115.539062 77.835938 113.367188 78.742188 111.054688 79.3125 L 109.222656 79.761719 L 109.222656 84.769531 C 109.222656 84.9375 109.160156 85.0625 109.054688 85.175781 C 108.945312 85.28125 108.816406 85.34375 108.652344 85.34375 L 102.363281 85.34375 C 102.203125 85.34375 102.070312 85.285156 101.960938 85.175781 C 101.855469 85.0625 101.792969 84.933594 101.792969 84.769531 L 101.792969 79.761719 L 99.960938 79.3125 C 97.648438 78.742188 95.476562 77.835938 93.503906 76.636719 L 91.890625 75.660156 L 88.355469 79.199219 C 88.292969 79.261719 88.234375 79.300781 88.167969 79.324219 C 88.101562 79.355469 88.027344 79.367188 87.949219 79.367188 C 87.875 79.367188 87.800781 79.355469 87.734375 79.324219 C 87.667969 79.296875 87.609375 79.257812 87.546875 79.199219 L 83.101562 74.753906 C 83.039062 74.691406 83 74.632812 82.976562 74.5625 C 82.949219 74.496094 82.933594 74.425781 82.933594 74.347656 C 82.933594 74.269531 82.949219 74.199219 82.976562 74.132812 C 83.003906 74.0625 83.042969 74.007812 83.101562 73.945312 L 86.640625 70.402344 L 85.664062 68.792969 C 84.464844 66.816406 83.558594 64.640625 82.992188 62.328125 L 82.539062 60.496094 L 77.535156 60.496094 C 77.371094 60.496094 77.242188 60.433594 77.132812 60.328125 C 77.027344 60.21875 76.964844 60.089844 76.964844 59.925781 L 76.964844 53.632812 C 76.964844 53.464844 77.019531 53.339844 77.132812 53.230469 C 77.242188 53.125 77.371094 53.0625 77.535156 53.0625 L 82.539062 53.0625 L 82.992188 51.230469 C 83.558594 48.914062 84.464844 46.742188 85.664062 44.765625 L 86.640625 43.152344 L 83.101562 39.613281 C 83.039062 39.550781 83 39.492188 82.976562 39.425781 C 82.949219 39.359375 82.933594 39.285156 82.933594 39.210938 C 82.933594 39.132812 82.949219 39.0625 82.976562 38.992188 C 83.003906 38.925781 83.042969 38.867188 83.101562 38.804688 L 87.546875 34.355469 C 87.609375 34.300781 87.667969 34.261719 87.734375 34.230469 C 87.800781 34.203125 87.875 34.1875 87.949219 34.1875 C 88.027344 34.1875 88.101562 34.203125 88.167969 34.230469 C 88.234375 34.261719 88.292969 34.300781 88.355469 34.355469 L 91.890625 37.902344 M 108.660156 23.410156 C 108.660156 23.410156 108.65625 23.410156 108.65625 23.410156 L 102.371094 23.410156 C 102.371094 23.410156 102.363281 23.410156 102.363281 23.410156 C 100.890625 23.410156 99.535156 24.015625 98.566406 24.988281 C 97.597656 25.953125 96.992188 27.316406 96.992188 28.792969 L 96.992188 30.097656 C 95.496094 30.570312 94.054688 31.171875 92.675781 31.878906 L 91.757812 30.960938 C 91.238281 30.441406 90.628906 30.042969 89.980469 29.777344 C 89.332031 29.515625 88.644531 29.382812 87.957031 29.382812 C 87.269531 29.382812 86.582031 29.515625 85.933594 29.777344 C 85.285156 30.042969 84.671875 30.4375 84.152344 30.960938 L 79.707031 35.410156 C 79.1875 35.929688 78.789062 36.539062 78.527344 37.191406 C 78.261719 37.839844 78.132812 38.527344 78.132812 39.214844 C 78.132812 39.902344 78.261719 40.589844 78.527344 41.238281 C 78.789062 41.890625 79.1875 42.5 79.707031 43.019531 L 80.625 43.9375 C 79.914062 45.3125 79.320312 46.761719 78.84375 48.257812 L 77.546875 48.257812 C 77.546875 48.257812 77.539062 48.257812 77.539062 48.257812 C 76.609375 48.257812 75.71875 48.5 74.949219 48.925781 C 75.308594 49.128906 75.667969 49.332031 76.015625 49.546875 C 77.152344 50.234375 77.515625 51.714844 76.824219 52.851562 C 76.371094 53.59375 75.578125 54.007812 74.765625 54.007812 C 74.34375 54.007812 73.910156 53.898438 73.523438 53.65625 C 73.09375 53.398438 72.65625 53.148438 72.214844 52.90625 C 72.179688 53.148438 72.167969 53.394531 72.167969 53.636719 L 72.167969 59.929688 C 72.167969 61.40625 72.773438 62.765625 73.742188 63.734375 C 74.710938 64.703125 76.066406 65.3125 77.546875 65.3125 C 77.546875 65.3125 77.546875 65.3125 77.550781 65.3125 L 78.847656 65.3125 C 79.324219 66.808594 79.925781 68.25 80.632812 69.628906 L 79.714844 70.546875 C 79.195312 71.066406 78.796875 71.679688 78.53125 72.328125 C 78.265625 72.976562 78.136719 73.664062 78.136719 74.351562 C 78.136719 75.039062 78.265625 75.726562 78.53125 76.378906 C 78.796875 77.027344 79.195312 77.636719 79.714844 78.15625 L 84.160156 82.605469 C 84.679688 83.125 85.289062 83.523438 85.9375 83.789062 C 86.585938 84.054688 87.273438 84.183594 87.960938 84.183594 C 88.648438 84.183594 89.335938 84.054688 89.984375 83.789062 C 90.632812 83.523438 91.242188 83.125 91.761719 82.605469 L 92.679688 81.6875 C 94.054688 82.398438 95.496094 82.996094 96.996094 83.472656 L 96.996094 84.769531 C 96.996094 84.871094 97 84.96875 97.007812 85.0625 C 97.398438 84.273438 98.21875 83.730469 99.160156 83.730469 C 100.484375 83.730469 101.5625 84.808594 101.5625 86.136719 C 101.5625 87.484375 101.148438 88.746094 100.441406 89.792969 C 101.042969 90.023438 101.695312 90.152344 102.375 90.152344 C 102.375 90.152344 102.375 90.152344 102.378906 90.152344 L 108.664062 90.152344 C 108.664062 90.152344 108.671875 90.152344 108.671875 90.152344 C 110.144531 90.152344 111.5 89.546875 112.46875 88.574219 C 113.4375 87.609375 114.042969 86.246094 114.042969 84.769531 L 114.042969 83.472656 C 115.539062 82.996094 116.984375 82.394531 118.359375 81.6875 L 119.277344 82.605469 C 119.796875 83.125 120.40625 83.523438 121.054688 83.789062 C 121.707031 84.054688 122.394531 84.183594 123.078125 84.183594 C 123.765625 84.183594 124.453125 84.054688 125.101562 83.789062 C 125.753906 83.523438 126.363281 83.125 126.882812 82.605469 L 131.328125 78.15625 C 131.847656 77.636719 132.246094 77.027344 132.511719 76.378906 C 132.773438 75.726562 132.902344 75.039062 132.902344 74.351562 C 132.902344 73.664062 132.773438 72.976562 132.511719 72.328125 C 132.246094 71.679688 131.851562 71.066406 131.328125 70.546875 L 130.410156 69.628906 C 131.121094 68.253906 131.714844 66.8125 132.191406 65.3125 L 133.496094 65.3125 C 134.96875 65.3125 136.332031 64.703125 137.296875 63.734375 C 138.269531 62.765625 138.875 61.40625 138.875 59.929688 L 138.875 53.636719 C 138.875 52.160156 138.269531 50.800781 137.296875 49.835938 C 136.332031 48.867188 134.976562 48.257812 133.5 48.257812 C 133.5 48.257812 133.496094 48.257812 133.496094 48.257812 L 132.191406 48.257812 C 131.714844 46.761719 131.117188 45.3125 130.410156 43.9375 L 131.328125 43.019531 C 131.847656 42.5 132.246094 41.890625 132.511719 41.238281 C 132.773438 40.589844 132.902344 39.902344 132.902344 39.214844 C 132.902344 38.527344 132.773438 37.839844 132.511719 37.191406 C 132.246094 36.539062 131.847656 35.929688 131.328125 35.410156 L 126.882812 30.960938 C 126.363281 30.441406 125.753906 30.042969 125.101562 29.777344 C 124.453125 29.515625 123.765625 29.382812 123.078125 29.382812 C 122.394531 29.382812 121.707031 29.515625 121.054688 29.777344 C 120.40625 30.042969 119.796875 30.4375 119.277344 30.960938 L 118.359375 31.878906 C 116.984375 31.167969 115.539062 30.570312 114.042969 30.097656 L 114.042969 28.796875 C 114.042969 27.320312 113.4375 25.960938 112.46875 24.992188 C 111.492188 24.023438 110.136719 23.410156 108.660156 23.410156 " fill-opacity="1" fill-rule="nonzero"/></g><path fill="#4c98a8" d="M 99.144531 83.746094 C 98.203125 83.746094 97.386719 84.289062 96.992188 85.078125 C 97.0625 86.445312 97.65625 87.691406 98.558594 88.589844 C 99.078125 89.113281 99.714844 89.53125 100.421875 89.804688 C 101.128906 88.761719 101.546875 87.496094 101.542969 86.152344 C 101.546875 84.824219 100.472656 83.746094 99.144531 83.746094 M 74.9375 48.929688 C 74.488281 49.175781 74.085938 49.484375 73.730469 49.839844 C 72.921875 50.640625 72.363281 51.722656 72.207031 52.914062 C 72.648438 53.152344 73.085938 53.402344 73.511719 53.664062 C 73.902344 53.898438 74.328125 54.011719 74.757812 54.011719 C 75.570312 54.011719 76.363281 53.601562 76.816406 52.855469 C 77.503906 51.71875 77.140625 50.238281 76.007812 49.550781 C 75.652344 49.339844 75.296875 49.132812 74.9375 48.929688 " fill-opacity="1" fill-rule="nonzero"/></svg>