<svg width="310" height="379" viewBox="0 0 310 379" fill="none" xmlns="http://www.w3.org/2000/svg">
<rect width="310" height="379" fill="white"/>
<path d="M37.7301 251.06C37.5653 250.543 37.3438 250.08 37.0653 249.67C36.7926 249.256 36.4659 248.903 36.0852 248.614C35.7045 248.318 35.2699 248.094 34.7812 247.94C34.2983 247.787 33.767 247.71 33.1875 247.71C32.2045 247.71 31.3182 247.963 30.5284 248.469C29.7386 248.974 29.1136 249.716 28.6534 250.693C28.1989 251.665 27.9716 252.855 27.9716 254.264C27.9716 255.679 28.2017 256.875 28.6619 257.852C29.1222 258.83 29.7528 259.571 30.554 260.077C31.3551 260.582 32.267 260.835 33.2898 260.835C34.2386 260.835 35.0653 260.642 35.7699 260.256C36.4801 259.869 37.0284 259.324 37.4148 258.619C37.8068 257.909 38.0028 257.074 38.0028 256.114L38.6847 256.241H33.6903V254.068H40.5511V256.054C40.5511 257.52 40.2386 258.793 39.6136 259.872C38.9943 260.946 38.1364 261.776 37.0398 262.361C35.9489 262.946 34.6989 263.239 33.2898 263.239C31.7102 263.239 30.3239 262.875 29.1307 262.148C27.9432 261.42 27.017 260.389 26.3523 259.054C25.6875 257.713 25.3551 256.122 25.3551 254.281C25.3551 252.889 25.5483 251.639 25.9347 250.531C26.321 249.423 26.8636 248.483 27.5625 247.71C28.267 246.932 29.0938 246.338 30.0426 245.929C30.9972 245.514 32.0398 245.307 33.1705 245.307C34.1136 245.307 34.9915 245.446 35.804 245.724C36.6222 246.003 37.3494 246.398 37.9858 246.909C38.6278 247.42 39.1591 248.028 39.5795 248.733C40 249.432 40.2841 250.207 40.4318 251.06H37.7301ZM47.4993 263.29C46.6697 263.29 45.9197 263.136 45.2493 262.83C44.5788 262.517 44.0476 262.065 43.6555 261.474C43.2692 260.884 43.076 260.159 43.076 259.301C43.076 258.562 43.218 257.955 43.5021 257.477C43.7862 257 44.1697 256.622 44.6527 256.344C45.1357 256.065 45.6754 255.855 46.272 255.713C46.8686 255.571 47.4766 255.463 48.0959 255.389C48.88 255.298 49.5163 255.224 50.005 255.168C50.4936 255.105 50.8487 255.006 51.0703 254.869C51.2919 254.733 51.4027 254.511 51.4027 254.205V254.145C51.4027 253.401 51.1925 252.824 50.772 252.415C50.3572 252.006 49.7379 251.801 48.9141 251.801C48.0561 251.801 47.38 251.991 46.8857 252.372C46.397 252.747 46.0589 253.165 45.8714 253.625L43.4766 253.08C43.7607 252.284 44.1754 251.642 44.7209 251.153C45.272 250.659 45.9055 250.301 46.6214 250.08C47.3374 249.852 48.0902 249.739 48.88 249.739C49.4027 249.739 49.9567 249.801 50.5419 249.926C51.1328 250.045 51.6839 250.267 52.1953 250.591C52.7124 250.915 53.1357 251.378 53.4652 251.98C53.7947 252.577 53.9595 253.352 53.9595 254.307V263H51.4709V261.21H51.3686C51.2038 261.54 50.9567 261.864 50.6271 262.182C50.2976 262.5 49.8743 262.764 49.3572 262.974C48.8402 263.185 48.2209 263.29 47.4993 263.29ZM48.0533 261.244C48.7578 261.244 49.3601 261.105 49.8601 260.827C50.3658 260.548 50.7493 260.185 51.0107 259.736C51.2777 259.281 51.4112 258.795 51.4112 258.278V256.591C51.3203 256.682 51.1442 256.767 50.8828 256.847C50.6271 256.92 50.3345 256.986 50.005 257.043C49.6754 257.094 49.3544 257.142 49.0419 257.188C48.7294 257.227 48.468 257.261 48.2578 257.29C47.7635 257.352 47.3118 257.457 46.9027 257.605C46.4993 257.753 46.1754 257.966 45.9311 258.244C45.6925 258.517 45.5732 258.881 45.5732 259.335C45.5732 259.966 45.8061 260.443 46.272 260.767C46.7379 261.085 47.3317 261.244 48.0533 261.244ZM57.3537 263V249.909H59.8168V251.989H59.9531C60.1918 251.284 60.6122 250.73 61.2145 250.327C61.8224 249.918 62.5099 249.713 63.277 249.713C63.4361 249.713 63.6236 249.719 63.8395 249.73C64.0611 249.741 64.2344 249.756 64.3594 249.773V252.21C64.2571 252.182 64.0753 252.151 63.8139 252.116C63.5526 252.077 63.2912 252.057 63.0298 252.057C62.4276 252.057 61.8906 252.185 61.419 252.44C60.9531 252.69 60.5838 253.04 60.3111 253.489C60.0384 253.932 59.902 254.437 59.902 255.006V263H57.3537ZM70.2571 263.29C69.4276 263.29 68.6776 263.136 68.0071 262.83C67.3366 262.517 66.8054 262.065 66.4134 261.474C66.027 260.884 65.8338 260.159 65.8338 259.301C65.8338 258.562 65.9759 257.955 66.2599 257.477C66.544 257 66.9276 256.622 67.4105 256.344C67.8935 256.065 68.4332 255.855 69.0298 255.713C69.6264 255.571 70.2344 255.463 70.8537 255.389C71.6378 255.298 72.2741 255.224 72.7628 255.168C73.2514 255.105 73.6065 255.006 73.8281 254.869C74.0497 254.733 74.1605 254.511 74.1605 254.205V254.145C74.1605 253.401 73.9503 252.824 73.5298 252.415C73.1151 252.006 72.4957 251.801 71.6719 251.801C70.8139 251.801 70.1378 251.991 69.6435 252.372C69.1548 252.747 68.8168 253.165 68.6293 253.625L66.2344 253.08C66.5185 252.284 66.9332 251.642 67.4787 251.153C68.0298 250.659 68.6634 250.301 69.3793 250.08C70.0952 249.852 70.848 249.739 71.6378 249.739C72.1605 249.739 72.7145 249.801 73.2997 249.926C73.8906 250.045 74.4418 250.267 74.9531 250.591C75.4702 250.915 75.8935 251.378 76.223 251.98C76.5526 252.577 76.7173 253.352 76.7173 254.307V263H74.2287V261.21H74.1264C73.9616 261.54 73.7145 261.864 73.3849 262.182C73.0554 262.5 72.6321 262.764 72.1151 262.974C71.598 263.185 70.9787 263.29 70.2571 263.29ZM70.8111 261.244C71.5156 261.244 72.1179 261.105 72.6179 260.827C73.1236 260.548 73.5071 260.185 73.7685 259.736C74.0355 259.281 74.169 258.795 74.169 258.278V256.591C74.0781 256.682 73.902 256.767 73.6406 256.847C73.3849 256.92 73.0923 256.986 72.7628 257.043C72.4332 257.094 72.1122 257.142 71.7997 257.188C71.4872 257.227 71.2259 257.261 71.0156 257.29C70.5213 257.352 70.0696 257.457 69.6605 257.605C69.2571 257.753 68.9332 257.966 68.6889 258.244C68.4503 258.517 68.331 258.881 68.331 259.335C68.331 259.966 68.5639 260.443 69.0298 260.767C69.4957 261.085 70.0895 261.244 70.8111 261.244ZM82.6598 255.227V263H80.1115V249.909H82.5575V252.04H82.7195C83.0206 251.347 83.4922 250.79 84.1342 250.369C84.782 249.949 85.5973 249.739 86.5803 249.739C87.4723 249.739 88.2536 249.926 88.924 250.301C89.5945 250.67 90.1143 251.222 90.4837 251.955C90.853 252.687 91.0376 253.594 91.0376 254.673V263H88.4893V254.98C88.4893 254.031 88.2422 253.29 87.7479 252.756C87.2536 252.216 86.5746 251.946 85.7109 251.946C85.12 251.946 84.5945 252.074 84.1342 252.33C83.6797 252.585 83.3189 252.96 83.0518 253.455C82.7905 253.943 82.6598 254.534 82.6598 255.227ZM100.566 249.909V251.955H93.4155V249.909H100.566ZM95.3331 246.773H97.8814V259.156C97.8814 259.651 97.9553 260.023 98.103 260.273C98.2507 260.517 98.4411 260.685 98.674 260.776C98.9126 260.861 99.1712 260.903 99.4496 260.903C99.6541 260.903 99.8331 260.889 99.9865 260.861C100.14 260.832 100.259 260.81 100.344 260.793L100.805 262.898C100.657 262.955 100.447 263.011 100.174 263.068C99.9013 263.131 99.5604 263.165 99.1513 263.17C98.4808 263.182 97.8558 263.062 97.2763 262.812C96.6967 262.562 96.228 262.176 95.87 261.653C95.5121 261.131 95.3331 260.474 95.3331 259.685V246.773ZM103.385 263V249.909H105.933V263H103.385ZM104.672 247.889C104.229 247.889 103.848 247.741 103.53 247.446C103.217 247.145 103.061 246.787 103.061 246.372C103.061 245.952 103.217 245.594 103.53 245.298C103.848 244.997 104.229 244.847 104.672 244.847C105.115 244.847 105.493 244.997 105.805 245.298C106.124 245.594 106.283 245.952 106.283 246.372C106.283 246.787 106.124 247.145 105.805 247.446C105.493 247.741 105.115 247.889 104.672 247.889ZM113.171 263.29C112.342 263.29 111.592 263.136 110.921 262.83C110.251 262.517 109.719 262.065 109.327 261.474C108.941 260.884 108.748 260.159 108.748 259.301C108.748 258.562 108.89 257.955 109.174 257.477C109.458 257 109.842 256.622 110.325 256.344C110.808 256.065 111.347 255.855 111.944 255.713C112.54 255.571 113.148 255.463 113.768 255.389C114.552 255.298 115.188 255.224 115.677 255.168C116.165 255.105 116.521 255.006 116.742 254.869C116.964 254.733 117.075 254.511 117.075 254.205V254.145C117.075 253.401 116.864 252.824 116.444 252.415C116.029 252.006 115.41 251.801 114.586 251.801C113.728 251.801 113.052 251.991 112.558 252.372C112.069 252.747 111.731 253.165 111.543 253.625L109.148 253.08C109.433 252.284 109.847 251.642 110.393 251.153C110.944 250.659 111.577 250.301 112.293 250.08C113.009 249.852 113.762 249.739 114.552 249.739C115.075 249.739 115.629 249.801 116.214 249.926C116.805 250.045 117.356 250.267 117.867 250.591C118.384 250.915 118.808 251.378 119.137 251.98C119.467 252.577 119.631 253.352 119.631 254.307V263H117.143V261.21H117.04C116.876 261.54 116.629 261.864 116.299 262.182C115.969 262.5 115.546 262.764 115.029 262.974C114.512 263.185 113.893 263.29 113.171 263.29ZM113.725 261.244C114.43 261.244 115.032 261.105 115.532 260.827C116.038 260.548 116.421 260.185 116.683 259.736C116.95 259.281 117.083 258.795 117.083 258.278V256.591C116.992 256.682 116.816 256.767 116.555 256.847C116.299 256.92 116.006 256.986 115.677 257.043C115.347 257.094 115.026 257.142 114.714 257.188C114.401 257.227 114.14 257.261 113.93 257.29C113.435 257.352 112.984 257.457 112.575 257.605C112.171 257.753 111.847 257.966 111.603 258.244C111.364 258.517 111.245 258.881 111.245 259.335C111.245 259.966 111.478 260.443 111.944 260.767C112.41 261.085 113.004 261.244 113.725 261.244ZM132.835 253.105L130.526 253.514C130.429 253.219 130.276 252.937 130.065 252.67C129.861 252.403 129.582 252.185 129.23 252.014C128.878 251.844 128.438 251.759 127.909 251.759C127.188 251.759 126.585 251.92 126.102 252.244C125.619 252.562 125.378 252.974 125.378 253.48C125.378 253.918 125.54 254.27 125.864 254.537C126.188 254.804 126.71 255.023 127.432 255.193L129.511 255.67C130.716 255.949 131.614 256.378 132.205 256.957C132.795 257.537 133.091 258.29 133.091 259.216C133.091 260 132.864 260.699 132.409 261.312C131.96 261.92 131.332 262.398 130.526 262.744C129.724 263.091 128.795 263.264 127.739 263.264C126.273 263.264 125.077 262.952 124.151 262.327C123.224 261.696 122.656 260.801 122.446 259.642L124.909 259.267C125.063 259.909 125.378 260.395 125.855 260.724C126.332 261.048 126.955 261.21 127.722 261.21C128.557 261.21 129.224 261.037 129.724 260.69C130.224 260.338 130.474 259.909 130.474 259.403C130.474 258.994 130.321 258.651 130.014 258.372C129.713 258.094 129.25 257.884 128.625 257.741L126.409 257.256C125.188 256.977 124.284 256.534 123.699 255.926C123.119 255.318 122.83 254.548 122.83 253.616C122.83 252.844 123.045 252.168 123.477 251.588C123.909 251.009 124.506 250.557 125.267 250.233C126.028 249.903 126.901 249.739 127.884 249.739C129.298 249.739 130.412 250.045 131.224 250.659C132.037 251.267 132.574 252.082 132.835 253.105Z" fill="black"/>
<path d="M34.6364 283.364V295H33.2727L26.9318 285.864H26.8182V295H25.4091V283.364H26.7727L33.1364 292.523H33.25V283.364H34.6364ZM40.8196 295.182C40.0317 295.182 39.3404 294.994 38.7457 294.619C38.1548 294.244 37.6927 293.72 37.3594 293.045C37.0298 292.371 36.8651 291.583 36.8651 290.682C36.8651 289.773 37.0298 288.979 37.3594 288.301C37.6927 287.623 38.1548 287.097 38.7457 286.722C39.3404 286.347 40.0317 286.159 40.8196 286.159C41.6075 286.159 42.2969 286.347 42.8878 286.722C43.4825 287.097 43.9446 287.623 44.2741 288.301C44.6075 288.979 44.7741 289.773 44.7741 290.682C44.7741 291.583 44.6075 292.371 44.2741 293.045C43.9446 293.72 43.4825 294.244 42.8878 294.619C42.2969 294.994 41.6075 295.182 40.8196 295.182ZM40.8196 293.977C41.4181 293.977 41.9105 293.824 42.2969 293.517C42.6832 293.21 42.9692 292.807 43.1548 292.307C43.3404 291.807 43.4332 291.265 43.4332 290.682C43.4332 290.098 43.3404 289.555 43.1548 289.051C42.9692 288.547 42.6832 288.14 42.2969 287.83C41.9105 287.519 41.4181 287.364 40.8196 287.364C40.2211 287.364 39.7287 287.519 39.3423 287.83C38.956 288.14 38.67 288.547 38.4844 289.051C38.2988 289.555 38.206 290.098 38.206 290.682C38.206 291.265 38.2988 291.807 38.4844 292.307C38.67 292.807 38.956 293.21 39.3423 293.517C39.7287 293.824 40.2211 293.977 40.8196 293.977ZM40.206 285.091L41.5923 282.455H43.1605L41.3878 285.091H40.206ZM53.0028 288.227L51.7983 288.568C51.7225 288.367 51.6108 288.172 51.4631 287.983C51.3191 287.79 51.1222 287.631 50.8722 287.506C50.6222 287.381 50.3021 287.318 49.9119 287.318C49.3778 287.318 48.9328 287.441 48.5767 287.688C48.2244 287.93 48.0483 288.239 48.0483 288.614C48.0483 288.947 48.1695 289.21 48.4119 289.403C48.6544 289.597 49.0331 289.758 49.5483 289.886L50.8438 290.205C51.6241 290.394 52.2055 290.684 52.5881 291.074C52.9706 291.46 53.1619 291.958 53.1619 292.568C53.1619 293.068 53.018 293.515 52.7301 293.909C52.446 294.303 52.0483 294.614 51.5369 294.841C51.0256 295.068 50.4309 295.182 49.7528 295.182C48.8627 295.182 48.1259 294.989 47.5426 294.602C46.9593 294.216 46.59 293.652 46.4347 292.909L47.7074 292.591C47.8286 293.061 48.0578 293.413 48.3949 293.648C48.7358 293.883 49.1809 294 49.7301 294C50.3551 294 50.8513 293.867 51.2188 293.602C51.59 293.333 51.7756 293.011 51.7756 292.636C51.7756 292.333 51.6695 292.08 51.4574 291.875C51.2453 291.667 50.9195 291.511 50.4801 291.409L49.0256 291.068C48.2263 290.879 47.6392 290.585 47.2642 290.188C46.893 289.786 46.7074 289.284 46.7074 288.682C46.7074 288.189 46.8456 287.754 47.1222 287.375C47.4025 286.996 47.7831 286.699 48.2642 286.483C48.7491 286.267 49.2983 286.159 49.9119 286.159C50.7756 286.159 51.4536 286.348 51.946 286.727C52.4422 287.106 52.7945 287.606 53.0028 288.227ZM63.2031 298.455C62.5554 298.455 61.9986 298.371 61.5327 298.205C61.0668 298.042 60.6785 297.826 60.3679 297.557C60.0611 297.292 59.8168 297.008 59.6349 296.705L60.7031 295.955C60.8243 296.114 60.9777 296.295 61.1634 296.5C61.349 296.708 61.6027 296.888 61.9247 297.04C62.2505 297.195 62.6766 297.273 63.2031 297.273C63.9077 297.273 64.4891 297.102 64.9474 296.761C65.4058 296.42 65.6349 295.886 65.6349 295.159V293.386H65.5213C65.4228 293.545 65.2827 293.742 65.1009 293.977C64.9228 294.208 64.6652 294.415 64.3281 294.597C63.9948 294.775 63.544 294.864 62.9759 294.864C62.2713 294.864 61.6387 294.697 61.0781 294.364C60.5213 294.03 60.08 293.545 59.7543 292.909C59.4323 292.273 59.2713 291.5 59.2713 290.591C59.2713 289.697 59.4285 288.919 59.7429 288.256C60.0573 287.589 60.4948 287.074 61.0554 286.71C61.616 286.343 62.2637 286.159 62.9986 286.159C63.5668 286.159 64.0175 286.254 64.3509 286.443C64.688 286.629 64.9455 286.841 65.1236 287.08C65.3054 287.314 65.4455 287.508 65.544 287.659H65.6804V286.273H66.9759V295.25C66.9759 296 66.8054 296.61 66.4645 297.08C66.1274 297.553 65.6728 297.9 65.1009 298.119C64.5327 298.343 63.9001 298.455 63.2031 298.455ZM63.1577 293.659C63.6955 293.659 64.1501 293.536 64.5213 293.29C64.8925 293.044 65.1747 292.689 65.3679 292.227C65.5611 291.765 65.6577 291.212 65.6577 290.568C65.6577 289.939 65.563 289.384 65.3736 288.903C65.1842 288.422 64.9039 288.045 64.5327 287.773C64.1615 287.5 63.7031 287.364 63.1577 287.364C62.5895 287.364 62.116 287.508 61.7372 287.795C61.3622 288.083 61.08 288.47 60.8906 288.955C60.705 289.439 60.6122 289.977 60.6122 290.568C60.6122 291.174 60.7069 291.71 60.8963 292.176C61.0895 292.638 61.3736 293.002 61.7486 293.267C62.1274 293.528 62.5971 293.659 63.1577 293.659ZM71.9986 295.205C71.4455 295.205 70.9437 295.1 70.4929 294.892C70.0421 294.68 69.6842 294.375 69.419 293.977C69.1539 293.576 69.0213 293.091 69.0213 292.523C69.0213 292.023 69.1198 291.617 69.3168 291.307C69.5137 290.992 69.777 290.746 70.1065 290.568C70.4361 290.39 70.7997 290.258 71.1974 290.17C71.599 290.08 72.0024 290.008 72.4077 289.955C72.938 289.886 73.3679 289.835 73.6974 289.801C74.0308 289.763 74.2732 289.701 74.4247 289.614C74.58 289.527 74.6577 289.375 74.6577 289.159V289.114C74.6577 288.553 74.5043 288.117 74.1974 287.807C73.8944 287.496 73.4342 287.341 72.8168 287.341C72.1766 287.341 71.6747 287.481 71.3111 287.761C70.9474 288.042 70.6918 288.341 70.544 288.659L69.2713 288.205C69.4986 287.674 69.8016 287.261 70.1804 286.966C70.563 286.667 70.9796 286.458 71.4304 286.341C71.8849 286.22 72.3319 286.159 72.7713 286.159C73.0516 286.159 73.3736 286.193 73.7372 286.261C74.1046 286.326 74.4588 286.46 74.7997 286.665C75.1444 286.869 75.4304 287.178 75.6577 287.591C75.8849 288.004 75.9986 288.557 75.9986 289.25V295H74.6577V293.818H74.5895C74.4986 294.008 74.3471 294.21 74.1349 294.426C73.9228 294.642 73.6406 294.826 73.2884 294.977C72.9361 295.129 72.5062 295.205 71.9986 295.205ZM72.2031 294C72.7334 294 73.1804 293.896 73.544 293.688C73.9115 293.479 74.188 293.21 74.3736 292.881C74.563 292.551 74.6577 292.205 74.6577 291.841V290.614C74.6009 290.682 74.4759 290.744 74.2827 290.801C74.0933 290.854 73.8736 290.902 73.6236 290.943C73.3774 290.981 73.1368 291.015 72.902 291.045C72.6709 291.072 72.4834 291.095 72.3395 291.114C71.991 291.159 71.6652 291.233 71.3622 291.335C71.063 291.434 70.8205 291.583 70.6349 291.784C70.4531 291.981 70.3622 292.25 70.3622 292.591C70.3622 293.057 70.5346 293.409 70.8793 293.648C71.2277 293.883 71.669 294 72.2031 294ZM78.446 295V286.273H79.7415V287.591H79.8324C79.9915 287.159 80.2794 286.809 80.696 286.54C81.1127 286.271 81.5824 286.136 82.1051 286.136C82.2036 286.136 82.3267 286.138 82.4744 286.142C82.6222 286.146 82.7339 286.152 82.8097 286.159V287.523C82.7642 287.511 82.66 287.494 82.4972 287.472C82.3381 287.445 82.1695 287.432 81.9915 287.432C81.5672 287.432 81.1884 287.521 80.8551 287.699C80.5256 287.873 80.2642 288.116 80.071 288.426C79.8816 288.733 79.7869 289.083 79.7869 289.477V295H78.446ZM86.9673 295.205C86.4143 295.205 85.9124 295.1 85.4616 294.892C85.0109 294.68 84.6529 294.375 84.3878 293.977C84.1226 293.576 83.9901 293.091 83.9901 292.523C83.9901 292.023 84.0885 291.617 84.2855 291.307C84.4825 290.992 84.7457 290.746 85.0753 290.568C85.4048 290.39 85.7685 290.258 86.1662 290.17C86.5677 290.08 86.9711 290.008 87.3764 289.955C87.9067 289.886 88.3366 289.835 88.6662 289.801C88.9995 289.763 89.242 289.701 89.3935 289.614C89.5488 289.527 89.6264 289.375 89.6264 289.159V289.114C89.6264 288.553 89.473 288.117 89.1662 287.807C88.8632 287.496 88.4029 287.341 87.7855 287.341C87.1454 287.341 86.6435 287.481 86.2798 287.761C85.9162 288.042 85.6605 288.341 85.5128 288.659L84.2401 288.205C84.4673 287.674 84.7704 287.261 85.1491 286.966C85.5317 286.667 85.9484 286.458 86.3991 286.341C86.8537 286.22 87.3007 286.159 87.7401 286.159C88.0204 286.159 88.3423 286.193 88.706 286.261C89.0734 286.326 89.4276 286.46 89.7685 286.665C90.1132 286.869 90.3991 287.178 90.6264 287.591C90.8537 288.004 90.9673 288.557 90.9673 289.25V295H89.6264V293.818H89.5582C89.4673 294.008 89.3158 294.21 89.1037 294.426C88.8916 294.642 88.6094 294.826 88.2571 294.977C87.9048 295.129 87.4749 295.205 86.9673 295.205ZM87.1719 294C87.7022 294 88.1491 293.896 88.5128 293.688C88.8802 293.479 89.1567 293.21 89.3423 292.881C89.5317 292.551 89.6264 292.205 89.6264 291.841V290.614C89.5696 290.682 89.4446 290.744 89.2514 290.801C89.062 290.854 88.8423 290.902 88.5923 290.943C88.3461 290.981 88.1056 291.015 87.8707 291.045C87.6397 291.072 87.4522 291.095 87.3082 291.114C86.9598 291.159 86.634 291.233 86.331 291.335C86.0317 291.434 85.7893 291.583 85.6037 291.784C85.4219 291.981 85.331 292.25 85.331 292.591C85.331 293.057 85.5033 293.409 85.848 293.648C86.1965 293.883 86.6378 294 87.1719 294ZM94.7557 289.75V295H93.4148V286.273H94.7102V287.636H94.8239C95.0284 287.193 95.339 286.837 95.7557 286.568C96.1723 286.295 96.7102 286.159 97.3693 286.159C97.9602 286.159 98.4773 286.28 98.9205 286.523C99.3636 286.761 99.7083 287.125 99.9545 287.614C100.201 288.098 100.324 288.712 100.324 289.455V295H98.983V289.545C98.983 288.86 98.8049 288.326 98.4489 287.943C98.0928 287.557 97.6042 287.364 96.983 287.364C96.5549 287.364 96.1723 287.456 95.8352 287.642C95.5019 287.828 95.2386 288.098 95.0455 288.455C94.8523 288.811 94.7557 289.242 94.7557 289.75ZM106.57 286.273V287.409H102.047V286.273H106.57ZM103.365 284.182H104.706V292.5C104.706 292.879 104.761 293.163 104.871 293.352C104.984 293.538 105.128 293.663 105.303 293.727C105.481 293.788 105.668 293.818 105.865 293.818C106.013 293.818 106.134 293.811 106.229 293.795C106.323 293.777 106.399 293.761 106.456 293.75L106.729 294.955C106.638 294.989 106.511 295.023 106.348 295.057C106.185 295.095 105.979 295.114 105.729 295.114C105.35 295.114 104.979 295.032 104.615 294.869C104.255 294.706 103.956 294.458 103.717 294.125C103.482 293.792 103.365 293.371 103.365 292.864V284.182ZM108.587 295V286.273H109.928V295H108.587ZM109.268 284.818C109.007 284.818 108.782 284.729 108.592 284.551C108.407 284.373 108.314 284.159 108.314 283.909C108.314 283.659 108.407 283.445 108.592 283.267C108.782 283.089 109.007 283 109.268 283C109.53 283 109.753 283.089 109.939 283.267C110.128 283.445 110.223 283.659 110.223 283.909C110.223 284.159 110.128 284.373 109.939 284.551C109.753 284.729 109.53 284.818 109.268 284.818ZM112.384 295V286.273H113.679V287.636H113.793C113.974 287.17 114.268 286.809 114.673 286.551C115.079 286.29 115.565 286.159 116.134 286.159C116.709 286.159 117.188 286.29 117.571 286.551C117.957 286.809 118.259 287.17 118.474 287.636H118.565C118.789 287.186 119.124 286.828 119.571 286.562C120.018 286.294 120.554 286.159 121.179 286.159C121.959 286.159 122.598 286.403 123.094 286.892C123.59 287.377 123.838 288.133 123.838 289.159V295H122.497V289.159C122.497 288.515 122.321 288.055 121.969 287.778C121.616 287.502 121.202 287.364 120.724 287.364C120.111 287.364 119.635 287.549 119.298 287.92C118.961 288.288 118.793 288.754 118.793 289.318V295H117.429V289.023C117.429 288.527 117.268 288.127 116.946 287.824C116.624 287.517 116.209 287.364 115.702 287.364C115.353 287.364 115.027 287.456 114.724 287.642C114.425 287.828 114.183 288.085 113.997 288.415C113.815 288.741 113.724 289.117 113.724 289.545V295H112.384ZM129.835 295.182C129.047 295.182 128.356 294.994 127.761 294.619C127.17 294.244 126.708 293.72 126.375 293.045C126.045 292.371 125.881 291.583 125.881 290.682C125.881 289.773 126.045 288.979 126.375 288.301C126.708 287.623 127.17 287.097 127.761 286.722C128.356 286.347 129.047 286.159 129.835 286.159C130.623 286.159 131.313 286.347 131.903 286.722C132.498 287.097 132.96 287.623 133.29 288.301C133.623 288.979 133.79 289.773 133.79 290.682C133.79 291.583 133.623 292.371 133.29 293.045C132.96 293.72 132.498 294.244 131.903 294.619C131.313 294.994 130.623 295.182 129.835 295.182ZM129.835 293.977C130.434 293.977 130.926 293.824 131.312 293.517C131.699 293.21 131.985 292.807 132.17 292.307C132.356 291.807 132.449 291.265 132.449 290.682C132.449 290.098 132.356 289.555 132.17 289.051C131.985 288.547 131.699 288.14 131.312 287.83C130.926 287.519 130.434 287.364 129.835 287.364C129.237 287.364 128.744 287.519 128.358 287.83C127.972 288.14 127.686 288.547 127.5 289.051C127.314 289.555 127.222 290.098 127.222 290.682C127.222 291.265 127.314 291.807 127.5 292.307C127.686 292.807 127.972 293.21 128.358 293.517C128.744 293.824 129.237 293.977 129.835 293.977ZM142.018 288.227L140.814 288.568C140.738 288.367 140.626 288.172 140.479 287.983C140.335 287.79 140.138 287.631 139.888 287.506C139.638 287.381 139.318 287.318 138.928 287.318C138.393 287.318 137.948 287.441 137.592 287.688C137.24 287.93 137.064 288.239 137.064 288.614C137.064 288.947 137.185 289.21 137.428 289.403C137.67 289.597 138.049 289.758 138.564 289.886L139.859 290.205C140.64 290.394 141.221 290.684 141.604 291.074C141.986 291.46 142.178 291.958 142.178 292.568C142.178 293.068 142.034 293.515 141.746 293.909C141.462 294.303 141.064 294.614 140.553 294.841C140.041 295.068 139.446 295.182 138.768 295.182C137.878 295.182 137.142 294.989 136.558 294.602C135.975 294.216 135.606 293.652 135.45 292.909L136.723 292.591C136.844 293.061 137.073 293.413 137.411 293.648C137.751 293.883 138.196 294 138.746 294C139.371 294 139.867 293.867 140.234 293.602C140.606 293.333 140.791 293.011 140.791 292.636C140.791 292.333 140.685 292.08 140.473 291.875C140.261 291.667 139.935 291.511 139.496 291.409L138.041 291.068C137.242 290.879 136.655 290.585 136.28 290.188C135.909 289.786 135.723 289.284 135.723 288.682C135.723 288.189 135.861 287.754 136.138 287.375C136.418 286.996 136.799 286.699 137.28 286.483C137.765 286.267 138.314 286.159 138.928 286.159C139.791 286.159 140.469 286.348 140.962 286.727C141.458 287.106 141.81 287.606 142.018 288.227ZM154.651 298.273V293.659H154.537C154.438 293.818 154.298 294.019 154.116 294.261C153.935 294.5 153.675 294.714 153.338 294.903C153.001 295.089 152.552 295.182 151.991 295.182C151.264 295.182 150.622 294.998 150.065 294.631C149.509 294.259 149.073 293.737 148.759 293.062C148.444 292.384 148.287 291.583 148.287 290.659C148.287 289.742 148.444 288.947 148.759 288.273C149.073 287.598 149.51 287.078 150.071 286.71C150.632 286.343 151.279 286.159 152.014 286.159C152.582 286.159 153.031 286.254 153.361 286.443C153.694 286.629 153.948 286.841 154.122 287.08C154.3 287.314 154.438 287.508 154.537 287.659H154.696V286.273H155.991V298.273H154.651ZM152.173 293.977C152.711 293.977 153.166 293.837 153.537 293.557C153.908 293.273 154.19 292.881 154.384 292.381C154.577 291.877 154.673 291.295 154.673 290.636C154.673 289.985 154.579 289.415 154.389 288.926C154.2 288.434 153.92 288.051 153.548 287.778C153.177 287.502 152.719 287.364 152.173 287.364C151.605 287.364 151.132 287.509 150.753 287.801C150.378 288.089 150.096 288.481 149.906 288.977C149.721 289.47 149.628 290.023 149.628 290.636C149.628 291.258 149.723 291.822 149.912 292.33C150.105 292.833 150.389 293.235 150.764 293.534C151.143 293.83 151.613 293.977 152.173 293.977ZM163.946 291.432V286.273H165.287V295H163.946V293.523H163.855C163.651 293.966 163.332 294.343 162.901 294.653C162.469 294.96 161.923 295.114 161.264 295.114C160.719 295.114 160.234 294.994 159.81 294.756C159.385 294.513 159.052 294.15 158.81 293.665C158.567 293.176 158.446 292.561 158.446 291.818V286.273H159.787V291.727C159.787 292.364 159.965 292.871 160.321 293.25C160.681 293.629 161.139 293.818 161.696 293.818C162.029 293.818 162.368 293.733 162.713 293.562C163.062 293.392 163.353 293.131 163.588 292.778C163.827 292.426 163.946 291.977 163.946 291.432ZM171.402 295.182C170.561 295.182 169.836 294.996 169.226 294.625C168.62 294.25 168.152 293.727 167.822 293.057C167.497 292.383 167.334 291.598 167.334 290.705C167.334 289.811 167.497 289.023 167.822 288.341C168.152 287.655 168.61 287.121 169.197 286.739C169.788 286.352 170.478 286.159 171.266 286.159C171.72 286.159 172.169 286.235 172.612 286.386C173.055 286.538 173.459 286.784 173.822 287.125C174.186 287.462 174.476 287.909 174.692 288.466C174.908 289.023 175.016 289.708 175.016 290.523V291.091H168.288V289.932H173.652C173.652 289.439 173.554 289 173.357 288.614C173.163 288.227 172.887 287.922 172.527 287.699C172.171 287.475 171.75 287.364 171.266 287.364C170.732 287.364 170.269 287.496 169.879 287.761C169.493 288.023 169.196 288.364 168.987 288.784C168.779 289.205 168.675 289.655 168.675 290.136V290.909C168.675 291.568 168.788 292.127 169.016 292.585C169.247 293.04 169.567 293.386 169.976 293.625C170.385 293.86 170.86 293.977 171.402 293.977C171.754 293.977 172.072 293.928 172.357 293.83C172.644 293.727 172.893 293.576 173.101 293.375C173.309 293.17 173.47 292.917 173.584 292.614L174.879 292.977C174.743 293.417 174.514 293.803 174.192 294.136C173.87 294.466 173.472 294.723 172.999 294.909C172.525 295.091 171.993 295.182 171.402 295.182ZM188.692 286.273L185.464 295H184.101L180.874 286.273H182.328L184.737 293.227H184.828L187.237 286.273H188.692ZM193.695 295.182C192.907 295.182 192.215 294.994 191.621 294.619C191.03 294.244 190.568 293.72 190.234 293.045C189.905 292.371 189.74 291.583 189.74 290.682C189.74 289.773 189.905 288.979 190.234 288.301C190.568 287.623 191.03 287.097 191.621 286.722C192.215 286.347 192.907 286.159 193.695 286.159C194.482 286.159 195.172 286.347 195.763 286.722C196.357 287.097 196.82 287.623 197.149 288.301C197.482 288.979 197.649 289.773 197.649 290.682C197.649 291.583 197.482 292.371 197.149 293.045C196.82 293.72 196.357 294.244 195.763 294.619C195.172 294.994 194.482 295.182 193.695 295.182ZM193.695 293.977C194.293 293.977 194.786 293.824 195.172 293.517C195.558 293.21 195.844 292.807 196.03 292.307C196.215 291.807 196.308 291.265 196.308 290.682C196.308 290.098 196.215 289.555 196.03 289.051C195.844 288.547 195.558 288.14 195.172 287.83C194.786 287.519 194.293 287.364 193.695 287.364C193.096 287.364 192.604 287.519 192.217 287.83C191.831 288.14 191.545 288.547 191.359 289.051C191.174 289.555 191.081 290.098 191.081 290.682C191.081 291.265 191.174 291.807 191.359 292.307C191.545 292.807 191.831 293.21 192.217 293.517C192.604 293.824 193.096 293.977 193.695 293.977ZM203.241 295.182C202.423 295.182 201.719 294.989 201.128 294.602C200.537 294.216 200.082 293.684 199.764 293.006C199.446 292.328 199.287 291.553 199.287 290.682C199.287 289.795 199.45 289.013 199.776 288.335C200.105 287.653 200.563 287.121 201.151 286.739C201.741 286.352 202.431 286.159 203.219 286.159C203.832 286.159 204.385 286.273 204.878 286.5C205.37 286.727 205.774 287.045 206.088 287.455C206.402 287.864 206.598 288.341 206.673 288.886H205.332C205.23 288.489 205.003 288.136 204.651 287.83C204.302 287.519 203.832 287.364 203.241 287.364C202.719 287.364 202.26 287.5 201.866 287.773C201.476 288.042 201.171 288.422 200.952 288.915C200.736 289.403 200.628 289.977 200.628 290.636C200.628 291.311 200.734 291.898 200.946 292.398C201.162 292.898 201.465 293.286 201.855 293.562C202.249 293.839 202.711 293.977 203.241 293.977C203.59 293.977 203.906 293.917 204.19 293.795C204.474 293.674 204.715 293.5 204.912 293.273C205.109 293.045 205.249 292.773 205.332 292.455H206.673C206.598 292.97 206.41 293.434 206.111 293.847C205.815 294.256 205.423 294.581 204.935 294.824C204.45 295.062 203.885 295.182 203.241 295.182ZM212.293 295.182C211.452 295.182 210.726 294.996 210.116 294.625C209.51 294.25 209.043 293.727 208.713 293.057C208.387 292.383 208.224 291.598 208.224 290.705C208.224 289.811 208.387 289.023 208.713 288.341C209.043 287.655 209.501 287.121 210.088 286.739C210.679 286.352 211.368 286.159 212.156 286.159C212.611 286.159 213.06 286.235 213.503 286.386C213.946 286.538 214.349 286.784 214.713 287.125C215.077 287.462 215.366 287.909 215.582 288.466C215.798 289.023 215.906 289.708 215.906 290.523V291.091H209.179V289.932H214.543C214.543 289.439 214.444 289 214.247 288.614C214.054 288.227 213.777 287.922 213.418 287.699C213.062 287.475 212.641 287.364 212.156 287.364C211.622 287.364 211.16 287.496 210.77 287.761C210.384 288.023 210.086 288.364 209.878 288.784C209.67 289.205 209.565 289.655 209.565 290.136V290.909C209.565 291.568 209.679 292.127 209.906 292.585C210.137 293.04 210.457 293.386 210.866 293.625C211.276 293.86 211.751 293.977 212.293 293.977C212.645 293.977 212.963 293.928 213.247 293.83C213.535 293.727 213.783 293.576 213.991 293.375C214.2 293.17 214.361 292.917 214.474 292.614L215.77 292.977C215.634 293.417 215.404 293.803 215.082 294.136C214.76 294.466 214.363 294.723 213.889 294.909C213.416 295.091 212.884 295.182 212.293 295.182ZM213.27 285.227L212.088 283.636L210.906 285.227H209.634V285.136L211.474 282.773H212.702L214.543 285.136V285.227H213.27ZM28.8864 321.182C28.0455 321.182 27.3201 320.996 26.7102 320.625C26.1042 320.25 25.6364 319.727 25.3068 319.057C24.9811 318.383 24.8182 317.598 24.8182 316.705C24.8182 315.811 24.9811 315.023 25.3068 314.341C25.6364 313.655 26.0947 313.121 26.6818 312.739C27.2727 312.352 27.9621 312.159 28.75 312.159C29.2045 312.159 29.6534 312.235 30.0966 312.386C30.5398 312.538 30.9432 312.784 31.3068 313.125C31.6705 313.462 31.9602 313.909 32.1761 314.466C32.392 315.023 32.5 315.708 32.5 316.523V317.091H25.7727V315.932H31.1364C31.1364 315.439 31.0379 315 30.8409 314.614C30.6477 314.227 30.3712 313.922 30.0114 313.699C29.6553 313.475 29.2348 313.364 28.75 313.364C28.2159 313.364 27.7538 313.496 27.3636 313.761C26.9773 314.023 26.6799 314.364 26.4716 314.784C26.2633 315.205 26.1591 315.655 26.1591 316.136V316.909C26.1591 317.568 26.2727 318.127 26.5 318.585C26.7311 319.04 27.0511 319.386 27.4602 319.625C27.8693 319.86 28.3447 319.977 28.8864 319.977C29.2386 319.977 29.5568 319.928 29.8409 319.83C30.1288 319.727 30.3769 319.576 30.5852 319.375C30.7936 319.17 30.9545 318.917 31.0682 318.614L32.3636 318.977C32.2273 319.417 31.9981 319.803 31.6761 320.136C31.3542 320.466 30.9564 320.723 30.483 320.909C30.0095 321.091 29.4773 321.182 28.8864 321.182ZM35.8807 315.75V321H34.5398V312.273H35.8352V313.636H35.9489C36.1534 313.193 36.464 312.837 36.8807 312.568C37.2973 312.295 37.8352 312.159 38.4943 312.159C39.0852 312.159 39.6023 312.28 40.0455 312.523C40.4886 312.761 40.8333 313.125 41.0795 313.614C41.3258 314.098 41.4489 314.712 41.4489 315.455V321H40.108V315.545C40.108 314.86 39.9299 314.326 39.5739 313.943C39.2178 313.557 38.7292 313.364 38.108 313.364C37.6799 313.364 37.2973 313.456 36.9602 313.642C36.6269 313.828 36.3636 314.098 36.1705 314.455C35.9773 314.811 35.8807 315.242 35.8807 315.75ZM47.4446 321.182C46.6264 321.182 45.9219 320.989 45.331 320.602C44.7401 320.216 44.2855 319.684 43.9673 319.006C43.6491 318.328 43.4901 317.553 43.4901 316.682C43.4901 315.795 43.6529 315.013 43.9787 314.335C44.3082 313.653 44.7666 313.121 45.3537 312.739C45.9446 312.352 46.634 312.159 47.4219 312.159C48.0355 312.159 48.5885 312.273 49.081 312.5C49.5734 312.727 49.9768 313.045 50.2912 313.455C50.6056 313.864 50.8007 314.341 50.8764 314.886H49.5355C49.4332 314.489 49.206 314.136 48.8537 313.83C48.5052 313.519 48.0355 313.364 47.4446 313.364C46.9219 313.364 46.4635 313.5 46.0696 313.773C45.6795 314.042 45.3745 314.422 45.1548 314.915C44.9389 315.403 44.831 315.977 44.831 316.636C44.831 317.311 44.937 317.898 45.1491 318.398C45.3651 318.898 45.6681 319.286 46.0582 319.562C46.4522 319.839 46.9143 319.977 47.4446 319.977C47.7931 319.977 48.1094 319.917 48.3935 319.795C48.6776 319.674 48.9181 319.5 49.1151 319.273C49.312 319.045 49.4522 318.773 49.5355 318.455H50.8764C50.8007 318.97 50.6132 319.434 50.3139 319.847C50.0185 320.256 49.6264 320.581 49.1378 320.824C48.6529 321.062 48.0885 321.182 47.4446 321.182ZM56.3821 321.182C55.5942 321.182 54.9029 320.994 54.3082 320.619C53.7173 320.244 53.2552 319.72 52.9219 319.045C52.5923 318.371 52.4276 317.583 52.4276 316.682C52.4276 315.773 52.5923 314.979 52.9219 314.301C53.2552 313.623 53.7173 313.097 54.3082 312.722C54.9029 312.347 55.5942 312.159 56.3821 312.159C57.17 312.159 57.8594 312.347 58.4503 312.722C59.045 313.097 59.5071 313.623 59.8366 314.301C60.17 314.979 60.3366 315.773 60.3366 316.682C60.3366 317.583 60.17 318.371 59.8366 319.045C59.5071 319.72 59.045 320.244 58.4503 320.619C57.8594 320.994 57.17 321.182 56.3821 321.182ZM56.3821 319.977C56.9806 319.977 57.473 319.824 57.8594 319.517C58.2457 319.21 58.5317 318.807 58.7173 318.307C58.9029 317.807 58.9957 317.265 58.9957 316.682C58.9957 316.098 58.9029 315.555 58.7173 315.051C58.5317 314.547 58.2457 314.14 57.8594 313.83C57.473 313.519 56.9806 313.364 56.3821 313.364C55.7836 313.364 55.2912 313.519 54.9048 313.83C54.5185 314.14 54.2325 314.547 54.0469 315.051C53.8613 315.555 53.7685 316.098 53.7685 316.682C53.7685 317.265 53.8613 317.807 54.0469 318.307C54.2325 318.807 54.5185 319.21 54.9048 319.517C55.2912 319.824 55.7836 319.977 56.3821 319.977ZM63.7244 315.75V321H62.3835V312.273H63.679V313.636H63.7926C63.9972 313.193 64.3078 312.837 64.7244 312.568C65.1411 312.295 65.679 312.159 66.3381 312.159C66.929 312.159 67.446 312.28 67.8892 312.523C68.3324 312.761 68.6771 313.125 68.9233 313.614C69.1695 314.098 69.2926 314.712 69.2926 315.455V321H67.9517V315.545C67.9517 314.86 67.7737 314.326 67.4176 313.943C67.0616 313.557 66.5729 313.364 65.9517 313.364C65.5237 313.364 65.1411 313.456 64.804 313.642C64.4706 313.828 64.2074 314.098 64.0142 314.455C63.821 314.811 63.7244 315.242 63.7244 315.75ZM75.5384 312.273V313.409H71.0156V312.273H75.5384ZM72.3338 310.182H73.6747V318.5C73.6747 318.879 73.7296 319.163 73.8395 319.352C73.9531 319.538 74.0971 319.663 74.2713 319.727C74.4493 319.788 74.6368 319.818 74.8338 319.818C74.9815 319.818 75.1027 319.811 75.1974 319.795C75.2921 319.777 75.3679 319.761 75.4247 319.75L75.6974 320.955C75.6065 320.989 75.4796 321.023 75.3168 321.057C75.1539 321.095 74.9474 321.114 74.6974 321.114C74.3187 321.114 73.9474 321.032 73.5838 320.869C73.224 320.706 72.9247 320.458 72.6861 320.125C72.4512 319.792 72.3338 319.371 72.3338 318.864V310.182ZM77.5554 321V312.273H78.8509V313.591H78.9418C79.1009 313.159 79.3887 312.809 79.8054 312.54C80.2221 312.271 80.6918 312.136 81.2145 312.136C81.313 312.136 81.4361 312.138 81.5838 312.142C81.7315 312.146 81.8433 312.152 81.919 312.159V313.523C81.8736 313.511 81.7694 313.494 81.6065 313.472C81.4474 313.445 81.2789 313.432 81.1009 313.432C80.6766 313.432 80.2978 313.521 79.9645 313.699C79.6349 313.873 79.3736 314.116 79.1804 314.426C78.991 314.733 78.8963 315.083 78.8963 315.477V321H77.5554ZM86.902 321.182C86.0611 321.182 85.3357 320.996 84.7259 320.625C84.1198 320.25 83.652 319.727 83.3224 319.057C82.9967 318.383 82.8338 317.598 82.8338 316.705C82.8338 315.811 82.9967 315.023 83.3224 314.341C83.652 313.655 84.1103 313.121 84.6974 312.739C85.2884 312.352 85.9777 312.159 86.7656 312.159C87.2202 312.159 87.669 312.235 88.1122 312.386C88.5554 312.538 88.9588 312.784 89.3224 313.125C89.6861 313.462 89.9759 313.909 90.1918 314.466C90.4077 315.023 90.5156 315.708 90.5156 316.523V317.091H83.7884V315.932H89.152C89.152 315.439 89.0535 315 88.8565 314.614C88.6634 314.227 88.3868 313.922 88.027 313.699C87.6709 313.475 87.2505 313.364 86.7656 313.364C86.2315 313.364 85.7694 313.496 85.3793 313.761C84.9929 314.023 84.6955 314.364 84.4872 314.784C84.2789 315.205 84.1747 315.655 84.1747 316.136V316.909C84.1747 317.568 84.2884 318.127 84.5156 318.585C84.7467 319.04 85.0668 319.386 85.4759 319.625C85.8849 319.86 86.3603 319.977 86.902 319.977C87.2543 319.977 87.5724 319.928 87.8565 319.83C88.1444 319.727 88.3925 319.576 88.6009 319.375C88.8092 319.17 88.9702 318.917 89.0838 318.614L90.3793 318.977C90.2429 319.417 90.0137 319.803 89.6918 320.136C89.3698 320.466 88.9721 320.723 88.4986 320.909C88.0251 321.091 87.4929 321.182 86.902 321.182ZM102.555 317.432V312.273H103.896V321H102.555V319.523H102.464C102.26 319.966 101.942 320.343 101.51 320.653C101.078 320.96 100.533 321.114 99.8736 321.114C99.3281 321.114 98.8433 320.994 98.419 320.756C97.9948 320.513 97.6615 320.15 97.419 319.665C97.1766 319.176 97.0554 318.561 97.0554 317.818V312.273H98.3963V317.727C98.3963 318.364 98.5743 318.871 98.9304 319.25C99.2902 319.629 99.7486 319.818 100.305 319.818C100.639 319.818 100.978 319.733 101.322 319.562C101.671 319.392 101.963 319.131 102.197 318.778C102.436 318.426 102.555 317.977 102.555 317.432ZM106.352 321V312.273H107.648V313.636H107.761C107.943 313.17 108.237 312.809 108.642 312.551C109.047 312.29 109.534 312.159 110.102 312.159C110.678 312.159 111.157 312.29 111.54 312.551C111.926 312.809 112.227 313.17 112.443 313.636H112.534C112.758 313.186 113.093 312.828 113.54 312.562C113.987 312.294 114.523 312.159 115.148 312.159C115.928 312.159 116.566 312.403 117.062 312.892C117.559 313.377 117.807 314.133 117.807 315.159V321H116.466V315.159C116.466 314.515 116.29 314.055 115.938 313.778C115.585 313.502 115.17 313.364 114.693 313.364C114.08 313.364 113.604 313.549 113.267 313.92C112.93 314.288 112.761 314.754 112.761 315.318V321H111.398V315.023C111.398 314.527 111.237 314.127 110.915 313.824C110.593 313.517 110.178 313.364 109.67 313.364C109.322 313.364 108.996 313.456 108.693 313.642C108.394 313.828 108.152 314.085 107.966 314.415C107.784 314.741 107.693 315.117 107.693 315.545V321H106.352ZM128.418 321.182C127.577 321.182 126.851 320.996 126.241 320.625C125.635 320.25 125.168 319.727 124.838 319.057C124.512 318.383 124.349 317.598 124.349 316.705C124.349 315.811 124.512 315.023 124.838 314.341C125.168 313.655 125.626 313.121 126.213 312.739C126.804 312.352 127.493 312.159 128.281 312.159C128.736 312.159 129.185 312.235 129.628 312.386C130.071 312.538 130.474 312.784 130.838 313.125C131.202 313.462 131.491 313.909 131.707 314.466C131.923 315.023 132.031 315.708 132.031 316.523V317.091H125.304V315.932H130.668C130.668 315.439 130.569 315 130.372 314.614C130.179 314.227 129.902 313.922 129.543 313.699C129.187 313.475 128.766 313.364 128.281 313.364C127.747 313.364 127.285 313.496 126.895 313.761C126.509 314.023 126.211 314.364 126.003 314.784C125.795 315.205 125.69 315.655 125.69 316.136V316.909C125.69 317.568 125.804 318.127 126.031 318.585C126.262 319.04 126.582 319.386 126.991 319.625C127.401 319.86 127.876 319.977 128.418 319.977C128.77 319.977 129.088 319.928 129.372 319.83C129.66 319.727 129.908 319.576 130.116 319.375C130.325 319.17 130.486 318.917 130.599 318.614L131.895 318.977C131.759 319.417 131.529 319.803 131.207 320.136C130.885 320.466 130.488 320.723 130.014 320.909C129.541 321.091 129.009 321.182 128.418 321.182ZM134.071 321V312.273H135.366V313.636H135.48C135.662 313.17 135.955 312.809 136.361 312.551C136.766 312.29 137.253 312.159 137.821 312.159C138.397 312.159 138.876 312.29 139.259 312.551C139.645 312.809 139.946 313.17 140.162 313.636H140.253C140.476 313.186 140.812 312.828 141.259 312.562C141.705 312.294 142.241 312.159 142.866 312.159C143.647 312.159 144.285 312.403 144.781 312.892C145.277 313.377 145.526 314.133 145.526 315.159V321H144.185V315.159C144.185 314.515 144.009 314.055 143.656 313.778C143.304 313.502 142.889 313.364 142.412 313.364C141.798 313.364 141.323 313.549 140.986 313.92C140.649 314.288 140.48 314.754 140.48 315.318V321H139.116V315.023C139.116 314.527 138.955 314.127 138.634 313.824C138.312 313.517 137.897 313.364 137.389 313.364C137.041 313.364 136.715 313.456 136.412 313.642C136.113 313.828 135.87 314.085 135.685 314.415C135.503 314.741 135.412 315.117 135.412 315.545V321H134.071ZM147.977 324.273V312.273H149.273V313.659H149.432C149.53 313.508 149.667 313.314 149.841 313.08C150.019 312.841 150.273 312.629 150.602 312.443C150.936 312.254 151.386 312.159 151.955 312.159C152.689 312.159 153.337 312.343 153.898 312.71C154.458 313.078 154.896 313.598 155.21 314.273C155.525 314.947 155.682 315.742 155.682 316.659C155.682 317.583 155.525 318.384 155.21 319.062C154.896 319.737 154.46 320.259 153.903 320.631C153.347 320.998 152.705 321.182 151.977 321.182C151.417 321.182 150.968 321.089 150.631 320.903C150.294 320.714 150.034 320.5 149.852 320.261C149.67 320.019 149.53 319.818 149.432 319.659H149.318V324.273H147.977ZM149.295 316.636C149.295 317.295 149.392 317.877 149.585 318.381C149.778 318.881 150.061 319.273 150.432 319.557C150.803 319.837 151.258 319.977 151.795 319.977C152.356 319.977 152.824 319.83 153.199 319.534C153.578 319.235 153.862 318.833 154.051 318.33C154.244 317.822 154.341 317.258 154.341 316.636C154.341 316.023 154.246 315.47 154.057 314.977C153.871 314.481 153.589 314.089 153.21 313.801C152.835 313.509 152.364 313.364 151.795 313.364C151.25 313.364 150.792 313.502 150.42 313.778C150.049 314.051 149.769 314.434 149.58 314.926C149.39 315.415 149.295 315.985 149.295 316.636ZM157.727 321V312.273H159.023V313.591H159.114C159.273 313.159 159.561 312.809 159.977 312.54C160.394 312.271 160.864 312.136 161.386 312.136C161.485 312.136 161.608 312.138 161.756 312.142C161.903 312.146 162.015 312.152 162.091 312.159V313.523C162.045 313.511 161.941 313.494 161.778 313.472C161.619 313.445 161.451 313.432 161.273 313.432C160.848 313.432 160.47 313.521 160.136 313.699C159.807 313.873 159.545 314.116 159.352 314.426C159.163 314.733 159.068 315.083 159.068 315.477V321H157.727ZM167.074 321.182C166.233 321.182 165.508 320.996 164.898 320.625C164.292 320.25 163.824 319.727 163.494 319.057C163.169 318.383 163.006 317.598 163.006 316.705C163.006 315.811 163.169 315.023 163.494 314.341C163.824 313.655 164.282 313.121 164.869 312.739C165.46 312.352 166.15 312.159 166.938 312.159C167.392 312.159 167.841 312.235 168.284 312.386C168.727 312.538 169.131 312.784 169.494 313.125C169.858 313.462 170.148 313.909 170.364 314.466C170.58 315.023 170.688 315.708 170.688 316.523V317.091H163.96V315.932H169.324C169.324 315.439 169.225 315 169.028 314.614C168.835 314.227 168.559 313.922 168.199 313.699C167.843 313.475 167.422 313.364 166.938 313.364C166.403 313.364 165.941 313.496 165.551 313.761C165.165 314.023 164.867 314.364 164.659 314.784C164.451 315.205 164.347 315.655 164.347 316.136V316.909C164.347 317.568 164.46 318.127 164.688 318.585C164.919 319.04 165.239 319.386 165.648 319.625C166.057 319.86 166.532 319.977 167.074 319.977C167.426 319.977 167.744 319.928 168.028 319.83C168.316 319.727 168.564 319.576 168.773 319.375C168.981 319.17 169.142 318.917 169.256 318.614L170.551 318.977C170.415 319.417 170.186 319.803 169.864 320.136C169.542 320.466 169.144 320.723 168.67 320.909C168.197 321.091 167.665 321.182 167.074 321.182ZM176.25 324.455C175.602 324.455 175.045 324.371 174.58 324.205C174.114 324.042 173.725 323.826 173.415 323.557C173.108 323.292 172.864 323.008 172.682 322.705L173.75 321.955C173.871 322.114 174.025 322.295 174.21 322.5C174.396 322.708 174.65 322.888 174.972 323.04C175.297 323.195 175.723 323.273 176.25 323.273C176.955 323.273 177.536 323.102 177.994 322.761C178.453 322.42 178.682 321.886 178.682 321.159V319.386H178.568C178.47 319.545 178.33 319.742 178.148 319.977C177.97 320.208 177.712 320.415 177.375 320.597C177.042 320.775 176.591 320.864 176.023 320.864C175.318 320.864 174.686 320.697 174.125 320.364C173.568 320.03 173.127 319.545 172.801 318.909C172.479 318.273 172.318 317.5 172.318 316.591C172.318 315.697 172.475 314.919 172.79 314.256C173.104 313.589 173.542 313.074 174.102 312.71C174.663 312.343 175.311 312.159 176.045 312.159C176.614 312.159 177.064 312.254 177.398 312.443C177.735 312.629 177.992 312.841 178.17 313.08C178.352 313.314 178.492 313.508 178.591 313.659H178.727V312.273H180.023V321.25C180.023 322 179.852 322.61 179.511 323.08C179.174 323.553 178.72 323.9 178.148 324.119C177.58 324.343 176.947 324.455 176.25 324.455ZM176.205 319.659C176.742 319.659 177.197 319.536 177.568 319.29C177.939 319.044 178.222 318.689 178.415 318.227C178.608 317.765 178.705 317.212 178.705 316.568C178.705 315.939 178.61 315.384 178.42 314.903C178.231 314.422 177.951 314.045 177.58 313.773C177.208 313.5 176.75 313.364 176.205 313.364C175.636 313.364 175.163 313.508 174.784 313.795C174.409 314.083 174.127 314.47 173.938 314.955C173.752 315.439 173.659 315.977 173.659 316.568C173.659 317.174 173.754 317.71 173.943 318.176C174.136 318.638 174.42 319.002 174.795 319.267C175.174 319.528 175.644 319.659 176.205 319.659ZM186.023 321.182C185.235 321.182 184.544 320.994 183.949 320.619C183.358 320.244 182.896 319.72 182.562 319.045C182.233 318.371 182.068 317.583 182.068 316.682C182.068 315.773 182.233 314.979 182.562 314.301C182.896 313.623 183.358 313.097 183.949 312.722C184.544 312.347 185.235 312.159 186.023 312.159C186.811 312.159 187.5 312.347 188.091 312.722C188.686 313.097 189.148 313.623 189.477 314.301C189.811 314.979 189.977 315.773 189.977 316.682C189.977 317.583 189.811 318.371 189.477 319.045C189.148 319.72 188.686 320.244 188.091 320.619C187.5 320.994 186.811 321.182 186.023 321.182ZM186.023 319.977C186.621 319.977 187.114 319.824 187.5 319.517C187.886 319.21 188.172 318.807 188.358 318.307C188.544 317.807 188.636 317.265 188.636 316.682C188.636 316.098 188.544 315.555 188.358 315.051C188.172 314.547 187.886 314.14 187.5 313.83C187.114 313.519 186.621 313.364 186.023 313.364C185.424 313.364 184.932 313.519 184.545 313.83C184.159 314.14 183.873 314.547 183.688 315.051C183.502 315.555 183.409 316.098 183.409 316.682C183.409 317.265 183.502 317.807 183.688 318.307C183.873 318.807 184.159 319.21 184.545 319.517C184.932 319.824 185.424 319.977 186.023 319.977ZM200.07 321.182C199.282 321.182 198.59 320.994 197.996 320.619C197.405 320.244 196.943 319.72 196.609 319.045C196.28 318.371 196.115 317.583 196.115 316.682C196.115 315.773 196.28 314.979 196.609 314.301C196.943 313.623 197.405 313.097 197.996 312.722C198.59 312.347 199.282 312.159 200.07 312.159C200.857 312.159 201.547 312.347 202.138 312.722C202.732 313.097 203.195 313.623 203.524 314.301C203.857 314.979 204.024 315.773 204.024 316.682C204.024 317.583 203.857 318.371 203.524 319.045C203.195 319.72 202.732 320.244 202.138 320.619C201.547 320.994 200.857 321.182 200.07 321.182ZM200.07 319.977C200.668 319.977 201.161 319.824 201.547 319.517C201.933 319.21 202.219 318.807 202.405 318.307C202.59 317.807 202.683 317.265 202.683 316.682C202.683 316.098 202.59 315.555 202.405 315.051C202.219 314.547 201.933 314.14 201.547 313.83C201.161 313.519 200.668 313.364 200.07 313.364C199.471 313.364 198.979 313.519 198.592 313.83C198.206 314.14 197.92 314.547 197.734 315.051C197.549 315.555 197.456 316.098 197.456 316.682C197.456 317.265 197.549 317.807 197.734 318.307C197.92 318.807 198.206 319.21 198.592 319.517C198.979 319.824 199.471 319.977 200.07 319.977ZM211.571 317.432V312.273H212.912V321H211.571V319.523H211.48C211.276 319.966 210.957 320.343 210.526 320.653C210.094 320.96 209.548 321.114 208.889 321.114C208.344 321.114 207.859 320.994 207.435 320.756C207.01 320.513 206.677 320.15 206.435 319.665C206.192 319.176 206.071 318.561 206.071 317.818V312.273H207.412V317.727C207.412 318.364 207.59 318.871 207.946 319.25C208.306 319.629 208.764 319.818 209.321 319.818C209.654 319.818 209.993 319.733 210.338 319.562C210.687 319.392 210.978 319.131 211.213 318.778C211.452 318.426 211.571 317.977 211.571 317.432ZM225.368 317.432V312.273H226.709V321H225.368V319.523H225.277C225.072 319.966 224.754 320.343 224.322 320.653C223.891 320.96 223.345 321.114 222.686 321.114C222.141 321.114 221.656 320.994 221.232 320.756C220.807 320.513 220.474 320.15 220.232 319.665C219.989 319.176 219.868 318.561 219.868 317.818V312.273H221.209V317.727C221.209 318.364 221.387 318.871 221.743 319.25C222.103 319.629 222.561 319.818 223.118 319.818C223.451 319.818 223.79 319.733 224.135 319.562C224.483 319.392 224.775 319.131 225.01 318.778C225.249 318.426 225.368 317.977 225.368 317.432ZM229.165 321V312.273H230.46V313.636H230.574C230.756 313.17 231.049 312.809 231.455 312.551C231.86 312.29 232.347 312.159 232.915 312.159C233.491 312.159 233.97 312.29 234.352 312.551C234.739 312.809 235.04 313.17 235.256 313.636H235.347C235.57 313.186 235.905 312.828 236.352 312.562C236.799 312.294 237.335 312.159 237.96 312.159C238.741 312.159 239.379 312.403 239.875 312.892C240.371 313.377 240.619 314.133 240.619 315.159V321H239.278V315.159C239.278 314.515 239.102 314.055 238.75 313.778C238.398 313.502 237.983 313.364 237.506 313.364C236.892 313.364 236.417 313.549 236.08 313.92C235.742 314.288 235.574 314.754 235.574 315.318V321H234.21V315.023C234.21 314.527 234.049 314.127 233.727 313.824C233.405 313.517 232.991 313.364 232.483 313.364C232.134 313.364 231.809 313.456 231.506 313.642C231.206 313.828 230.964 314.085 230.778 314.415C230.597 314.741 230.506 315.117 230.506 315.545V321H229.165ZM28.8864 347.182C28.0455 347.182 27.3201 346.996 26.7102 346.625C26.1042 346.25 25.6364 345.727 25.3068 345.057C24.9811 344.383 24.8182 343.598 24.8182 342.705C24.8182 341.811 24.9811 341.023 25.3068 340.341C25.6364 339.655 26.0947 339.121 26.6818 338.739C27.2727 338.352 27.9621 338.159 28.75 338.159C29.2045 338.159 29.6534 338.235 30.0966 338.386C30.5398 338.538 30.9432 338.784 31.3068 339.125C31.6705 339.462 31.9602 339.909 32.1761 340.466C32.392 341.023 32.5 341.708 32.5 342.523V343.091H25.7727V341.932H31.1364C31.1364 341.439 31.0379 341 30.8409 340.614C30.6477 340.227 30.3712 339.922 30.0114 339.699C29.6553 339.475 29.2348 339.364 28.75 339.364C28.2159 339.364 27.7538 339.496 27.3636 339.761C26.9773 340.023 26.6799 340.364 26.4716 340.784C26.2633 341.205 26.1591 341.655 26.1591 342.136V342.909C26.1591 343.568 26.2727 344.127 26.5 344.585C26.7311 345.04 27.0511 345.386 27.4602 345.625C27.8693 345.86 28.3447 345.977 28.8864 345.977C29.2386 345.977 29.5568 345.928 29.8409 345.83C30.1288 345.727 30.3769 345.576 30.5852 345.375C30.7936 345.17 30.9545 344.917 31.0682 344.614L32.3636 344.977C32.2273 345.417 31.9981 345.803 31.6761 346.136C31.3542 346.466 30.9564 346.723 30.483 346.909C30.0095 347.091 29.4773 347.182 28.8864 347.182ZM34.5398 347V338.273H35.8352V339.636H35.9489C36.1307 339.17 36.4242 338.809 36.8295 338.551C37.2348 338.29 37.7216 338.159 38.2898 338.159C38.8655 338.159 39.3447 338.29 39.7273 338.551C40.1136 338.809 40.4148 339.17 40.6307 339.636H40.7216C40.9451 339.186 41.2803 338.828 41.7273 338.562C42.1742 338.294 42.7102 338.159 43.3352 338.159C44.1155 338.159 44.7538 338.403 45.25 338.892C45.7462 339.377 45.9943 340.133 45.9943 341.159V347H44.6534V341.159C44.6534 340.515 44.4773 340.055 44.125 339.778C43.7727 339.502 43.358 339.364 42.8807 339.364C42.267 339.364 41.7917 339.549 41.4545 339.92C41.1174 340.288 40.9489 340.754 40.9489 341.318V347H39.5852V341.023C39.5852 340.527 39.4242 340.127 39.1023 339.824C38.7803 339.517 38.3655 339.364 37.858 339.364C37.5095 339.364 37.1837 339.456 36.8807 339.642C36.5814 339.828 36.339 340.085 36.1534 340.415C35.9716 340.741 35.8807 341.117 35.8807 341.545V347H34.5398ZM48.446 350.273V338.273H49.7415V339.659H49.9006C49.9991 339.508 50.1354 339.314 50.3097 339.08C50.4877 338.841 50.7415 338.629 51.071 338.443C51.4044 338.254 51.8551 338.159 52.4233 338.159C53.1581 338.159 53.8059 338.343 54.3665 338.71C54.9271 339.078 55.3646 339.598 55.679 340.273C55.9934 340.947 56.1506 341.742 56.1506 342.659C56.1506 343.583 55.9934 344.384 55.679 345.062C55.3646 345.737 54.929 346.259 54.3722 346.631C53.8153 346.998 53.1733 347.182 52.446 347.182C51.8854 347.182 51.4366 347.089 51.0994 346.903C50.7623 346.714 50.5028 346.5 50.321 346.261C50.1392 346.019 49.9991 345.818 49.9006 345.659H49.7869V350.273H48.446ZM49.7642 342.636C49.7642 343.295 49.8608 343.877 50.054 344.381C50.2472 344.881 50.5294 345.273 50.9006 345.557C51.2718 345.837 51.7263 345.977 52.2642 345.977C52.8248 345.977 53.2926 345.83 53.6676 345.534C54.0464 345.235 54.3305 344.833 54.5199 344.33C54.7131 343.822 54.8097 343.258 54.8097 342.636C54.8097 342.023 54.715 341.47 54.5256 340.977C54.34 340.481 54.0578 340.089 53.679 339.801C53.304 339.509 52.8324 339.364 52.2642 339.364C51.7188 339.364 51.2604 339.502 50.8892 339.778C50.518 340.051 50.2377 340.434 50.0483 340.926C49.8589 341.415 49.7642 341.985 49.7642 342.636ZM58.196 347V338.273H59.4915V339.591H59.5824C59.7415 339.159 60.0294 338.809 60.446 338.54C60.8627 338.271 61.3324 338.136 61.8551 338.136C61.9536 338.136 62.0767 338.138 62.2244 338.142C62.3722 338.146 62.4839 338.152 62.5597 338.159V339.523C62.5142 339.511 62.41 339.494 62.2472 339.472C62.0881 339.445 61.9195 339.432 61.7415 339.432C61.3172 339.432 60.9384 339.521 60.6051 339.699C60.2756 339.873 60.0142 340.116 59.821 340.426C59.6316 340.733 59.5369 341.083 59.5369 341.477V347H58.196ZM67.5426 347.182C66.7017 347.182 65.9763 346.996 65.3665 346.625C64.7604 346.25 64.2926 345.727 63.9631 345.057C63.6373 344.383 63.4744 343.598 63.4744 342.705C63.4744 341.811 63.6373 341.023 63.9631 340.341C64.2926 339.655 64.7509 339.121 65.3381 338.739C65.929 338.352 66.6184 338.159 67.4062 338.159C67.8608 338.159 68.3097 338.235 68.7528 338.386C69.196 338.538 69.5994 338.784 69.9631 339.125C70.3267 339.462 70.6165 339.909 70.8324 340.466C71.0483 341.023 71.1562 341.708 71.1562 342.523V343.091H64.429V341.932H69.7926C69.7926 341.439 69.6941 341 69.4972 340.614C69.304 340.227 69.0275 339.922 68.6676 339.699C68.3116 339.475 67.8911 339.364 67.4062 339.364C66.8722 339.364 66.41 339.496 66.0199 339.761C65.6335 340.023 65.3362 340.364 65.1278 340.784C64.9195 341.205 64.8153 341.655 64.8153 342.136V342.909C64.8153 343.568 64.929 344.127 65.1562 344.585C65.3873 345.04 65.7074 345.386 66.1165 345.625C66.5256 345.86 67.0009 345.977 67.5426 345.977C67.8949 345.977 68.2131 345.928 68.4972 345.83C68.785 345.727 69.0331 345.576 69.2415 345.375C69.4498 345.17 69.6108 344.917 69.7244 344.614L71.0199 344.977C70.8835 345.417 70.6544 345.803 70.3324 346.136C70.0104 346.466 69.6127 346.723 69.1392 346.909C68.6657 347.091 68.1335 347.182 67.5426 347.182ZM76.7188 350.455C76.071 350.455 75.5142 350.371 75.0483 350.205C74.5824 350.042 74.1941 349.826 73.8835 349.557C73.5767 349.292 73.3324 349.008 73.1506 348.705L74.2188 347.955C74.34 348.114 74.4934 348.295 74.679 348.5C74.8646 348.708 75.1184 348.888 75.4403 349.04C75.7661 349.195 76.1922 349.273 76.7188 349.273C77.4233 349.273 78.0047 349.102 78.4631 348.761C78.9214 348.42 79.1506 347.886 79.1506 347.159V345.386H79.0369C78.9384 345.545 78.7983 345.742 78.6165 345.977C78.4384 346.208 78.1809 346.415 77.8438 346.597C77.5104 346.775 77.0597 346.864 76.4915 346.864C75.7869 346.864 75.1544 346.697 74.5938 346.364C74.0369 346.03 73.5956 345.545 73.2699 344.909C72.9479 344.273 72.7869 343.5 72.7869 342.591C72.7869 341.697 72.9441 340.919 73.2585 340.256C73.5729 339.589 74.0104 339.074 74.571 338.71C75.1316 338.343 75.7794 338.159 76.5142 338.159C77.0824 338.159 77.5331 338.254 77.8665 338.443C78.2036 338.629 78.4612 338.841 78.6392 339.08C78.821 339.314 78.9612 339.508 79.0597 339.659H79.196V338.273H80.4915V347.25C80.4915 348 80.321 348.61 79.9801 349.08C79.643 349.553 79.1884 349.9 78.6165 350.119C78.0483 350.343 77.4157 350.455 76.7188 350.455ZM76.6733 345.659C77.2112 345.659 77.6657 345.536 78.0369 345.29C78.4081 345.044 78.6903 344.689 78.8835 344.227C79.0767 343.765 79.1733 343.212 79.1733 342.568C79.1733 341.939 79.0786 341.384 78.8892 340.903C78.6998 340.422 78.4195 340.045 78.0483 339.773C77.6771 339.5 77.2188 339.364 76.6733 339.364C76.1051 339.364 75.6316 339.508 75.2528 339.795C74.8778 340.083 74.5956 340.47 74.4062 340.955C74.2206 341.439 74.1278 341.977 74.1278 342.568C74.1278 343.174 74.2225 343.71 74.4119 344.176C74.6051 344.638 74.8892 345.002 75.2642 345.267C75.643 345.528 76.1127 345.659 76.6733 345.659ZM85.5142 347.205C84.9612 347.205 84.4593 347.1 84.0085 346.892C83.5578 346.68 83.1998 346.375 82.9347 345.977C82.6695 345.576 82.5369 345.091 82.5369 344.523C82.5369 344.023 82.6354 343.617 82.8324 343.307C83.0294 342.992 83.2926 342.746 83.6222 342.568C83.9517 342.39 84.3153 342.258 84.7131 342.17C85.1146 342.08 85.518 342.008 85.9233 341.955C86.4536 341.886 86.8835 341.835 87.2131 341.801C87.5464 341.763 87.7888 341.701 87.9403 341.614C88.0956 341.527 88.1733 341.375 88.1733 341.159V341.114C88.1733 340.553 88.0199 340.117 87.7131 339.807C87.41 339.496 86.9498 339.341 86.3324 339.341C85.6922 339.341 85.1903 339.481 84.8267 339.761C84.4631 340.042 84.2074 340.341 84.0597 340.659L82.7869 340.205C83.0142 339.674 83.3172 339.261 83.696 338.966C84.0786 338.667 84.4953 338.458 84.946 338.341C85.4006 338.22 85.8475 338.159 86.2869 338.159C86.5672 338.159 86.8892 338.193 87.2528 338.261C87.6203 338.326 87.9744 338.46 88.3153 338.665C88.66 338.869 88.946 339.178 89.1733 339.591C89.4006 340.004 89.5142 340.557 89.5142 341.25V347H88.1733V345.818H88.1051C88.0142 346.008 87.8627 346.21 87.6506 346.426C87.4384 346.642 87.1563 346.826 86.804 346.977C86.4517 347.129 86.0218 347.205 85.5142 347.205ZM85.7188 346C86.2491 346 86.696 345.896 87.0597 345.688C87.4271 345.479 87.7036 345.21 87.8892 344.881C88.0786 344.551 88.1733 344.205 88.1733 343.841V342.614C88.1165 342.682 87.9915 342.744 87.7983 342.801C87.6089 342.854 87.3892 342.902 87.1392 342.943C86.893 342.981 86.6525 343.015 86.4176 343.045C86.1866 343.072 85.9991 343.095 85.8551 343.114C85.5066 343.159 85.1809 343.233 84.8778 343.335C84.5786 343.434 84.3362 343.583 84.1506 343.784C83.9688 343.981 83.8778 344.25 83.8778 344.591C83.8778 345.057 84.0502 345.409 84.3949 345.648C84.7434 345.883 85.1847 346 85.7188 346ZM95.2571 347.182C94.5298 347.182 93.8878 346.998 93.331 346.631C92.7741 346.259 92.3385 345.737 92.0241 345.062C91.7098 344.384 91.5526 343.583 91.5526 342.659C91.5526 341.742 91.7098 340.947 92.0241 340.273C92.3385 339.598 92.776 339.078 93.3366 338.71C93.8973 338.343 94.545 338.159 95.2798 338.159C95.848 338.159 96.2969 338.254 96.6264 338.443C96.9598 338.629 97.2135 338.841 97.3878 339.08C97.5658 339.314 97.7041 339.508 97.8026 339.659H97.9162V335.364H99.2571V347H97.9616V345.659H97.8026C97.7041 345.818 97.5639 346.019 97.3821 346.261C97.2003 346.5 96.9408 346.714 96.6037 346.903C96.2666 347.089 95.8177 347.182 95.2571 347.182ZM95.4389 345.977C95.9768 345.977 96.4313 345.837 96.8026 345.557C97.1738 345.273 97.456 344.881 97.6491 344.381C97.8423 343.877 97.9389 343.295 97.9389 342.636C97.9389 341.985 97.8442 341.415 97.6548 340.926C97.4654 340.434 97.1851 340.051 96.8139 339.778C96.4427 339.502 95.9844 339.364 95.4389 339.364C94.8707 339.364 94.3973 339.509 94.0185 339.801C93.6435 340.089 93.3613 340.481 93.1719 340.977C92.9863 341.47 92.8935 342.023 92.8935 342.636C92.8935 343.258 92.9882 343.822 93.1776 344.33C93.3707 344.833 93.6548 345.235 94.0298 345.534C94.4086 345.83 94.8783 345.977 95.4389 345.977ZM105.445 347.182C104.657 347.182 103.965 346.994 103.371 346.619C102.78 346.244 102.318 345.72 101.984 345.045C101.655 344.371 101.49 343.583 101.49 342.682C101.49 341.773 101.655 340.979 101.984 340.301C102.318 339.623 102.78 339.097 103.371 338.722C103.965 338.347 104.657 338.159 105.445 338.159C106.232 338.159 106.922 338.347 107.513 338.722C108.107 339.097 108.57 339.623 108.899 340.301C109.232 340.979 109.399 341.773 109.399 342.682C109.399 343.583 109.232 344.371 108.899 345.045C108.57 345.72 108.107 346.244 107.513 346.619C106.922 346.994 106.232 347.182 105.445 347.182ZM105.445 345.977C106.043 345.977 106.536 345.824 106.922 345.517C107.308 345.21 107.594 344.807 107.78 344.307C107.965 343.807 108.058 343.265 108.058 342.682C108.058 342.098 107.965 341.555 107.78 341.051C107.594 340.547 107.308 340.14 106.922 339.83C106.536 339.519 106.043 339.364 105.445 339.364C104.846 339.364 104.354 339.519 103.967 339.83C103.581 340.14 103.295 340.547 103.109 341.051C102.924 341.555 102.831 342.098 102.831 342.682C102.831 343.265 102.924 343.807 103.109 344.307C103.295 344.807 103.581 345.21 103.967 345.517C104.354 345.824 104.846 345.977 105.445 345.977ZM112.423 347.091C112.143 347.091 111.902 346.991 111.702 346.79C111.501 346.589 111.401 346.348 111.401 346.068C111.401 345.788 111.501 345.547 111.702 345.347C111.902 345.146 112.143 345.045 112.423 345.045C112.704 345.045 112.944 345.146 113.145 345.347C113.346 345.547 113.446 345.788 113.446 346.068C113.446 346.254 113.399 346.424 113.304 346.58C113.213 346.735 113.09 346.86 112.935 346.955C112.783 347.045 112.613 347.091 112.423 347.091Z" fill="black"/>
<mask id="mask0_451_211" style="mask-type:luminance" maskUnits="userSpaceOnUse" x="145" y="61" width="69" height="69">
<path d="M145.093 61.3687H213.48V129.5H145.093V61.3687Z" fill="white"/>
</mask>
<g mask="url(#mask0_451_211)">
<path d="M179.804 128.263C198.288 128.263 213.329 113.263 213.329 94.8246C213.329 76.3865 198.288 61.3862 179.804 61.3862C161.319 61.3862 146.284 76.3865 146.284 94.8246C146.284 113.263 161.319 128.263 179.804 128.263ZM151.859 94.8246C151.859 79.4527 164.397 66.9438 179.804 66.9438C195.216 66.9438 207.754 79.4527 207.754 94.8246C207.754 110.197 195.216 122.705 179.804 122.705C164.397 122.705 151.859 110.197 151.859 94.8246Z" fill="#101820"/>
</g>
<path d="M171.615 110.139C173.067 111.55 174.995 112.543 177.115 112.978L177.092 115.934C177.08 117.427 178.288 118.646 179.786 118.658H179.804C181.29 118.658 182.504 117.456 182.516 115.975L182.539 112.967C184.653 112.525 186.575 111.527 188.015 110.121C189.682 108.484 190.605 106.387 190.605 104.221V103.025C190.605 100.138 188.979 97.4149 186.255 95.7308L176.586 89.7609C175.448 89.0582 174.798 88.0826 174.798 87.0721V85.2021C174.798 84.2962 175.303 83.4193 176.22 82.7398C177.219 82.0023 178.555 81.5958 179.989 81.5958C181.424 81.5958 182.765 82.0023 183.764 82.7398C184.676 83.4193 185.181 84.2962 185.181 85.2021V87.3102C185.181 88.8027 186.401 90.0164 187.893 90.0164C189.391 90.0164 190.605 88.8027 190.605 87.3102V85.2021C190.605 81.0848 187.324 77.5191 182.701 76.4854V73.6979C182.701 72.2054 181.488 70.9917 179.989 70.9917C178.497 70.9917 177.277 72.2054 177.277 73.6979V76.4854C172.655 77.5191 169.374 81.079 169.374 85.2021V87.0721C169.374 89.9525 171.005 92.6761 173.729 94.3602L183.398 100.33C184.531 101.033 185.181 102.014 185.181 103.025V104.215C185.181 105.127 184.676 105.998 183.764 106.678C182.765 107.415 181.424 107.822 179.989 107.822H179.623C178.189 107.822 176.848 107.415 175.849 106.678C174.937 105.998 174.432 105.127 174.432 104.215V103.06C174.432 101.567 173.212 100.353 171.72 100.353C170.221 100.353 169.008 101.567 169.008 103.06V104.215C169.008 106.399 169.931 108.501 171.615 110.139Z" fill="#101820"/>
<mask id="mask1_451_211" style="mask-type:luminance" maskUnits="userSpaceOnUse" x="70" y="130" width="171" height="68">
<path d="M70.8239 130.987H240.24V197.399H70.8239V130.987Z" fill="white"/>
</mask>
<g mask="url(#mask1_451_211)">
<path d="M236.349 136.3C232.569 132.107 226.529 131.689 222.284 135.319L197.388 155.406C197.4 155.162 197.4 154.913 197.4 154.669C197.301 148.676 192.585 143.803 186.883 143.803H159.24C157.643 143.803 156.145 142.886 155.215 141.347C155.018 141.016 154.745 140.743 154.437 140.499C143.119 131.596 127.91 130.429 114.884 136.202L110.07 138.339H100.395V133.931C100.395 132.351 99.1112 131.068 97.5258 131.068H73.6927C72.1073 131.068 70.8239 132.351 70.8239 133.931V186.876C70.8239 188.461 72.1073 189.739 73.6927 189.739H97.5258C99.1112 189.739 100.395 188.461 100.395 186.876V182.335H110.232L144.269 193.119C151.992 195.964 158.462 197.387 164.931 197.387C170.123 197.387 175.309 196.47 181.139 194.64C181.673 194.478 182.219 194.298 182.765 194.118C183.944 193.665 185.094 193.125 186.197 192.509C187.109 192.004 187.969 191.411 188.776 190.755L236.337 152.05C236.494 151.922 236.639 151.777 236.767 151.62C240.304 147.206 240.124 140.476 236.349 136.3ZM94.657 184.019H76.5615V136.794H94.657V184.019ZM232.452 147.822L188.09 183.926C184.217 187.079 179.676 189.315 174.803 190.453C165.163 192.701 157.213 191.795 146.202 187.724C146.156 187.706 146.115 187.695 146.075 187.683L111.545 176.748C111.266 176.655 110.97 176.609 110.679 176.609H100.395V144.065H110.679C111.08 144.065 111.475 143.977 111.841 143.815L117.212 141.434C128.188 136.567 140.645 137.845 150.639 144.831C152.643 147.787 155.814 149.529 159.24 149.529H186.883C189.467 149.529 191.61 151.875 191.656 154.762C191.685 156.359 191.11 157.869 190.077 158.914C189.571 159.431 188.979 159.802 188.346 160.011C187.533 160.139 186.703 160.209 185.866 160.209H155.111C153.537 160.209 152.219 161.457 152.201 163.031C152.178 164.634 153.473 165.935 155.07 165.935H187.132C187.992 165.935 188.84 165.819 189.658 165.598C193.236 164.953 196.616 163.391 199.583 160.999L225.931 139.744C225.954 139.721 225.977 139.703 226 139.68C227.853 138.083 230.414 138.275 232.087 140.127C233.933 142.177 234.078 145.574 232.452 147.822Z" fill="#101820"/>
</g>
</svg>
