<svg xmlns="http://www.w3.org/2000/svg" xmlns:xlink="http://www.w3.org/1999/xlink" width="200" zoomAndPan="magnify" viewBox="0 0 150 149.999998" height="200" preserveAspectRatio="xMidYMid meet" version="1.0"><defs><clipPath id="75058a0846"><path d="M 30 128 L 126.375 128 L 126.375 131.917969 L 30 131.917969 Z M 30 128 " clip-rule="nonzero"/></clipPath><clipPath id="074bd657a1"><path d="M 23.625 27 L 108 27 L 108 94 L 23.625 94 Z M 23.625 27 " clip-rule="nonzero"/></clipPath><clipPath id="d7c822c52d"><path d="M 95 17.917969 L 116 17.917969 L 116 40 L 95 40 Z M 95 17.917969 " clip-rule="nonzero"/></clipPath></defs><path fill="#64aaff" d="M 40.722656 90.230469 L 59.726562 90.230469 L 59.726562 130.21875 L 40.722656 130.21875 Z M 40.722656 90.230469 " fill-opacity="1" fill-rule="nonzero"/><path fill="#64aaff" d="M 69.226562 71.929688 L 88.234375 71.929688 L 88.234375 130.21875 L 69.226562 130.21875 Z M 69.226562 71.929688 " fill-opacity="1" fill-rule="nonzero"/><path fill="#64aaff" d="M 97.734375 49.113281 L 116.738281 49.113281 L 116.738281 130.21875 L 97.734375 130.21875 Z M 97.734375 49.113281 " fill-opacity="1" fill-rule="nonzero"/><g clip-path="url(#75058a0846)"><path fill="#101820" d="M 124.542969 131.90625 L 31.730469 131.90625 C 30.796875 131.90625 30.039062 131.148438 30.039062 130.21875 C 30.039062 129.285156 30.796875 128.53125 31.730469 128.53125 L 124.542969 128.53125 C 125.476562 128.53125 126.234375 129.285156 126.234375 130.21875 C 126.234375 131.148438 125.476562 131.90625 124.542969 131.90625 Z M 124.542969 131.90625 " fill-opacity="1" fill-rule="nonzero"/></g><g clip-path="url(#074bd657a1)"><path fill="#101820" d="M 25.621094 93.019531 C 25.238281 93.019531 24.851562 92.886719 24.535156 92.621094 C 23.820312 92.019531 23.730469 90.957031 24.332031 90.246094 L 38.074219 74.003906 C 38.617188 73.363281 39.546875 73.21875 40.257812 73.664062 L 47.617188 78.253906 L 67.933594 54.015625 C 68.460938 53.386719 69.367188 53.230469 70.078125 53.644531 L 78.355469 58.460938 L 104.035156 27.976562 C 104.636719 27.265625 105.699219 27.171875 106.414062 27.773438 C 107.128906 28.371094 107.21875 29.433594 106.621094 30.148438 L 80.023438 61.71875 C 79.492188 62.347656 78.589844 62.503906 77.878906 62.089844 L 69.609375 57.273438 L 49.261719 81.542969 C 48.71875 82.191406 47.785156 82.335938 47.070312 81.890625 L 39.710938 77.296875 L 26.914062 92.421875 C 26.578125 92.816406 26.101562 93.019531 25.621094 93.019531 Z M 25.621094 93.019531 " fill-opacity="1" fill-rule="nonzero"/></g><g clip-path="url(#d7c822c52d)"><path fill="#101820" d="M 115.101562 17.917969 L 108.148438 39.480469 L 104.789062 30.15625 L 95.015625 28.449219 Z M 115.101562 17.917969 " fill-opacity="1" fill-rule="nonzero"/></g></svg>