<svg width="35" height="35" viewBox="0 0 35 35" fill="none" xmlns="http://www.w3.org/2000/svg">
<mask id="mask0_419_2989" style="mask-type:luminance" maskUnits="userSpaceOnUse" x="9" y="3" width="17" height="28">
<path d="M9.10001 3.5H25.9V30.275H9.10001V3.5Z" fill="white"/>
</mask>
<g mask="url(#mask0_419_2989)">
<path d="M17.521 3.5C17.2494 3.50091 16.9787 3.51458 16.7089 3.54102C16.4391 3.56836 16.1711 3.60846 15.905 3.66133C15.6388 3.7151 15.3763 3.78073 15.1165 3.86003C14.8568 3.93841 14.6016 4.02956 14.3509 4.13346C14.1003 4.23737 13.856 4.35313 13.6163 4.48073C13.3775 4.60833 13.1451 4.74779 12.919 4.89818C12.6939 5.04857 12.4761 5.2099 12.2664 5.38216C12.0568 5.55352 11.8554 5.7349 11.6639 5.9263C11.4716 6.11771 11.2902 6.31823 11.118 6.52695C10.9457 6.73659 10.7844 6.95352 10.6331 7.17865C10.4827 7.40378 10.3432 7.63529 10.2147 7.87409C10.0871 8.11289 9.97046 8.35716 9.86655 8.6069C9.76264 8.85664 9.67059 9.11094 9.5922 9.36979C9.5129 9.62956 9.44637 9.89115 9.3935 10.1564C9.33973 10.4225 9.29962 10.6896 9.27228 10.9585C9.24585 11.2283 9.23217 11.498 9.23126 11.7688C9.23126 14.525 12.0258 19.1397 14.268 22.4H12.168L10.1947 30.275H24.8473L22.874 22.4H20.774C23.0162 19.1397 25.8107 14.525 25.8107 11.7688C25.8098 11.498 25.7961 11.2283 25.7697 10.9585C25.7423 10.6896 25.7022 10.4225 25.6485 10.1564C25.5956 9.89115 25.529 9.62956 25.4498 9.36979C25.3714 9.11094 25.2793 8.85664 25.1754 8.6069C25.0715 8.35716 24.9557 8.11289 24.8272 7.87409C24.6987 7.63529 24.5593 7.40378 24.4089 7.17865C24.2576 6.95352 24.0962 6.73659 23.924 6.52695C23.7517 6.31823 23.5703 6.11771 23.378 5.9263C23.1866 5.7349 22.9852 5.55352 22.7755 5.38216C22.5659 5.2099 22.3481 5.04857 22.1229 4.89818C21.8969 4.74779 21.6645 4.60833 21.4257 4.48073C21.186 4.35313 20.9417 4.23737 20.691 4.13346C20.4404 4.02956 20.1852 3.93841 19.9254 3.86003C19.6656 3.78073 19.4031 3.7151 19.137 3.66133C18.8708 3.60846 18.6029 3.56836 18.3331 3.54102C18.0633 3.51458 17.7926 3.50091 17.521 3.5ZM21.6426 23.975L22.8266 28.7H12.2154L13.4003 23.975H15.3581C16.1155 25.0305 16.6998 25.7861 16.9367 26.0385L17.5684 26.8415L18.2 26.0385C18.3896 25.7861 18.9738 25.0305 19.7787 23.975H21.6426ZM17.521 24.243C15.1995 21.124 10.8099 14.6508 10.8099 11.7688C10.8099 11.5491 10.8208 11.3313 10.8427 11.1125C10.8646 10.8947 10.8965 10.6777 10.9393 10.4626C10.9822 10.2475 11.035 10.0352 11.0988 9.82552C11.1626 9.61589 11.2374 9.4099 11.3212 9.20755C11.4051 9.0043 11.499 8.80651 11.6029 8.61328C11.7059 8.42005 11.8189 8.23229 11.941 8.05C12.0632 7.86771 12.1944 7.6918 12.3339 7.52227C12.4733 7.35273 12.6201 7.1905 12.7759 7.03555C12.9309 6.8806 13.094 6.73385 13.2636 6.5944C13.434 6.45495 13.6099 6.32461 13.7931 6.20339C13.9754 6.08125 14.1641 5.96914 14.3573 5.86523C14.5514 5.76224 14.7501 5.66836 14.9525 5.58451C15.1557 5.50065 15.3626 5.42682 15.5732 5.36302C15.7837 5.29922 15.9961 5.24635 16.2121 5.20352C16.4272 5.16068 16.6442 5.12878 16.8629 5.1069C17.0817 5.08594 17.3013 5.075 17.521 5.075C17.7406 5.075 17.9603 5.08594 18.179 5.1069C18.3978 5.12878 18.6147 5.16068 18.8298 5.20352C19.0458 5.24635 19.2591 5.29922 19.4688 5.36302C19.6793 5.42682 19.8862 5.50065 20.0895 5.58451C20.2918 5.66836 20.4905 5.76224 20.6846 5.86523C20.8779 5.96914 21.0665 6.08125 21.2488 6.20339C21.432 6.32461 21.608 6.45495 21.7784 6.5944C21.9479 6.73385 22.1111 6.8806 22.266 7.03555C22.4219 7.1905 22.5686 7.35273 22.7081 7.52227C22.8475 7.6918 22.9788 7.86771 23.1009 8.05C23.2231 8.23229 23.3361 8.42005 23.4391 8.61328C23.543 8.80651 23.6369 9.0043 23.7207 9.20755C23.8046 9.4099 23.8793 9.61589 23.9431 9.82552C24.0069 10.0352 24.0598 10.2475 24.1026 10.4626C24.1455 10.6777 24.1783 10.8947 24.1992 11.1125C24.2211 11.3313 24.232 11.5491 24.232 11.7688C24.232 14.6508 19.8425 21.124 17.521 24.243Z" fill="#101820"/>
</g>
<path d="M17.521 9.0127C17.3141 9.0127 17.1081 9.03275 16.9048 9.07285C16.7016 9.11387 16.5038 9.17311 16.3124 9.25241C16.121 9.33171 15.9387 9.42832 15.7664 9.54316C15.5941 9.65892 15.4346 9.78926 15.2879 9.93509C15.1411 10.0818 15.0108 10.2404 14.8951 10.4127C14.7802 10.585 14.6827 10.7663 14.6034 10.9568C14.5241 11.1482 14.4639 11.3451 14.4238 11.5484C14.3828 11.7507 14.3628 11.9558 14.3628 12.1627C14.3628 12.3696 14.3828 12.5747 14.4238 12.777C14.4639 12.9803 14.5241 13.1771 14.6034 13.3686C14.6827 13.559 14.7802 13.7404 14.8951 13.9127C15.0108 14.085 15.1411 14.2436 15.2879 14.3903C15.4346 14.5361 15.5941 14.6665 15.7664 14.7822C15.9387 14.8971 16.121 14.9937 16.3124 15.073C16.5038 15.1523 16.7016 15.2115 16.9048 15.2525C17.1081 15.2926 17.3141 15.3127 17.521 15.3127C17.7288 15.3127 17.9339 15.2926 18.1371 15.2525C18.3404 15.2115 18.5382 15.1523 18.7296 15.073C18.921 14.9937 19.1033 14.8971 19.2755 14.7822C19.4478 14.6665 19.6073 14.5361 19.754 14.3903C19.9008 14.2436 20.0311 14.085 20.1469 13.9127C20.2617 13.7404 20.3592 13.559 20.4385 13.3686C20.5178 13.1771 20.578 12.9803 20.6181 12.777C20.6591 12.5747 20.6792 12.3696 20.6792 12.1627C20.6792 11.9558 20.6591 11.7507 20.6181 11.5484C20.578 11.3451 20.5178 11.1482 20.4385 10.9568C20.3592 10.7663 20.2617 10.585 20.1469 10.4127C20.0311 10.2404 19.9008 10.0818 19.754 9.93509C19.6073 9.78926 19.4478 9.65892 19.2755 9.54316C19.1033 9.42832 18.921 9.33171 18.7296 9.25241C18.5382 9.17311 18.3404 9.11387 18.1371 9.07285C17.9339 9.03275 17.7288 9.0127 17.521 9.0127ZM17.521 13.7377C17.4171 13.7377 17.315 13.7277 17.2129 13.7076C17.1108 13.6876 17.0124 13.6575 16.9167 13.6174C16.821 13.5782 16.7298 13.5299 16.6441 13.4725C16.5576 13.415 16.4773 13.3494 16.4044 13.2765C16.3315 13.2036 16.2659 13.1234 16.2085 13.0377C16.1501 12.952 16.1018 12.8609 16.0626 12.7652C16.0225 12.6695 15.9924 12.571 15.9724 12.4699C15.9523 12.3687 15.9423 12.2657 15.9423 12.1627C15.9423 12.0597 15.9523 11.9567 15.9724 11.8555C15.9924 11.7544 16.0225 11.6559 16.0626 11.5602C16.1018 11.4645 16.1501 11.3734 16.2085 11.2877C16.2659 11.202 16.3315 11.1218 16.4044 11.0489C16.4773 10.976 16.5576 10.9104 16.6441 10.8529C16.7298 10.7955 16.821 10.7472 16.9167 10.708C17.0124 10.6679 17.1108 10.6378 17.2129 10.6178C17.315 10.5977 17.4171 10.5877 17.521 10.5877C17.6249 10.5877 17.727 10.5977 17.829 10.6178C17.9311 10.6378 18.0296 10.6679 18.1253 10.708C18.221 10.7472 18.3121 10.7955 18.3978 10.8529C18.4844 10.9104 18.5646 10.976 18.6375 11.0489C18.7104 11.1218 18.776 11.202 18.8335 11.2877C18.8918 11.3734 18.9401 11.4645 18.9802 11.5602C19.0194 11.6559 19.0495 11.7544 19.0695 11.8555C19.0896 11.9567 19.0996 12.0597 19.0996 12.1627C19.0996 12.2657 19.0896 12.3687 19.0695 12.4699C19.0495 12.571 19.0194 12.6695 18.9802 12.7652C18.9401 12.8609 18.8918 12.952 18.8335 13.0377C18.776 13.1234 18.7104 13.2036 18.6375 13.2765C18.5646 13.3494 18.4844 13.415 18.3978 13.4725C18.3121 13.5299 18.221 13.5782 18.1253 13.6174C18.0296 13.6575 17.9311 13.6876 17.829 13.7076C17.727 13.7277 17.6249 13.7377 17.521 13.7377Z" fill="#101820"/>
</svg>
