<svg xmlns="http://www.w3.org/2000/svg" xmlns:xlink="http://www.w3.org/1999/xlink" width="600" zoomAndPan="magnify" viewBox="0 0 450 225" height="300" preserveAspectRatio="xMidYMid meet" version="1.0"><defs><g/><clipPath id="fed03801f5"><path d="M 326.691406 85.675781 L 384 85.675781 L 384 143 L 326.691406 143 Z M 326.691406 85.675781 " clip-rule="nonzero"/></clipPath><clipPath id="7035ca1cb2"><path d="M 383 141 L 411.441406 141 L 411.441406 169.675781 L 383 169.675781 Z M 383 141 " clip-rule="nonzero"/></clipPath></defs><g clip-path="url(#fed03801f5)"><path fill="#3fd395" d="M 354.976562 142.203125 C 339.394531 142.203125 326.714844 129.523438 326.714844 113.9375 C 326.714844 98.347656 339.390625 85.671875 354.976562 85.671875 C 370.5625 85.671875 383.238281 98.347656 383.238281 113.9375 C 383.238281 129.523438 370.558594 142.203125 354.976562 142.203125 Z M 354.976562 90.320312 C 354.203125 90.320312 353.433594 90.355469 352.664062 90.433594 C 351.894531 90.507812 351.128906 90.621094 350.371094 90.773438 C 349.613281 90.925781 348.863281 91.113281 348.121094 91.335938 C 347.382812 91.5625 346.65625 91.820312 345.941406 92.117188 C 345.226562 92.414062 344.527344 92.742188 343.847656 93.109375 C 343.164062 93.472656 342.5 93.871094 341.859375 94.300781 C 341.214844 94.730469 340.59375 95.191406 339.996094 95.679688 C 339.398438 96.171875 338.828125 96.691406 338.28125 97.238281 C 337.734375 97.785156 337.214844 98.355469 336.722656 98.953125 C 336.234375 99.550781 335.773438 100.171875 335.34375 100.816406 C 334.914062 101.457031 334.515625 102.121094 334.152344 102.804688 C 333.789062 103.484375 333.457031 104.183594 333.160156 104.898438 C 332.867188 105.613281 332.605469 106.339844 332.378906 107.082031 C 332.15625 107.820312 331.96875 108.570312 331.816406 109.328125 C 331.667969 110.085938 331.554688 110.851562 331.476562 111.621094 C 331.402344 112.390625 331.363281 113.164062 331.363281 113.9375 C 331.363281 114.710938 331.402344 115.480469 331.476562 116.25 C 331.554688 117.019531 331.667969 117.785156 331.816406 118.542969 C 331.96875 119.304688 332.15625 120.050781 332.378906 120.792969 C 332.605469 121.53125 332.867188 122.261719 333.160156 122.976562 C 333.457031 123.6875 333.789062 124.386719 334.152344 125.070312 C 334.515625 125.753906 334.914062 126.414062 335.34375 127.058594 C 335.773438 127.699219 336.234375 128.320312 336.722656 128.917969 C 337.214844 129.515625 337.734375 130.089844 338.28125 130.636719 C 338.828125 131.183594 339.398438 131.703125 339.996094 132.191406 C 340.59375 132.683594 341.214844 133.144531 341.859375 133.574219 C 342.5 134.003906 343.164062 134.402344 343.847656 134.765625 C 344.527344 135.128906 345.226562 135.460938 345.941406 135.757812 C 346.65625 136.050781 347.382812 136.3125 348.121094 136.539062 C 348.863281 136.761719 349.613281 136.949219 350.371094 137.101562 C 351.128906 137.25 351.894531 137.363281 352.664062 137.441406 C 353.433594 137.515625 354.203125 137.554688 354.976562 137.554688 C 355.75 137.554688 356.523438 137.515625 357.292969 137.441406 C 358.0625 137.363281 358.824219 137.25 359.585938 137.101562 C 360.34375 136.949219 361.09375 136.761719 361.832031 136.539062 C 362.570312 136.3125 363.300781 136.050781 364.015625 135.757812 C 364.726562 135.460938 365.425781 135.128906 366.109375 134.765625 C 366.789062 134.402344 367.453125 134.003906 368.097656 133.574219 C 368.738281 133.144531 369.359375 132.683594 369.957031 132.191406 C 370.554688 131.703125 371.128906 131.183594 371.675781 130.636719 C 372.222656 130.089844 372.738281 129.515625 373.230469 128.917969 C 373.722656 128.320312 374.179688 127.699219 374.609375 127.058594 C 375.039062 126.414062 375.4375 125.753906 375.800781 125.070312 C 376.167969 124.386719 376.496094 123.6875 376.792969 122.976562 C 377.089844 122.261719 377.347656 121.53125 377.574219 120.792969 C 377.796875 120.050781 377.984375 119.304688 378.136719 118.542969 C 378.289062 117.785156 378.402344 117.019531 378.476562 116.25 C 378.554688 115.480469 378.589844 114.710938 378.589844 113.9375 C 378.589844 113.164062 378.550781 112.390625 378.472656 111.621094 C 378.398438 110.851562 378.285156 110.089844 378.132812 109.332031 C 377.980469 108.574219 377.792969 107.824219 377.566406 107.085938 C 377.34375 106.34375 377.082031 105.617188 376.785156 104.902344 C 376.488281 104.191406 376.160156 103.492188 375.792969 102.808594 C 375.429688 102.128906 375.03125 101.464844 374.601562 100.824219 C 374.171875 100.179688 373.710938 99.5625 373.222656 98.964844 C 372.730469 98.367188 372.210938 97.792969 371.664062 97.246094 C 371.117188 96.699219 370.546875 96.179688 369.949219 95.691406 C 369.351562 95.199219 368.730469 94.738281 368.089844 94.308594 C 367.445312 93.878906 366.785156 93.484375 366.101562 93.117188 C 365.421875 92.753906 364.722656 92.421875 364.007812 92.128906 C 363.292969 91.832031 362.566406 91.570312 361.828125 91.34375 C 361.089844 91.121094 360.339844 90.933594 359.582031 90.78125 C 358.824219 90.628906 358.058594 90.515625 357.289062 90.4375 C 356.523438 90.363281 355.75 90.324219 354.976562 90.324219 Z M 354.976562 90.320312 " fill-opacity="1" fill-rule="nonzero"/></g><path fill="#3fd395" d="M 375.386719 145.257812 C 374.859375 145.257812 374.378906 145.113281 373.941406 144.820312 C 373.503906 144.53125 373.183594 144.140625 372.980469 143.65625 C 372.78125 143.171875 372.730469 142.671875 372.832031 142.15625 C 372.929688 141.640625 373.167969 141.195312 373.539062 140.820312 L 380.734375 133.570312 C 380.972656 133.300781 381.25 133.089844 381.574219 132.933594 C 381.898438 132.78125 382.242188 132.699219 382.597656 132.6875 C 382.957031 132.671875 383.300781 132.734375 383.636719 132.863281 C 383.96875 132.992188 384.265625 133.183594 384.519531 133.4375 C 384.773438 133.6875 384.96875 133.980469 385.101562 134.3125 C 385.238281 134.644531 385.300781 134.992188 385.292969 135.347656 C 385.285156 135.707031 385.203125 136.050781 385.054688 136.375 C 384.90625 136.699219 384.699219 136.984375 384.429688 137.222656 L 377.234375 144.476562 C 376.726562 144.996094 376.109375 145.253906 375.386719 145.257812 Z M 375.386719 145.257812 " fill-opacity="1" fill-rule="nonzero"/><g clip-path="url(#7035ca1cb2)"><path fill="#3fd395" d="M 406.617188 169.671875 C 406.015625 169.671875 405.441406 169.558594 404.886719 169.324219 C 404.332031 169.089844 403.84375 168.757812 403.425781 168.328125 L 384.273438 148.714844 C 384.070312 148.503906 383.886719 148.277344 383.726562 148.03125 C 383.566406 147.785156 383.433594 147.527344 383.324219 147.253906 C 383.214844 146.984375 383.132812 146.703125 383.078125 146.414062 C 383.027344 146.125 383 145.835938 383.003906 145.542969 C 383.007812 145.25 383.039062 144.960938 383.101562 144.671875 C 383.160156 144.386719 383.25 144.109375 383.363281 143.839844 C 383.480469 143.570312 383.621094 143.3125 383.785156 143.070312 C 383.949219 142.828125 384.136719 142.605469 384.347656 142.402344 C 384.558594 142.195312 384.785156 142.015625 385.03125 141.855469 C 385.277344 141.695312 385.535156 141.558594 385.808594 141.449219 C 386.078125 141.339844 386.359375 141.261719 386.648438 141.207031 C 386.9375 141.152344 387.226562 141.128906 387.519531 141.128906 C 387.8125 141.132812 388.101562 141.167969 388.390625 141.226562 C 388.675781 141.289062 388.953125 141.375 389.222656 141.492188 C 389.492188 141.605469 389.75 141.746094 389.988281 141.910156 C 390.230469 142.078125 390.453125 142.265625 390.660156 142.476562 L 409.8125 162.089844 C 410.117188 162.40625 410.371094 162.757812 410.574219 163.144531 C 410.777344 163.535156 410.921875 163.945312 411.003906 164.375 C 411.085938 164.808594 411.101562 165.242188 411.054688 165.679688 C 411.011719 166.117188 410.902344 166.535156 410.730469 166.941406 C 410.5625 167.347656 410.335938 167.71875 410.054688 168.054688 C 409.773438 168.394531 409.453125 168.683594 409.085938 168.925781 C 408.722656 169.171875 408.328125 169.355469 407.90625 169.480469 C 407.488281 169.609375 407.058594 169.671875 406.617188 169.671875 Z M 406.617188 169.671875 " fill-opacity="1" fill-rule="nonzero"/></g><path fill="#3fd395" d="M 354.929688 133.847656 C 351.289062 133.847656 346.476562 132.804688 341.328125 128.839844 C 336.804688 125.363281 334.722656 120.011719 335.296875 113.371094 C 335.578125 110.300781 336.308594 107.339844 337.492188 104.492188 C 337.566406 104.324219 337.671875 104.179688 337.804688 104.054688 C 337.941406 103.925781 338.09375 103.832031 338.265625 103.765625 C 338.4375 103.699219 338.617188 103.671875 338.800781 103.675781 C 338.984375 103.683594 339.160156 103.722656 339.328125 103.796875 C 339.496094 103.871094 339.644531 103.976562 339.773438 104.109375 C 339.898438 104.246094 339.996094 104.398438 340.0625 104.570312 C 340.128906 104.742188 340.160156 104.921875 340.152344 105.105469 C 340.148438 105.289062 340.109375 105.464844 340.035156 105.632812 C 338.976562 108.21875 338.324219 110.898438 338.070312 113.679688 C 337.59375 119.371094 339.261719 123.722656 343.027344 126.625 C 352.324219 133.777344 360.273438 130.082031 360.351562 130.042969 C 360.519531 129.957031 360.695312 129.910156 360.882812 129.894531 C 361.070312 129.882812 361.253906 129.90625 361.429688 129.964844 C 361.609375 130.023438 361.765625 130.117188 361.90625 130.242188 C 362.046875 130.367188 362.160156 130.511719 362.242188 130.679688 C 362.320312 130.851562 362.367188 131.027344 362.378906 131.214844 C 362.386719 131.402344 362.359375 131.585938 362.296875 131.761719 C 362.230469 131.9375 362.136719 132.09375 362.007812 132.230469 C 361.882812 132.371094 361.734375 132.476562 361.5625 132.554688 C 361.363281 132.65625 358.816406 133.847656 354.929688 133.847656 Z M 354.929688 133.847656 " fill-opacity="1" fill-rule="nonzero"/><g fill="#101820" fill-opacity="1"><g transform="translate(8.205498, 140.556466)"><g><path d="M 5.421875 0 L 5.421875 -62.4375 L 46.765625 -62.4375 L 46.765625 -51.546875 L 18.625 -51.546875 L 18.625 -36.671875 L 44.015625 -36.671875 L 44.015625 -25.796875 L 18.625 -25.796875 L 18.625 0 Z M 5.421875 0 "/></g></g></g><g fill="#101820" fill-opacity="1"><g transform="translate(58.404792, 140.556466)"><g><path d="M 5.1875 0 L 5.1875 -46.828125 L 18.171875 -46.828125 L 18.171875 0 Z M 11.703125 -52.859375 C 9.796875 -52.859375 8.148438 -53.503906 6.765625 -54.796875 C 5.378906 -56.085938 4.6875 -57.632812 4.6875 -59.4375 C 4.6875 -61.25 5.378906 -62.796875 6.765625 -64.078125 C 8.148438 -65.359375 9.796875 -66 11.703125 -66 C 13.628906 -66 15.285156 -65.359375 16.671875 -64.078125 C 18.054688 -62.796875 18.75 -61.25 18.75 -59.4375 C 18.75 -57.632812 18.054688 -56.085938 16.671875 -54.796875 C 15.285156 -53.503906 13.628906 -52.859375 11.703125 -52.859375 Z M 11.703125 -52.859375 "/></g></g></g><g fill="#101820" fill-opacity="1"><g transform="translate(81.751878, 140.556466)"><g><path d="M 18.171875 -27.0625 L 18.171875 0 L 5.1875 0 L 5.1875 -46.828125 L 17.5625 -46.828125 L 17.5625 -38.5625 L 18.109375 -38.5625 C 19.160156 -41.28125 20.898438 -43.4375 23.328125 -45.03125 C 25.765625 -46.632812 28.71875 -47.4375 32.1875 -47.4375 C 37.0625 -47.4375 40.972656 -45.863281 43.921875 -42.71875 C 46.867188 -39.582031 48.34375 -35.28125 48.34375 -29.8125 L 48.34375 0 L 35.359375 0 L 35.359375 -27.5 C 35.378906 -30.363281 34.644531 -32.601562 33.15625 -34.21875 C 31.675781 -35.832031 29.640625 -36.640625 27.046875 -36.640625 C 24.421875 -36.640625 22.289062 -35.800781 20.65625 -34.125 C 19.019531 -32.445312 18.191406 -30.09375 18.171875 -27.0625 Z M 18.171875 -27.0625 "/></g></g></g><g fill="#101820" fill-opacity="1"><g transform="translate(135.121006, 140.556466)"><g><path d="M 22.4375 0.765625 C 18.882812 0.765625 15.671875 -0.148438 12.796875 -1.984375 C 9.929688 -3.828125 7.65625 -6.539062 5.96875 -10.125 C 4.28125 -13.71875 3.4375 -18.125 3.4375 -23.34375 C 3.4375 -28.71875 4.304688 -33.1875 6.046875 -36.75 C 7.785156 -40.3125 10.09375 -42.984375 12.96875 -44.765625 C 15.84375 -46.546875 18.988281 -47.4375 22.40625 -47.4375 C 25.03125 -47.4375 27.21875 -46.992188 28.96875 -46.109375 C 30.726562 -45.222656 32.148438 -44.128906 33.234375 -42.828125 C 34.328125 -41.523438 35.160156 -40.234375 35.734375 -38.953125 L 36.125 -38.953125 L 36.125 -62.4375 L 49.078125 -62.4375 L 49.078125 0 L 36.28125 0 L 36.28125 -7.5 L 35.734375 -7.5 C 35.140625 -6.195312 34.28125 -4.910156 33.15625 -3.640625 C 32.039062 -2.367188 30.601562 -1.316406 28.84375 -0.484375 C 27.09375 0.347656 24.957031 0.765625 22.4375 0.765625 Z M 26.546875 -9.578125 C 29.679688 -9.578125 32.101562 -10.835938 33.8125 -13.359375 C 35.53125 -15.890625 36.390625 -19.238281 36.390625 -23.40625 C 36.390625 -27.59375 35.535156 -30.921875 33.828125 -33.390625 C 32.128906 -35.859375 29.703125 -37.09375 26.546875 -37.09375 C 23.335938 -37.09375 20.894531 -35.828125 19.21875 -33.296875 C 17.539062 -30.773438 16.703125 -27.476562 16.703125 -23.40625 C 16.703125 -19.320312 17.546875 -15.992188 19.234375 -13.421875 C 20.921875 -10.859375 23.359375 -9.578125 26.546875 -9.578125 Z M 26.546875 -9.578125 "/></g></g></g><g fill="#101820" fill-opacity="1"><g transform="translate(189.648351, 140.556466)"><g><path d="M 26.515625 0.921875 C 21.722656 0.921875 17.585938 -0.0546875 14.109375 -2.015625 C 10.640625 -3.984375 7.96875 -6.769531 6.09375 -10.375 C 4.226562 -13.988281 3.296875 -18.265625 3.296875 -23.203125 C 3.296875 -28.015625 4.226562 -32.238281 6.09375 -35.875 C 7.96875 -39.519531 10.601562 -42.359375 14 -44.390625 C 17.40625 -46.421875 21.40625 -47.4375 26 -47.4375 C 30.125 -47.4375 33.847656 -46.5625 37.171875 -44.8125 C 40.492188 -43.0625 43.128906 -40.421875 45.078125 -36.890625 C 47.035156 -33.367188 48.015625 -28.957031 48.015625 -23.65625 L 48.015625 -20.09375 L 16.125 -20.09375 L 16.125 -20.0625 C 16.125 -16.5625 17.078125 -13.804688 18.984375 -11.796875 C 20.898438 -9.785156 23.484375 -8.78125 26.734375 -8.78125 C 28.910156 -8.78125 30.789062 -9.234375 32.375 -10.140625 C 33.957031 -11.054688 35.078125 -12.410156 35.734375 -14.203125 L 47.734375 -13.40625 C 46.816406 -9.0625 44.5 -5.585938 40.78125 -2.984375 C 37.0625 -0.378906 32.304688 0.921875 26.515625 0.921875 Z M 16.125 -28.140625 L 35.78125 -28.140625 C 35.769531 -30.921875 34.878906 -33.210938 33.109375 -35.015625 C 31.335938 -36.828125 29.039062 -37.734375 26.21875 -37.734375 C 23.332031 -37.734375 20.960938 -36.796875 19.109375 -34.921875 C 17.265625 -33.054688 16.269531 -30.796875 16.125 -28.140625 Z M 16.125 -28.140625 "/></g></g></g><g fill="#101820" fill-opacity="1"><g transform="translate(240.944898, 140.556466)"><g><path d="M 5.1875 0 L 5.1875 -46.828125 L 17.765625 -46.828125 L 17.765625 -38.65625 L 18.265625 -38.65625 C 19.117188 -41.5625 20.546875 -43.757812 22.546875 -45.25 C 24.546875 -46.75 26.867188 -47.5 29.515625 -47.5 C 30.773438 -47.5 31.941406 -47.34375 33.015625 -47.03125 C 34.085938 -46.726562 35.050781 -46.3125 35.90625 -45.78125 L 32.015625 -35.0625 C 31.398438 -35.363281 30.726562 -35.617188 30 -35.828125 C 29.28125 -36.046875 28.476562 -36.15625 27.59375 -36.15625 C 24.96875 -36.15625 22.742188 -35.257812 20.921875 -33.46875 C 19.109375 -31.675781 18.191406 -29.347656 18.171875 -26.484375 L 18.171875 0 Z M 5.1875 0 "/></g></g></g><g fill="#101820" fill-opacity="1"><g transform="translate(277.733333, 140.556466)"><g><path d="M 30.421875 -62.4375 L 43.46875 -62.4375 L 43.46875 -18.90625 C 43.46875 -14.875 42.566406 -11.378906 40.765625 -8.421875 C 38.972656 -5.472656 36.476562 -3.1875 33.28125 -1.5625 C 30.09375 0.0507812 26.382812 0.859375 22.15625 0.859375 C 18.394531 0.859375 14.984375 0.1875 11.921875 -1.15625 C 8.867188 -2.5 6.445312 -4.53125 4.65625 -7.25 C 2.875 -9.976562 1.992188 -13.414062 2.015625 -17.5625 L 15.15625 -17.5625 C 15.195312 -15.082031 15.910156 -13.15625 17.296875 -11.78125 C 18.691406 -10.40625 20.535156 -9.71875 22.828125 -9.71875 C 27.847656 -9.71875 30.378906 -12.78125 30.421875 -18.90625 Z M 30.421875 -62.4375 "/></g></g></g><g fill="#000000" fill-opacity="1"><g transform="translate(387.27098, 137.693808)"><g><path d="M 5.421875 0 L 5.421875 -62.4375 L 18.40625 -62.4375 L 18.40625 -38.953125 L 18.8125 -38.953125 C 19.394531 -40.234375 20.222656 -41.523438 21.296875 -42.828125 C 22.378906 -44.128906 23.804688 -45.222656 25.578125 -46.109375 C 27.347656 -46.992188 29.53125 -47.4375 32.125 -47.4375 C 35.5625 -47.4375 38.710938 -46.546875 41.578125 -44.765625 C 44.441406 -42.984375 46.742188 -40.3125 48.484375 -36.75 C 50.222656 -33.1875 51.09375 -28.71875 51.09375 -23.34375 C 51.09375 -18.125 50.25 -13.71875 48.5625 -10.125 C 46.875 -6.539062 44.597656 -3.828125 41.734375 -1.984375 C 38.867188 -0.148438 35.65625 0.765625 32.09375 0.765625 C 29.570312 0.765625 27.429688 0.347656 25.671875 -0.484375 C 23.921875 -1.316406 22.488281 -2.367188 21.375 -3.640625 C 20.269531 -4.910156 19.414062 -6.195312 18.8125 -7.5 L 18.234375 -7.5 L 18.234375 0 Z M 18.140625 -23.40625 C 18.140625 -19.238281 19 -15.890625 20.71875 -13.359375 C 22.4375 -10.835938 24.859375 -9.578125 27.984375 -9.578125 C 31.171875 -9.578125 33.609375 -10.859375 35.296875 -13.421875 C 36.984375 -15.992188 37.828125 -19.320312 37.828125 -23.40625 C 37.828125 -27.476562 36.988281 -30.773438 35.3125 -33.296875 C 33.632812 -35.828125 31.191406 -37.09375 27.984375 -37.09375 C 24.835938 -37.09375 22.410156 -35.859375 20.703125 -33.390625 C 18.992188 -30.921875 18.140625 -27.59375 18.140625 -23.40625 Z M 18.140625 -23.40625 "/></g></g></g></svg>