<svg xmlns="http://www.w3.org/2000/svg" xmlns:xlink="http://www.w3.org/1999/xlink" width="200" zoomAndPan="magnify" viewBox="0 0 150 149.999998" height="200" preserveAspectRatio="xMidYMid meet" version="1.0"><defs><clipPath id="8919bc7d96"><path d="M 95 90 L 135.285156 90 L 135.285156 130.40625 L 95 130.40625 Z M 95 90 " clip-rule="nonzero"/></clipPath><clipPath id="4ccd38a1e0"><path d="M 36 19.40625 L 100 19.40625 L 100 35 L 36 35 Z M 36 19.40625 " clip-rule="nonzero"/></clipPath></defs><path fill="#3ed899" d="M 68.003906 100.488281 C 57.988281 100.488281 48.84375 96.585938 41.65625 89.648438 C 27.285156 75.121094 27.285156 51.710938 41.65625 37.402344 C 48.84375 30.464844 57.988281 26.5625 68.003906 26.5625 C 77.804688 26.5625 87.164062 30.464844 94.132812 37.402344 C 108.722656 51.710938 108.722656 75.121094 94.132812 89.648438 C 87.164062 96.585938 77.804688 100.488281 68.003906 100.488281 Z M 68.003906 100.488281 " fill-opacity="1" fill-rule="evenodd"/><path fill="#3ed899" d="M 98.707031 102.871094 C 98.488281 102.871094 98.054688 102.65625 97.835938 102.4375 L 88.472656 93.117188 C 88.035156 92.683594 88.035156 92.464844 88.035156 92.03125 C 88.035156 91.597656 88.253906 91.382812 88.472656 91.164062 C 89.777344 90.082031 91.085938 88.996094 92.390625 87.695312 C 93.480469 86.613281 94.785156 85.3125 95.65625 84.011719 C 95.875 83.578125 96.3125 83.359375 96.746094 83.359375 C 96.964844 83.359375 97.398438 83.578125 97.617188 83.792969 L 107.199219 93.332031 C 107.414062 93.550781 107.414062 93.765625 107.414062 94.199219 C 107.414062 94.417969 107.414062 94.851562 107.199219 95.066406 L 99.792969 102.4375 C 99.359375 102.65625 99.140625 102.871094 98.707031 102.871094 Z M 98.707031 102.871094 " fill-opacity="1" fill-rule="evenodd"/><g clip-path="url(#8919bc7d96)"><path fill="#3ed899" d="M 125.921875 130.402344 C 123.3125 130.402344 121.132812 129.535156 119.171875 127.585938 L 95.875 104.390625 C 95.65625 104.171875 95.441406 103.957031 95.441406 103.523438 C 95.441406 103.089844 95.65625 102.871094 95.875 102.65625 L 107.199219 91.382812 C 107.851562 90.730469 108.503906 90.730469 109.15625 91.382812 L 132.457031 114.578125 C 134.199219 116.3125 135.285156 118.695312 135.285156 121.082031 C 135.285156 123.683594 134.199219 125.851562 132.457031 127.585938 C 130.714844 129.535156 128.320312 130.402344 125.921875 130.402344 Z M 125.921875 130.402344 " fill-opacity="1" fill-rule="evenodd"/></g><path fill="#4bb9ec" d="M 68.003906 94.417969 C 50.804688 94.417969 36.867188 80.542969 36.867188 63.417969 C 36.867188 46.507812 50.804688 32.632812 68.003906 32.632812 C 85.207031 32.632812 99.140625 46.507812 99.140625 63.417969 C 99.140625 80.542969 85.207031 94.417969 68.003906 94.417969 Z M 68.003906 94.417969 " fill-opacity="1" fill-rule="evenodd"/><path fill="#50536e" d="M 42.746094 45.421875 C 43.398438 44.554688 43.835938 43.90625 44.488281 43.253906 C 44.921875 43.472656 46.011719 44.339844 46.449219 44.339844 C 51.890625 47.375 59.730469 49.109375 68.003906 49.109375 C 76.277344 49.109375 83.898438 47.375 89.34375 44.554688 C 89.5625 44.339844 90.648438 43.6875 91.519531 43.253906 C 92.171875 43.90625 92.609375 44.554688 93.042969 45.421875 C 92.171875 45.855469 90.867188 46.722656 90.433594 46.941406 C 84.554688 49.976562 76.496094 51.710938 68.003906 51.710938 C 59.511719 51.710938 51.457031 49.976562 45.578125 46.941406 C 44.921875 46.507812 43.398438 45.640625 42.964844 45.421875 C 42.964844 45.421875 42.746094 45.421875 42.746094 45.421875 Z M 42.746094 45.421875 " fill-opacity="1" fill-rule="evenodd"/><path fill="#50536e" d="M 36.867188 64.71875 C 36.867188 64.285156 36.867188 63.851562 36.867188 63.417969 C 36.867188 62.984375 36.867188 62.550781 36.867188 62.117188 L 99.140625 62.117188 C 99.140625 62.550781 99.140625 62.984375 99.140625 63.417969 C 99.140625 63.851562 99.140625 64.285156 99.140625 64.71875 Z M 36.867188 64.71875 " fill-opacity="1" fill-rule="evenodd"/><path fill="#50536e" d="M 68.003906 94.417969 C 63.433594 94.417969 59.292969 91.164062 56.464844 85.09375 C 53.414062 79.242188 51.890625 71.652344 51.890625 63.417969 C 51.890625 55.394531 53.414062 47.808594 56.464844 41.953125 C 59.292969 35.882812 63.433594 32.632812 68.003906 32.632812 C 72.359375 32.632812 76.496094 35.882812 79.542969 41.953125 C 82.375 47.808594 84.117188 55.394531 84.117188 63.417969 C 84.117188 71.652344 82.375 79.242188 79.542969 85.09375 C 76.496094 91.164062 72.359375 94.417969 68.003906 94.417969 Z M 68.003906 35.234375 C 60.601562 35.234375 54.503906 48.023438 54.503906 63.417969 C 54.503906 78.808594 60.601562 91.816406 68.003906 91.816406 C 75.191406 91.816406 81.503906 78.808594 81.503906 63.417969 C 81.503906 48.023438 75.191406 35.234375 68.003906 35.234375 Z M 68.003906 35.234375 " fill-opacity="1" fill-rule="evenodd"/><path fill="#50536e" d="M 68.003906 94.417969 C 67.351562 94.417969 66.699219 93.765625 66.699219 93.117188 L 66.699219 33.933594 C 66.699219 33.066406 67.351562 32.632812 68.003906 32.632812 C 68.65625 32.632812 69.3125 33.066406 69.3125 33.933594 L 69.3125 93.117188 C 69.3125 93.765625 68.65625 94.417969 68.003906 94.417969 Z M 68.003906 94.417969 " fill-opacity="1" fill-rule="evenodd"/><g clip-path="url(#4ccd38a1e0)"><path fill="#3ed899" d="M 98.269531 34.585938 C 98.054688 34.585938 97.617188 34.367188 97.398438 34.152344 C 89.5625 26.347656 79.109375 22.011719 68.003906 22.011719 C 56.898438 22.011719 46.449219 26.347656 38.609375 34.152344 C 37.957031 34.585938 37.085938 34.585938 36.648438 34.152344 C 36.214844 33.71875 36.214844 32.851562 36.648438 32.417969 C 44.921875 23.960938 56.246094 19.410156 68.003906 19.410156 C 79.761719 19.410156 90.867188 23.960938 99.359375 32.417969 C 99.792969 32.851562 99.792969 33.71875 99.359375 34.152344 C 98.921875 34.367188 98.707031 34.585938 98.269531 34.585938 Z M 98.269531 34.585938 " fill-opacity="1" fill-rule="evenodd"/></g><path fill="#50536e" d="M 42.746094 81.625 C 43.398438 82.277344 43.835938 83.144531 44.488281 83.792969 C 44.921875 83.359375 46.011719 82.710938 46.449219 82.492188 C 51.890625 79.675781 59.730469 77.941406 68.003906 77.941406 C 76.277344 77.941406 83.898438 79.675781 89.34375 82.492188 C 89.5625 82.710938 90.648438 83.144531 91.519531 83.792969 C 92.171875 83.144531 92.609375 82.277344 93.042969 81.625 C 92.171875 81.191406 90.867188 80.324219 90.433594 80.109375 C 84.554688 77.074219 76.496094 75.339844 68.003906 75.339844 C 59.511719 75.339844 51.238281 77.074219 45.578125 80.109375 C 44.921875 80.324219 43.398438 81.191406 42.964844 81.625 C 42.964844 81.625 42.746094 81.625 42.746094 81.625 Z M 42.746094 81.625 " fill-opacity="1" fill-rule="evenodd"/></svg>