<svg width="310" height="379" viewBox="0 0 310 379" fill="none" xmlns="http://www.w3.org/2000/svg">
<rect width="310" height="379" fill="white"/>
<path d="M25.9176 263V245.545H32.1392C33.4972 245.545 34.6222 245.793 35.5142 246.287C36.4063 246.781 37.0739 247.457 37.517 248.315C37.9602 249.168 38.1818 250.128 38.1818 251.196C38.1818 252.27 37.9574 253.236 37.5085 254.094C37.0653 254.946 36.3949 255.622 35.4972 256.122C34.6051 256.616 33.483 256.864 32.1307 256.864H27.8523V254.631H31.892C32.75 254.631 33.446 254.483 33.9801 254.188C34.5142 253.886 34.9062 253.477 35.1562 252.96C35.4062 252.443 35.5312 251.855 35.5312 251.196C35.5312 250.537 35.4062 249.952 35.1562 249.44C34.9062 248.929 34.5114 248.528 33.9716 248.239C33.4375 247.949 32.733 247.804 31.858 247.804H28.5511V263H25.9176ZM46.5426 263.264C45.2528 263.264 44.142 262.989 43.2102 262.438C42.2841 261.881 41.5682 261.099 41.0625 260.094C40.5625 259.082 40.3125 257.898 40.3125 256.54C40.3125 255.199 40.5625 254.017 41.0625 252.994C41.5682 251.972 42.2727 251.173 43.1761 250.599C44.0852 250.026 45.1477 249.739 46.3636 249.739C47.1023 249.739 47.8182 249.861 48.5114 250.105C49.2045 250.349 49.8267 250.733 50.3778 251.256C50.929 251.778 51.3636 252.457 51.6818 253.293C52 254.122 52.1591 255.131 52.1591 256.318V257.222H41.7528V255.312H49.6619C49.6619 254.642 49.5256 254.048 49.2528 253.531C48.9801 253.009 48.5966 252.597 48.1023 252.295C47.6136 251.994 47.0398 251.844 46.3807 251.844C45.6648 251.844 45.0398 252.02 44.5057 252.372C43.9773 252.719 43.5682 253.173 43.2784 253.736C42.9943 254.293 42.8523 254.898 42.8523 255.551V257.043C42.8523 257.918 43.0057 258.662 43.3125 259.276C43.625 259.889 44.0597 260.358 44.6165 260.682C45.1733 261 45.8239 261.159 46.5682 261.159C47.0511 261.159 47.4915 261.091 47.8892 260.955C48.2869 260.812 48.6307 260.602 48.9205 260.324C49.2102 260.045 49.4318 259.702 49.5852 259.293L51.9972 259.727C51.804 260.437 51.4574 261.06 50.9574 261.594C50.4631 262.122 49.8409 262.534 49.0909 262.83C48.3466 263.119 47.4972 263.264 46.5426 263.264ZM64.7962 253.105L62.4865 253.514C62.3899 253.219 62.2365 252.937 62.0263 252.67C61.8217 252.403 61.5433 252.185 61.1911 252.014C60.8388 251.844 60.3984 251.759 59.87 251.759C59.1484 251.759 58.5462 251.92 58.0632 252.244C57.5803 252.562 57.3388 252.974 57.3388 253.48C57.3388 253.918 57.5007 254.27 57.8246 254.537C58.1484 254.804 58.6712 255.023 59.3928 255.193L61.4723 255.67C62.6768 255.949 63.5746 256.378 64.1655 256.957C64.7564 257.537 65.0518 258.29 65.0518 259.216C65.0518 260 64.8246 260.699 64.37 261.312C63.9212 261.92 63.2933 262.398 62.4865 262.744C61.6854 263.091 60.7564 263.264 59.6996 263.264C58.2337 263.264 57.0376 262.952 56.1115 262.327C55.1854 261.696 54.6172 260.801 54.407 259.642L56.87 259.267C57.0234 259.909 57.3388 260.395 57.8161 260.724C58.2933 261.048 58.9155 261.21 59.6825 261.21C60.5178 261.21 61.1854 261.037 61.6854 260.69C62.1854 260.338 62.4354 259.909 62.4354 259.403C62.4354 258.994 62.282 258.651 61.9751 258.372C61.674 258.094 61.2109 257.884 60.5859 257.741L58.37 257.256C57.1484 256.977 56.245 256.534 55.6598 255.926C55.0803 255.318 54.7905 254.548 54.7905 253.616C54.7905 252.844 55.0064 252.168 55.4382 251.588C55.87 251.009 56.4666 250.557 57.228 250.233C57.9893 249.903 58.8615 249.739 59.8445 249.739C61.2592 249.739 62.3729 250.045 63.1854 250.659C63.9979 251.267 64.5348 252.082 64.7962 253.105ZM76.6918 267.909V260.963H76.5384C76.3849 261.241 76.1634 261.56 75.8736 261.918C75.5895 262.276 75.1974 262.588 74.6974 262.855C74.1974 263.122 73.5497 263.256 72.7543 263.256C71.6974 263.256 70.7543 262.986 69.9247 262.446C69.1009 261.901 68.4531 261.125 67.9815 260.119C67.5156 259.108 67.2827 257.895 67.2827 256.48C67.2827 255.065 67.5185 253.855 67.9901 252.849C68.4673 251.844 69.1207 251.074 69.9503 250.54C70.7798 250.006 71.7202 249.739 72.7713 249.739C73.5838 249.739 74.2372 249.875 74.7315 250.148C75.2315 250.415 75.6179 250.727 75.8906 251.085C76.169 251.443 76.3849 251.759 76.5384 252.031H76.7514V249.909H79.2401V267.909H76.6918ZM73.3168 261.082C74.0497 261.082 74.669 260.889 75.1747 260.503C75.6861 260.111 76.0724 259.568 76.3338 258.875C76.6009 258.182 76.7344 257.375 76.7344 256.455C76.7344 255.545 76.6037 254.75 76.3423 254.068C76.081 253.386 75.6974 252.855 75.1918 252.474C74.6861 252.094 74.0611 251.903 73.3168 251.903C72.5497 251.903 71.9105 252.102 71.3991 252.5C70.8878 252.898 70.5014 253.44 70.2401 254.128C69.9844 254.815 69.8565 255.591 69.8565 256.455C69.8565 257.33 69.9872 258.116 70.2486 258.815C70.5099 259.514 70.8963 260.068 71.4077 260.477C71.9247 260.881 72.5611 261.082 73.3168 261.082ZM90.9588 257.571V249.909H93.5156V263H91.0099V260.733H90.8736C90.5724 261.432 90.0895 262.014 89.4247 262.48C88.7656 262.94 87.9446 263.17 86.9616 263.17C86.1207 263.17 85.3764 262.986 84.7287 262.616C84.0866 262.241 83.581 261.688 83.2116 260.955C82.848 260.222 82.6662 259.315 82.6662 258.236V249.909H85.2145V257.929C85.2145 258.821 85.4616 259.531 85.956 260.06C86.4503 260.588 87.0923 260.852 87.8821 260.852C88.3594 260.852 88.8338 260.733 89.3054 260.494C89.7827 260.256 90.1776 259.895 90.4901 259.412C90.8082 258.929 90.9645 258.315 90.9588 257.571ZM96.9396 263V249.909H99.4879V263H96.9396ZM98.2266 247.889C97.7834 247.889 97.4027 247.741 97.0845 247.446C96.772 247.145 96.6158 246.787 96.6158 246.372C96.6158 245.952 96.772 245.594 97.0845 245.298C97.4027 244.997 97.7834 244.847 98.2266 244.847C98.6697 244.847 99.0476 244.997 99.3601 245.298C99.6783 245.594 99.8374 245.952 99.8374 246.372C99.8374 246.787 99.6783 247.145 99.3601 247.446C99.0476 247.741 98.6697 247.889 98.2266 247.889ZM112.726 253.105L110.416 253.514C110.32 253.219 110.166 252.937 109.956 252.67C109.751 252.403 109.473 252.185 109.121 252.014C108.768 251.844 108.328 251.759 107.8 251.759C107.078 251.759 106.476 251.92 105.993 252.244C105.51 252.562 105.268 252.974 105.268 253.48C105.268 253.918 105.43 254.27 105.754 254.537C106.078 254.804 106.601 255.023 107.322 255.193L109.402 255.67C110.607 255.949 111.504 256.378 112.095 256.957C112.686 257.537 112.982 258.29 112.982 259.216C112.982 260 112.754 260.699 112.3 261.312C111.851 261.92 111.223 262.398 110.416 262.744C109.615 263.091 108.686 263.264 107.629 263.264C106.163 263.264 104.967 262.952 104.041 262.327C103.115 261.696 102.547 260.801 102.337 259.642L104.8 259.267C104.953 259.909 105.268 260.395 105.746 260.724C106.223 261.048 106.845 261.21 107.612 261.21C108.447 261.21 109.115 261.037 109.615 260.69C110.115 260.338 110.365 259.909 110.365 259.403C110.365 258.994 110.212 258.651 109.905 258.372C109.604 258.094 109.141 257.884 108.516 257.741L106.3 257.256C105.078 256.977 104.175 256.534 103.589 255.926C103.01 255.318 102.72 254.548 102.72 253.616C102.72 252.844 102.936 252.168 103.368 251.588C103.8 251.009 104.396 250.557 105.158 250.233C105.919 249.903 106.791 249.739 107.774 249.739C109.189 249.739 110.303 250.045 111.115 250.659C111.928 251.267 112.464 252.082 112.726 253.105ZM119.593 263.29C118.763 263.29 118.013 263.136 117.343 262.83C116.673 262.517 116.141 262.065 115.749 261.474C115.363 260.884 115.17 260.159 115.17 259.301C115.17 258.562 115.312 257.955 115.596 257.477C115.88 257 116.263 256.622 116.746 256.344C117.229 256.065 117.769 255.855 118.366 255.713C118.962 255.571 119.57 255.463 120.19 255.389C120.974 255.298 121.61 255.224 122.099 255.168C122.587 255.105 122.942 255.006 123.164 254.869C123.386 254.733 123.496 254.511 123.496 254.205V254.145C123.496 253.401 123.286 252.824 122.866 252.415C122.451 252.006 121.832 251.801 121.008 251.801C120.15 251.801 119.474 251.991 118.979 252.372C118.491 252.747 118.153 253.165 117.965 253.625L115.57 253.08C115.854 252.284 116.269 251.642 116.815 251.153C117.366 250.659 117.999 250.301 118.715 250.08C119.431 249.852 120.184 249.739 120.974 249.739C121.496 249.739 122.05 249.801 122.636 249.926C123.227 250.045 123.778 250.267 124.289 250.591C124.806 250.915 125.229 251.378 125.559 251.98C125.888 252.577 126.053 253.352 126.053 254.307V263H123.565V261.21H123.462C123.298 261.54 123.05 261.864 122.721 262.182C122.391 262.5 121.968 262.764 121.451 262.974C120.934 263.185 120.315 263.29 119.593 263.29ZM120.147 261.244C120.852 261.244 121.454 261.105 121.954 260.827C122.46 260.548 122.843 260.185 123.104 259.736C123.371 259.281 123.505 258.795 123.505 258.278V256.591C123.414 256.682 123.238 256.767 122.977 256.847C122.721 256.92 122.428 256.986 122.099 257.043C121.769 257.094 121.448 257.142 121.136 257.188C120.823 257.227 120.562 257.261 120.352 257.29C119.857 257.352 119.406 257.457 118.996 257.605C118.593 257.753 118.269 257.966 118.025 258.244C117.786 258.517 117.667 258.881 117.667 259.335C117.667 259.966 117.9 260.443 118.366 260.767C118.832 261.085 119.425 261.244 120.147 261.244ZM135.799 263V249.909H138.347V263H135.799ZM137.086 247.889C136.643 247.889 136.262 247.741 135.944 247.446C135.631 247.145 135.475 246.787 135.475 246.372C135.475 245.952 135.631 245.594 135.944 245.298C136.262 244.997 136.643 244.847 137.086 244.847C137.529 244.847 137.907 244.997 138.219 245.298C138.538 245.594 138.697 245.952 138.697 246.372C138.697 246.787 138.538 247.145 138.219 247.446C137.907 247.741 137.529 247.889 137.086 247.889ZM144.324 255.227V263H141.776V249.909H144.222V252.04H144.384C144.685 251.347 145.156 250.79 145.798 250.369C146.446 249.949 147.261 249.739 148.244 249.739C149.136 249.739 149.918 249.926 150.588 250.301C151.259 250.67 151.778 251.222 152.148 251.955C152.517 252.687 152.702 253.594 152.702 254.673V263H150.153V254.98C150.153 254.031 149.906 253.29 149.412 252.756C148.918 252.216 148.239 251.946 147.375 251.946C146.784 251.946 146.259 252.074 145.798 252.33C145.344 252.585 144.983 252.96 144.716 253.455C144.455 253.943 144.324 254.534 144.324 255.227ZM162.23 249.909V251.955H155.08V249.909H162.23ZM156.997 246.773H159.545V259.156C159.545 259.651 159.619 260.023 159.767 260.273C159.915 260.517 160.105 260.685 160.338 260.776C160.577 260.861 160.835 260.903 161.114 260.903C161.318 260.903 161.497 260.889 161.651 260.861C161.804 260.832 161.923 260.81 162.009 260.793L162.469 262.898C162.321 262.955 162.111 263.011 161.838 263.068C161.565 263.131 161.224 263.165 160.815 263.17C160.145 263.182 159.52 263.062 158.94 262.812C158.361 262.562 157.892 262.176 157.534 261.653C157.176 261.131 156.997 260.474 156.997 259.685V246.773ZM170.55 263.264C169.261 263.264 168.15 262.989 167.218 262.438C166.292 261.881 165.576 261.099 165.07 260.094C164.57 259.082 164.32 257.898 164.32 256.54C164.32 255.199 164.57 254.017 165.07 252.994C165.576 251.972 166.281 251.173 167.184 250.599C168.093 250.026 169.156 249.739 170.371 249.739C171.11 249.739 171.826 249.861 172.519 250.105C173.212 250.349 173.835 250.733 174.386 251.256C174.937 251.778 175.371 252.457 175.69 253.293C176.008 254.122 176.167 255.131 176.167 256.318V257.222H165.761V255.312H173.67C173.67 254.642 173.533 254.048 173.261 253.531C172.988 253.009 172.604 252.597 172.11 252.295C171.621 251.994 171.048 251.844 170.388 251.844C169.673 251.844 169.048 252.02 168.513 252.372C167.985 252.719 167.576 253.173 167.286 253.736C167.002 254.293 166.86 254.898 166.86 255.551V257.043C166.86 257.918 167.013 258.662 167.32 259.276C167.633 259.889 168.067 260.358 168.624 260.682C169.181 261 169.832 261.159 170.576 261.159C171.059 261.159 171.499 261.091 171.897 260.955C172.295 260.812 172.638 260.602 172.928 260.324C173.218 260.045 173.44 259.702 173.593 259.293L176.005 259.727C175.812 260.437 175.465 261.06 174.965 261.594C174.471 262.122 173.849 262.534 173.099 262.83C172.354 263.119 171.505 263.264 170.55 263.264ZM181.543 245.545V263H178.994V245.545H181.543ZM184.971 263V249.909H187.519V263H184.971ZM186.258 247.889C185.815 247.889 185.434 247.741 185.116 247.446C184.803 247.145 184.647 246.787 184.647 246.372C184.647 245.952 184.803 245.594 185.116 245.298C185.434 244.997 185.815 244.847 186.258 244.847C186.701 244.847 187.079 244.997 187.391 245.298C187.71 245.594 187.869 245.952 187.869 246.372C187.869 246.787 187.71 247.145 187.391 247.446C187.079 247.741 186.701 247.889 186.258 247.889ZM196.436 268.182C195.396 268.182 194.501 268.045 193.751 267.773C193.007 267.5 192.399 267.139 191.928 266.69C191.456 266.241 191.104 265.75 190.871 265.216L193.061 264.312C193.214 264.562 193.419 264.827 193.675 265.105C193.936 265.389 194.288 265.631 194.732 265.83C195.18 266.028 195.757 266.128 196.462 266.128C197.428 266.128 198.226 265.892 198.857 265.42C199.487 264.955 199.803 264.21 199.803 263.188V260.614H199.641C199.487 260.892 199.266 261.202 198.976 261.543C198.692 261.884 198.3 262.179 197.8 262.429C197.3 262.679 196.649 262.804 195.848 262.804C194.814 262.804 193.882 262.562 193.053 262.08C192.229 261.591 191.575 260.872 191.092 259.923C190.615 258.969 190.376 257.795 190.376 256.403C190.376 255.011 190.612 253.818 191.084 252.824C191.561 251.83 192.214 251.068 193.044 250.54C193.874 250.006 194.814 249.739 195.865 249.739C196.678 249.739 197.334 249.875 197.834 250.148C198.334 250.415 198.723 250.727 199.001 251.085C199.286 251.443 199.504 251.759 199.658 252.031H199.845V249.909H202.342V263.29C202.342 264.415 202.081 265.338 201.558 266.06C201.036 266.781 200.328 267.315 199.436 267.662C198.55 268.009 197.55 268.182 196.436 268.182ZM196.411 260.69C197.143 260.69 197.763 260.52 198.268 260.179C198.78 259.832 199.166 259.338 199.428 258.696C199.695 258.048 199.828 257.273 199.828 256.369C199.828 255.489 199.697 254.713 199.436 254.043C199.175 253.372 198.791 252.849 198.286 252.474C197.78 252.094 197.155 251.903 196.411 251.903C195.643 251.903 195.004 252.102 194.493 252.5C193.982 252.892 193.595 253.426 193.334 254.102C193.078 254.778 192.95 255.534 192.95 256.369C192.95 257.227 193.081 257.98 193.342 258.628C193.604 259.276 193.99 259.781 194.501 260.145C195.018 260.509 195.655 260.69 196.411 260.69ZM211.402 263.264C210.112 263.264 209.001 262.989 208.07 262.438C207.143 261.881 206.428 261.099 205.922 260.094C205.422 259.082 205.172 257.898 205.172 256.54C205.172 255.199 205.422 254.017 205.922 252.994C206.428 251.972 207.132 251.173 208.036 250.599C208.945 250.026 210.007 249.739 211.223 249.739C211.962 249.739 212.678 249.861 213.371 250.105C214.064 250.349 214.686 250.733 215.237 251.256C215.788 251.778 216.223 252.457 216.541 253.293C216.859 254.122 217.018 255.131 217.018 256.318V257.222H206.612V255.312H214.521C214.521 254.642 214.385 254.048 214.112 253.531C213.839 253.009 213.456 252.597 212.962 252.295C212.473 251.994 211.899 251.844 211.24 251.844C210.524 251.844 209.899 252.02 209.365 252.372C208.837 252.719 208.428 253.173 208.138 253.736C207.854 254.293 207.712 254.898 207.712 255.551V257.043C207.712 257.918 207.865 258.662 208.172 259.276C208.484 259.889 208.919 260.358 209.476 260.682C210.033 261 210.683 261.159 211.428 261.159C211.911 261.159 212.351 261.091 212.749 260.955C213.146 260.812 213.49 260.602 213.78 260.324C214.07 260.045 214.291 259.702 214.445 259.293L216.857 259.727C216.663 260.437 216.317 261.06 215.817 261.594C215.322 262.122 214.7 262.534 213.95 262.83C213.206 263.119 212.357 263.264 211.402 263.264ZM222.394 255.227V263H219.846V249.909H222.292V252.04H222.454C222.755 251.347 223.227 250.79 223.869 250.369C224.516 249.949 225.332 249.739 226.315 249.739C227.207 249.739 227.988 249.926 228.658 250.301C229.329 250.67 229.849 251.222 230.218 251.955C230.587 252.687 230.772 253.594 230.772 254.673V263H228.224V254.98C228.224 254.031 227.977 253.29 227.482 252.756C226.988 252.216 226.309 251.946 225.445 251.946C224.854 251.946 224.329 252.074 223.869 252.33C223.414 252.585 223.053 252.96 222.786 253.455C222.525 253.943 222.394 254.534 222.394 255.227ZM240.3 249.909V251.955H233.15V249.909H240.3ZM235.067 246.773H237.616V259.156C237.616 259.651 237.69 260.023 237.837 260.273C237.985 260.517 238.175 260.685 238.408 260.776C238.647 260.861 238.906 260.903 239.184 260.903C239.388 260.903 239.567 260.889 239.721 260.861C239.874 260.832 239.994 260.81 240.079 260.793L240.539 262.898C240.391 262.955 240.181 263.011 239.908 263.068C239.636 263.131 239.295 263.165 238.886 263.17C238.215 263.182 237.59 263.062 237.011 262.812C236.431 262.562 235.962 262.176 235.604 261.653C235.246 261.131 235.067 260.474 235.067 259.685V246.773ZM248.621 263.264C247.331 263.264 246.22 262.989 245.288 262.438C244.362 261.881 243.646 261.099 243.141 260.094C242.641 259.082 242.391 257.898 242.391 256.54C242.391 255.199 242.641 254.017 243.141 252.994C243.646 251.972 244.351 251.173 245.254 250.599C246.163 250.026 247.226 249.739 248.442 249.739C249.18 249.739 249.896 249.861 250.589 250.105C251.283 250.349 251.905 250.733 252.456 251.256C253.007 251.778 253.442 252.457 253.76 253.293C254.078 254.122 254.237 255.131 254.237 256.318V257.222H243.831V255.312H251.74C251.74 254.642 251.604 254.048 251.331 253.531C251.058 253.009 250.675 252.597 250.18 252.295C249.692 251.994 249.118 251.844 248.459 251.844C247.743 251.844 247.118 252.02 246.584 252.372C246.055 252.719 245.646 253.173 245.357 253.736C245.072 254.293 244.93 254.898 244.93 255.551V257.043C244.93 257.918 245.084 258.662 245.391 259.276C245.703 259.889 246.138 260.358 246.695 260.682C247.251 261 247.902 261.159 248.646 261.159C249.129 261.159 249.57 261.091 249.967 260.955C250.365 260.812 250.709 260.602 250.999 260.324C251.288 260.045 251.51 259.702 251.663 259.293L254.075 259.727C253.882 260.437 253.536 261.06 253.036 261.594C252.541 262.122 251.919 262.534 251.169 262.83C250.425 263.119 249.575 263.264 248.621 263.264Z" fill="black"/>
<path d="M25.4091 295V283.364H29.3409C30.2538 283.364 31 283.528 31.5795 283.858C32.1629 284.184 32.5947 284.625 32.875 285.182C33.1553 285.739 33.2955 286.36 33.2955 287.045C33.2955 287.731 33.1553 288.354 32.875 288.915C32.5985 289.475 32.1705 289.922 31.5909 290.256C31.0114 290.585 30.2689 290.75 29.3636 290.75H26.5455V289.5H29.3182C29.9432 289.5 30.4451 289.392 30.8239 289.176C31.2027 288.96 31.4773 288.669 31.6477 288.301C31.822 287.93 31.9091 287.511 31.9091 287.045C31.9091 286.58 31.822 286.163 31.6477 285.795C31.4773 285.428 31.2008 285.14 30.8182 284.932C30.4356 284.72 29.928 284.614 29.2955 284.614H26.8182V295H25.4091ZM35.3835 295V286.273H36.679V287.591H36.7699C36.929 287.159 37.2169 286.809 37.6335 286.54C38.0502 286.271 38.5199 286.136 39.0426 286.136C39.1411 286.136 39.2642 286.138 39.4119 286.142C39.5597 286.146 39.6714 286.152 39.7472 286.159V287.523C39.7017 287.511 39.5975 287.494 39.4347 287.472C39.2756 287.445 39.107 287.432 38.929 287.432C38.5047 287.432 38.1259 287.521 37.7926 287.699C37.4631 287.873 37.2017 288.116 37.0085 288.426C36.8191 288.733 36.7244 289.083 36.7244 289.477V295H35.3835ZM44.6165 295.182C43.8286 295.182 43.1373 294.994 42.5426 294.619C41.9517 294.244 41.4896 293.72 41.1562 293.045C40.8267 292.371 40.6619 291.583 40.6619 290.682C40.6619 289.773 40.8267 288.979 41.1562 288.301C41.4896 287.623 41.9517 287.097 42.5426 286.722C43.1373 286.347 43.8286 286.159 44.6165 286.159C45.4044 286.159 46.0938 286.347 46.6847 286.722C47.2794 287.097 47.7415 287.623 48.071 288.301C48.4044 288.979 48.571 289.773 48.571 290.682C48.571 291.583 48.4044 292.371 48.071 293.045C47.7415 293.72 47.2794 294.244 46.6847 294.619C46.0938 294.994 45.4044 295.182 44.6165 295.182ZM44.6165 293.977C45.215 293.977 45.7074 293.824 46.0938 293.517C46.4801 293.21 46.7661 292.807 46.9517 292.307C47.1373 291.807 47.2301 291.265 47.2301 290.682C47.2301 290.098 47.1373 289.555 46.9517 289.051C46.7661 288.547 46.4801 288.14 46.0938 287.83C45.7074 287.519 45.215 287.364 44.6165 287.364C44.018 287.364 43.5256 287.519 43.1392 287.83C42.7528 288.14 42.4669 288.547 42.2812 289.051C42.0956 289.555 42.0028 290.098 42.0028 290.682C42.0028 291.265 42.0956 291.807 42.2812 292.307C42.4669 292.807 42.7528 293.21 43.1392 293.517C43.5256 293.824 44.018 293.977 44.6165 293.977ZM54.1634 295.182C53.3452 295.182 52.6406 294.989 52.0497 294.602C51.4588 294.216 51.0043 293.684 50.6861 293.006C50.3679 292.328 50.2088 291.553 50.2088 290.682C50.2088 289.795 50.3717 289.013 50.6974 288.335C51.027 287.653 51.4853 287.121 52.0724 286.739C52.6634 286.352 53.3527 286.159 54.1406 286.159C54.7543 286.159 55.3073 286.273 55.7997 286.5C56.2921 286.727 56.6955 287.045 57.0099 287.455C57.3243 287.864 57.5194 288.341 57.5952 288.886H56.2543C56.152 288.489 55.9247 288.136 55.5724 287.83C55.224 287.519 54.7543 287.364 54.1634 287.364C53.6406 287.364 53.1823 287.5 52.7884 287.773C52.3982 288.042 52.0933 288.422 51.8736 288.915C51.6577 289.403 51.5497 289.977 51.5497 290.636C51.5497 291.311 51.6558 291.898 51.8679 292.398C52.0838 292.898 52.3868 293.286 52.777 293.562C53.1709 293.839 53.633 293.977 54.1634 293.977C54.5118 293.977 54.8281 293.917 55.1122 293.795C55.3963 293.674 55.6368 293.5 55.8338 293.273C56.0308 293.045 56.1709 292.773 56.2543 292.455H57.5952C57.5194 292.97 57.3319 293.434 57.0327 293.847C56.7372 294.256 56.3452 294.581 55.8565 294.824C55.3717 295.062 54.8073 295.182 54.1634 295.182ZM65.0554 291.432V286.273H66.3963V295H65.0554V293.523H64.9645C64.7599 293.966 64.4418 294.343 64.0099 294.653C63.5781 294.96 63.0327 295.114 62.3736 295.114C61.8281 295.114 61.3433 294.994 60.919 294.756C60.4948 294.513 60.1615 294.15 59.919 293.665C59.6766 293.176 59.5554 292.561 59.5554 291.818V286.273H60.8963V291.727C60.8963 292.364 61.0743 292.871 61.4304 293.25C61.7902 293.629 62.2486 293.818 62.8054 293.818C63.1387 293.818 63.4777 293.733 63.8224 293.562C64.1709 293.392 64.4626 293.131 64.6974 292.778C64.9361 292.426 65.0554 291.977 65.0554 291.432ZM68.8523 295V286.273H70.1477V287.591H70.2386C70.3977 287.159 70.6856 286.809 71.1023 286.54C71.5189 286.271 71.9886 286.136 72.5114 286.136C72.6098 286.136 72.733 286.138 72.8807 286.142C73.0284 286.146 73.1402 286.152 73.2159 286.159V287.523C73.1705 287.511 73.0663 287.494 72.9034 287.472C72.7443 287.445 72.5758 287.432 72.3977 287.432C71.9735 287.432 71.5947 287.521 71.2614 287.699C70.9318 287.873 70.6705 288.116 70.4773 288.426C70.2879 288.733 70.1932 289.083 70.1932 289.477V295H68.8523ZM78.1989 295.182C77.358 295.182 76.6326 294.996 76.0227 294.625C75.4167 294.25 74.9489 293.727 74.6193 293.057C74.2936 292.383 74.1307 291.598 74.1307 290.705C74.1307 289.811 74.2936 289.023 74.6193 288.341C74.9489 287.655 75.4072 287.121 75.9943 286.739C76.5852 286.352 77.2746 286.159 78.0625 286.159C78.517 286.159 78.9659 286.235 79.4091 286.386C79.8523 286.538 80.2557 286.784 80.6193 287.125C80.983 287.462 81.2727 287.909 81.4886 288.466C81.7045 289.023 81.8125 289.708 81.8125 290.523V291.091H75.0852V289.932H80.4489C80.4489 289.439 80.3504 289 80.1534 288.614C79.9602 288.227 79.6837 287.922 79.3239 287.699C78.9678 287.475 78.5473 287.364 78.0625 287.364C77.5284 287.364 77.0663 287.496 76.6761 287.761C76.2898 288.023 75.9924 288.364 75.7841 288.784C75.5758 289.205 75.4716 289.655 75.4716 290.136V290.909C75.4716 291.568 75.5852 292.127 75.8125 292.585C76.0436 293.04 76.3636 293.386 76.7727 293.625C77.1818 293.86 77.6572 293.977 78.1989 293.977C78.5511 293.977 78.8693 293.928 79.1534 293.83C79.4413 293.727 79.6894 293.576 79.8977 293.375C80.1061 293.17 80.267 292.917 80.3807 292.614L81.6761 292.977C81.5398 293.417 81.3106 293.803 80.9886 294.136C80.6667 294.466 80.2689 294.723 79.7955 294.909C79.322 295.091 78.7898 295.182 78.1989 295.182ZM88.3523 298.273V286.273H89.6477V287.659H89.8068C89.9053 287.508 90.0417 287.314 90.2159 287.08C90.3939 286.841 90.6477 286.629 90.9773 286.443C91.3106 286.254 91.7614 286.159 92.3295 286.159C93.0644 286.159 93.7121 286.343 94.2727 286.71C94.8333 287.078 95.2708 287.598 95.5852 288.273C95.8996 288.947 96.0568 289.742 96.0568 290.659C96.0568 291.583 95.8996 292.384 95.5852 293.062C95.2708 293.737 94.8352 294.259 94.2784 294.631C93.7216 294.998 93.0795 295.182 92.3523 295.182C91.7917 295.182 91.3428 295.089 91.0057 294.903C90.6686 294.714 90.4091 294.5 90.2273 294.261C90.0455 294.019 89.9053 293.818 89.8068 293.659H89.6932V298.273H88.3523ZM89.6705 290.636C89.6705 291.295 89.767 291.877 89.9602 292.381C90.1534 292.881 90.4356 293.273 90.8068 293.557C91.178 293.837 91.6326 293.977 92.1705 293.977C92.7311 293.977 93.1989 293.83 93.5739 293.534C93.9527 293.235 94.2367 292.833 94.4261 292.33C94.6193 291.822 94.7159 291.258 94.7159 290.636C94.7159 290.023 94.6212 289.47 94.4318 288.977C94.2462 288.481 93.964 288.089 93.5852 287.801C93.2102 287.509 92.7386 287.364 92.1705 287.364C91.625 287.364 91.1667 287.502 90.7955 287.778C90.4242 288.051 90.1439 288.434 89.9545 288.926C89.7652 289.415 89.6705 289.985 89.6705 290.636ZM101.648 295.182C100.86 295.182 100.169 294.994 99.5739 294.619C98.983 294.244 98.5208 293.72 98.1875 293.045C97.858 292.371 97.6932 291.583 97.6932 290.682C97.6932 289.773 97.858 288.979 98.1875 288.301C98.5208 287.623 98.983 287.097 99.5739 286.722C100.169 286.347 100.86 286.159 101.648 286.159C102.436 286.159 103.125 286.347 103.716 286.722C104.311 287.097 104.773 287.623 105.102 288.301C105.436 288.979 105.602 289.773 105.602 290.682C105.602 291.583 105.436 292.371 105.102 293.045C104.773 293.72 104.311 294.244 103.716 294.619C103.125 294.994 102.436 295.182 101.648 295.182ZM101.648 293.977C102.246 293.977 102.739 293.824 103.125 293.517C103.511 293.21 103.797 292.807 103.983 292.307C104.169 291.807 104.261 291.265 104.261 290.682C104.261 290.098 104.169 289.555 103.983 289.051C103.797 288.547 103.511 288.14 103.125 287.83C102.739 287.519 102.246 287.364 101.648 287.364C101.049 287.364 100.557 287.519 100.17 287.83C99.7841 288.14 99.4981 288.547 99.3125 289.051C99.1269 289.555 99.0341 290.098 99.0341 290.682C99.0341 291.265 99.1269 291.807 99.3125 292.307C99.4981 292.807 99.7841 293.21 100.17 293.517C100.557 293.824 101.049 293.977 101.648 293.977ZM107.649 295V286.273H108.945V287.591H109.036C109.195 287.159 109.482 286.809 109.899 286.54C110.316 286.271 110.786 286.136 111.308 286.136C111.407 286.136 111.53 286.138 111.678 286.142C111.825 286.146 111.937 286.152 112.013 286.159V287.523C111.967 287.511 111.863 287.494 111.7 287.472C111.541 287.445 111.373 287.432 111.195 287.432C110.77 287.432 110.392 287.521 110.058 287.699C109.729 287.873 109.467 288.116 109.274 288.426C109.085 288.733 108.99 289.083 108.99 289.477V295H107.649ZM125.239 286.273L122.011 295H120.648L117.42 286.273H118.875L121.284 293.227H121.375L123.784 286.273H125.239ZM129.311 295.205C128.758 295.205 128.256 295.1 127.805 294.892C127.355 294.68 126.997 294.375 126.732 293.977C126.466 293.576 126.334 293.091 126.334 292.523C126.334 292.023 126.432 291.617 126.629 291.307C126.826 290.992 127.089 290.746 127.419 290.568C127.749 290.39 128.112 290.258 128.51 290.17C128.911 290.08 129.315 290.008 129.72 289.955C130.25 289.886 130.68 289.835 131.01 289.801C131.343 289.763 131.586 289.701 131.737 289.614C131.893 289.527 131.97 289.375 131.97 289.159V289.114C131.97 288.553 131.817 288.117 131.51 287.807C131.207 287.496 130.747 287.341 130.129 287.341C129.489 287.341 128.987 287.481 128.624 287.761C128.26 288.042 128.004 288.341 127.857 288.659L126.584 288.205C126.811 287.674 127.114 287.261 127.493 286.966C127.875 286.667 128.292 286.458 128.743 286.341C129.197 286.22 129.644 286.159 130.084 286.159C130.364 286.159 130.686 286.193 131.05 286.261C131.417 286.326 131.771 286.46 132.112 286.665C132.457 286.869 132.743 287.178 132.97 287.591C133.197 288.004 133.311 288.557 133.311 289.25V295H131.97V293.818H131.902C131.811 294.008 131.66 294.21 131.447 294.426C131.235 294.642 130.953 294.826 130.601 294.977C130.249 295.129 129.819 295.205 129.311 295.205ZM129.516 294C130.046 294 130.493 293.896 130.857 293.688C131.224 293.479 131.5 293.21 131.686 292.881C131.875 292.551 131.97 292.205 131.97 291.841V290.614C131.913 290.682 131.788 290.744 131.595 290.801C131.406 290.854 131.186 290.902 130.936 290.943C130.69 290.981 130.449 291.015 130.214 291.045C129.983 291.072 129.796 291.095 129.652 291.114C129.304 291.159 128.978 291.233 128.675 291.335C128.375 291.434 128.133 291.583 127.947 291.784C127.766 291.981 127.675 292.25 127.675 292.591C127.675 293.057 127.847 293.409 128.192 293.648C128.54 293.883 128.982 294 129.516 294ZM139.281 298.455C138.634 298.455 138.077 298.371 137.611 298.205C137.145 298.042 136.757 297.826 136.446 297.557C136.139 297.292 135.895 297.008 135.713 296.705L136.781 295.955C136.902 296.114 137.056 296.295 137.241 296.5C137.427 296.708 137.681 296.888 138.003 297.04C138.329 297.195 138.755 297.273 139.281 297.273C139.986 297.273 140.567 297.102 141.026 296.761C141.484 296.42 141.713 295.886 141.713 295.159V293.386H141.599C141.501 293.545 141.361 293.742 141.179 293.977C141.001 294.208 140.743 294.415 140.406 294.597C140.073 294.775 139.622 294.864 139.054 294.864C138.349 294.864 137.717 294.697 137.156 294.364C136.599 294.03 136.158 293.545 135.832 292.909C135.51 292.273 135.349 291.5 135.349 290.591C135.349 289.697 135.507 288.919 135.821 288.256C136.135 287.589 136.573 287.074 137.134 286.71C137.694 286.343 138.342 286.159 139.077 286.159C139.645 286.159 140.096 286.254 140.429 286.443C140.766 286.629 141.024 286.841 141.202 287.08C141.384 287.314 141.524 287.508 141.622 287.659H141.759V286.273H143.054V295.25C143.054 296 142.884 296.61 142.543 297.08C142.205 297.553 141.751 297.9 141.179 298.119C140.611 298.343 139.978 298.455 139.281 298.455ZM139.236 293.659C139.774 293.659 140.228 293.536 140.599 293.29C140.971 293.044 141.253 292.689 141.446 292.227C141.639 291.765 141.736 291.212 141.736 290.568C141.736 289.939 141.641 289.384 141.452 288.903C141.262 288.422 140.982 288.045 140.611 287.773C140.24 287.5 139.781 287.364 139.236 287.364C138.668 287.364 138.194 287.508 137.815 287.795C137.44 288.083 137.158 288.47 136.969 288.955C136.783 289.439 136.69 289.977 136.69 290.568C136.69 291.174 136.785 291.71 136.974 292.176C137.168 292.638 137.452 293.002 137.827 293.267C138.205 293.528 138.675 293.659 139.236 293.659ZM148.077 295.205C147.524 295.205 147.022 295.1 146.571 294.892C146.12 294.68 145.762 294.375 145.497 293.977C145.232 293.576 145.099 293.091 145.099 292.523C145.099 292.023 145.198 291.617 145.395 291.307C145.592 290.992 145.855 290.746 146.185 290.568C146.514 290.39 146.878 290.258 147.276 290.17C147.677 290.08 148.08 290.008 148.486 289.955C149.016 289.886 149.446 289.835 149.776 289.801C150.109 289.763 150.351 289.701 150.503 289.614C150.658 289.527 150.736 289.375 150.736 289.159V289.114C150.736 288.553 150.582 288.117 150.276 287.807C149.973 287.496 149.512 287.341 148.895 287.341C148.255 287.341 147.753 287.481 147.389 287.761C147.026 288.042 146.77 288.341 146.622 288.659L145.349 288.205C145.577 287.674 145.88 287.261 146.259 286.966C146.641 286.667 147.058 286.458 147.509 286.341C147.963 286.22 148.41 286.159 148.849 286.159C149.13 286.159 149.452 286.193 149.815 286.261C150.183 286.326 150.537 286.46 150.878 286.665C151.223 286.869 151.509 287.178 151.736 287.591C151.963 288.004 152.077 288.557 152.077 289.25V295H150.736V293.818H150.668C150.577 294.008 150.425 294.21 150.213 294.426C150.001 294.642 149.719 294.826 149.366 294.977C149.014 295.129 148.584 295.205 148.077 295.205ZM148.281 294C148.812 294 149.259 293.896 149.622 293.688C149.99 293.479 150.266 293.21 150.452 292.881C150.641 292.551 150.736 292.205 150.736 291.841V290.614C150.679 290.682 150.554 290.744 150.361 290.801C150.171 290.854 149.952 290.902 149.702 290.943C149.455 290.981 149.215 291.015 148.98 291.045C148.749 291.072 148.562 291.095 148.418 291.114C148.069 291.159 147.743 291.233 147.44 291.335C147.141 291.434 146.899 291.583 146.713 291.784C146.531 291.981 146.44 292.25 146.44 292.591C146.44 293.057 146.613 293.409 146.957 293.648C147.306 293.883 147.747 294 148.281 294ZM160.706 288.227L159.501 288.568C159.426 288.367 159.314 288.172 159.166 287.983C159.022 287.79 158.825 287.631 158.575 287.506C158.325 287.381 158.005 287.318 157.615 287.318C157.081 287.318 156.636 287.441 156.28 287.688C155.928 287.93 155.751 288.239 155.751 288.614C155.751 288.947 155.873 289.21 156.115 289.403C156.357 289.597 156.736 289.758 157.251 289.886L158.547 290.205C159.327 290.394 159.909 290.684 160.291 291.074C160.674 291.46 160.865 291.958 160.865 292.568C160.865 293.068 160.721 293.515 160.433 293.909C160.149 294.303 159.751 294.614 159.24 294.841C158.729 295.068 158.134 295.182 157.456 295.182C156.566 295.182 155.829 294.989 155.246 294.602C154.662 294.216 154.293 293.652 154.138 292.909L155.411 292.591C155.532 293.061 155.761 293.413 156.098 293.648C156.439 293.883 156.884 294 157.433 294C158.058 294 158.554 293.867 158.922 293.602C159.293 293.333 159.479 293.011 159.479 292.636C159.479 292.333 159.373 292.08 159.161 291.875C158.948 291.667 158.623 291.511 158.183 291.409L156.729 291.068C155.929 290.879 155.342 290.585 154.967 290.188C154.596 289.786 154.411 289.284 154.411 288.682C154.411 288.189 154.549 287.754 154.825 287.375C155.106 286.996 155.486 286.699 155.967 286.483C156.452 286.267 157.001 286.159 157.615 286.159C158.479 286.159 159.157 286.348 159.649 286.727C160.145 287.106 160.498 287.606 160.706 288.227ZM170.929 295.182C170.111 295.182 169.406 294.989 168.815 294.602C168.224 294.216 167.77 293.684 167.452 293.006C167.134 292.328 166.974 291.553 166.974 290.682C166.974 289.795 167.137 289.013 167.463 288.335C167.793 287.653 168.251 287.121 168.838 286.739C169.429 286.352 170.118 286.159 170.906 286.159C171.52 286.159 172.073 286.273 172.565 286.5C173.058 286.727 173.461 287.045 173.776 287.455C174.09 287.864 174.285 288.341 174.361 288.886H173.02C172.918 288.489 172.69 288.136 172.338 287.83C171.99 287.519 171.52 287.364 170.929 287.364C170.406 287.364 169.948 287.5 169.554 287.773C169.164 288.042 168.859 288.422 168.639 288.915C168.423 289.403 168.315 289.977 168.315 290.636C168.315 291.311 168.421 291.898 168.634 292.398C168.849 292.898 169.152 293.286 169.543 293.562C169.937 293.839 170.399 293.977 170.929 293.977C171.277 293.977 171.594 293.917 171.878 293.795C172.162 293.674 172.402 293.5 172.599 293.273C172.796 293.045 172.937 292.773 173.02 292.455H174.361C174.285 292.97 174.098 293.434 173.798 293.847C173.503 294.256 173.111 294.581 172.622 294.824C172.137 295.062 171.573 295.182 170.929 295.182ZM179.866 295.182C179.079 295.182 178.387 294.994 177.793 294.619C177.202 294.244 176.74 293.72 176.406 293.045C176.077 292.371 175.912 291.583 175.912 290.682C175.912 289.773 176.077 288.979 176.406 288.301C176.74 287.623 177.202 287.097 177.793 286.722C178.387 286.347 179.079 286.159 179.866 286.159C180.654 286.159 181.344 286.347 181.935 286.722C182.529 287.097 182.991 287.623 183.321 288.301C183.654 288.979 183.821 289.773 183.821 290.682C183.821 291.583 183.654 292.371 183.321 293.045C182.991 293.72 182.529 294.244 181.935 294.619C181.344 294.994 180.654 295.182 179.866 295.182ZM179.866 293.977C180.465 293.977 180.957 293.824 181.344 293.517C181.73 293.21 182.016 292.807 182.202 292.307C182.387 291.807 182.48 291.265 182.48 290.682C182.48 290.098 182.387 289.555 182.202 289.051C182.016 288.547 181.73 288.14 181.344 287.83C180.957 287.519 180.465 287.364 179.866 287.364C179.268 287.364 178.776 287.519 178.389 287.83C178.003 288.14 177.717 288.547 177.531 289.051C177.346 289.555 177.253 290.098 177.253 290.682C177.253 291.265 177.346 291.807 177.531 292.307C177.717 292.807 178.003 293.21 178.389 293.517C178.776 293.824 179.268 293.977 179.866 293.977ZM185.868 295V286.273H187.163V287.636H187.277C187.459 287.17 187.752 286.809 188.158 286.551C188.563 286.29 189.05 286.159 189.618 286.159C190.194 286.159 190.673 286.29 191.055 286.551C191.442 286.809 191.743 287.17 191.959 287.636H192.05C192.273 287.186 192.608 286.828 193.055 286.562C193.502 286.294 194.038 286.159 194.663 286.159C195.444 286.159 196.082 286.403 196.578 286.892C197.074 287.377 197.322 288.133 197.322 289.159V295H195.982V289.159C195.982 288.515 195.805 288.055 195.453 287.778C195.101 287.502 194.686 287.364 194.209 287.364C193.595 287.364 193.12 287.549 192.783 287.92C192.446 288.288 192.277 288.754 192.277 289.318V295H190.913V289.023C190.913 288.527 190.752 288.127 190.43 287.824C190.108 287.517 189.694 287.364 189.186 287.364C188.838 287.364 188.512 287.456 188.209 287.642C187.91 287.828 187.667 288.085 187.482 288.415C187.3 288.741 187.209 289.117 187.209 289.545V295H185.868ZM208.07 286.273V287.409H203.547V286.273H208.07ZM204.865 284.182H206.206V292.5C206.206 292.879 206.261 293.163 206.371 293.352C206.484 293.538 206.628 293.663 206.803 293.727C206.981 293.788 207.168 293.818 207.365 293.818C207.513 293.818 207.634 293.811 207.729 293.795C207.823 293.777 207.899 293.761 207.956 293.75L208.229 294.955C208.138 294.989 208.011 295.023 207.848 295.057C207.685 295.095 207.479 295.114 207.229 295.114C206.85 295.114 206.479 295.032 206.115 294.869C205.755 294.706 205.456 294.458 205.217 294.125C204.982 293.792 204.865 293.371 204.865 292.864V284.182ZM213.538 295.182C212.75 295.182 212.059 294.994 211.464 294.619C210.874 294.244 210.411 293.72 210.078 293.045C209.749 292.371 209.584 291.583 209.584 290.682C209.584 289.773 209.749 288.979 210.078 288.301C210.411 287.623 210.874 287.097 211.464 286.722C212.059 286.347 212.75 286.159 213.538 286.159C214.326 286.159 215.016 286.347 215.607 286.722C216.201 287.097 216.663 287.623 216.993 288.301C217.326 288.979 217.493 289.773 217.493 290.682C217.493 291.583 217.326 292.371 216.993 293.045C216.663 293.72 216.201 294.244 215.607 294.619C215.016 294.994 214.326 295.182 213.538 295.182ZM213.538 293.977C214.137 293.977 214.629 293.824 215.016 293.517C215.402 293.21 215.688 292.807 215.874 292.307C216.059 291.807 216.152 291.265 216.152 290.682C216.152 290.098 216.059 289.555 215.874 289.051C215.688 288.547 215.402 288.14 215.016 287.83C214.629 287.519 214.137 287.364 213.538 287.364C212.94 287.364 212.447 287.519 212.061 287.83C211.675 288.14 211.389 288.547 211.203 289.051C211.018 289.555 210.925 290.098 210.925 290.682C210.925 291.265 211.018 291.807 211.203 292.307C211.389 292.807 211.675 293.21 212.061 293.517C212.447 293.824 212.94 293.977 213.538 293.977ZM222.835 295.182C222.108 295.182 221.466 294.998 220.909 294.631C220.352 294.259 219.917 293.737 219.602 293.062C219.288 292.384 219.131 291.583 219.131 290.659C219.131 289.742 219.288 288.947 219.602 288.273C219.917 287.598 220.354 287.078 220.915 286.71C221.475 286.343 222.123 286.159 222.858 286.159C223.426 286.159 223.875 286.254 224.205 286.443C224.538 286.629 224.792 286.841 224.966 287.08C225.144 287.314 225.282 287.508 225.381 287.659H225.494V283.364H226.835V295H225.54V293.659H225.381C225.282 293.818 225.142 294.019 224.96 294.261C224.778 294.5 224.519 294.714 224.182 294.903C223.845 295.089 223.396 295.182 222.835 295.182ZM223.017 293.977C223.555 293.977 224.009 293.837 224.381 293.557C224.752 293.273 225.034 292.881 225.227 292.381C225.42 291.877 225.517 291.295 225.517 290.636C225.517 289.985 225.422 289.415 225.233 288.926C225.044 288.434 224.763 288.051 224.392 287.778C224.021 287.502 223.563 287.364 223.017 287.364C222.449 287.364 221.975 287.509 221.597 287.801C221.222 288.089 220.939 288.481 220.75 288.977C220.564 289.47 220.472 290.023 220.472 290.636C220.472 291.258 220.566 291.822 220.756 292.33C220.949 292.833 221.233 293.235 221.608 293.534C221.987 293.83 222.456 293.977 223.017 293.977ZM233.023 295.182C232.235 295.182 231.544 294.994 230.949 294.619C230.358 294.244 229.896 293.72 229.562 293.045C229.233 292.371 229.068 291.583 229.068 290.682C229.068 289.773 229.233 288.979 229.562 288.301C229.896 287.623 230.358 287.097 230.949 286.722C231.544 286.347 232.235 286.159 233.023 286.159C233.811 286.159 234.5 286.347 235.091 286.722C235.686 287.097 236.148 287.623 236.477 288.301C236.811 288.979 236.977 289.773 236.977 290.682C236.977 291.583 236.811 292.371 236.477 293.045C236.148 293.72 235.686 294.244 235.091 294.619C234.5 294.994 233.811 295.182 233.023 295.182ZM233.023 293.977C233.621 293.977 234.114 293.824 234.5 293.517C234.886 293.21 235.172 292.807 235.358 292.307C235.544 291.807 235.636 291.265 235.636 290.682C235.636 290.098 235.544 289.555 235.358 289.051C235.172 288.547 234.886 288.14 234.5 287.83C234.114 287.519 233.621 287.364 233.023 287.364C232.424 287.364 231.932 287.519 231.545 287.83C231.159 288.14 230.873 288.547 230.688 289.051C230.502 289.555 230.409 290.098 230.409 290.682C230.409 291.265 230.502 291.807 230.688 292.307C230.873 292.807 231.159 293.21 231.545 293.517C231.932 293.824 232.424 293.977 233.023 293.977ZM245.206 288.227L244.001 288.568C243.926 288.367 243.814 288.172 243.666 287.983C243.522 287.79 243.325 287.631 243.075 287.506C242.825 287.381 242.505 287.318 242.115 287.318C241.581 287.318 241.136 287.441 240.78 287.688C240.428 287.93 240.251 288.239 240.251 288.614C240.251 288.947 240.373 289.21 240.615 289.403C240.857 289.597 241.236 289.758 241.751 289.886L243.047 290.205C243.827 290.394 244.409 290.684 244.791 291.074C245.174 291.46 245.365 291.958 245.365 292.568C245.365 293.068 245.221 293.515 244.933 293.909C244.649 294.303 244.251 294.614 243.74 294.841C243.229 295.068 242.634 295.182 241.956 295.182C241.066 295.182 240.329 294.989 239.746 294.602C239.162 294.216 238.793 293.652 238.638 292.909L239.911 292.591C240.032 293.061 240.261 293.413 240.598 293.648C240.939 293.883 241.384 294 241.933 294C242.558 294 243.054 293.867 243.422 293.602C243.793 293.333 243.979 293.011 243.979 292.636C243.979 292.333 243.873 292.08 243.661 291.875C243.448 291.667 243.123 291.511 242.683 291.409L241.229 291.068C240.429 290.879 239.842 290.585 239.467 290.188C239.096 289.786 238.911 289.284 238.911 288.682C238.911 288.189 239.049 287.754 239.325 287.375C239.606 286.996 239.986 286.699 240.467 286.483C240.952 286.267 241.501 286.159 242.115 286.159C242.979 286.159 243.657 286.348 244.149 286.727C244.645 287.106 244.998 287.606 245.206 288.227ZM25.2273 321V312.273H26.5227V313.591H26.6136C26.7727 313.159 27.0606 312.809 27.4773 312.54C27.8939 312.271 28.3636 312.136 28.8864 312.136C28.9848 312.136 29.108 312.138 29.2557 312.142C29.4034 312.146 29.5152 312.152 29.5909 312.159V313.523C29.5455 313.511 29.4413 313.494 29.2784 313.472C29.1193 313.445 28.9508 313.432 28.7727 313.432C28.3485 313.432 27.9697 313.521 27.6364 313.699C27.3068 313.873 27.0455 314.116 26.8523 314.426C26.6629 314.733 26.5682 315.083 26.5682 315.477V321H25.2273ZM34.5739 321.182C33.733 321.182 33.0076 320.996 32.3977 320.625C31.7917 320.25 31.3239 319.727 30.9943 319.057C30.6686 318.383 30.5057 317.598 30.5057 316.705C30.5057 315.811 30.6686 315.023 30.9943 314.341C31.3239 313.655 31.7822 313.121 32.3693 312.739C32.9602 312.352 33.6496 312.159 34.4375 312.159C34.892 312.159 35.3409 312.235 35.7841 312.386C36.2273 312.538 36.6307 312.784 36.9943 313.125C37.358 313.462 37.6477 313.909 37.8636 314.466C38.0795 315.023 38.1875 315.708 38.1875 316.523V317.091H31.4602V315.932H36.8239C36.8239 315.439 36.7254 315 36.5284 314.614C36.3352 314.227 36.0587 313.922 35.6989 313.699C35.3428 313.475 34.9223 313.364 34.4375 313.364C33.9034 313.364 33.4413 313.496 33.0511 313.761C32.6648 314.023 32.3674 314.364 32.1591 314.784C31.9508 315.205 31.8466 315.655 31.8466 316.136V316.909C31.8466 317.568 31.9602 318.127 32.1875 318.585C32.4186 319.04 32.7386 319.386 33.1477 319.625C33.5568 319.86 34.0322 319.977 34.5739 319.977C34.9261 319.977 35.2443 319.928 35.5284 319.83C35.8163 319.727 36.0644 319.576 36.2727 319.375C36.4811 319.17 36.642 318.917 36.7557 318.614L38.0511 318.977C37.9148 319.417 37.6856 319.803 37.3636 320.136C37.0417 320.466 36.6439 320.723 36.1705 320.909C35.697 321.091 35.1648 321.182 34.5739 321.182ZM43.7727 321.182C42.9545 321.182 42.25 320.989 41.6591 320.602C41.0682 320.216 40.6136 319.684 40.2955 319.006C39.9773 318.328 39.8182 317.553 39.8182 316.682C39.8182 315.795 39.9811 315.013 40.3068 314.335C40.6364 313.653 41.0947 313.121 41.6818 312.739C42.2727 312.352 42.9621 312.159 43.75 312.159C44.3636 312.159 44.9167 312.273 45.4091 312.5C45.9015 312.727 46.3049 313.045 46.6193 313.455C46.9337 313.864 47.1288 314.341 47.2045 314.886H45.8636C45.7614 314.489 45.5341 314.136 45.1818 313.83C44.8333 313.519 44.3636 313.364 43.7727 313.364C43.25 313.364 42.7917 313.5 42.3977 313.773C42.0076 314.042 41.7027 314.422 41.483 314.915C41.267 315.403 41.1591 315.977 41.1591 316.636C41.1591 317.311 41.2652 317.898 41.4773 318.398C41.6932 318.898 41.9962 319.286 42.3864 319.562C42.7803 319.839 43.2424 319.977 43.7727 319.977C44.1212 319.977 44.4375 319.917 44.7216 319.795C45.0057 319.674 45.2462 319.5 45.4432 319.273C45.6402 319.045 45.7803 318.773 45.8636 318.455H47.2045C47.1288 318.97 46.9413 319.434 46.642 319.847C46.3466 320.256 45.9545 320.581 45.4659 320.824C44.9811 321.062 44.4167 321.182 43.7727 321.182ZM54.6648 317.432V312.273H56.0057V321H54.6648V319.523H54.5739C54.3693 319.966 54.0511 320.343 53.6193 320.653C53.1875 320.96 52.642 321.114 51.983 321.114C51.4375 321.114 50.9527 320.994 50.5284 320.756C50.1042 320.513 49.7708 320.15 49.5284 319.665C49.286 319.176 49.1648 318.561 49.1648 317.818V312.273H50.5057V317.727C50.5057 318.364 50.6837 318.871 51.0398 319.25C51.3996 319.629 51.858 319.818 52.4148 319.818C52.7481 319.818 53.0871 319.733 53.4318 319.562C53.7803 319.392 54.072 319.131 54.3068 318.778C54.5455 318.426 54.6648 317.977 54.6648 317.432ZM58.4616 321V312.273H59.7571V313.591H59.848C60.0071 313.159 60.295 312.809 60.7116 312.54C61.1283 312.271 61.598 312.136 62.1207 312.136C62.2192 312.136 62.3423 312.138 62.4901 312.142C62.6378 312.146 62.7495 312.152 62.8253 312.159V313.523C62.7798 313.511 62.6757 313.494 62.5128 313.472C62.3537 313.445 62.1851 313.432 62.0071 313.432C61.5829 313.432 61.2041 313.521 60.8707 313.699C60.5412 313.873 60.2798 314.116 60.0866 314.426C59.8973 314.733 59.8026 315.083 59.8026 315.477V321H58.4616ZM70.5966 314.227L69.392 314.568C69.3163 314.367 69.2045 314.172 69.0568 313.983C68.9129 313.79 68.7159 313.631 68.4659 313.506C68.2159 313.381 67.8958 313.318 67.5057 313.318C66.9716 313.318 66.5265 313.441 66.1705 313.688C65.8182 313.93 65.642 314.239 65.642 314.614C65.642 314.947 65.7633 315.21 66.0057 315.403C66.2481 315.597 66.6269 315.758 67.142 315.886L68.4375 316.205C69.2178 316.394 69.7992 316.684 70.1818 317.074C70.5644 317.46 70.7557 317.958 70.7557 318.568C70.7557 319.068 70.6117 319.515 70.3239 319.909C70.0398 320.303 69.642 320.614 69.1307 320.841C68.6193 321.068 68.0246 321.182 67.3466 321.182C66.4564 321.182 65.7197 320.989 65.1364 320.602C64.553 320.216 64.1837 319.652 64.0284 318.909L65.3011 318.591C65.4223 319.061 65.6515 319.413 65.9886 319.648C66.3295 319.883 66.7746 320 67.3239 320C67.9489 320 68.4451 319.867 68.8125 319.602C69.1837 319.333 69.3693 319.011 69.3693 318.636C69.3693 318.333 69.2633 318.08 69.0511 317.875C68.839 317.667 68.5133 317.511 68.0739 317.409L66.6193 317.068C65.8201 316.879 65.233 316.585 64.858 316.188C64.4867 315.786 64.3011 315.284 64.3011 314.682C64.3011 314.189 64.4394 313.754 64.7159 313.375C64.9962 312.996 65.3769 312.699 65.858 312.483C66.3428 312.267 66.892 312.159 67.5057 312.159C68.3693 312.159 69.0473 312.348 69.5398 312.727C70.036 313.106 70.3883 313.606 70.5966 314.227ZM76.3196 321.182C75.5317 321.182 74.8404 320.994 74.2457 320.619C73.6548 320.244 73.1927 319.72 72.8594 319.045C72.5298 318.371 72.3651 317.583 72.3651 316.682C72.3651 315.773 72.5298 314.979 72.8594 314.301C73.1927 313.623 73.6548 313.097 74.2457 312.722C74.8404 312.347 75.5317 312.159 76.3196 312.159C77.1075 312.159 77.7969 312.347 78.3878 312.722C78.9825 313.097 79.4446 313.623 79.7741 314.301C80.1075 314.979 80.2741 315.773 80.2741 316.682C80.2741 317.583 80.1075 318.371 79.7741 319.045C79.4446 319.72 78.9825 320.244 78.3878 320.619C77.7969 320.994 77.1075 321.182 76.3196 321.182ZM76.3196 319.977C76.9181 319.977 77.4105 319.824 77.7969 319.517C78.1832 319.21 78.4692 318.807 78.6548 318.307C78.8404 317.807 78.9332 317.265 78.9332 316.682C78.9332 316.098 78.8404 315.555 78.6548 315.051C78.4692 314.547 78.1832 314.14 77.7969 313.83C77.4105 313.519 76.9181 313.364 76.3196 313.364C75.7211 313.364 75.2287 313.519 74.8423 313.83C74.456 314.14 74.17 314.547 73.9844 315.051C73.7988 315.555 73.706 316.098 73.706 316.682C73.706 317.265 73.7988 317.807 73.9844 318.307C74.17 318.807 74.456 319.21 74.8423 319.517C75.2287 319.824 75.7211 319.977 76.3196 319.977ZM88.5028 314.227L87.2983 314.568C87.2225 314.367 87.1108 314.172 86.9631 313.983C86.8191 313.79 86.6222 313.631 86.3722 313.506C86.1222 313.381 85.8021 313.318 85.4119 313.318C84.8778 313.318 84.4328 313.441 84.0767 313.688C83.7244 313.93 83.5483 314.239 83.5483 314.614C83.5483 314.947 83.6695 315.21 83.9119 315.403C84.1544 315.597 84.5331 315.758 85.0483 315.886L86.3438 316.205C87.1241 316.394 87.7055 316.684 88.0881 317.074C88.4706 317.46 88.6619 317.958 88.6619 318.568C88.6619 319.068 88.518 319.515 88.2301 319.909C87.946 320.303 87.5483 320.614 87.0369 320.841C86.5256 321.068 85.9309 321.182 85.2528 321.182C84.3627 321.182 83.6259 320.989 83.0426 320.602C82.4593 320.216 82.09 319.652 81.9347 318.909L83.2074 318.591C83.3286 319.061 83.5578 319.413 83.8949 319.648C84.2358 319.883 84.6809 320 85.2301 320C85.8551 320 86.3513 319.867 86.7188 319.602C87.09 319.333 87.2756 319.011 87.2756 318.636C87.2756 318.333 87.1695 318.08 86.9574 317.875C86.7453 317.667 86.4195 317.511 85.9801 317.409L84.5256 317.068C83.7263 316.879 83.1392 316.585 82.7642 316.188C82.393 315.786 82.2074 315.284 82.2074 314.682C82.2074 314.189 82.3456 313.754 82.6222 313.375C82.9025 312.996 83.2831 312.699 83.7642 312.483C84.2491 312.267 84.7983 312.159 85.4119 312.159C86.2756 312.159 86.9536 312.348 87.446 312.727C87.9422 313.106 88.2945 313.606 88.5028 314.227ZM95.1804 324.273V312.273H96.4759V313.659H96.6349C96.7334 313.508 96.8698 313.314 97.044 313.08C97.2221 312.841 97.4759 312.629 97.8054 312.443C98.1387 312.254 98.5895 312.159 99.1577 312.159C99.8925 312.159 100.54 312.343 101.101 312.71C101.661 313.078 102.099 313.598 102.413 314.273C102.728 314.947 102.885 315.742 102.885 316.659C102.885 317.583 102.728 318.384 102.413 319.062C102.099 319.737 101.663 320.259 101.107 320.631C100.55 320.998 99.9077 321.182 99.1804 321.182C98.6198 321.182 98.1709 321.089 97.8338 320.903C97.4967 320.714 97.2372 320.5 97.0554 320.261C96.8736 320.019 96.7334 319.818 96.6349 319.659H96.5213V324.273H95.1804ZM96.4986 316.636C96.4986 317.295 96.5952 317.877 96.7884 318.381C96.9815 318.881 97.2637 319.273 97.6349 319.557C98.0062 319.837 98.4607 319.977 98.9986 319.977C99.5592 319.977 100.027 319.83 100.402 319.534C100.781 319.235 101.065 318.833 101.254 318.33C101.447 317.822 101.544 317.258 101.544 316.636C101.544 316.023 101.449 315.47 101.26 314.977C101.074 314.481 100.792 314.089 100.413 313.801C100.038 313.509 99.5668 313.364 98.9986 313.364C98.4531 313.364 97.9948 313.502 97.6236 313.778C97.2524 314.051 96.9721 314.434 96.7827 314.926C96.5933 315.415 96.4986 315.985 96.4986 316.636ZM108.476 321.182C107.688 321.182 106.997 320.994 106.402 320.619C105.811 320.244 105.349 319.72 105.016 319.045C104.686 318.371 104.521 317.583 104.521 316.682C104.521 315.773 104.686 314.979 105.016 314.301C105.349 313.623 105.811 313.097 106.402 312.722C106.997 312.347 107.688 312.159 108.476 312.159C109.264 312.159 109.953 312.347 110.544 312.722C111.139 313.097 111.601 313.623 111.93 314.301C112.264 314.979 112.43 315.773 112.43 316.682C112.43 317.583 112.264 318.371 111.93 319.045C111.601 319.72 111.139 320.244 110.544 320.619C109.953 320.994 109.264 321.182 108.476 321.182ZM108.476 319.977C109.074 319.977 109.567 319.824 109.953 319.517C110.339 319.21 110.625 318.807 110.811 318.307C110.997 317.807 111.089 317.265 111.089 316.682C111.089 316.098 110.997 315.555 110.811 315.051C110.625 314.547 110.339 314.14 109.953 313.83C109.567 313.519 109.074 313.364 108.476 313.364C107.877 313.364 107.385 313.519 106.999 313.83C106.612 314.14 106.326 314.547 106.141 315.051C105.955 315.555 105.862 316.098 105.862 316.682C105.862 317.265 105.955 317.807 106.141 318.307C106.326 318.807 106.612 319.21 106.999 319.517C107.385 319.824 107.877 319.977 108.476 319.977ZM120.659 314.227L119.455 314.568C119.379 314.367 119.267 314.172 119.119 313.983C118.975 313.79 118.778 313.631 118.528 313.506C118.278 313.381 117.958 313.318 117.568 313.318C117.034 313.318 116.589 313.441 116.233 313.688C115.881 313.93 115.705 314.239 115.705 314.614C115.705 314.947 115.826 315.21 116.068 315.403C116.311 315.597 116.689 315.758 117.205 315.886L118.5 316.205C119.28 316.394 119.862 316.684 120.244 317.074C120.627 317.46 120.818 317.958 120.818 318.568C120.818 319.068 120.674 319.515 120.386 319.909C120.102 320.303 119.705 320.614 119.193 320.841C118.682 321.068 118.087 321.182 117.409 321.182C116.519 321.182 115.782 320.989 115.199 320.602C114.616 320.216 114.246 319.652 114.091 318.909L115.364 318.591C115.485 319.061 115.714 319.413 116.051 319.648C116.392 319.883 116.837 320 117.386 320C118.011 320 118.508 319.867 118.875 319.602C119.246 319.333 119.432 319.011 119.432 318.636C119.432 318.333 119.326 318.08 119.114 317.875C118.902 317.667 118.576 317.511 118.136 317.409L116.682 317.068C115.883 316.879 115.295 316.585 114.92 316.188C114.549 315.786 114.364 315.284 114.364 314.682C114.364 314.189 114.502 313.754 114.778 313.375C115.059 312.996 115.439 312.699 115.92 312.483C116.405 312.267 116.955 312.159 117.568 312.159C118.432 312.159 119.11 312.348 119.602 312.727C120.098 313.106 120.451 313.606 120.659 314.227ZM129.018 314.227L127.814 314.568C127.738 314.367 127.626 314.172 127.479 313.983C127.335 313.79 127.138 313.631 126.888 313.506C126.638 313.381 126.318 313.318 125.928 313.318C125.393 313.318 124.948 313.441 124.592 313.688C124.24 313.93 124.064 314.239 124.064 314.614C124.064 314.947 124.185 315.21 124.428 315.403C124.67 315.597 125.049 315.758 125.564 315.886L126.859 316.205C127.64 316.394 128.221 316.684 128.604 317.074C128.986 317.46 129.178 317.958 129.178 318.568C129.178 319.068 129.034 319.515 128.746 319.909C128.462 320.303 128.064 320.614 127.553 320.841C127.041 321.068 126.446 321.182 125.768 321.182C124.878 321.182 124.142 320.989 123.558 320.602C122.975 320.216 122.606 319.652 122.45 318.909L123.723 318.591C123.844 319.061 124.073 319.413 124.411 319.648C124.751 319.883 125.196 320 125.746 320C126.371 320 126.867 319.867 127.234 319.602C127.606 319.333 127.791 319.011 127.791 318.636C127.791 318.333 127.685 318.08 127.473 317.875C127.261 317.667 126.935 317.511 126.496 317.409L125.041 317.068C124.242 316.879 123.655 316.585 123.28 316.188C122.909 315.786 122.723 315.284 122.723 314.682C122.723 314.189 122.861 313.754 123.138 313.375C123.418 312.996 123.799 312.699 124.28 312.483C124.765 312.267 125.314 312.159 125.928 312.159C126.791 312.159 127.469 312.348 127.962 312.727C128.458 313.106 128.81 313.606 129.018 314.227ZM131.196 321V312.273H132.537V321H131.196ZM131.264 311.091L132.651 308.455H134.219L132.446 311.091H131.264ZM142.129 312.273L138.902 321H137.538L134.311 312.273H135.766L138.175 319.227H138.266L140.675 312.273H142.129ZM147.246 321.182C146.405 321.182 145.679 320.996 145.07 320.625C144.464 320.25 143.996 319.727 143.666 319.057C143.34 318.383 143.178 317.598 143.178 316.705C143.178 315.811 143.34 315.023 143.666 314.341C143.996 313.655 144.454 313.121 145.041 312.739C145.632 312.352 146.321 312.159 147.109 312.159C147.564 312.159 148.013 312.235 148.456 312.386C148.899 312.538 149.303 312.784 149.666 313.125C150.03 313.462 150.32 313.909 150.536 314.466C150.751 315.023 150.859 315.708 150.859 316.523V317.091H144.132V315.932H149.496C149.496 315.439 149.397 315 149.2 314.614C149.007 314.227 148.731 313.922 148.371 313.699C148.015 313.475 147.594 313.364 147.109 313.364C146.575 313.364 146.113 313.496 145.723 313.761C145.337 314.023 145.039 314.364 144.831 314.784C144.623 315.205 144.518 315.655 144.518 316.136V316.909C144.518 317.568 144.632 318.127 144.859 318.585C145.09 319.04 145.411 319.386 145.82 319.625C146.229 319.86 146.704 319.977 147.246 319.977C147.598 319.977 147.916 319.928 148.2 319.83C148.488 319.727 148.736 319.576 148.945 319.375C149.153 319.17 149.314 318.917 149.428 318.614L150.723 318.977C150.587 319.417 150.357 319.803 150.036 320.136C149.714 320.466 149.316 320.723 148.842 320.909C148.369 321.091 147.837 321.182 147.246 321.182ZM152.899 321V312.273H154.24V321H152.899ZM153.581 310.818C153.32 310.818 153.094 310.729 152.905 310.551C152.719 310.373 152.626 310.159 152.626 309.909C152.626 309.659 152.719 309.445 152.905 309.267C153.094 309.089 153.32 309 153.581 309C153.842 309 154.066 309.089 154.251 309.267C154.441 309.445 154.536 309.659 154.536 309.909C154.536 310.159 154.441 310.373 154.251 310.551C154.066 310.729 153.842 310.818 153.581 310.818ZM162.878 314.227L161.673 314.568C161.598 314.367 161.486 314.172 161.338 313.983C161.194 313.79 160.997 313.631 160.747 313.506C160.497 313.381 160.177 313.318 159.787 313.318C159.253 313.318 158.808 313.441 158.452 313.688C158.099 313.93 157.923 314.239 157.923 314.614C157.923 314.947 158.045 315.21 158.287 315.403C158.529 315.597 158.908 315.758 159.423 315.886L160.719 316.205C161.499 316.394 162.08 316.684 162.463 317.074C162.846 317.46 163.037 317.958 163.037 318.568C163.037 319.068 162.893 319.515 162.605 319.909C162.321 320.303 161.923 320.614 161.412 320.841C160.901 321.068 160.306 321.182 159.628 321.182C158.738 321.182 158.001 320.989 157.418 320.602C156.834 320.216 156.465 319.652 156.31 318.909L157.582 318.591C157.704 319.061 157.933 319.413 158.27 319.648C158.611 319.883 159.056 320 159.605 320C160.23 320 160.726 319.867 161.094 319.602C161.465 319.333 161.651 319.011 161.651 318.636C161.651 318.333 161.545 318.08 161.332 317.875C161.12 317.667 160.795 317.511 160.355 317.409L158.901 317.068C158.101 316.879 157.514 316.585 157.139 316.188C156.768 315.786 156.582 315.284 156.582 314.682C156.582 314.189 156.721 313.754 156.997 313.375C157.277 312.996 157.658 312.699 158.139 312.483C158.624 312.267 159.173 312.159 159.787 312.159C160.651 312.159 161.329 312.348 161.821 312.727C162.317 313.106 162.67 313.606 162.878 314.227Z" fill="black"/>
<path fill-rule="evenodd" clip-rule="evenodd" d="M145.099 172.393C130.209 172.393 116.614 166.591 105.929 156.278C84.564 134.68 84.564 99.8771 105.929 78.605C116.614 68.2912 130.209 62.4897 145.099 62.4897C159.67 62.4897 173.584 68.2912 183.944 78.605C205.634 99.8771 205.634 134.68 183.944 156.278C173.584 166.591 159.67 172.393 145.099 172.393Z" fill="#3ED899"/>
<path fill-rule="evenodd" clip-rule="evenodd" d="M190.744 175.935C190.419 175.935 189.775 175.616 189.449 175.291L175.529 161.434C174.879 160.79 174.879 160.465 174.879 159.82C174.879 159.175 175.204 158.856 175.529 158.531C177.469 156.922 179.414 155.308 181.354 153.374C182.974 151.765 184.914 149.831 186.209 147.898C186.534 147.253 187.185 146.928 187.829 146.928C188.154 146.928 188.799 147.253 189.124 147.572L203.369 161.754C203.689 162.079 203.689 162.398 203.689 163.043C203.689 163.368 203.689 164.013 203.369 164.332L192.359 175.291C191.714 175.616 191.389 175.935 190.744 175.935Z" fill="#3ED899"/>
<mask id="mask0_451_211" style="mask-type:luminance" maskUnits="userSpaceOnUse" x="185" y="156" width="61" height="61">
<path d="M185.233 156.8H245.124V216.87H185.233V156.8Z" fill="white"/>
</mask>
<g mask="url(#mask0_451_211)">
<path fill-rule="evenodd" clip-rule="evenodd" d="M231.204 216.865C227.325 216.865 224.084 215.576 221.169 212.678L186.534 178.194C186.209 177.869 185.89 177.549 185.89 176.905C185.89 176.26 186.209 175.935 186.534 175.616L203.37 158.856C204.339 157.886 205.309 157.886 206.279 158.856L240.919 193.339C243.51 195.918 245.124 199.46 245.124 203.009C245.124 206.876 243.51 210.099 240.919 212.678C238.329 215.576 234.77 216.865 231.204 216.865Z" fill="#3ED899"/>
</g>
<path fill-rule="evenodd" clip-rule="evenodd" d="M145.099 163.368C119.53 163.368 98.8092 142.741 98.8092 117.281C98.8092 92.1417 119.53 71.5142 145.099 71.5142C170.674 71.5142 191.389 92.1417 191.389 117.281C191.389 142.741 170.674 163.368 145.099 163.368Z" fill="#4BB9EC"/>
<path fill-rule="evenodd" clip-rule="evenodd" d="M107.549 90.5272C108.519 89.238 109.169 88.274 110.139 87.3042C110.784 87.6294 112.404 88.9186 113.055 88.9186C121.144 93.4309 132.799 96.0093 145.099 96.0093C157.399 96.0093 168.729 93.4309 176.824 89.238C177.15 88.9186 178.764 87.9488 180.059 87.3042C181.029 88.274 181.679 89.238 182.324 90.5272C181.029 91.1719 179.089 92.4611 178.445 92.7863C169.705 97.2985 157.724 99.877 145.099 99.877C132.474 99.877 120.499 97.2985 111.759 92.7863C110.784 92.1417 108.519 90.8525 107.874 90.5272H107.549Z" fill="#50536E"/>
<path fill-rule="evenodd" clip-rule="evenodd" d="M98.8092 119.215C98.8092 118.571 98.8092 117.926 98.8092 117.281C98.8092 116.637 98.8092 115.992 98.8092 115.348H191.389C191.389 115.992 191.389 116.637 191.389 117.281C191.389 117.926 191.389 118.571 191.389 119.215H98.8092Z" fill="#50536E"/>
<path fill-rule="evenodd" clip-rule="evenodd" d="M145.099 163.368C138.305 163.368 132.149 158.531 127.944 149.506C123.409 140.807 121.144 129.523 121.144 117.281C121.144 105.353 123.409 94.0755 127.944 85.3704C132.149 76.3458 138.305 71.5142 145.099 71.5142C151.574 71.5142 157.724 76.3458 162.254 85.3704C166.464 94.0755 169.054 105.353 169.054 117.281C169.054 129.523 166.464 140.807 162.254 149.506C157.724 158.531 151.574 163.368 145.099 163.368ZM145.099 75.3818C134.094 75.3818 125.029 94.3949 125.029 117.281C125.029 140.162 134.094 159.5 145.099 159.5C155.785 159.5 165.169 140.162 165.169 117.281C165.169 94.3949 155.785 75.3818 145.099 75.3818Z" fill="#50536E"/>
<path fill-rule="evenodd" clip-rule="evenodd" d="M145.099 163.368C144.129 163.368 143.159 162.398 143.159 161.434V73.448C143.159 72.1588 144.129 71.5142 145.099 71.5142C146.069 71.5142 147.045 72.1588 147.045 73.448V161.434C147.045 162.398 146.069 163.368 145.099 163.368Z" fill="#50536E"/>
<mask id="mask1_451_211" style="mask-type:luminance" maskUnits="userSpaceOnUse" x="97" y="51" width="96" height="25">
<path d="M97.52 51.8506H192.667V75.0333H97.52V51.8506Z" fill="white"/>
</mask>
<g mask="url(#mask1_451_211)">
<path fill-rule="evenodd" clip-rule="evenodd" d="M190.094 74.4178C189.775 74.4178 189.124 74.0926 188.799 73.7732C177.15 62.1702 161.609 55.7241 145.099 55.7241C128.589 55.7241 113.055 62.1702 101.399 73.7732C100.429 74.4178 99.1344 74.4178 98.484 73.7732C97.8394 73.1286 97.8394 71.8393 98.484 71.1947C110.784 58.6219 127.619 51.8564 145.099 51.8564C162.579 51.8564 179.089 58.6219 191.714 71.1947C192.359 71.8393 192.359 73.1286 191.714 73.7732C191.064 74.0926 190.744 74.4178 190.094 74.4178Z" fill="#3ED899"/>
</g>
<path fill-rule="evenodd" clip-rule="evenodd" d="M107.549 144.349C108.519 145.319 109.169 146.608 110.139 147.572C110.784 146.928 112.404 145.964 113.055 145.639C121.144 141.451 132.799 138.873 145.099 138.873C157.399 138.873 168.729 141.451 176.824 145.639C177.15 145.964 178.764 146.608 180.059 147.572C181.029 146.608 181.679 145.319 182.324 144.349C181.029 143.705 179.089 142.415 178.445 142.096C169.705 137.584 157.724 135.005 145.099 135.005C132.474 135.005 120.174 137.584 111.759 142.096C110.784 142.415 108.519 143.705 107.874 144.349H107.549Z" fill="#50536E"/>
</svg>
