<svg width="159" height="159" viewBox="0 0 159 159" fill="none" xmlns="http://www.w3.org/2000/svg">
<path d="M50.1388 89.8391C49.8366 89.8391 49.5467 89.7811 49.2693 89.6652C48.9919 89.5534 48.7476 89.3878 48.5364 89.1766C48.3211 88.9613 48.1596 88.717 48.0437 88.4396C47.9277 88.1621 47.8698 87.8723 47.8698 87.57V76.6719C47.8698 76.3738 47.9277 76.0839 48.0437 75.8065C48.1596 75.5249 48.3211 75.2806 48.5364 75.0695C48.7476 74.8542 48.9919 74.6927 49.2693 74.5767C49.5467 74.4608 49.8366 74.4028 50.1388 74.4028C50.437 74.4028 50.7268 74.4608 51.0042 74.5767C51.2816 74.6927 51.5259 74.8542 51.7371 75.0695C51.9524 75.2806 52.1139 75.5249 52.2298 75.8065C52.3458 76.0839 52.4038 76.3738 52.4038 76.6719V87.57C52.4038 87.8723 52.3458 88.1621 52.2298 88.4396C52.1139 88.717 51.9524 88.9613 51.7371 89.1766C51.5259 89.3878 51.2816 89.5534 51.0042 89.6652C50.7268 89.7811 50.437 89.8391 50.1388 89.8391Z" fill="#101820"/>
<mask id="mask0_416_782" style="mask-type:luminance" maskUnits="userSpaceOnUse" x="29" y="39" width="24" height="25">
<path d="M29.68 39.874H53V63.5998H29.68V39.874Z" fill="white"/>
</mask>
<g mask="url(#mask0_416_782)">
<path d="M41.075 62.5978C40.3297 62.5978 39.5927 62.5274 38.8639 62.3825C38.1352 62.2335 37.4271 62.0181 36.7398 61.7366C36.0524 61.4509 35.3982 61.0989 34.7812 60.6849C34.1602 60.2708 33.5887 59.8029 33.0629 59.2729C32.537 58.747 32.0691 58.1756 31.6551 57.5546C31.241 56.9335 30.8932 56.2792 30.6075 55.5919C30.3218 54.9046 30.1065 54.1924 29.9616 53.4636C29.8166 52.7307 29.7462 51.9937 29.7462 51.2484C29.7462 50.5031 29.8166 49.766 29.9616 49.0331C30.1065 48.3044 30.3218 47.5922 30.6075 46.9049C30.8932 46.2175 31.241 45.5633 31.6551 44.9422C32.0691 44.3211 32.537 43.7497 33.0629 43.2238C33.5887 42.6938 34.1602 42.226 34.7812 41.8119C35.3982 41.3978 36.0524 41.0459 36.7398 40.7602C37.4271 40.4786 38.1352 40.2633 38.8639 40.1142C39.5927 39.9693 40.3297 39.8989 41.075 39.8989C41.8162 39.8989 42.5532 39.9693 43.2819 40.1142C44.0148 40.2633 44.7229 40.4786 45.4102 40.7602C46.0976 41.0459 46.7477 41.3978 47.3687 41.8119C47.9857 42.226 48.5571 42.6938 49.083 43.2238C49.6088 43.7497 50.0809 44.3211 50.4949 44.9422C50.9048 45.5633 51.2568 46.2175 51.5384 46.9049C51.8241 47.5922 52.0394 48.3044 52.1843 49.0331C52.3292 49.766 52.4037 50.5031 52.4037 51.2484C52.4037 51.9937 52.3292 52.7307 52.1843 53.4636C52.0394 54.1924 51.8241 54.9046 51.5384 55.5919C51.2568 56.2792 50.9048 56.9335 50.4949 57.5546C50.0809 58.1756 49.6088 58.747 49.083 59.2729C48.5571 59.8029 47.9857 60.2708 47.3687 60.6849C46.7477 61.0989 46.0976 61.4509 45.4102 61.7366C44.7229 62.0181 44.0148 62.2335 43.2819 62.3825C42.5532 62.5274 41.8162 62.5978 41.075 62.5978ZM41.075 44.4371C40.6278 44.4371 40.1848 44.4826 39.7459 44.5696C39.3111 44.6565 38.8846 44.7849 38.4747 44.9546C38.0606 45.1285 37.6673 45.3356 37.2987 45.584C36.9261 45.8324 36.5824 46.1181 36.2677 46.4328C35.953 46.7475 35.6715 47.0912 35.423 47.4638C35.1746 47.8365 34.9634 48.2299 34.7937 48.6439C34.6239 49.0538 34.4955 49.4803 34.4086 49.9192C34.3216 50.3581 34.2761 50.8012 34.2761 51.2484C34.2761 51.6956 34.3216 52.1386 34.4086 52.5775C34.4955 53.0164 34.6239 53.4429 34.7937 53.8528C34.9634 54.2669 35.1746 54.6603 35.423 55.0329C35.6715 55.4056 35.953 55.7492 36.2677 56.0639C36.5824 56.3786 36.9261 56.6643 37.2987 56.9128C37.6673 57.1612 38.0606 57.3682 38.4747 57.5421C38.8846 57.7119 39.3111 57.8403 39.7459 57.9272C40.1848 58.0142 40.6278 58.0597 41.075 58.0597C41.5222 58.0597 41.9611 58.0142 42.4 57.9272C42.8389 57.8403 43.2612 57.7119 43.6753 57.5421C44.0894 57.3682 44.4786 57.1612 44.8512 56.9128C45.2198 56.6643 45.5634 56.3786 45.8823 56.0639C46.1969 55.7492 46.4785 55.4056 46.7269 55.0329C46.9754 54.6603 47.1824 54.2669 47.3522 53.8528C47.5261 53.4429 47.6544 53.0164 47.7414 52.5775C47.8284 52.1386 47.8698 51.6956 47.8698 51.2484C47.8698 50.8012 47.8284 50.3581 47.7414 49.9192C47.6544 49.4803 47.5261 49.0538 47.3522 48.6439C47.1824 48.2299 46.9754 47.8365 46.7269 47.4638C46.4785 47.0912 46.1969 46.7475 45.8823 46.4328C45.5634 46.1181 45.2198 45.8324 44.8512 45.584C44.4786 45.3356 44.0894 45.1285 43.6753 44.9546C43.2612 44.7849 42.8389 44.6565 42.4 44.5696C41.9611 44.4826 41.5222 44.4371 41.075 44.4371Z" fill="#101820"/>
</g>
<path d="M22.9473 89.839C22.6492 89.839 22.3594 89.7811 22.082 89.6651C21.8045 89.5533 21.5602 89.3877 21.3449 89.1765C21.1337 88.9612 20.9681 88.7169 20.8563 88.4395C20.7404 88.1621 20.6824 87.8722 20.6824 87.57V74.8582C20.6824 68.5935 26.5745 63.5088 33.8248 63.5088H48.3252C55.5755 63.5088 61.4676 68.5935 61.4676 74.8582V83.5743C61.4676 83.8765 61.4096 84.1664 61.2937 84.4438C61.1777 84.7212 61.0163 84.9655 60.8009 85.1808C60.5898 85.392 60.3455 85.5576 60.068 85.6736C59.7906 85.7854 59.5008 85.8433 59.1985 85.8433C58.9004 85.8433 58.6105 85.7854 58.3331 85.6736C58.0557 85.5576 57.8114 85.392 57.5961 85.1808C57.3849 84.9655 57.2234 84.7212 57.1075 84.4438C56.9916 84.1664 56.9336 83.8765 56.9336 83.5743V74.8582C56.9336 71.111 53.0828 68.0469 48.3252 68.0469H33.8248C29.0672 68.0469 25.2123 71.111 25.2123 74.8582V87.57C25.2123 87.8722 25.1543 88.1621 25.0425 88.4395C24.9266 88.7169 24.7609 88.9612 24.5498 89.1765C24.3386 89.3877 24.0943 89.5533 23.8169 89.6651C23.5353 89.7811 23.2496 89.839 22.9473 89.839Z" fill="#101820"/>
<path d="M32.0112 89.8391C31.7089 89.8391 31.4232 89.7811 31.1458 89.6652C30.8642 89.5534 30.6199 89.3878 30.4087 89.1766C30.1976 88.9613 30.0319 88.717 29.916 88.4396C29.8042 88.1621 29.7462 87.8723 29.7462 87.57V76.6719C29.7462 76.3738 29.8042 76.0839 29.916 75.8065C30.0319 75.5249 30.1976 75.2806 30.4087 75.0695C30.6199 74.8542 30.8642 74.6927 31.1458 74.5767C31.4232 74.4608 31.7089 74.4028 32.0112 74.4028C32.3093 74.4028 32.5991 74.4608 32.8766 74.5767C33.154 74.6927 33.4024 74.8542 33.6136 75.0695C33.8248 75.2806 33.9904 75.5249 34.1022 75.8065C34.2181 76.0839 34.2761 76.3738 34.2761 76.6719V87.57C34.2761 87.8723 34.2181 88.1621 34.1022 88.4396C33.9904 88.717 33.8248 88.9613 33.6136 89.1766C33.4024 89.3878 33.154 89.5534 32.8766 89.6652C32.5991 89.7811 32.3093 89.8391 32.0112 89.8391Z" fill="#101820"/>
<path d="M127.171 89.8391C126.873 89.8391 126.583 89.7811 126.306 89.6652C126.028 89.5534 125.784 89.3878 125.569 89.1766C125.357 88.9613 125.196 88.717 125.08 88.4396C124.964 88.1621 124.906 87.8723 124.906 87.57V76.6719C124.906 76.3738 124.964 76.0839 125.08 75.8065C125.196 75.5249 125.357 75.2806 125.569 75.0695C125.784 74.8542 126.028 74.6927 126.306 74.5767C126.583 74.4608 126.873 74.4028 127.171 74.4028C127.473 74.4028 127.763 74.4608 128.041 74.5767C128.318 74.6927 128.562 74.8542 128.773 75.0695C128.989 75.2806 129.15 75.5249 129.266 75.8065C129.382 76.0839 129.44 76.3738 129.44 76.6719V87.57C129.44 87.8723 129.382 88.1621 129.266 88.4396C129.15 88.717 128.989 88.9613 128.773 89.1766C128.562 89.3878 128.318 89.5534 128.041 89.6652C127.763 89.7811 127.473 89.8391 127.171 89.8391Z" fill="#101820"/>
<mask id="mask1_416_782" style="mask-type:luminance" maskUnits="userSpaceOnUse" x="106" y="39" width="25" height="25">
<path d="M106 39.874H130.38V63.5998H106V39.874Z" fill="white"/>
</mask>
<g mask="url(#mask1_416_782)">
<path d="M118.111 62.5978C117.366 62.5978 116.629 62.5274 115.9 62.3825C115.171 62.2335 114.459 62.0181 113.776 61.7366C113.089 61.4509 112.435 61.0989 111.813 60.6849C111.196 60.2708 110.625 59.8029 110.099 59.2729C109.573 58.747 109.101 58.1756 108.691 57.5546C108.277 56.9335 107.93 56.2792 107.644 55.5919C107.358 54.9046 107.143 54.1924 106.998 53.4636C106.853 52.7307 106.783 51.9937 106.783 51.2484C106.783 50.5031 106.853 49.766 106.998 49.0331C107.143 48.3044 107.358 47.5922 107.644 46.9049C107.93 46.2175 108.277 45.5633 108.691 44.9422C109.101 44.3211 109.573 43.7497 110.099 43.2238C110.625 42.6938 111.196 42.226 111.813 41.8119C112.435 41.3978 113.089 41.0459 113.776 40.7602C114.459 40.4786 115.171 40.2633 115.9 40.1142C116.629 39.9693 117.366 39.8989 118.111 39.8989C118.852 39.8989 119.59 39.9693 120.318 40.1142C121.047 40.2633 121.759 40.4786 122.447 40.7602C123.134 41.0459 123.784 41.3978 124.405 41.8119C125.022 42.226 125.593 42.6938 126.119 43.2238C126.645 43.7497 127.117 44.3211 127.527 44.9422C127.941 45.5633 128.293 46.2175 128.575 46.9049C128.86 47.5922 129.076 48.3044 129.221 49.0331C129.366 49.766 129.44 50.5031 129.44 51.2484C129.44 51.9937 129.366 52.7307 129.221 53.4636C129.076 54.1924 128.86 54.9046 128.575 55.5919C128.293 56.2792 127.941 56.9335 127.527 57.5546C127.117 58.1756 126.645 58.747 126.119 59.2729C125.593 59.8029 125.022 60.2708 124.405 60.6849C123.784 61.0989 123.134 61.4509 122.447 61.7366C121.759 62.0181 121.047 62.2335 120.318 62.3825C119.59 62.5274 118.852 62.5978 118.111 62.5978ZM118.111 44.4371C117.664 44.4371 117.221 44.4826 116.782 44.5696C116.347 44.6565 115.921 44.7849 115.507 44.9546C115.097 45.1285 114.704 45.3356 114.335 45.584C113.962 45.8324 113.619 46.1181 113.304 46.4328C112.989 46.7475 112.704 47.0912 112.459 47.4638C112.211 47.8365 112 48.2299 111.83 48.6439C111.66 49.0538 111.532 49.4803 111.441 49.9192C111.354 50.3581 111.312 50.8012 111.312 51.2484C111.312 51.6956 111.354 52.1386 111.441 52.5775C111.532 53.0164 111.66 53.4429 111.83 53.8528C112 54.2669 112.211 54.6603 112.459 55.0329C112.704 55.4056 112.989 55.7492 113.304 56.0639C113.619 56.3786 113.962 56.6643 114.335 56.9128C114.704 57.1612 115.097 57.3682 115.507 57.5421C115.921 57.7119 116.347 57.8403 116.782 57.9272C117.221 58.0142 117.664 58.0597 118.111 58.0597C118.554 58.0597 118.997 58.0142 119.436 57.9272C119.875 57.8403 120.298 57.7119 120.712 57.5421C121.122 57.3682 121.515 57.1612 121.888 56.9128C122.256 56.6643 122.6 56.3786 122.914 56.0639C123.233 55.7492 123.515 55.4056 123.759 55.0329C124.008 54.6603 124.219 54.2669 124.389 53.8528C124.558 53.4429 124.691 53.0164 124.778 52.5775C124.865 52.1386 124.906 51.6956 124.906 51.2484C124.906 50.8012 124.865 50.3581 124.778 49.9192C124.691 49.4803 124.558 49.0538 124.389 48.6439C124.219 48.2299 124.008 47.8365 123.759 47.4638C123.515 47.0912 123.233 46.7475 122.914 46.4328C122.6 46.1181 122.256 45.8324 121.888 45.584C121.515 45.3356 121.122 45.1285 120.712 44.9546C120.298 44.7849 119.875 44.6565 119.436 44.5696C118.997 44.4826 118.554 44.4371 118.111 44.4371Z" fill="#101820"/>
</g>
<path d="M136.235 89.839C135.937 89.839 135.647 89.7811 135.369 89.6651C135.092 89.5533 134.848 89.3877 134.632 89.1765C134.421 88.9612 134.256 88.7169 134.144 88.4395C134.028 88.1621 133.97 87.8722 133.97 87.57V74.8582C133.97 71.111 130.119 68.0469 125.362 68.0469H110.857C106.099 68.0469 102.249 71.111 102.249 74.8582V83.5743C102.249 83.8765 102.191 84.1664 102.075 84.4438C101.963 84.7212 101.797 84.9655 101.586 85.1808C101.375 85.392 101.126 85.5576 100.849 85.6736C100.572 85.7854 100.282 85.8433 99.9837 85.8433C99.6814 85.8433 99.3957 85.7854 99.1183 85.6736C98.8367 85.5576 98.5924 85.392 98.3813 85.1808C98.1701 84.9655 98.0045 84.7212 97.8885 84.4438C97.7767 84.1664 97.7188 83.8765 97.7188 83.5743V74.8582C97.7188 68.5935 103.607 63.5088 110.857 63.5088H125.362C132.612 63.5088 138.5 68.5935 138.5 74.8582V87.57C138.5 87.8722 138.442 88.1621 138.33 88.4395C138.214 88.7169 138.048 88.9612 137.837 89.1765C137.626 89.3877 137.382 89.5533 137.104 89.6651C136.823 89.7811 136.537 89.839 136.235 89.839Z" fill="#101820"/>
<path d="M109.047 89.8391C108.745 89.8391 108.455 89.7811 108.178 89.6652C107.901 89.5534 107.656 89.3878 107.445 89.1766C107.23 88.9613 107.068 88.717 106.952 88.4396C106.836 88.1621 106.783 87.8723 106.783 87.57V76.6719C106.783 76.3738 106.836 76.0839 106.952 75.8065C107.068 75.5249 107.23 75.2806 107.445 75.0695C107.656 74.8542 107.901 74.6927 108.178 74.5767C108.455 74.4608 108.745 74.4028 109.047 74.4028C109.346 74.4028 109.635 74.4608 109.913 74.5767C110.19 74.6927 110.435 74.8542 110.65 75.0695C110.861 75.2806 111.027 75.5249 111.139 75.8065C111.254 76.0839 111.312 76.3738 111.312 76.6719V87.57C111.312 87.8723 111.254 88.1621 111.139 88.4396C111.027 88.717 110.861 88.9613 110.65 89.1766C110.435 89.3878 110.19 89.5534 109.913 89.6652C109.635 89.7811 109.346 89.8391 109.047 89.8391Z" fill="#101820"/>
<path d="M79.5911 73.9472C78.7009 73.9472 77.8148 73.8603 76.9411 73.6864C76.0633 73.5125 75.2145 73.2557 74.3905 72.9121C73.5665 72.5684 72.7798 72.1502 72.0386 71.6533C71.2974 71.1564 70.6101 70.5933 69.9807 69.9598C69.3472 69.3263 68.7841 68.6389 68.2872 67.8978C67.7903 67.1525 67.3721 66.3657 67.0326 65.5418C66.6889 64.7136 66.4322 63.8648 66.2583 62.987C66.0844 62.1092 65.9974 61.2231 65.9974 60.3287C65.9974 59.4343 66.0844 58.5482 66.2583 57.6704C66.4322 56.7926 66.6889 55.9438 67.0326 55.1157C67.3721 54.2917 67.7903 53.505 68.2872 52.7596C68.7841 52.0185 69.3472 51.3311 69.9807 50.6976C70.6101 50.0641 71.2974 49.501 72.0386 49.0041C72.7798 48.5072 73.5665 48.089 74.3905 47.7454C75.2145 47.4017 76.0633 47.145 76.9411 46.9711C77.8148 46.7971 78.7009 46.7061 79.5911 46.7061C80.4855 46.7061 81.3674 46.7971 82.2452 46.9711C83.1189 47.145 83.9677 47.4017 84.7959 47.7454C85.6198 48.089 86.4024 48.5072 87.1436 49.0041C87.8848 49.501 88.5721 50.0641 89.2056 50.6976C89.835 51.3311 90.3981 52.0185 90.895 52.7596C91.3919 53.505 91.8101 54.2917 92.1496 55.1157C92.4933 55.9438 92.75 56.7926 92.9239 57.6704C93.0978 58.5482 93.1848 59.4343 93.1848 60.3287C93.1848 61.2231 93.0978 62.1092 92.9239 62.987C92.75 63.8648 92.4933 64.7136 92.1496 65.5418C91.8101 66.3657 91.3919 67.1525 90.895 67.8978C90.3981 68.6389 89.835 69.3263 89.2056 69.9598C88.5721 70.5933 87.8848 71.1564 87.1436 71.6533C86.4024 72.1502 85.6198 72.5684 84.7959 72.9121C83.9677 73.2557 83.1189 73.5125 82.2452 73.6864C81.3674 73.8603 80.4855 73.9472 79.5911 73.9472ZM79.5911 51.2483C78.9948 51.2483 78.4069 51.3063 77.823 51.4222C77.2392 51.5382 76.672 51.7121 76.1254 51.9398C75.5747 52.1675 75.053 52.4491 74.5561 52.7804C74.0634 53.1116 73.6038 53.4843 73.1814 53.9066C72.7632 54.3289 72.3864 54.7886 72.0552 55.2854C71.7239 55.7782 71.4465 56.304 71.2187 56.8547C70.991 57.4054 70.8171 57.9727 70.7012 58.5565C70.5852 59.1404 70.5273 59.7325 70.5273 60.3287C70.5273 60.925 70.5852 61.5171 70.7012 62.1009C70.8171 62.6847 70.991 63.252 71.2187 63.8027C71.4465 64.3534 71.7239 64.8793 72.0552 65.372C72.3864 65.8689 72.7632 66.3285 73.1814 66.7508C73.6038 67.169 74.0634 67.5458 74.5561 67.8771C75.053 68.2083 75.5747 68.4899 76.1254 68.7176C76.672 68.9454 77.2392 69.1193 77.823 69.2352C78.4069 69.3511 78.9948 69.4091 79.5911 69.4091C80.1873 69.4091 80.7753 69.3511 81.3591 69.2352C81.943 69.1193 82.5102 68.9454 83.0609 68.7176C83.6116 68.4899 84.1334 68.2083 84.6261 67.8771C85.123 67.5458 85.5784 67.169 86.0008 66.7508C86.419 66.3285 86.7958 65.8689 87.127 65.372C87.4583 64.8793 87.7357 64.3534 87.9634 63.8027C88.1912 63.252 88.3651 62.6847 88.481 62.1009C88.597 61.5171 88.6549 60.925 88.6549 60.3287C88.6549 59.7325 88.597 59.1404 88.481 58.5565C88.3651 57.9727 88.1912 57.4054 87.9634 56.8547C87.7357 56.304 87.4583 55.7782 87.127 55.2854C86.7958 54.7886 86.419 54.3289 86.0008 53.9066C85.5784 53.4843 85.123 53.1116 84.6261 52.7804C84.1334 52.4491 83.6116 52.1675 83.0609 51.9398C82.5102 51.7121 81.943 51.5382 81.3591 51.4222C80.7753 51.3063 80.1873 51.2483 79.5911 51.2483Z" fill="#101820"/>
<path d="M102.249 108C101.95 108 101.661 107.942 101.383 107.826C101.106 107.714 100.861 107.549 100.646 107.338C100.435 107.122 100.269 106.878 100.158 106.6C100.042 106.323 99.9837 106.033 99.9837 105.731V89.8392C99.9837 84.8249 94.9073 80.7588 88.6549 80.7588H70.5273C64.2749 80.7588 59.1985 84.8249 59.1985 89.8392V105.731C59.1985 106.033 59.1405 106.323 59.0287 106.6C58.9128 106.878 58.7472 107.122 58.536 107.338C58.3248 107.549 58.0805 107.714 57.8031 107.826C57.5216 107.942 57.2359 108 56.9336 108C56.6355 108 56.3456 107.942 56.0682 107.826C55.7908 107.714 55.5465 107.549 55.3312 107.338C55.12 107.122 54.9544 106.878 54.8426 106.6C54.7266 106.323 54.6687 106.033 54.6687 105.731V89.8392C54.6687 82.324 61.7823 76.2207 70.5273 76.2207H88.6549C97.3999 76.2207 104.514 82.324 104.514 89.8392V105.731C104.514 106.033 104.456 106.323 104.344 106.6C104.228 106.878 104.062 107.122 103.851 107.338C103.64 107.549 103.396 107.714 103.118 107.826C102.837 107.942 102.551 108 102.249 108Z" fill="#101820"/>
<path d="M65.9974 108C65.6952 108 65.4095 107.942 65.132 107.826C64.8505 107.714 64.6062 107.549 64.395 107.338C64.1838 107.122 64.0182 106.878 63.9023 106.601C63.7905 106.323 63.7325 106.033 63.7325 105.731V92.1084C63.7325 91.8103 63.7905 91.5204 63.9023 91.243C64.0182 90.9615 64.1838 90.7172 64.395 90.506C64.6062 90.2907 64.8505 90.1292 65.132 90.0133C65.4095 89.8973 65.6952 89.8394 65.9974 89.8394C66.2955 89.8394 66.5854 89.8973 66.8628 90.0133C67.1402 90.1292 67.3887 90.2907 67.5998 90.506C67.811 90.7172 67.9766 90.9615 68.0884 91.243C68.2044 91.5204 68.2623 91.8103 68.2623 92.1084V105.731C68.2623 106.033 68.2044 106.323 68.0884 106.601C67.9766 106.878 67.811 107.122 67.5998 107.338C67.3887 107.549 67.1402 107.714 66.8628 107.826C66.5854 107.942 66.2955 108 65.9974 108Z" fill="#101820"/>
<path d="M93.1848 108C92.8866 108 92.5968 107.942 92.3194 107.826C92.042 107.714 91.7977 107.549 91.5823 107.338C91.3712 107.122 91.2097 106.878 91.0938 106.601C90.9778 106.323 90.9198 106.033 90.9198 105.731V92.1084C90.9198 91.8103 90.9778 91.5204 91.0938 91.243C91.2097 90.9615 91.3712 90.7172 91.5823 90.506C91.7977 90.2907 92.042 90.1292 92.3194 90.0133C92.5968 89.8973 92.8866 89.8394 93.1848 89.8394C93.487 89.8394 93.7769 89.8973 94.0543 90.0133C94.3317 90.1292 94.576 90.2907 94.7872 90.506C95.0025 90.7172 95.164 90.9615 95.2799 91.243C95.3959 91.5204 95.4538 91.8103 95.4538 92.1084V105.731C95.4538 106.033 95.3959 106.323 95.2799 106.601C95.164 106.878 95.0025 107.122 94.7872 107.338C94.576 107.549 94.3317 107.714 94.0543 107.826C93.7769 107.942 93.487 108 93.1848 108Z" fill="#101820"/>
<mask id="mask2_416_782" style="mask-type:luminance" maskUnits="userSpaceOnUse" x="11" y="80" width="137" height="40">
<path d="M11.6186 80.5601H147.564V119.374H11.6186V80.5601Z" fill="white"/>
</mask>
<g mask="url(#mask2_416_782)">
<path d="M79.5911 119.35C58.9294 119.35 43.3399 112.542 43.3399 103.462C43.3399 102.684 43.46 101.93 43.7002 101.189H41.075C26.7981 101.189 11.6186 96.6506 11.6186 88.0257C11.6641 87.2763 11.8049 86.5434 12.0327 85.8271C12.2604 85.1107 12.5709 84.4358 12.9643 83.7981C13.3618 83.1605 13.8297 82.5808 14.368 82.0591C14.9062 81.5374 15.5025 81.0902 16.1526 80.7134L18.7322 84.4358C17.8047 85.119 16.1526 86.4357 16.1526 88.0257C16.1526 91.6322 25.6222 96.6506 41.075 96.6506C43.2778 96.6589 45.4765 96.5471 47.6669 96.3111C48.1389 96.2614 48.582 96.3484 48.996 96.5803C49.4101 96.808 49.7206 97.1351 49.9318 97.5574C50.1223 97.9756 50.1844 98.4146 50.1098 98.87C50.0353 99.3255 49.8407 99.7188 49.526 100.054C48.5033 100.961 47.9526 102.096 47.8698 103.462C47.8698 108.82 61.4676 114.811 79.5911 114.811C97.7188 114.811 111.312 108.82 111.312 103.462C111.234 102.096 110.683 100.961 109.656 100.054C109.321 99.7147 109.11 99.3048 109.031 98.8286C108.952 98.3566 109.019 97.9011 109.23 97.4663C109.437 97.044 109.751 96.7169 110.165 96.4892C110.58 96.2573 111.023 96.1703 111.495 96.22C113.689 96.485 115.896 96.6299 118.111 96.6506C133.56 96.6506 143.034 91.6322 143.034 88.0257C143.034 86.5268 141.378 85.119 140.384 84.4358L143.034 80.7134C143.684 81.0902 144.276 81.5374 144.814 82.0591C145.357 82.5808 145.82 83.1605 146.218 83.7981C146.611 84.4358 146.926 85.1107 147.154 85.8271C147.381 86.5434 147.518 87.2763 147.564 88.0257C147.564 96.5803 132.384 101.189 118.111 101.189H115.482C115.722 101.93 115.842 102.684 115.842 103.462C115.842 112.518 100.257 119.35 79.5911 119.35Z" fill="#101820"/>
</g>
</svg>
