<svg width="166" height="167" viewBox="0 0 166 167" fill="none" xmlns="http://www.w3.org/2000/svg">
<path d="M41.8199 97.2253C42.719 97.2253 43.6096 97.134 44.4914 96.96C45.3733 96.7817 46.2293 96.5207 47.0593 96.1728C47.8893 95.8249 48.6803 95.3987 49.4282 94.8942C50.1761 94.3898 50.8677 93.8157 51.5032 93.172C52.1387 92.5284 52.705 91.8326 53.2064 91.0759C53.7036 90.3191 54.1272 89.5233 54.4731 88.6839C54.8146 87.8446 55.0739 86.9791 55.2512 86.0876C55.4241 85.1961 55.5149 84.2958 55.5149 83.3869C55.5149 82.478 55.4241 81.5821 55.2512 80.6905C55.0739 79.799 54.8146 78.9336 54.4731 78.0942C54.1272 77.2549 53.7036 76.459 53.2064 75.7023C52.705 74.9456 52.1387 74.2454 51.5032 73.6061C50.8677 72.9624 50.1761 72.3884 49.4282 71.8839C48.6803 71.3794 47.8893 70.9532 47.0593 70.6053C46.2293 70.2574 45.3733 69.9964 44.4914 69.8181C43.6096 69.6398 42.719 69.5529 41.8199 69.5529C40.9207 69.5529 40.0302 69.6398 39.1483 69.8181C38.2664 69.9964 37.4105 70.2574 36.5762 70.6053C35.7462 70.9532 34.9594 71.3794 34.2115 71.8839C33.4637 72.3884 32.772 72.9624 32.1365 73.6061C31.4968 74.2454 30.9305 74.9456 30.4333 75.7023C29.9319 76.459 29.5082 77.2549 29.1667 78.0942C28.8209 78.9336 28.5615 79.799 28.3886 80.6905C28.2113 81.5821 28.1249 82.478 28.1249 83.3869C28.1249 84.2958 28.2113 85.1961 28.3886 86.0876C28.5615 86.9791 28.8209 87.8446 29.1667 88.6839C29.5082 89.5233 29.9319 90.3191 30.4333 91.0759C30.9305 91.8326 31.4968 92.5284 32.1365 93.172C32.772 93.8157 33.4637 94.3898 34.2115 94.8942C34.9594 95.3987 35.7462 95.8249 36.5762 96.1728C37.4105 96.5207 38.2664 96.7817 39.1483 96.96C40.0302 97.134 40.9207 97.2253 41.8199 97.2253ZM41.8199 74.1628C42.4164 74.1628 43.013 74.2236 43.6009 74.3411C44.1888 74.4585 44.7595 74.6368 45.3128 74.8673C45.8661 75.0978 46.3935 75.3805 46.8907 75.7197C47.3878 76.0545 47.8503 76.4373 48.274 76.8678C48.6976 77.294 49.0781 77.7593 49.4109 78.2638C49.7438 78.7683 50.0248 79.2989 50.2539 79.8599C50.483 80.4166 50.6559 80.995 50.7726 81.5908C50.8894 82.1822 50.9499 82.7824 50.9499 83.3869C50.9499 83.9957 50.8894 84.5959 50.7726 85.1874C50.6559 85.7832 50.483 86.3572 50.2539 86.9182C50.0248 87.4793 49.7438 88.0098 49.4109 88.5143C49.0781 89.0144 48.6976 89.4841 48.274 89.9103C47.8503 90.3409 47.3878 90.7192 46.8907 91.0585C46.3935 91.3933 45.8661 91.6804 45.3128 91.9109C44.7595 92.1413 44.1888 92.3153 43.6009 92.4371C43.013 92.5545 42.4164 92.611 41.8199 92.611C41.219 92.611 40.6268 92.5545 40.0388 92.4371C39.4509 92.3153 38.8803 92.1413 38.3226 91.9109C37.7693 91.6804 37.2462 91.3933 36.7448 91.0585C36.2476 90.7192 35.7851 90.3409 35.3614 89.9103C34.9378 89.4841 34.5617 89.0144 34.2288 88.5143C33.896 88.0098 33.615 87.4793 33.3815 86.9182C33.1524 86.3572 32.9795 85.7832 32.8628 85.1874C32.7461 84.5959 32.6899 83.9957 32.6899 83.3869C32.6899 82.7824 32.7461 82.1822 32.8628 81.5908C32.9795 80.995 33.1524 80.4166 33.3815 79.8599C33.615 79.2989 33.896 78.7683 34.2288 78.2638C34.5617 77.7593 34.9378 77.294 35.3614 76.8678C35.7851 76.4373 36.2476 76.0545 36.7448 75.7197C37.2462 75.3805 37.7693 75.0978 38.3226 74.8673C38.8803 74.6368 39.4509 74.4585 40.0388 74.3411C40.6268 74.2236 41.219 74.1628 41.8199 74.1628Z" fill="#101820"/>
<path d="M123.99 97.2253C124.889 97.2253 125.78 97.134 126.661 96.96C127.543 96.7817 128.399 96.5207 129.229 96.1728C130.059 95.8249 130.85 95.3987 131.598 94.8942C132.346 94.3898 133.038 93.8157 133.673 93.172C134.309 92.5284 134.875 91.8326 135.376 91.0759C135.874 90.3191 136.297 89.5233 136.643 88.6839C136.985 87.8446 137.244 86.9791 137.421 86.0876C137.594 85.1961 137.685 84.2958 137.685 83.3869C137.685 82.478 137.594 81.5821 137.421 80.6905C137.244 79.799 136.985 78.9336 136.643 78.0942C136.297 77.2549 135.874 76.459 135.376 75.7023C134.875 74.9456 134.309 74.2454 133.673 73.6061C133.038 72.9624 132.346 72.3884 131.598 71.8839C130.85 71.3794 130.059 70.9532 129.229 70.6053C128.399 70.2574 127.543 69.9964 126.661 69.8181C125.78 69.6398 124.889 69.5529 123.99 69.5529C123.091 69.5529 122.2 69.6398 121.318 69.8181C120.436 69.9964 119.581 70.2574 118.746 70.6053C117.916 70.9532 117.129 71.3794 116.382 71.8839C115.634 72.3884 114.942 72.9624 114.307 73.6061C113.667 74.2454 113.1 74.9456 112.603 75.7023C112.102 76.459 111.678 77.2549 111.337 78.0942C110.991 78.9336 110.732 79.799 110.559 80.6905C110.381 81.5821 110.295 82.478 110.295 83.3869C110.295 84.2958 110.381 85.1961 110.559 86.0876C110.732 86.9791 110.991 87.8446 111.337 88.6839C111.678 89.5233 112.102 90.3191 112.603 91.0759C113.1 91.8326 113.667 92.5284 114.307 93.172C114.942 93.8157 115.634 94.3898 116.382 94.8942C117.129 95.3987 117.916 95.8249 118.746 96.1728C119.581 96.5207 120.436 96.7817 121.318 96.96C122.2 97.134 123.091 97.2253 123.99 97.2253ZM123.99 74.1628C124.586 74.1628 125.183 74.2236 125.771 74.3411C126.359 74.4585 126.93 74.6368 127.483 74.8673C128.036 75.0978 128.564 75.3805 129.061 75.7197C129.558 76.0545 130.02 76.4373 130.444 76.8678C130.868 77.294 131.248 77.7593 131.581 78.2638C131.914 78.7683 132.195 79.2989 132.424 79.8599C132.653 80.4166 132.826 80.995 132.943 81.5908C133.059 82.1822 133.12 82.7824 133.12 83.3869C133.12 83.9957 133.059 84.5959 132.943 85.1874C132.826 85.7832 132.653 86.3572 132.424 86.9182C132.195 87.4793 131.914 88.0098 131.581 88.5143C131.248 89.0144 130.868 89.4841 130.444 89.9103C130.02 90.3409 129.558 90.7192 129.061 91.0585C128.564 91.3933 128.036 91.6804 127.483 91.9109C126.93 92.1413 126.359 92.3153 125.771 92.4371C125.183 92.5545 124.586 92.611 123.99 92.611C123.389 92.611 122.797 92.5545 122.209 92.4371C121.621 92.3153 121.05 92.1413 120.493 91.9109C119.939 91.6804 119.416 91.3933 118.915 91.0585C118.418 90.7192 117.955 90.3409 117.531 89.9103C117.108 89.4841 116.732 89.0144 116.399 88.5143C116.066 88.0098 115.785 87.4793 115.552 86.9182C115.322 86.3572 115.15 85.7832 115.033 85.1874C114.916 84.5959 114.86 83.9957 114.86 83.3869C114.86 82.7824 114.916 82.1822 115.033 81.5908C115.15 80.995 115.322 80.4166 115.552 79.8599C115.785 79.2989 116.066 78.7683 116.399 78.2638C116.732 77.7593 117.108 77.294 117.531 76.8678C117.955 76.4373 118.418 76.0545 118.915 75.7197C119.416 75.3805 119.939 75.0978 120.493 74.8673C121.05 74.6368 121.621 74.4585 122.209 74.3411C122.797 74.2236 123.389 74.1628 123.99 74.1628Z" fill="#101820"/>
<mask id="mask0_416_620" style="mask-type:luminance" maskUnits="userSpaceOnUse" x="9" y="99" width="147" height="45">
<path d="M9.86487 99.0867H155.945V143.62H9.86487V99.0867Z" fill="white"/>
</mask>
<g mask="url(#mask0_416_620)">
<path d="M153.662 138.732H147.498C148.54 137.375 149.076 135.84 149.097 134.122V113.364C149.097 105.732 141.93 99.5303 133.12 99.5303H114.86C106.962 99.5303 100.387 104.536 99.1331 111.059H89.7524C89.0088 111.055 88.4079 111.346 87.9497 111.938C87.4915 112.529 87.3531 113.19 87.539 113.921L93.6776 138.732H72.1322L78.3399 113.921C78.5214 113.19 78.3831 112.529 77.9292 111.938C77.4493 111.325 76.8269 111.033 76.0574 111.059H66.6766C65.4187 104.536 58.8478 99.5303 50.9499 99.5303H32.6899C23.8798 99.5303 16.7124 105.732 16.7124 113.364V134.122C16.734 135.84 17.2657 137.375 18.3075 138.732H12.1474C11.8448 138.732 11.5508 138.788 11.2741 138.906C10.9932 139.023 10.7467 139.193 10.5306 139.406C10.3188 139.623 10.1545 139.871 10.0378 140.154C9.92107 140.437 9.86487 140.732 9.86487 141.037C9.86487 141.346 9.92107 141.637 10.0378 141.92C10.1545 142.202 10.3188 142.45 10.5306 142.668C10.7467 142.885 10.9932 143.05 11.2741 143.168C11.5508 143.285 11.8448 143.342 12.1474 143.342H153.662C153.965 143.342 154.255 143.285 154.536 143.168C154.812 143.05 155.063 142.885 155.275 142.668C155.491 142.45 155.655 142.202 155.772 141.92C155.884 141.637 155.945 141.346 155.945 141.037C155.945 140.732 155.884 140.437 155.772 140.154C155.655 139.871 155.491 139.623 155.275 139.406C155.063 139.193 154.812 139.023 154.536 138.906C154.255 138.788 153.965 138.732 153.662 138.732ZM48.6674 138.732H28.1249C24.4028 138.732 21.2774 136.609 21.2774 134.122V113.364C21.2774 108.272 26.3871 104.14 32.6899 104.14H50.9499C52.1084 104.075 53.2497 104.184 54.3736 104.475C55.4976 104.762 56.5524 105.219 57.538 105.836C58.5236 106.454 59.3925 107.211 60.1447 108.102C60.8969 108.994 61.4978 109.981 61.9517 111.059H44.1024C43.8387 111.051 43.5879 111.09 43.3372 111.168C43.0908 111.251 42.8617 111.368 42.6542 111.529C42.4467 111.69 42.2695 111.877 42.1268 112.099C41.9841 112.321 41.8804 112.555 41.8199 112.812L37.7563 129.508H32.6899V122.588C32.6899 122.284 32.6293 121.988 32.517 121.706C32.4002 121.423 32.236 121.175 32.0198 120.958C31.808 120.744 31.5573 120.575 31.2806 120.457C30.9996 120.344 30.71 120.284 30.4074 120.284C30.1048 120.284 29.8108 120.344 29.5341 120.457C29.2531 120.575 29.0067 120.744 28.7906 120.958C28.5788 121.175 28.4145 121.423 28.2978 121.706C28.1811 121.988 28.1249 122.284 28.1249 122.588V131.813C28.1249 132.121 28.1811 132.413 28.2978 132.695C28.4145 132.978 28.5788 133.23 28.7906 133.443C29.0067 133.661 29.2531 133.826 29.5341 133.944C29.8108 134.061 30.1048 134.122 30.4074 134.122H55.1258C54.888 134.796 54.5595 135.418 54.1315 135.988C53.7036 136.557 53.2021 137.049 52.6228 137.462C52.0436 137.875 51.4167 138.193 50.7424 138.406C50.068 138.623 49.3763 138.732 48.6674 138.732ZM67.4288 138.732H57.7974C58.5409 137.736 59.1115 136.649 59.5006 135.461C59.894 134.278 60.0842 133.061 60.0799 131.813C60.0799 131.508 60.0193 131.212 59.907 130.93C59.7902 130.647 59.626 130.399 59.4098 130.182C59.198 129.969 58.9473 129.799 58.6706 129.682C58.3896 129.569 58.1 129.508 57.7974 129.508H42.4597L45.8834 115.674H73.1351L67.4288 138.732ZM98.3809 138.732L92.6747 115.674H119.926L123.35 129.508H108.012C107.71 129.508 107.416 129.569 107.139 129.682C106.858 129.799 106.612 129.969 106.396 130.182C106.184 130.399 106.02 130.647 105.903 130.93C105.786 131.212 105.73 131.508 105.73 131.813C105.721 133.061 105.916 134.278 106.305 135.461C106.694 136.649 107.265 137.736 108.012 138.732H98.3809ZM144.532 134.122C144.532 136.609 141.403 138.732 137.685 138.732H117.142C116.433 138.732 115.742 138.623 115.067 138.406C114.389 138.193 113.762 137.875 113.187 137.462C112.608 137.049 112.106 136.557 111.678 135.988C111.25 135.418 110.917 134.796 110.68 134.122H135.402C135.705 134.122 135.995 134.061 136.276 133.944C136.552 133.826 136.803 133.661 137.015 133.443C137.231 133.23 137.395 132.978 137.512 132.695C137.624 132.413 137.685 132.121 137.685 131.813V122.588C137.685 122.284 137.624 121.988 137.512 121.706C137.395 121.423 137.231 121.175 137.015 120.958C136.803 120.744 136.552 120.575 136.276 120.457C135.995 120.344 135.705 120.284 135.402 120.284C135.1 120.284 134.806 120.344 134.529 120.457C134.248 120.575 134.002 120.744 133.786 120.958C133.574 121.175 133.41 121.423 133.293 121.706C133.176 121.988 133.12 122.284 133.12 122.588V129.508H128.053L123.99 112.812C123.925 112.555 123.821 112.321 123.679 112.099C123.536 111.877 123.363 111.69 123.156 111.529C122.948 111.368 122.719 111.251 122.468 111.168C122.222 111.09 121.967 111.051 121.707 111.059H103.858C104.308 109.981 104.909 108.994 105.665 108.102C106.417 107.211 107.286 106.454 108.272 105.836C109.257 105.219 110.312 104.762 111.436 104.475C112.56 104.184 113.701 104.075 114.86 104.14H133.12C139.418 104.14 144.532 108.272 144.532 113.364V134.122Z" fill="#101820"/>
</g>
<path d="M113.74 44.1854C113.74 43.5069 113.706 42.8285 113.641 42.1544C113.576 41.476 113.477 40.8062 113.347 40.1365C113.213 39.4711 113.053 38.8144 112.854 38.1621C112.66 37.5097 112.435 36.8704 112.175 36.2442C111.92 35.6179 111.631 35.0047 111.315 34.4046C111 33.8044 110.654 33.2216 110.278 32.6563C109.906 32.0909 109.504 31.5473 109.076 31.0211C108.652 30.4948 108.198 29.9904 107.723 29.512C107.247 29.0292 106.75 28.577 106.231 28.1421C105.708 27.7115 105.168 27.3071 104.61 26.9287C104.053 26.5547 103.473 26.2024 102.881 25.885C102.289 25.5631 101.679 25.2717 101.057 25.0108C100.439 24.7542 99.8032 24.5237 99.1591 24.328C98.515 24.128 97.8665 23.9627 97.2051 23.8322C96.5437 23.6974 95.8823 23.5974 95.2122 23.5322C94.5422 23.4669 93.8721 23.4321 93.1978 23.4321C90.9844 23.4321 88.8316 23.7931 86.7393 24.515C86.2163 24.0019 85.6716 23.5148 85.0966 23.0581C84.526 22.5971 83.9294 22.1753 83.3113 21.7795C82.6931 21.3881 82.0576 21.0272 81.4005 20.7053C80.7478 20.3792 80.0734 20.0921 79.3904 19.8399C78.703 19.5877 78.007 19.3702 77.2981 19.1963C76.5891 19.0179 75.8715 18.8788 75.1496 18.7788C74.4277 18.6787 73.7014 18.6178 72.9708 18.5961C72.2403 18.5744 71.5097 18.5917 70.7834 18.6483C70.0572 18.7048 69.3309 18.8005 68.6133 18.9353C67.8957 19.0701 67.1868 19.2397 66.4908 19.4528C65.7905 19.6616 65.1031 19.9095 64.4288 20.1965C63.7544 20.4792 63.0973 20.801 62.4575 21.1576C61.8177 21.5099 61.1995 21.9013 60.603 22.3232C60.0021 22.745 59.4271 23.1973 58.8781 23.68C58.3291 24.1671 57.8017 24.6803 57.3046 25.2196C56.8118 25.7588 56.3449 26.3242 55.904 26.9157C55.4673 27.5071 55.0653 28.1203 54.6935 28.7553C54.3175 29.3859 53.9803 30.0426 53.6777 30.7123C53.3751 31.382 53.107 32.0692 52.8779 32.765C52.6445 33.4652 52.45 34.1784 52.2943 34.896C52.1387 35.6179 52.022 36.3442 51.9398 37.0792C51.862 37.8098 51.8188 38.5448 51.8188 39.2841C51.8145 40.0191 51.8534 40.7584 51.9269 41.489C52.0047 42.224 52.1171 42.9503 52.2727 43.6722C52.424 44.3941 52.6142 45.103 52.839 45.8075C53.0681 46.5077 53.3318 47.1948 53.6301 47.8646C53.9327 48.5387 54.2656 49.191 54.633 49.8303C55.0048 50.4653 55.4068 51.0785 55.8391 51.6743C56.2714 52.2657 56.7383 52.8354 57.2311 53.3791C57.7239 53.9227 58.247 54.4359 58.7917 54.9229C59.3407 55.41 59.9156 55.8667 60.5122 56.2929C61.1044 56.7191 61.7226 57.1105 62.3624 57.4671L61.3552 64.6168C61.2817 65.0647 61.3335 65.4996 61.5108 65.9171C61.688 66.3346 61.9647 66.6695 62.3365 66.9217C62.7255 67.187 63.1492 67.3175 63.616 67.3175C64.0224 67.3175 64.4028 67.2174 64.7573 67.0174L76.9479 59.959C77.7217 59.7894 78.4826 59.5763 79.2304 59.3154C82.0057 61.99 85.2695 63.7426 89.0218 64.5733L101.165 71.5577C101.519 71.7621 101.9 71.8621 102.306 71.8578C102.769 71.8578 103.197 71.7273 103.581 71.4664C103.958 71.2141 104.234 70.8793 104.411 70.4618C104.589 70.0443 104.641 69.6094 104.563 69.1614L103.56 62.0117C105.103 61.1028 106.504 60.0069 107.762 58.7283C109.024 57.4497 110.1 56.0276 110.991 54.462C111.886 52.9007 112.564 51.2481 113.027 49.5085C113.494 47.7646 113.732 45.9902 113.74 44.1854ZM75.6208 55.4405C75.3744 55.4927 75.1409 55.5796 74.9162 55.6927L66.4476 60.607L66.9274 56.5234C66.975 56.0406 66.8798 55.5883 66.6464 55.1665C66.413 54.7446 66.0801 54.4272 65.6478 54.2184C65.0815 53.9444 64.5368 53.6357 64.0051 53.2964C63.4734 52.9572 62.9676 52.5876 62.4791 52.1875C61.995 51.7873 61.5324 51.3568 61.0958 50.9002C60.6592 50.4479 60.2528 49.9695 59.8681 49.465C59.4877 48.9605 59.1375 48.4343 58.8176 47.8907C58.502 47.3427 58.2124 46.7817 57.9617 46.2033C57.7066 45.6205 57.4862 45.0291 57.3003 44.4246C57.1187 43.8157 56.9674 43.2025 56.855 42.5806C56.7426 41.9544 56.6648 41.3281 56.6259 40.6932C56.587 40.0626 56.5827 39.4276 56.6172 38.797C56.6518 38.1621 56.721 37.5358 56.8291 36.9096C56.9371 36.2833 57.0798 35.6701 57.257 35.0613C57.4386 34.4524 57.6504 33.8609 57.9012 33.2782C58.1476 32.6954 58.4285 32.1301 58.7441 31.5821C59.0597 31.0341 59.4055 30.5035 59.7816 29.9947C60.1577 29.4902 60.5597 29.0075 60.992 28.5465C61.4243 28.0855 61.8826 27.655 62.3667 27.2505C62.8466 26.8461 63.3523 26.4721 63.8797 26.1241C64.4071 25.7806 64.9518 25.4675 65.5138 25.1891C66.0758 24.9064 66.6551 24.6629 67.243 24.4498C67.8352 24.241 68.4404 24.0627 69.05 23.9236C69.6638 23.7844 70.282 23.68 70.9045 23.6148C71.527 23.5496 72.1538 23.5191 72.7806 23.5278C73.4075 23.5365 74.0343 23.5844 74.6568 23.667C75.2793 23.7496 75.8931 23.867 76.5027 24.0236C77.1079 24.1802 77.7088 24.3715 78.2923 24.5977C78.8803 24.8238 79.4509 25.0847 80.0042 25.3805C80.5619 25.6762 81.0979 26.0024 81.6123 26.3633C82.1311 26.7199 82.6239 27.107 83.0994 27.5289C83.5706 27.9464 84.0159 28.39 84.4352 28.8596C84.8545 29.3293 85.2479 29.8251 85.611 30.3426C85.9742 30.8602 86.3027 31.3951 86.6053 31.9517C86.9036 32.5084 87.1716 33.0825 87.4051 33.6696C87.6385 34.261 87.8373 34.8612 87.9973 35.4701C88.1616 36.0833 88.2869 36.7052 88.3777 37.3314C88.4685 37.9577 88.5247 38.5883 88.542 39.2232C88.5593 39.8538 88.542 40.4888 88.4858 41.1194C88.4253 41.75 88.3345 42.3762 88.2048 42.9981C88.0751 43.6157 87.9108 44.2289 87.712 44.829C87.5088 45.4292 87.2754 46.0163 87.0073 46.5903C86.735 47.1601 86.4367 47.7167 86.1039 48.2516C85.7667 48.7909 85.4035 49.3041 85.0102 49.7999C84.6168 50.2913 84.1975 50.761 83.7479 51.2046C83.2983 51.6482 82.8271 52.0613 82.33 52.4484C81.8328 52.8398 81.3141 53.1921 80.778 53.5182C80.2377 53.8444 79.6843 54.1358 79.1094 54.3967C78.5388 54.6577 77.9508 54.8795 77.3543 55.0708C76.7534 55.2622 76.1482 55.4144 75.53 55.5318L75.6208 55.4405ZM100.114 58.737C99.6821 58.9501 99.3493 59.2632 99.1158 59.6851C98.8824 60.1113 98.7873 60.5635 98.8349 61.0419L99.4055 65.1256L90.9369 60.3287C90.7121 60.2113 90.4786 60.1286 90.2322 60.0765C87.8157 59.5981 85.6327 58.6065 83.6787 57.1018C84.2493 56.7321 84.7983 56.3407 85.3301 55.9189C85.8575 55.5014 86.3676 55.0534 86.8517 54.5837C87.3402 54.1097 87.8028 53.6183 88.2437 53.1007C88.6803 52.5832 89.091 52.0439 89.4801 51.4873C89.8648 50.9306 90.2236 50.3522 90.5521 49.7607C90.885 49.1649 91.1833 48.5561 91.4556 47.9342C91.728 47.3079 91.9657 46.673 92.1732 46.025C92.3851 45.377 92.5623 44.7203 92.705 44.0549C92.8519 43.3939 92.9643 42.7198 93.0421 42.0457C93.12 41.3672 93.1675 40.6888 93.1805 40.0104C93.1934 39.3276 93.1762 38.6491 93.12 37.9707C93.0681 37.2879 92.9816 36.6138 92.8649 35.9441C92.7482 35.2744 92.5969 34.6133 92.411 33.9566C92.2294 33.2999 92.0133 32.6563 91.7669 32.0213C91.5205 31.3864 91.2438 30.7688 90.9412 30.16C90.6343 29.5555 90.2971 28.964 89.934 28.39C91.0104 28.1595 92.0954 28.042 93.1978 28.0464C94.0969 28.0507 94.9875 28.129 95.8693 28.2856C96.7555 28.4378 97.6201 28.6683 98.4631 28.9727C99.3104 29.2728 100.127 29.6468 100.91 30.086C101.692 30.5296 102.436 31.0341 103.136 31.6038C103.832 32.1692 104.481 32.7911 105.077 33.4695C105.674 34.148 106.21 34.8699 106.685 35.6397C107.156 36.4094 107.567 37.214 107.909 38.0533C108.25 38.8927 108.518 39.7538 108.717 40.6366C108.912 41.5238 109.037 42.4153 109.084 43.3199C109.132 44.2289 109.102 45.1291 109.002 46.0293C108.899 46.9296 108.721 47.8167 108.471 48.6865C108.22 49.5563 107.9 50.4 107.511 51.2176C107.118 52.0352 106.664 52.8094 106.145 53.5487C105.622 54.288 105.047 54.9795 104.411 55.6188C103.776 56.2581 103.089 56.8408 102.358 57.3627C101.623 57.8889 100.854 58.3456 100.045 58.737H100.114Z" fill="#101820"/>
<path d="M69.2315 39.5755C69.2315 40.0322 69.1451 40.4758 68.9722 40.8976C68.7992 41.3238 68.5485 41.6978 68.2286 42.0197C67.9087 42.3458 67.5369 42.5937 67.1176 42.772C66.6983 42.946 66.2617 43.033 65.8078 43.033C65.3539 43.033 64.9173 42.946 64.4979 42.772C64.0786 42.5937 63.7068 42.3458 63.3869 42.0197C63.0671 41.6978 62.8163 41.3238 62.6434 40.8976C62.4705 40.4758 62.384 40.0322 62.384 39.5755C62.384 39.1146 62.4705 38.6753 62.6434 38.2491C62.8163 37.8273 63.0671 37.4532 63.3869 37.1271C63.7068 36.8053 64.0786 36.553 64.4979 36.3791C64.9173 36.2051 65.3539 36.1138 65.8078 36.1138C66.2617 36.1138 66.6983 36.2051 67.1176 36.3791C67.5369 36.553 67.9087 36.8053 68.2286 37.1271C68.5485 37.4532 68.7992 37.8273 68.9722 38.2491C69.1451 38.6753 69.2315 39.1146 69.2315 39.5755Z" fill="#101820"/>
<path d="M76.079 39.5755C76.079 40.0322 75.9925 40.4758 75.8196 40.8976C75.6467 41.3238 75.396 41.6978 75.0761 42.0197C74.7562 42.3458 74.3844 42.5937 73.9651 42.772C73.5458 42.946 73.1092 43.033 72.6553 43.033C72.2014 43.033 71.7647 42.946 71.3454 42.772C70.9261 42.5937 70.5543 42.3458 70.2344 42.0197C69.9145 41.6978 69.6638 41.3238 69.4909 40.8976C69.318 40.4758 69.2315 40.0322 69.2315 39.5755C69.2315 39.1146 69.318 38.6753 69.4909 38.2491C69.6638 37.8273 69.9145 37.4532 70.2344 37.1271C70.5543 36.8053 70.9261 36.553 71.3454 36.3791C71.7647 36.2051 72.2014 36.1138 72.6553 36.1138C73.1092 36.1138 73.5458 36.2051 73.9651 36.3791C74.3844 36.553 74.7562 36.8053 75.0761 37.1271C75.396 37.4532 75.6467 37.8273 75.8196 38.2491C75.9925 38.6753 76.079 39.1146 76.079 39.5755Z" fill="#101820"/>
<path d="M82.9265 39.5755C82.9265 40.0322 82.84 40.4758 82.6671 40.8976C82.4942 41.3238 82.2435 41.6978 81.9236 42.0197C81.6037 42.3458 81.2319 42.5937 80.8126 42.772C80.3932 42.946 79.9566 43.033 79.5027 43.033C79.0488 43.033 78.6122 42.946 78.1929 42.772C77.7736 42.5937 77.4018 42.3458 77.0819 42.0197C76.762 41.6978 76.5113 41.3238 76.3384 40.8976C76.1654 40.4758 76.079 40.0322 76.079 39.5755C76.079 39.1146 76.1654 38.6753 76.3384 38.2491C76.5113 37.8273 76.762 37.4532 77.0819 37.1271C77.4018 36.8053 77.7736 36.553 78.1929 36.3791C78.6122 36.2051 79.0488 36.1138 79.5027 36.1138C79.9566 36.1138 80.3932 36.2051 80.8126 36.3791C81.2319 36.553 81.6037 36.8053 81.9236 37.1271C82.2435 37.4532 82.4942 37.8273 82.6671 38.2491C82.84 38.6753 82.9265 39.1146 82.9265 39.5755Z" fill="#101820"/>
</svg>
