<svg xmlns="http://www.w3.org/2000/svg" xmlns:xlink="http://www.w3.org/1999/xlink" width="200" zoomAndPan="magnify" viewBox="0 0 150 149.999998" height="200" preserveAspectRatio="xMidYMid meet" version="1.0"><defs><clipPath id="360c422138"><path d="M 28 37.617188 L 50 37.617188 L 50 60 L 28 60 Z M 28 37.617188 " clip-rule="nonzero"/></clipPath><clipPath id="3d5bced011"><path d="M 100 37.617188 L 123 37.617188 L 123 60 L 100 60 Z M 100 37.617188 " clip-rule="nonzero"/></clipPath><clipPath id="7784c3e4e2"><path d="M 10.960938 76 L 139.210938 76 L 139.210938 112.617188 L 10.960938 112.617188 Z M 10.960938 76 " clip-rule="nonzero"/></clipPath></defs><path fill="#101820" d="M 47.300781 84.753906 C 47.015625 84.753906 46.742188 84.699219 46.480469 84.589844 C 46.21875 84.484375 45.988281 84.328125 45.789062 84.128906 C 45.585938 83.925781 45.433594 83.695312 45.324219 83.433594 C 45.214844 83.171875 45.160156 82.898438 45.160156 82.613281 L 45.160156 72.332031 C 45.160156 72.050781 45.214844 71.777344 45.324219 71.515625 C 45.433594 71.25 45.585938 71.019531 45.789062 70.820312 C 45.988281 70.617188 46.21875 70.464844 46.480469 70.355469 C 46.742188 70.246094 47.015625 70.191406 47.300781 70.191406 C 47.582031 70.191406 47.855469 70.246094 48.117188 70.355469 C 48.378906 70.464844 48.609375 70.617188 48.808594 70.820312 C 49.011719 71.019531 49.164062 71.25 49.273438 71.515625 C 49.382812 71.777344 49.4375 72.050781 49.4375 72.332031 L 49.4375 82.613281 C 49.4375 82.898438 49.382812 83.171875 49.273438 83.433594 C 49.164062 83.695312 49.011719 83.925781 48.808594 84.128906 C 48.609375 84.328125 48.378906 84.484375 48.117188 84.589844 C 47.855469 84.699219 47.582031 84.753906 47.300781 84.753906 Z M 47.300781 84.753906 " fill-opacity="1" fill-rule="nonzero"/><g clip-path="url(#360c422138)"><path fill="#101820" d="M 38.75 59.054688 C 38.046875 59.054688 37.351562 58.988281 36.664062 58.851562 C 35.976562 58.710938 35.308594 58.507812 34.660156 58.242188 C 34.011719 57.972656 33.394531 57.640625 32.8125 57.25 C 32.226562 56.859375 31.6875 56.417969 31.191406 55.917969 C 30.695312 55.421875 30.253906 54.882812 29.863281 54.296875 C 29.472656 53.710938 29.144531 53.09375 28.875 52.445312 C 28.605469 51.796875 28.402344 51.125 28.265625 50.4375 C 28.128906 49.746094 28.0625 49.050781 28.0625 48.347656 C 28.0625 47.644531 28.128906 46.949219 28.265625 46.257812 C 28.402344 45.570312 28.605469 44.898438 28.875 44.25 C 29.144531 43.601562 29.472656 42.984375 29.863281 42.398438 C 30.253906 41.8125 30.695312 41.273438 31.191406 40.777344 C 31.6875 40.277344 32.226562 39.835938 32.8125 39.445312 C 33.394531 39.054688 34.011719 38.722656 34.660156 38.453125 C 35.308594 38.1875 35.976562 37.984375 36.664062 37.84375 C 37.351562 37.707031 38.046875 37.640625 38.75 37.640625 C 39.449219 37.640625 40.144531 37.707031 40.832031 37.84375 C 41.523438 37.984375 42.191406 38.1875 42.839844 38.453125 C 43.488281 38.722656 44.101562 39.054688 44.6875 39.445312 C 45.269531 39.835938 45.808594 40.277344 46.304688 40.777344 C 46.800781 41.273438 47.246094 41.8125 47.636719 42.398438 C 48.023438 42.984375 48.355469 43.601562 48.621094 44.25 C 48.890625 44.898438 49.09375 45.570312 49.230469 46.257812 C 49.367188 46.949219 49.4375 47.644531 49.4375 48.347656 C 49.4375 49.050781 49.367188 49.746094 49.230469 50.4375 C 49.09375 51.125 48.890625 51.796875 48.621094 52.445312 C 48.355469 53.09375 48.023438 53.710938 47.636719 54.296875 C 47.246094 54.882812 46.800781 55.421875 46.304688 55.917969 C 45.808594 56.417969 45.269531 56.859375 44.6875 57.25 C 44.101562 57.640625 43.488281 57.972656 42.839844 58.242188 C 42.191406 58.507812 41.523438 58.710938 40.832031 58.851562 C 40.144531 58.988281 39.449219 59.054688 38.75 59.054688 Z M 38.75 41.921875 C 38.328125 41.921875 37.910156 41.964844 37.496094 42.046875 C 37.085938 42.128906 36.683594 42.25 36.296875 42.410156 C 35.90625 42.574219 35.535156 42.769531 35.1875 43.003906 C 34.835938 43.238281 34.511719 43.507812 34.214844 43.804688 C 33.917969 44.101562 33.652344 44.425781 33.417969 44.777344 C 33.183594 45.128906 32.984375 45.5 32.824219 45.890625 C 32.664062 46.277344 32.542969 46.679688 32.460938 47.09375 C 32.378906 47.507812 32.335938 47.925781 32.335938 48.347656 C 32.335938 48.769531 32.378906 49.1875 32.460938 49.601562 C 32.542969 50.015625 32.664062 50.417969 32.824219 50.804688 C 32.984375 51.195312 33.183594 51.566406 33.417969 51.917969 C 33.652344 52.269531 33.917969 52.59375 34.214844 52.890625 C 34.511719 53.1875 34.835938 53.457031 35.1875 53.691406 C 35.535156 53.925781 35.90625 54.121094 36.296875 54.285156 C 36.683594 54.445312 37.085938 54.566406 37.496094 54.648438 C 37.910156 54.730469 38.328125 54.773438 38.75 54.773438 C 39.171875 54.773438 39.585938 54.730469 40 54.648438 C 40.414062 54.566406 40.8125 54.445312 41.203125 54.285156 C 41.59375 54.121094 41.960938 53.925781 42.3125 53.691406 C 42.660156 53.457031 42.984375 53.1875 43.285156 52.890625 C 43.582031 52.59375 43.847656 52.269531 44.082031 51.917969 C 44.316406 51.566406 44.511719 51.195312 44.671875 50.804688 C 44.835938 50.417969 44.957031 50.015625 45.039062 49.601562 C 45.121094 49.1875 45.160156 48.769531 45.160156 48.347656 C 45.160156 47.925781 45.121094 47.507812 45.039062 47.09375 C 44.957031 46.679688 44.835938 46.277344 44.671875 45.890625 C 44.511719 45.5 44.316406 45.128906 44.082031 44.777344 C 43.847656 44.425781 43.582031 44.101562 43.285156 43.804688 C 42.984375 43.507812 42.660156 43.238281 42.3125 43.003906 C 41.960938 42.769531 41.59375 42.574219 41.203125 42.410156 C 40.8125 42.25 40.414062 42.128906 40 42.046875 C 39.585938 41.964844 39.171875 41.921875 38.75 41.921875 Z M 38.75 41.921875 " fill-opacity="1" fill-rule="nonzero"/></g><path fill="#101820" d="M 21.648438 84.753906 C 21.367188 84.753906 21.09375 84.699219 20.832031 84.589844 C 20.570312 84.484375 20.339844 84.328125 20.136719 84.128906 C 19.9375 83.925781 19.78125 83.695312 19.675781 83.433594 C 19.566406 83.171875 19.511719 82.898438 19.511719 82.613281 L 19.511719 70.621094 C 19.511719 64.710938 25.070312 59.914062 31.910156 59.914062 L 45.589844 59.914062 C 52.429688 59.914062 57.988281 64.710938 57.988281 70.621094 L 57.988281 78.84375 C 57.988281 79.128906 57.933594 79.402344 57.824219 79.664062 C 57.714844 79.925781 57.5625 80.15625 57.359375 80.359375 C 57.160156 80.558594 56.929688 80.714844 56.667969 80.824219 C 56.40625 80.929688 56.132812 80.984375 55.847656 80.984375 C 55.566406 80.984375 55.292969 80.929688 55.03125 80.824219 C 54.769531 80.714844 54.539062 80.558594 54.335938 80.359375 C 54.136719 80.15625 53.984375 79.925781 53.875 79.664062 C 53.765625 79.402344 53.710938 79.128906 53.710938 78.84375 L 53.710938 70.621094 C 53.710938 67.085938 50.078125 64.195312 45.589844 64.195312 L 31.910156 64.195312 C 27.421875 64.195312 23.785156 67.085938 23.785156 70.621094 L 23.785156 82.613281 C 23.785156 82.898438 23.730469 83.171875 23.625 83.433594 C 23.515625 83.695312 23.359375 83.925781 23.160156 84.128906 C 22.960938 84.328125 22.730469 84.484375 22.46875 84.589844 C 22.203125 84.699219 21.933594 84.753906 21.648438 84.753906 Z M 21.648438 84.753906 " fill-opacity="1" fill-rule="nonzero"/><path fill="#101820" d="M 30.199219 84.753906 C 29.914062 84.753906 29.644531 84.699219 29.382812 84.589844 C 29.117188 84.484375 28.886719 84.328125 28.6875 84.128906 C 28.488281 83.925781 28.332031 83.695312 28.222656 83.433594 C 28.117188 83.171875 28.0625 82.898438 28.0625 82.613281 L 28.0625 72.332031 C 28.0625 72.050781 28.117188 71.777344 28.222656 71.515625 C 28.332031 71.25 28.488281 71.019531 28.6875 70.820312 C 28.886719 70.617188 29.117188 70.464844 29.382812 70.355469 C 29.644531 70.246094 29.914062 70.191406 30.199219 70.191406 C 30.480469 70.191406 30.753906 70.246094 31.015625 70.355469 C 31.277344 70.464844 31.511719 70.617188 31.710938 70.820312 C 31.910156 71.019531 32.066406 71.25 32.171875 71.515625 C 32.28125 71.777344 32.335938 72.050781 32.335938 72.332031 L 32.335938 82.613281 C 32.335938 82.898438 32.28125 83.171875 32.171875 83.433594 C 32.066406 83.695312 31.910156 83.925781 31.710938 84.128906 C 31.511719 84.328125 31.277344 84.484375 31.015625 84.589844 C 30.753906 84.699219 30.480469 84.753906 30.199219 84.753906 Z M 30.199219 84.753906 " fill-opacity="1" fill-rule="nonzero"/><path fill="#101820" d="M 119.972656 84.753906 C 119.691406 84.753906 119.417969 84.699219 119.15625 84.589844 C 118.894531 84.484375 118.664062 84.328125 118.460938 84.128906 C 118.261719 83.925781 118.109375 83.695312 118 83.433594 C 117.890625 83.171875 117.835938 82.898438 117.835938 82.613281 L 117.835938 72.332031 C 117.835938 72.050781 117.890625 71.777344 118 71.515625 C 118.109375 71.25 118.261719 71.019531 118.460938 70.820312 C 118.664062 70.617188 118.894531 70.464844 119.15625 70.355469 C 119.417969 70.246094 119.691406 70.191406 119.972656 70.191406 C 120.257812 70.191406 120.53125 70.246094 120.792969 70.355469 C 121.054688 70.464844 121.285156 70.617188 121.484375 70.820312 C 121.6875 71.019531 121.839844 71.25 121.949219 71.515625 C 122.058594 71.777344 122.113281 72.050781 122.113281 72.332031 L 122.113281 82.613281 C 122.113281 82.898438 122.058594 83.171875 121.949219 83.433594 C 121.839844 83.695312 121.6875 83.925781 121.484375 84.128906 C 121.285156 84.328125 121.054688 84.484375 120.792969 84.589844 C 120.53125 84.699219 120.257812 84.753906 119.972656 84.753906 Z M 119.972656 84.753906 " fill-opacity="1" fill-rule="nonzero"/><g clip-path="url(#3d5bced011)"><path fill="#101820" d="M 111.425781 59.054688 C 110.722656 59.054688 110.027344 58.988281 109.339844 58.851562 C 108.652344 58.710938 107.980469 58.507812 107.335938 58.242188 C 106.6875 57.972656 106.070312 57.640625 105.484375 57.25 C 104.902344 56.859375 104.363281 56.417969 103.867188 55.917969 C 103.371094 55.421875 102.925781 54.882812 102.539062 54.296875 C 102.148438 53.710938 101.820312 53.09375 101.550781 52.445312 C 101.28125 51.796875 101.078125 51.125 100.941406 50.4375 C 100.804688 49.746094 100.738281 49.050781 100.738281 48.347656 C 100.738281 47.644531 100.804688 46.949219 100.941406 46.257812 C 101.078125 45.570312 101.28125 44.898438 101.550781 44.25 C 101.820312 43.601562 102.148438 42.984375 102.539062 42.398438 C 102.925781 41.8125 103.371094 41.273438 103.867188 40.777344 C 104.363281 40.277344 104.902344 39.835938 105.484375 39.445312 C 106.070312 39.054688 106.6875 38.722656 107.335938 38.453125 C 107.980469 38.1875 108.652344 37.984375 109.339844 37.84375 C 110.027344 37.707031 110.722656 37.640625 111.425781 37.640625 C 112.125 37.640625 112.820312 37.707031 113.507812 37.84375 C 114.195312 37.984375 114.867188 38.1875 115.515625 38.453125 C 116.164062 38.722656 116.777344 39.054688 117.363281 39.445312 C 117.945312 39.835938 118.484375 40.277344 118.980469 40.777344 C 119.476562 41.273438 119.921875 41.8125 120.308594 42.398438 C 120.699219 42.984375 121.03125 43.601562 121.296875 44.25 C 121.566406 44.898438 121.769531 45.570312 121.90625 46.257812 C 122.042969 46.949219 122.113281 47.644531 122.113281 48.347656 C 122.113281 49.050781 122.042969 49.746094 121.90625 50.4375 C 121.769531 51.125 121.566406 51.796875 121.296875 52.445312 C 121.03125 53.09375 120.699219 53.710938 120.308594 54.296875 C 119.921875 54.882812 119.476562 55.421875 118.980469 55.917969 C 118.484375 56.417969 117.945312 56.859375 117.363281 57.25 C 116.777344 57.640625 116.164062 57.972656 115.515625 58.242188 C 114.867188 58.507812 114.195312 58.710938 113.507812 58.851562 C 112.820312 58.988281 112.125 59.054688 111.425781 59.054688 Z M 111.425781 41.921875 C 111.003906 41.921875 110.585938 41.964844 110.171875 42.046875 C 109.761719 42.128906 109.359375 42.25 108.96875 42.410156 C 108.582031 42.574219 108.210938 42.769531 107.863281 43.003906 C 107.511719 43.238281 107.1875 43.507812 106.890625 43.804688 C 106.59375 44.101562 106.324219 44.425781 106.09375 44.777344 C 105.859375 45.128906 105.660156 45.5 105.5 45.890625 C 105.339844 46.277344 105.21875 46.679688 105.132812 47.09375 C 105.050781 47.507812 105.011719 47.925781 105.011719 48.347656 C 105.011719 48.769531 105.050781 49.1875 105.132812 49.601562 C 105.21875 50.015625 105.339844 50.417969 105.5 50.804688 C 105.660156 51.195312 105.859375 51.566406 106.09375 51.917969 C 106.324219 52.269531 106.59375 52.59375 106.890625 52.890625 C 107.1875 53.1875 107.511719 53.457031 107.863281 53.691406 C 108.210938 53.925781 108.582031 54.121094 108.96875 54.285156 C 109.359375 54.445312 109.761719 54.566406 110.171875 54.648438 C 110.585938 54.730469 111.003906 54.773438 111.425781 54.773438 C 111.84375 54.773438 112.261719 54.730469 112.675781 54.648438 C 113.089844 54.566406 113.488281 54.445312 113.878906 54.285156 C 114.265625 54.121094 114.636719 53.925781 114.988281 53.691406 C 115.335938 53.457031 115.660156 53.1875 115.957031 52.890625 C 116.257812 52.59375 116.523438 52.269531 116.753906 51.917969 C 116.988281 51.566406 117.1875 51.195312 117.347656 50.804688 C 117.507812 50.417969 117.632812 50.015625 117.714844 49.601562 C 117.796875 49.1875 117.835938 48.769531 117.835938 48.347656 C 117.835938 47.925781 117.796875 47.507812 117.714844 47.09375 C 117.632812 46.679688 117.507812 46.277344 117.347656 45.890625 C 117.1875 45.5 116.988281 45.128906 116.753906 44.777344 C 116.523438 44.425781 116.257812 44.101562 115.957031 43.804688 C 115.660156 43.507812 115.335938 43.238281 114.988281 43.003906 C 114.636719 42.769531 114.265625 42.574219 113.878906 42.410156 C 113.488281 42.25 113.089844 42.128906 112.675781 42.046875 C 112.261719 41.964844 111.84375 41.921875 111.425781 41.921875 Z M 111.425781 41.921875 " fill-opacity="1" fill-rule="nonzero"/></g><path fill="#101820" d="M 128.523438 84.753906 C 128.242188 84.753906 127.96875 84.699219 127.707031 84.589844 C 127.445312 84.484375 127.214844 84.328125 127.011719 84.128906 C 126.8125 83.925781 126.65625 83.695312 126.550781 83.433594 C 126.441406 83.171875 126.386719 82.898438 126.386719 82.613281 L 126.386719 70.621094 C 126.386719 67.085938 122.753906 64.195312 118.265625 64.195312 L 104.582031 64.195312 C 100.09375 64.195312 96.460938 67.085938 96.460938 70.621094 L 96.460938 78.84375 C 96.460938 79.128906 96.40625 79.402344 96.296875 79.664062 C 96.191406 79.925781 96.035156 80.15625 95.835938 80.359375 C 95.636719 80.558594 95.402344 80.714844 95.140625 80.824219 C 94.878906 80.929688 94.605469 80.984375 94.324219 80.984375 C 94.039062 80.984375 93.769531 80.929688 93.507812 80.824219 C 93.242188 80.714844 93.011719 80.558594 92.8125 80.359375 C 92.613281 80.15625 92.457031 79.925781 92.347656 79.664062 C 92.242188 79.402344 92.1875 79.128906 92.1875 78.84375 L 92.1875 70.621094 C 92.1875 64.710938 97.742188 59.914062 104.582031 59.914062 L 118.265625 59.914062 C 125.105469 59.914062 130.660156 64.710938 130.660156 70.621094 L 130.660156 82.613281 C 130.660156 82.898438 130.605469 83.171875 130.5 83.433594 C 130.390625 83.695312 130.234375 83.925781 130.035156 84.128906 C 129.835938 84.328125 129.605469 84.484375 129.34375 84.589844 C 129.078125 84.699219 128.808594 84.753906 128.523438 84.753906 Z M 128.523438 84.753906 " fill-opacity="1" fill-rule="nonzero"/><path fill="#101820" d="M 102.875 84.753906 C 102.589844 84.753906 102.316406 84.699219 102.054688 84.589844 C 101.792969 84.484375 101.5625 84.328125 101.363281 84.128906 C 101.160156 83.925781 101.007812 83.695312 100.898438 83.433594 C 100.789062 83.171875 100.738281 82.898438 100.738281 82.613281 L 100.738281 72.332031 C 100.738281 72.050781 100.789062 71.777344 100.898438 71.515625 C 101.007812 71.25 101.160156 71.019531 101.363281 70.820312 C 101.5625 70.617188 101.792969 70.464844 102.054688 70.355469 C 102.316406 70.246094 102.589844 70.191406 102.875 70.191406 C 103.15625 70.191406 103.429688 70.246094 103.691406 70.355469 C 103.953125 70.464844 104.183594 70.617188 104.386719 70.820312 C 104.585938 71.019531 104.742188 71.25 104.847656 71.515625 C 104.957031 71.777344 105.011719 72.050781 105.011719 72.332031 L 105.011719 82.613281 C 105.011719 82.898438 104.957031 83.171875 104.847656 83.433594 C 104.742188 83.695312 104.585938 83.925781 104.386719 84.128906 C 104.183594 84.328125 103.953125 84.484375 103.691406 84.589844 C 103.429688 84.699219 103.15625 84.753906 102.875 84.753906 Z M 102.875 84.753906 " fill-opacity="1" fill-rule="nonzero"/><path fill="#101820" d="M 75.085938 69.761719 C 74.246094 69.761719 73.410156 69.679688 72.585938 69.515625 C 71.757812 69.351562 70.957031 69.109375 70.179688 68.785156 C 69.402344 68.460938 68.660156 68.066406 67.960938 67.597656 C 67.261719 67.128906 66.613281 66.597656 66.019531 66 C 65.421875 65.402344 64.890625 64.753906 64.421875 64.054688 C 63.953125 63.351562 63.558594 62.609375 63.238281 61.832031 C 62.914062 61.050781 62.671875 60.25 62.507812 59.421875 C 62.34375 58.59375 62.261719 57.757812 62.261719 56.914062 C 62.261719 56.070312 62.34375 55.234375 62.507812 54.40625 C 62.671875 53.578125 62.914062 52.777344 63.238281 51.996094 C 63.558594 51.21875 63.953125 50.476562 64.421875 49.773438 C 64.890625 49.074219 65.421875 48.425781 66.019531 47.828125 C 66.613281 47.230469 67.261719 46.699219 67.960938 46.230469 C 68.660156 45.761719 69.402344 45.367188 70.179688 45.042969 C 70.957031 44.71875 71.757812 44.476562 72.585938 44.3125 C 73.410156 44.148438 74.246094 44.0625 75.085938 44.0625 C 75.929688 44.0625 76.761719 44.148438 77.589844 44.3125 C 78.414062 44.476562 79.214844 44.71875 79.996094 45.042969 C 80.773438 45.367188 81.511719 45.761719 82.210938 46.230469 C 82.910156 46.699219 83.558594 47.230469 84.15625 47.828125 C 84.75 48.425781 85.28125 49.074219 85.75 49.773438 C 86.21875 50.476562 86.613281 51.21875 86.933594 51.996094 C 87.257812 52.777344 87.5 53.578125 87.664062 54.40625 C 87.828125 55.234375 87.910156 56.070312 87.910156 56.914062 C 87.910156 57.757812 87.828125 58.59375 87.664062 59.421875 C 87.5 60.25 87.257812 61.050781 86.933594 61.832031 C 86.613281 62.609375 86.21875 63.351562 85.75 64.054688 C 85.28125 64.753906 84.75 65.402344 84.15625 66 C 83.558594 66.597656 82.910156 67.128906 82.210938 67.597656 C 81.511719 68.066406 80.773438 68.460938 79.996094 68.785156 C 79.214844 69.109375 78.414062 69.351562 77.589844 69.515625 C 76.761719 69.679688 75.929688 69.761719 75.085938 69.761719 Z M 75.085938 48.347656 C 74.523438 48.347656 73.96875 48.402344 73.417969 48.511719 C 72.867188 48.621094 72.332031 48.785156 71.816406 49 C 71.296875 49.214844 70.804688 49.480469 70.335938 49.792969 C 69.871094 50.105469 69.4375 50.457031 69.039062 50.855469 C 68.644531 51.253906 68.289062 51.6875 67.976562 52.15625 C 67.664062 52.621094 67.402344 53.117188 67.1875 53.636719 C 66.972656 54.15625 66.808594 54.691406 66.699219 55.242188 C 66.589844 55.792969 66.535156 56.351562 66.535156 56.914062 C 66.535156 57.476562 66.589844 58.035156 66.699219 58.585938 C 66.808594 59.136719 66.972656 59.671875 67.1875 60.191406 C 67.402344 60.710938 67.664062 61.207031 67.976562 61.671875 C 68.289062 62.140625 68.644531 62.574219 69.039062 62.972656 C 69.4375 63.367188 69.871094 63.722656 70.335938 64.035156 C 70.804688 64.347656 71.296875 64.613281 71.816406 64.828125 C 72.332031 65.042969 72.867188 65.207031 73.417969 65.316406 C 73.96875 65.425781 74.523438 65.480469 75.085938 65.480469 C 75.648438 65.480469 76.203125 65.425781 76.753906 65.316406 C 77.304688 65.207031 77.839844 65.042969 78.359375 64.828125 C 78.878906 64.613281 79.371094 64.347656 79.835938 64.035156 C 80.304688 63.722656 80.734375 63.367188 81.132812 62.972656 C 81.527344 62.574219 81.882812 62.140625 82.195312 61.671875 C 82.507812 61.207031 82.769531 60.710938 82.984375 60.191406 C 83.199219 59.671875 83.363281 59.136719 83.472656 58.585938 C 83.582031 58.035156 83.636719 57.476562 83.636719 56.914062 C 83.636719 56.351562 83.582031 55.792969 83.472656 55.242188 C 83.363281 54.691406 83.199219 54.15625 82.984375 53.636719 C 82.769531 53.117188 82.507812 52.621094 82.195312 52.15625 C 81.882812 51.6875 81.527344 51.253906 81.132812 50.855469 C 80.734375 50.457031 80.304688 50.105469 79.835938 49.792969 C 79.371094 49.480469 78.878906 49.214844 78.359375 49 C 77.839844 48.785156 77.304688 48.621094 76.753906 48.511719 C 76.203125 48.402344 75.648438 48.347656 75.085938 48.347656 Z M 75.085938 48.347656 " fill-opacity="1" fill-rule="nonzero"/><path fill="#101820" d="M 96.460938 101.886719 C 96.179688 101.886719 95.90625 101.832031 95.644531 101.722656 C 95.382812 101.617188 95.152344 101.460938 94.949219 101.261719 C 94.75 101.058594 94.59375 100.828125 94.488281 100.566406 C 94.378906 100.304688 94.324219 100.03125 94.324219 99.746094 L 94.324219 84.753906 C 94.324219 80.023438 89.535156 76.1875 83.636719 76.1875 L 66.535156 76.1875 C 60.636719 76.1875 55.847656 80.023438 55.847656 84.753906 L 55.847656 99.746094 C 55.847656 100.03125 55.792969 100.304688 55.6875 100.566406 C 55.578125 100.828125 55.421875 101.058594 55.222656 101.261719 C 55.023438 101.460938 54.792969 101.617188 54.53125 101.722656 C 54.265625 101.832031 53.996094 101.886719 53.710938 101.886719 C 53.429688 101.886719 53.15625 101.832031 52.894531 101.722656 C 52.632812 101.617188 52.402344 101.460938 52.199219 101.261719 C 52 101.058594 51.84375 100.828125 51.738281 100.566406 C 51.628906 100.304688 51.574219 100.03125 51.574219 99.746094 L 51.574219 84.753906 C 51.574219 77.664062 58.285156 71.90625 66.535156 71.90625 L 83.636719 71.90625 C 91.886719 71.90625 98.597656 77.664062 98.597656 84.753906 L 98.597656 99.746094 C 98.597656 100.03125 98.542969 100.304688 98.4375 100.566406 C 98.328125 100.828125 98.171875 101.058594 97.972656 101.261719 C 97.773438 101.460938 97.542969 101.617188 97.28125 101.722656 C 97.015625 101.832031 96.746094 101.886719 96.460938 101.886719 Z M 96.460938 101.886719 " fill-opacity="1" fill-rule="nonzero"/><path fill="#101820" d="M 62.261719 101.886719 C 61.976562 101.886719 61.707031 101.832031 61.445312 101.722656 C 61.179688 101.617188 60.949219 101.460938 60.75 101.261719 C 60.550781 101.058594 60.394531 100.828125 60.285156 100.566406 C 60.179688 100.304688 60.125 100.03125 60.125 99.746094 L 60.125 86.894531 C 60.125 86.613281 60.179688 86.339844 60.285156 86.078125 C 60.394531 85.8125 60.550781 85.582031 60.75 85.382812 C 60.949219 85.179688 61.179688 85.027344 61.445312 84.917969 C 61.707031 84.808594 61.976562 84.753906 62.261719 84.753906 C 62.542969 84.753906 62.816406 84.808594 63.078125 84.917969 C 63.339844 85.027344 63.574219 85.179688 63.773438 85.382812 C 63.972656 85.582031 64.128906 85.8125 64.234375 86.078125 C 64.34375 86.339844 64.398438 86.613281 64.398438 86.894531 L 64.398438 99.746094 C 64.398438 100.03125 64.34375 100.304688 64.234375 100.566406 C 64.128906 100.828125 63.972656 101.058594 63.773438 101.261719 C 63.574219 101.460938 63.339844 101.617188 63.078125 101.722656 C 62.816406 101.832031 62.542969 101.886719 62.261719 101.886719 Z M 62.261719 101.886719 " fill-opacity="1" fill-rule="nonzero"/><path fill="#101820" d="M 87.910156 101.886719 C 87.628906 101.886719 87.355469 101.832031 87.09375 101.722656 C 86.832031 101.617188 86.601562 101.460938 86.398438 101.261719 C 86.199219 101.058594 86.046875 100.828125 85.9375 100.566406 C 85.828125 100.304688 85.773438 100.03125 85.773438 99.746094 L 85.773438 86.894531 C 85.773438 86.613281 85.828125 86.339844 85.9375 86.078125 C 86.046875 85.8125 86.199219 85.582031 86.398438 85.382812 C 86.601562 85.179688 86.832031 85.027344 87.09375 84.917969 C 87.355469 84.808594 87.628906 84.753906 87.910156 84.753906 C 88.195312 84.753906 88.46875 84.808594 88.730469 84.917969 C 88.992188 85.027344 89.222656 85.179688 89.421875 85.382812 C 89.625 85.582031 89.777344 85.8125 89.886719 86.078125 C 89.996094 86.339844 90.050781 86.613281 90.050781 86.894531 L 90.050781 99.746094 C 90.050781 100.03125 89.996094 100.304688 89.886719 100.566406 C 89.777344 100.828125 89.625 101.058594 89.421875 101.261719 C 89.222656 101.460938 88.992188 101.617188 88.730469 101.722656 C 88.46875 101.832031 88.195312 101.886719 87.910156 101.886719 Z M 87.910156 101.886719 " fill-opacity="1" fill-rule="nonzero"/><g clip-path="url(#7784c3e4e2)"><path fill="#101820" d="M 75.085938 112.59375 C 55.59375 112.59375 40.886719 106.171875 40.886719 97.605469 C 40.886719 96.871094 41 96.160156 41.226562 95.460938 L 38.75 95.460938 C 25.28125 95.460938 10.960938 91.179688 10.960938 83.042969 C 11.003906 82.335938 11.136719 81.644531 11.351562 80.96875 C 11.566406 80.292969 11.859375 79.65625 12.230469 79.054688 C 12.605469 78.453125 13.046875 77.90625 13.554688 77.414062 C 14.0625 76.921875 14.625 76.5 15.238281 76.144531 L 17.671875 79.65625 C 16.796875 80.300781 15.238281 81.542969 15.238281 83.042969 C 15.238281 86.445312 24.171875 91.179688 38.75 91.179688 C 40.828125 91.1875 42.902344 91.082031 44.96875 90.859375 C 45.414062 90.8125 45.832031 90.894531 46.222656 91.113281 C 46.613281 91.328125 46.90625 91.636719 47.105469 92.035156 C 47.285156 92.429688 47.34375 92.84375 47.273438 93.273438 C 47.203125 93.703125 47.019531 94.074219 46.722656 94.390625 C 45.757812 95.246094 45.238281 96.316406 45.160156 97.605469 C 45.160156 102.660156 57.988281 108.3125 75.085938 108.3125 C 92.1875 108.3125 105.011719 102.660156 105.011719 97.605469 C 104.9375 96.316406 104.417969 95.246094 103.449219 94.390625 C 103.132812 94.070312 102.933594 93.683594 102.859375 93.234375 C 102.785156 92.789062 102.847656 92.359375 103.046875 91.949219 C 103.242188 91.550781 103.539062 91.242188 103.929688 91.027344 C 104.320312 90.808594 104.738281 90.726562 105.183594 90.773438 C 107.253906 91.023438 109.335938 91.160156 111.425781 91.179688 C 126 91.179688 134.9375 86.445312 134.9375 83.042969 C 134.9375 81.628906 133.375 80.300781 132.4375 79.65625 L 134.9375 76.144531 C 135.550781 76.5 136.109375 76.921875 136.617188 77.414062 C 137.128906 77.90625 137.566406 78.453125 137.941406 79.054688 C 138.3125 79.65625 138.609375 80.292969 138.824219 80.96875 C 139.039062 81.644531 139.167969 82.335938 139.210938 83.042969 C 139.210938 91.113281 124.890625 95.460938 111.425781 95.460938 L 108.945312 95.460938 C 109.171875 96.160156 109.285156 96.871094 109.285156 97.605469 C 109.285156 106.148438 94.582031 112.59375 75.085938 112.59375 Z M 75.085938 112.59375 " fill-opacity="1" fill-rule="nonzero"/></g></svg>