<svg width="310" height="379" viewBox="0 0 310 379" fill="none" xmlns="http://www.w3.org/2000/svg">
<rect width="310" height="379" fill="white"/>
<path d="M37.142 245.545H39.7841V257.026C39.7841 258.247 39.4972 259.33 38.9233 260.273C38.3494 261.21 37.5426 261.949 36.5028 262.489C35.4631 263.023 34.2443 263.29 32.8466 263.29C31.4545 263.29 30.2386 263.023 29.1989 262.489C28.1591 261.949 27.3523 261.21 26.7784 260.273C26.2045 259.33 25.9176 258.247 25.9176 257.026V245.545H28.5511V256.812C28.5511 257.602 28.7244 258.304 29.071 258.918C29.4233 259.531 29.9205 260.014 30.5625 260.366C31.2045 260.713 31.9659 260.886 32.8466 260.886C33.733 260.886 34.4972 260.713 35.1392 260.366C35.7869 260.014 36.2813 259.531 36.6222 258.918C36.9688 258.304 37.142 257.602 37.142 256.812V245.545ZM43.4084 263V249.909H45.8544V252.04H46.0163C46.2891 251.318 46.7351 250.756 47.3544 250.352C47.9737 249.943 48.7152 249.739 49.5788 249.739C50.4538 249.739 51.1868 249.943 51.7777 250.352C52.3743 250.761 52.8146 251.324 53.0987 252.04H53.2351C53.5476 251.341 54.0447 250.784 54.7266 250.369C55.4084 249.949 56.2209 249.739 57.1641 249.739C58.3516 249.739 59.3203 250.111 60.0703 250.855C60.826 251.599 61.2038 252.722 61.2038 254.222V263H58.6555V254.46C58.6555 253.574 58.4141 252.932 57.9311 252.534C57.4482 252.136 56.8714 251.938 56.201 251.938C55.3714 251.938 54.7266 252.193 54.2663 252.705C53.8061 253.21 53.576 253.861 53.576 254.656V263H51.0362V254.298C51.0362 253.588 50.8146 253.017 50.3714 252.585C49.9283 252.153 49.3516 251.938 48.6413 251.938C48.1584 251.938 47.7124 252.065 47.3033 252.321C46.8999 252.571 46.5732 252.92 46.3232 253.369C46.0788 253.818 45.9567 254.338 45.9567 254.929V263H43.4084ZM70.9709 263V249.909H73.4339V251.989H73.5703C73.8089 251.284 74.2294 250.73 74.8317 250.327C75.4396 249.918 76.1271 249.713 76.8942 249.713C77.0533 249.713 77.2408 249.719 77.4567 249.73C77.6783 249.741 77.8516 249.756 77.9766 249.773V252.21C77.8743 252.182 77.6925 252.151 77.4311 252.116C77.1697 252.077 76.9084 252.057 76.647 252.057C76.0447 252.057 75.5078 252.185 75.0362 252.44C74.5703 252.69 74.201 253.04 73.9283 253.489C73.6555 253.932 73.5192 254.437 73.5192 255.006V263H70.9709ZM85.3551 263.264C84.0653 263.264 82.9545 262.989 82.0227 262.438C81.0966 261.881 80.3807 261.099 79.875 260.094C79.375 259.082 79.125 257.898 79.125 256.54C79.125 255.199 79.375 254.017 79.875 252.994C80.3807 251.972 81.0852 251.173 81.9886 250.599C82.8977 250.026 83.9602 249.739 85.1761 249.739C85.9148 249.739 86.6307 249.861 87.3239 250.105C88.017 250.349 88.6392 250.733 89.1903 251.256C89.7415 251.778 90.1761 252.457 90.4943 253.293C90.8125 254.122 90.9716 255.131 90.9716 256.318V257.222H80.5653V255.312H88.4744C88.4744 254.642 88.3381 254.048 88.0653 253.531C87.7926 253.009 87.4091 252.597 86.9148 252.295C86.4261 251.994 85.8523 251.844 85.1932 251.844C84.4773 251.844 83.8523 252.02 83.3182 252.372C82.7898 252.719 82.3807 253.173 82.0909 253.736C81.8068 254.293 81.6648 254.898 81.6648 255.551V257.043C81.6648 257.918 81.8182 258.662 82.125 259.276C82.4375 259.889 82.8722 260.358 83.429 260.682C83.9858 261 84.6364 261.159 85.3807 261.159C85.8636 261.159 86.304 261.091 86.7017 260.955C87.0994 260.812 87.4432 260.602 87.733 260.324C88.0227 260.045 88.2443 259.702 88.3977 259.293L90.8097 259.727C90.6165 260.437 90.2699 261.06 89.7699 261.594C89.2756 262.122 88.6534 262.534 87.9034 262.83C87.1591 263.119 86.3097 263.264 85.3551 263.264ZM99.2876 268.182C98.2479 268.182 97.353 268.045 96.603 267.773C95.8587 267.5 95.2507 267.139 94.7791 266.69C94.3075 266.241 93.9553 265.75 93.7223 265.216L95.9126 264.312C96.0661 264.562 96.2706 264.827 96.5263 265.105C96.7876 265.389 97.1399 265.631 97.5831 265.83C98.032 266.028 98.6087 266.128 99.3132 266.128C100.279 266.128 101.077 265.892 101.708 265.42C102.339 264.955 102.654 264.21 102.654 263.188V260.614H102.492C102.339 260.892 102.117 261.202 101.827 261.543C101.543 261.884 101.151 262.179 100.651 262.429C100.151 262.679 99.5007 262.804 98.6996 262.804C97.6655 262.804 96.7337 262.562 95.9041 262.08C95.0803 261.591 94.4268 260.872 93.9439 259.923C93.4666 258.969 93.228 257.795 93.228 256.403C93.228 255.011 93.4638 253.818 93.9354 252.824C94.4126 251.83 95.0661 251.068 95.8956 250.54C96.7251 250.006 97.6655 249.739 98.7166 249.739C99.5291 249.739 100.185 249.875 100.685 250.148C101.185 250.415 101.575 250.727 101.853 251.085C102.137 251.443 102.356 251.759 102.509 252.031H102.697V249.909H105.194V263.29C105.194 264.415 104.933 265.338 104.41 266.06C103.887 266.781 103.18 267.315 102.288 267.662C101.401 268.009 100.401 268.182 99.2876 268.182ZM99.2621 260.69C99.995 260.69 100.614 260.52 101.12 260.179C101.631 259.832 102.018 259.338 102.279 258.696C102.546 258.048 102.68 257.273 102.68 256.369C102.68 255.489 102.549 254.713 102.288 254.043C102.026 253.372 101.643 252.849 101.137 252.474C100.631 252.094 100.006 251.903 99.2621 251.903C98.495 251.903 97.8558 252.102 97.3445 252.5C96.8331 252.892 96.4467 253.426 96.1854 254.102C95.9297 254.778 95.8018 255.534 95.8018 256.369C95.8018 257.227 95.9325 257.98 96.1939 258.628C96.4553 259.276 96.8416 259.781 97.353 260.145C97.87 260.509 98.5064 260.69 99.2621 260.69ZM108.612 263V249.909H111.16V263H108.612ZM109.898 247.889C109.455 247.889 109.075 247.741 108.756 247.446C108.444 247.145 108.288 246.787 108.288 246.372C108.288 245.952 108.444 245.594 108.756 245.298C109.075 244.997 109.455 244.847 109.898 244.847C110.342 244.847 110.719 244.997 111.032 245.298C111.35 245.594 111.509 245.952 111.509 246.372C111.509 246.787 111.35 247.145 111.032 247.446C110.719 247.741 110.342 247.889 109.898 247.889ZM124.398 253.105L122.088 253.514C121.991 253.219 121.838 252.937 121.628 252.67C121.423 252.403 121.145 252.185 120.793 252.014C120.44 251.844 120 251.759 119.472 251.759C118.75 251.759 118.148 251.92 117.665 252.244C117.182 252.562 116.94 252.974 116.94 253.48C116.94 253.918 117.102 254.27 117.426 254.537C117.75 254.804 118.273 255.023 118.994 255.193L121.074 255.67C122.278 255.949 123.176 256.378 123.767 256.957C124.358 257.537 124.653 258.29 124.653 259.216C124.653 260 124.426 260.699 123.972 261.312C123.523 261.92 122.895 262.398 122.088 262.744C121.287 263.091 120.358 263.264 119.301 263.264C117.835 263.264 116.639 262.952 115.713 262.327C114.787 261.696 114.219 260.801 114.009 259.642L116.472 259.267C116.625 259.909 116.94 260.395 117.418 260.724C117.895 261.048 118.517 261.21 119.284 261.21C120.119 261.21 120.787 261.037 121.287 260.69C121.787 260.338 122.037 259.909 122.037 259.403C122.037 258.994 121.884 258.651 121.577 258.372C121.276 258.094 120.812 257.884 120.188 257.741L117.972 257.256C116.75 256.977 115.847 256.534 115.261 255.926C114.682 255.318 114.392 254.548 114.392 253.616C114.392 252.844 114.608 252.168 115.04 251.588C115.472 251.009 116.068 250.557 116.83 250.233C117.591 249.903 118.463 249.739 119.446 249.739C120.861 249.739 121.974 250.045 122.787 250.659C123.599 251.267 124.136 252.082 124.398 253.105ZM133.566 249.909V251.955H126.415V249.909H133.566ZM128.333 246.773H130.881V259.156C130.881 259.651 130.955 260.023 131.103 260.273C131.251 260.517 131.441 260.685 131.674 260.776C131.913 260.861 132.171 260.903 132.45 260.903C132.654 260.903 132.833 260.889 132.987 260.861C133.14 260.832 133.259 260.81 133.344 260.793L133.805 262.898C133.657 262.955 133.447 263.011 133.174 263.068C132.901 263.131 132.56 263.165 132.151 263.17C131.481 263.182 130.856 263.062 130.276 262.812C129.697 262.562 129.228 262.176 128.87 261.653C128.512 261.131 128.333 260.474 128.333 259.685V246.773ZM136.385 263V249.909H138.848V251.989H138.984C139.223 251.284 139.643 250.73 140.246 250.327C140.854 249.918 141.541 249.713 142.308 249.713C142.467 249.713 142.655 249.719 142.871 249.73C143.092 249.741 143.266 249.756 143.391 249.773V252.21C143.288 252.182 143.107 252.151 142.845 252.116C142.584 252.077 142.322 252.057 142.061 252.057C141.459 252.057 140.922 252.185 140.45 252.44C139.984 252.69 139.615 253.04 139.342 253.489C139.07 253.932 138.933 254.437 138.933 255.006V263H136.385ZM150.641 263.264C149.414 263.264 148.343 262.983 147.428 262.42C146.513 261.858 145.803 261.071 145.298 260.06C144.792 259.048 144.539 257.866 144.539 256.514C144.539 255.156 144.792 253.969 145.298 252.952C145.803 251.935 146.513 251.145 147.428 250.582C148.343 250.02 149.414 249.739 150.641 249.739C151.869 249.739 152.94 250.02 153.854 250.582C154.769 251.145 155.479 251.935 155.985 252.952C156.491 253.969 156.744 255.156 156.744 256.514C156.744 257.866 156.491 259.048 155.985 260.06C155.479 261.071 154.769 261.858 153.854 262.42C152.94 262.983 151.869 263.264 150.641 263.264ZM150.65 261.125C151.445 261.125 152.104 260.915 152.627 260.494C153.15 260.074 153.536 259.514 153.786 258.815C154.042 258.116 154.17 257.347 154.17 256.506C154.17 255.67 154.042 254.903 153.786 254.205C153.536 253.5 153.15 252.935 152.627 252.509C152.104 252.082 151.445 251.869 150.65 251.869C149.849 251.869 149.184 252.082 148.656 252.509C148.133 252.935 147.744 253.5 147.488 254.205C147.238 254.903 147.113 255.67 147.113 256.506C147.113 257.347 147.238 258.116 147.488 258.815C147.744 259.514 148.133 260.074 148.656 260.494C149.184 260.915 149.849 261.125 150.65 261.125Z" fill="black"/>
<path d="M25.4091 295V283.364H32.4318V284.614H26.8182V288.545H32.0682V289.795H26.8182V293.75H32.5227V295H25.4091ZM46.4261 286.273L43.1989 295H41.8352L38.608 286.273H40.0625L42.4716 293.227H42.5625L44.9716 286.273H46.4261ZM51.429 295.182C50.6411 295.182 49.9498 294.994 49.3551 294.619C48.7642 294.244 48.3021 293.72 47.9688 293.045C47.6392 292.371 47.4744 291.583 47.4744 290.682C47.4744 289.773 47.6392 288.979 47.9688 288.301C48.3021 287.623 48.7642 287.097 49.3551 286.722C49.9498 286.347 50.6411 286.159 51.429 286.159C52.2169 286.159 52.9063 286.347 53.4972 286.722C54.0919 287.097 54.554 287.623 54.8835 288.301C55.2169 288.979 55.3835 289.773 55.3835 290.682C55.3835 291.583 55.2169 292.371 54.8835 293.045C54.554 293.72 54.0919 294.244 53.4972 294.619C52.9063 294.994 52.2169 295.182 51.429 295.182ZM51.429 293.977C52.0275 293.977 52.5199 293.824 52.9062 293.517C53.2926 293.21 53.5786 292.807 53.7642 292.307C53.9498 291.807 54.0426 291.265 54.0426 290.682C54.0426 290.098 53.9498 289.555 53.7642 289.051C53.5786 288.547 53.2926 288.14 52.9062 287.83C52.5199 287.519 52.0275 287.364 51.429 287.364C50.8305 287.364 50.3381 287.519 49.9517 287.83C49.5653 288.14 49.2794 288.547 49.0938 289.051C48.9081 289.555 48.8153 290.098 48.8153 290.682C48.8153 291.265 48.9081 291.807 49.0938 292.307C49.2794 292.807 49.5653 293.21 49.9517 293.517C50.3381 293.824 50.8305 293.977 51.429 293.977ZM60.9759 295.182C60.1577 295.182 59.4531 294.989 58.8622 294.602C58.2713 294.216 57.8168 293.684 57.4986 293.006C57.1804 292.328 57.0213 291.553 57.0213 290.682C57.0213 289.795 57.1842 289.013 57.5099 288.335C57.8395 287.653 58.2978 287.121 58.8849 286.739C59.4759 286.352 60.1652 286.159 60.9531 286.159C61.5668 286.159 62.1198 286.273 62.6122 286.5C63.1046 286.727 63.508 287.045 63.8224 287.455C64.1368 287.864 64.3319 288.341 64.4077 288.886H63.0668C62.9645 288.489 62.7372 288.136 62.3849 287.83C62.0365 287.519 61.5668 287.364 60.9759 287.364C60.4531 287.364 59.9948 287.5 59.6009 287.773C59.2107 288.042 58.9058 288.422 58.6861 288.915C58.4702 289.403 58.3622 289.977 58.3622 290.636C58.3622 291.311 58.4683 291.898 58.6804 292.398C58.8963 292.898 59.1993 293.286 59.5895 293.562C59.9834 293.839 60.4455 293.977 60.9759 293.977C61.3243 293.977 61.6406 293.917 61.9247 293.795C62.2088 293.674 62.4493 293.5 62.6463 293.273C62.8433 293.045 62.9834 292.773 63.0668 292.455H64.4077C64.3319 292.97 64.1444 293.434 63.8452 293.847C63.5497 294.256 63.1577 294.581 62.669 294.824C62.1842 295.062 61.6198 295.182 60.9759 295.182ZM70.027 295.182C69.1861 295.182 68.4607 294.996 67.8509 294.625C67.2448 294.25 66.777 293.727 66.4474 293.057C66.1217 292.383 65.9588 291.598 65.9588 290.705C65.9588 289.811 66.1217 289.023 66.4474 288.341C66.777 287.655 67.2353 287.121 67.8224 286.739C68.4134 286.352 69.1027 286.159 69.8906 286.159C70.3452 286.159 70.794 286.235 71.2372 286.386C71.6804 286.538 72.0838 286.784 72.4474 287.125C72.8111 287.462 73.1009 287.909 73.3168 288.466C73.5327 289.023 73.6406 289.708 73.6406 290.523V291.091H66.9134V289.932H72.277C72.277 289.439 72.1785 289 71.9815 288.614C71.7884 288.227 71.5118 287.922 71.152 287.699C70.7959 287.475 70.3755 287.364 69.8906 287.364C69.3565 287.364 68.8944 287.496 68.5043 287.761C68.1179 288.023 67.8205 288.364 67.6122 288.784C67.4039 289.205 67.2997 289.655 67.2997 290.136V290.909C67.2997 291.568 67.4134 292.127 67.6406 292.585C67.8717 293.04 68.1918 293.386 68.6009 293.625C69.0099 293.86 69.4853 293.977 70.027 293.977C70.3793 293.977 70.6974 293.928 70.9815 293.83C71.2694 293.727 71.5175 293.576 71.7259 293.375C71.9342 293.17 72.0952 292.917 72.2088 292.614L73.5043 292.977C73.3679 293.417 73.1387 293.803 72.8168 294.136C72.4948 294.466 72.0971 294.723 71.6236 294.909C71.1501 295.091 70.6179 295.182 70.027 295.182ZM71.0043 285.227L69.8224 283.636L68.6406 285.227H67.3679V285.136L69.2088 282.773H70.4361L72.277 285.136V285.227H71.0043ZM80.1804 298.273V286.273H81.4759V287.659H81.6349C81.7334 287.508 81.8698 287.314 82.044 287.08C82.2221 286.841 82.4759 286.629 82.8054 286.443C83.1387 286.254 83.5895 286.159 84.1577 286.159C84.8925 286.159 85.5402 286.343 86.1009 286.71C86.6615 287.078 87.099 287.598 87.4134 288.273C87.7277 288.947 87.8849 289.742 87.8849 290.659C87.8849 291.583 87.7277 292.384 87.4134 293.062C87.099 293.737 86.6634 294.259 86.1065 294.631C85.5497 294.998 84.9077 295.182 84.1804 295.182C83.6198 295.182 83.1709 295.089 82.8338 294.903C82.4967 294.714 82.2372 294.5 82.0554 294.261C81.8736 294.019 81.7334 293.818 81.6349 293.659H81.5213V298.273H80.1804ZM81.4986 290.636C81.4986 291.295 81.5952 291.877 81.7884 292.381C81.9815 292.881 82.2637 293.273 82.6349 293.557C83.0062 293.837 83.4607 293.977 83.9986 293.977C84.5592 293.977 85.027 293.83 85.402 293.534C85.7808 293.235 86.0649 292.833 86.2543 292.33C86.4474 291.822 86.544 291.258 86.544 290.636C86.544 290.023 86.4493 289.47 86.2599 288.977C86.0743 288.481 85.7921 288.089 85.4134 287.801C85.0384 287.509 84.5668 287.364 83.9986 287.364C83.4531 287.364 82.9948 287.502 82.6236 287.778C82.2524 288.051 81.9721 288.434 81.7827 288.926C81.5933 289.415 81.4986 289.985 81.4986 290.636ZM93.4759 295.182C92.688 295.182 91.9967 294.994 91.402 294.619C90.8111 294.244 90.349 293.72 90.0156 293.045C89.6861 292.371 89.5213 291.583 89.5213 290.682C89.5213 289.773 89.6861 288.979 90.0156 288.301C90.349 287.623 90.8111 287.097 91.402 286.722C91.9967 286.347 92.688 286.159 93.4759 286.159C94.2637 286.159 94.9531 286.347 95.544 286.722C96.1387 287.097 96.6009 287.623 96.9304 288.301C97.2637 288.979 97.4304 289.773 97.4304 290.682C97.4304 291.583 97.2637 292.371 96.9304 293.045C96.6009 293.72 96.1387 294.244 95.544 294.619C94.9531 294.994 94.2637 295.182 93.4759 295.182ZM93.4759 293.977C94.0743 293.977 94.5668 293.824 94.9531 293.517C95.3395 293.21 95.6255 292.807 95.8111 292.307C95.9967 291.807 96.0895 291.265 96.0895 290.682C96.0895 290.098 95.9967 289.555 95.8111 289.051C95.6255 288.547 95.3395 288.14 94.9531 287.83C94.5668 287.519 94.0743 287.364 93.4759 287.364C92.8774 287.364 92.3849 287.519 91.9986 287.83C91.6122 288.14 91.3262 288.547 91.1406 289.051C90.955 289.555 90.8622 290.098 90.8622 290.682C90.8622 291.265 90.955 291.807 91.1406 292.307C91.3262 292.807 91.6122 293.21 91.9986 293.517C92.3849 293.824 92.8774 293.977 93.4759 293.977ZM102.773 295.182C102.045 295.182 101.403 294.998 100.847 294.631C100.29 294.259 99.8542 293.737 99.5398 293.062C99.2254 292.384 99.0682 291.583 99.0682 290.659C99.0682 289.742 99.2254 288.947 99.5398 288.273C99.8542 287.598 100.292 287.078 100.852 286.71C101.413 286.343 102.061 286.159 102.795 286.159C103.364 286.159 103.813 286.254 104.142 286.443C104.475 286.629 104.729 286.841 104.903 287.08C105.081 287.314 105.22 287.508 105.318 287.659H105.432V283.364H106.773V295H105.477V293.659H105.318C105.22 293.818 105.08 294.019 104.898 294.261C104.716 294.5 104.456 294.714 104.119 294.903C103.782 295.089 103.333 295.182 102.773 295.182ZM102.955 293.977C103.492 293.977 103.947 293.837 104.318 293.557C104.689 293.273 104.972 292.881 105.165 292.381C105.358 291.877 105.455 291.295 105.455 290.636C105.455 289.985 105.36 289.415 105.17 288.926C104.981 288.434 104.701 288.051 104.33 287.778C103.958 287.502 103.5 287.364 102.955 287.364C102.386 287.364 101.913 287.509 101.534 287.801C101.159 288.089 100.877 288.481 100.688 288.977C100.502 289.47 100.409 290.023 100.409 290.636C100.409 291.258 100.504 291.822 100.693 292.33C100.886 292.833 101.17 293.235 101.545 293.534C101.924 293.83 102.394 293.977 102.955 293.977ZM113.074 295.182C112.233 295.182 111.508 294.996 110.898 294.625C110.292 294.25 109.824 293.727 109.494 293.057C109.169 292.383 109.006 291.598 109.006 290.705C109.006 289.811 109.169 289.023 109.494 288.341C109.824 287.655 110.282 287.121 110.869 286.739C111.46 286.352 112.15 286.159 112.938 286.159C113.392 286.159 113.841 286.235 114.284 286.386C114.727 286.538 115.131 286.784 115.494 287.125C115.858 287.462 116.148 287.909 116.364 288.466C116.58 289.023 116.688 289.708 116.688 290.523V291.091H109.96V289.932H115.324C115.324 289.439 115.225 289 115.028 288.614C114.835 288.227 114.559 287.922 114.199 287.699C113.843 287.475 113.422 287.364 112.938 287.364C112.403 287.364 111.941 287.496 111.551 287.761C111.165 288.023 110.867 288.364 110.659 288.784C110.451 289.205 110.347 289.655 110.347 290.136V290.909C110.347 291.568 110.46 292.127 110.688 292.585C110.919 293.04 111.239 293.386 111.648 293.625C112.057 293.86 112.532 293.977 113.074 293.977C113.426 293.977 113.744 293.928 114.028 293.83C114.316 293.727 114.564 293.576 114.773 293.375C114.981 293.17 115.142 292.917 115.256 292.614L116.551 292.977C116.415 293.417 116.186 293.803 115.864 294.136C115.542 294.466 115.144 294.723 114.67 294.909C114.197 295.091 113.665 295.182 113.074 295.182ZM123.227 295V286.273H124.568V295H123.227ZM123.909 284.818C123.648 284.818 123.422 284.729 123.233 284.551C123.047 284.373 122.955 284.159 122.955 283.909C122.955 283.659 123.047 283.445 123.233 283.267C123.422 283.089 123.648 283 123.909 283C124.17 283 124.394 283.089 124.58 283.267C124.769 283.445 124.864 283.659 124.864 283.909C124.864 284.159 124.769 284.373 124.58 284.551C124.394 284.729 124.17 284.818 123.909 284.818ZM128.365 289.75V295H127.024V286.273H128.32V287.636H128.433C128.638 287.193 128.948 286.837 129.365 286.568C129.782 286.295 130.32 286.159 130.979 286.159C131.57 286.159 132.087 286.28 132.53 286.523C132.973 286.761 133.318 287.125 133.564 287.614C133.81 288.098 133.933 288.712 133.933 289.455V295H132.592V289.545C132.592 288.86 132.414 288.326 132.058 287.943C131.702 287.557 131.214 287.364 130.592 287.364C130.164 287.364 129.782 287.456 129.445 287.642C129.111 287.828 128.848 288.098 128.655 288.455C128.462 288.811 128.365 289.242 128.365 289.75ZM142.565 288.227L141.361 288.568C141.285 288.367 141.173 288.172 141.026 287.983C140.882 287.79 140.685 287.631 140.435 287.506C140.185 287.381 139.865 287.318 139.474 287.318C138.94 287.318 138.495 287.441 138.139 287.688C137.787 287.93 137.611 288.239 137.611 288.614C137.611 288.947 137.732 289.21 137.974 289.403C138.217 289.597 138.596 289.758 139.111 289.886L140.406 290.205C141.187 290.394 141.768 290.684 142.151 291.074C142.533 291.46 142.724 291.958 142.724 292.568C142.724 293.068 142.58 293.515 142.293 293.909C142.009 294.303 141.611 294.614 141.099 294.841C140.588 295.068 139.993 295.182 139.315 295.182C138.425 295.182 137.688 294.989 137.105 294.602C136.522 294.216 136.152 293.652 135.997 292.909L137.27 292.591C137.391 293.061 137.62 293.413 137.957 293.648C138.298 293.883 138.743 294 139.293 294C139.918 294 140.414 293.867 140.781 293.602C141.152 293.333 141.338 293.011 141.338 292.636C141.338 292.333 141.232 292.08 141.02 291.875C140.808 291.667 140.482 291.511 140.043 291.409L138.588 291.068C137.789 290.879 137.202 290.585 136.827 290.188C136.455 289.786 136.27 289.284 136.27 288.682C136.27 288.189 136.408 287.754 136.685 287.375C136.965 286.996 137.346 286.699 137.827 286.483C138.312 286.267 138.861 286.159 139.474 286.159C140.338 286.159 141.016 286.348 141.509 286.727C142.005 287.106 142.357 287.606 142.565 288.227ZM144.743 298.273V286.273H146.038V287.659H146.197C146.296 287.508 146.432 287.314 146.607 287.08C146.785 286.841 147.038 286.629 147.368 286.443C147.701 286.254 148.152 286.159 148.72 286.159C149.455 286.159 150.103 286.343 150.663 286.71C151.224 287.078 151.661 287.598 151.976 288.273C152.29 288.947 152.447 289.742 152.447 290.659C152.447 291.583 152.29 292.384 151.976 293.062C151.661 293.737 151.226 294.259 150.669 294.631C150.112 294.998 149.47 295.182 148.743 295.182C148.182 295.182 147.733 295.089 147.396 294.903C147.059 294.714 146.8 294.5 146.618 294.261C146.436 294.019 146.296 293.818 146.197 293.659H146.084V298.273H144.743ZM146.061 290.636C146.061 291.295 146.158 291.877 146.351 292.381C146.544 292.881 146.826 293.273 147.197 293.557C147.569 293.837 148.023 293.977 148.561 293.977C149.122 293.977 149.589 293.83 149.964 293.534C150.343 293.235 150.627 292.833 150.817 292.33C151.01 291.822 151.107 291.258 151.107 290.636C151.107 290.023 151.012 289.47 150.822 288.977C150.637 288.481 150.355 288.089 149.976 287.801C149.601 287.509 149.129 287.364 148.561 287.364C148.016 287.364 147.557 287.502 147.186 287.778C146.815 288.051 146.535 288.434 146.345 288.926C146.156 289.415 146.061 289.985 146.061 290.636ZM158.152 295.182C157.311 295.182 156.586 294.996 155.976 294.625C155.37 294.25 154.902 293.727 154.572 293.057C154.247 292.383 154.084 291.598 154.084 290.705C154.084 289.811 154.247 289.023 154.572 288.341C154.902 287.655 155.36 287.121 155.947 286.739C156.538 286.352 157.228 286.159 158.016 286.159C158.47 286.159 158.919 286.235 159.362 286.386C159.805 286.538 160.209 286.784 160.572 287.125C160.936 287.462 161.226 287.909 161.442 288.466C161.658 289.023 161.766 289.708 161.766 290.523V291.091H155.038V289.932H160.402C160.402 289.439 160.304 289 160.107 288.614C159.913 288.227 159.637 287.922 159.277 287.699C158.921 287.475 158.5 287.364 158.016 287.364C157.482 287.364 157.019 287.496 156.629 287.761C156.243 288.023 155.946 288.364 155.737 288.784C155.529 289.205 155.425 289.655 155.425 290.136V290.909C155.425 291.568 155.538 292.127 155.766 292.585C155.997 293.04 156.317 293.386 156.726 293.625C157.135 293.86 157.61 293.977 158.152 293.977C158.504 293.977 158.822 293.928 159.107 293.83C159.394 293.727 159.643 293.576 159.851 293.375C160.059 293.17 160.22 292.917 160.334 292.614L161.629 292.977C161.493 293.417 161.264 293.803 160.942 294.136C160.62 294.466 160.222 294.723 159.749 294.909C159.275 295.091 158.743 295.182 158.152 295.182ZM167.351 295.182C166.533 295.182 165.828 294.989 165.237 294.602C164.646 294.216 164.192 293.684 163.874 293.006C163.555 292.328 163.396 291.553 163.396 290.682C163.396 289.795 163.559 289.013 163.885 288.335C164.214 287.653 164.673 287.121 165.26 286.739C165.851 286.352 166.54 286.159 167.328 286.159C167.942 286.159 168.495 286.273 168.987 286.5C169.48 286.727 169.883 287.045 170.197 287.455C170.512 287.864 170.707 288.341 170.783 288.886H169.442C169.339 288.489 169.112 288.136 168.76 287.83C168.411 287.519 167.942 287.364 167.351 287.364C166.828 287.364 166.37 287.5 165.976 287.773C165.586 288.042 165.281 288.422 165.061 288.915C164.845 289.403 164.737 289.977 164.737 290.636C164.737 291.311 164.843 291.898 165.055 292.398C165.271 292.898 165.574 293.286 165.964 293.562C166.358 293.839 166.821 293.977 167.351 293.977C167.699 293.977 168.016 293.917 168.3 293.795C168.584 293.674 168.824 293.5 169.021 293.273C169.218 293.045 169.358 292.773 169.442 292.455H170.783C170.707 292.97 170.519 293.434 170.22 293.847C169.925 294.256 169.533 294.581 169.044 294.824C168.559 295.062 167.995 295.182 167.351 295.182ZM172.743 295V286.273H174.084V295H172.743ZM173.425 284.818C173.163 284.818 172.938 284.729 172.749 284.551C172.563 284.373 172.47 284.159 172.47 283.909C172.47 283.659 172.563 283.445 172.749 283.267C172.938 283.089 173.163 283 173.425 283C173.686 283 173.91 283.089 174.095 283.267C174.285 283.445 174.379 283.659 174.379 283.909C174.379 284.159 174.285 284.373 174.095 284.551C173.91 284.729 173.686 284.818 173.425 284.818ZM180.085 295.182C179.297 295.182 178.606 294.994 178.011 294.619C177.42 294.244 176.958 293.72 176.625 293.045C176.295 292.371 176.131 291.583 176.131 290.682C176.131 289.773 176.295 288.979 176.625 288.301C176.958 287.623 177.42 287.097 178.011 286.722C178.606 286.347 179.297 286.159 180.085 286.159C180.873 286.159 181.563 286.347 182.153 286.722C182.748 287.097 183.21 287.623 183.54 288.301C183.873 288.979 184.04 289.773 184.04 290.682C184.04 291.583 183.873 292.371 183.54 293.045C183.21 293.72 182.748 294.244 182.153 294.619C181.563 294.994 180.873 295.182 180.085 295.182ZM180.085 293.977C180.684 293.977 181.176 293.824 181.562 293.517C181.949 293.21 182.235 292.807 182.42 292.307C182.606 291.807 182.699 291.265 182.699 290.682C182.699 290.098 182.606 289.555 182.42 289.051C182.235 288.547 181.949 288.14 181.562 287.83C181.176 287.519 180.684 287.364 180.085 287.364C179.487 287.364 178.994 287.519 178.608 287.83C178.222 288.14 177.936 288.547 177.75 289.051C177.564 289.555 177.472 290.098 177.472 290.682C177.472 291.265 177.564 291.807 177.75 292.307C177.936 292.807 178.222 293.21 178.608 293.517C178.994 293.824 179.487 293.977 180.085 293.977ZM187.428 289.75V295H186.087V286.273H187.382V287.636H187.496C187.7 287.193 188.011 286.837 188.428 286.568C188.844 286.295 189.382 286.159 190.041 286.159C190.632 286.159 191.149 286.28 191.592 286.523C192.036 286.761 192.38 287.125 192.626 287.614C192.873 288.098 192.996 288.712 192.996 289.455V295H191.655V289.545C191.655 288.86 191.477 288.326 191.121 287.943C190.765 287.557 190.276 287.364 189.655 287.364C189.227 287.364 188.844 287.456 188.507 287.642C188.174 287.828 187.911 288.098 187.717 288.455C187.524 288.811 187.428 289.242 187.428 289.75ZM198.014 295.205C197.461 295.205 196.959 295.1 196.509 294.892C196.058 294.68 195.7 294.375 195.435 293.977C195.17 293.576 195.037 293.091 195.037 292.523C195.037 292.023 195.135 291.617 195.332 291.307C195.529 290.992 195.793 290.746 196.122 290.568C196.452 290.39 196.815 290.258 197.213 290.17C197.615 290.08 198.018 290.008 198.423 289.955C198.954 289.886 199.384 289.835 199.713 289.801C200.046 289.763 200.289 289.701 200.44 289.614C200.596 289.527 200.673 289.375 200.673 289.159V289.114C200.673 288.553 200.52 288.117 200.213 287.807C199.91 287.496 199.45 287.341 198.832 287.341C198.192 287.341 197.69 287.481 197.327 287.761C196.963 288.042 196.707 288.341 196.56 288.659L195.287 288.205C195.514 287.674 195.817 287.261 196.196 286.966C196.579 286.667 196.995 286.458 197.446 286.341C197.901 286.22 198.348 286.159 198.787 286.159C199.067 286.159 199.389 286.193 199.753 286.261C200.12 286.326 200.474 286.46 200.815 286.665C201.16 286.869 201.446 287.178 201.673 287.591C201.901 288.004 202.014 288.557 202.014 289.25V295H200.673V293.818H200.605C200.514 294.008 200.363 294.21 200.151 294.426C199.938 294.642 199.656 294.826 199.304 294.977C198.952 295.129 198.522 295.205 198.014 295.205ZM198.219 294C198.749 294 199.196 293.896 199.56 293.688C199.927 293.479 200.204 293.21 200.389 292.881C200.579 292.551 200.673 292.205 200.673 291.841V290.614C200.616 290.682 200.491 290.744 200.298 290.801C200.109 290.854 199.889 290.902 199.639 290.943C199.393 290.981 199.152 291.015 198.918 291.045C198.687 291.072 198.499 291.095 198.355 291.114C198.007 291.159 197.681 291.233 197.378 291.335C197.079 291.434 196.836 291.583 196.651 291.784C196.469 291.981 196.378 292.25 196.378 292.591C196.378 293.057 196.55 293.409 196.895 293.648C197.243 293.883 197.685 294 198.219 294ZM204.462 295V286.273H205.757V287.591H205.848C206.007 287.159 206.295 286.809 206.712 286.54C207.128 286.271 207.598 286.136 208.121 286.136C208.219 286.136 208.342 286.138 208.49 286.142C208.638 286.146 208.75 286.152 208.825 286.159V287.523C208.78 287.511 208.676 287.494 208.513 287.472C208.354 287.445 208.185 287.432 208.007 287.432C207.583 287.432 207.204 287.521 206.871 287.699C206.541 287.873 206.28 288.116 206.087 288.426C205.897 288.733 205.803 289.083 205.803 289.477V295H204.462ZM218.71 286.273V287.409H214.188V286.273H218.71ZM215.506 284.182H216.847V292.5C216.847 292.879 216.902 293.163 217.011 293.352C217.125 293.538 217.269 293.663 217.443 293.727C217.621 293.788 217.809 293.818 218.006 293.818C218.153 293.818 218.275 293.811 218.369 293.795C218.464 293.777 218.54 293.761 218.597 293.75L218.869 294.955C218.778 294.989 218.652 295.023 218.489 295.057C218.326 295.095 218.119 295.114 217.869 295.114C217.491 295.114 217.119 295.032 216.756 294.869C216.396 294.706 216.097 294.458 215.858 294.125C215.623 293.792 215.506 293.371 215.506 292.864V284.182ZM224.179 295.182C223.391 295.182 222.7 294.994 222.105 294.619C221.514 294.244 221.052 293.72 220.719 293.045C220.389 292.371 220.224 291.583 220.224 290.682C220.224 289.773 220.389 288.979 220.719 288.301C221.052 287.623 221.514 287.097 222.105 286.722C222.7 286.347 223.391 286.159 224.179 286.159C224.967 286.159 225.656 286.347 226.247 286.722C226.842 287.097 227.304 287.623 227.634 288.301C227.967 288.979 228.134 289.773 228.134 290.682C228.134 291.583 227.967 292.371 227.634 293.045C227.304 293.72 226.842 294.244 226.247 294.619C225.656 294.994 224.967 295.182 224.179 295.182ZM224.179 293.977C224.777 293.977 225.27 293.824 225.656 293.517C226.043 293.21 226.329 292.807 226.514 292.307C226.7 291.807 226.793 291.265 226.793 290.682C226.793 290.098 226.7 289.555 226.514 289.051C226.329 288.547 226.043 288.14 225.656 287.83C225.27 287.519 224.777 287.364 224.179 287.364C223.58 287.364 223.088 287.519 222.702 287.83C222.315 288.14 222.029 288.547 221.844 289.051C221.658 289.555 221.565 290.098 221.565 290.682C221.565 291.265 221.658 291.807 221.844 292.307C222.029 292.807 222.315 293.21 222.702 293.517C223.088 293.824 223.58 293.977 224.179 293.977ZM233.476 295.182C232.749 295.182 232.107 294.998 231.55 294.631C230.993 294.259 230.557 293.737 230.243 293.062C229.929 292.384 229.771 291.583 229.771 290.659C229.771 289.742 229.929 288.947 230.243 288.273C230.557 287.598 230.995 287.078 231.555 286.71C232.116 286.343 232.764 286.159 233.499 286.159C234.067 286.159 234.516 286.254 234.845 286.443C235.179 286.629 235.432 286.841 235.607 287.08C235.785 287.314 235.923 287.508 236.021 287.659H236.135V283.364H237.476V295H236.18V293.659H236.021C235.923 293.818 235.783 294.019 235.601 294.261C235.419 294.5 235.16 294.714 234.822 294.903C234.485 295.089 234.036 295.182 233.476 295.182ZM233.658 293.977C234.196 293.977 234.65 293.837 235.021 293.557C235.393 293.273 235.675 292.881 235.868 292.381C236.061 291.877 236.158 291.295 236.158 290.636C236.158 289.985 236.063 289.415 235.874 288.926C235.684 288.434 235.404 288.051 235.033 287.778C234.661 287.502 234.203 287.364 233.658 287.364C233.089 287.364 232.616 287.509 232.237 287.801C231.862 288.089 231.58 288.481 231.391 288.977C231.205 289.47 231.112 290.023 231.112 290.636C231.112 291.258 231.207 291.822 231.396 292.33C231.589 292.833 231.874 293.235 232.249 293.534C232.627 293.83 233.097 293.977 233.658 293.977ZM242.686 295.205C242.133 295.205 241.631 295.1 241.18 294.892C240.73 294.68 240.372 294.375 240.107 293.977C239.841 293.576 239.709 293.091 239.709 292.523C239.709 292.023 239.807 291.617 240.004 291.307C240.201 290.992 240.464 290.746 240.794 290.568C241.124 290.39 241.487 290.258 241.885 290.17C242.286 290.08 242.69 290.008 243.095 289.955C243.625 289.886 244.055 289.835 244.385 289.801C244.718 289.763 244.961 289.701 245.112 289.614C245.268 289.527 245.345 289.375 245.345 289.159V289.114C245.345 288.553 245.192 288.117 244.885 287.807C244.582 287.496 244.122 287.341 243.504 287.341C242.864 287.341 242.362 287.481 241.999 287.761C241.635 288.042 241.379 288.341 241.232 288.659L239.959 288.205C240.186 287.674 240.489 287.261 240.868 286.966C241.25 286.667 241.667 286.458 242.118 286.341C242.572 286.22 243.019 286.159 243.459 286.159C243.739 286.159 244.061 286.193 244.425 286.261C244.792 286.326 245.146 286.46 245.487 286.665C245.832 286.869 246.118 287.178 246.345 287.591C246.572 288.004 246.686 288.557 246.686 289.25V295H245.345V293.818H245.277C245.186 294.008 245.035 294.21 244.822 294.426C244.61 294.642 244.328 294.826 243.976 294.977C243.624 295.129 243.194 295.205 242.686 295.205ZM242.891 294C243.421 294 243.868 293.896 244.232 293.688C244.599 293.479 244.875 293.21 245.061 292.881C245.25 292.551 245.345 292.205 245.345 291.841V290.614C245.288 290.682 245.163 290.744 244.97 290.801C244.781 290.854 244.561 290.902 244.311 290.943C244.065 290.981 243.824 291.015 243.589 291.045C243.358 291.072 243.171 291.095 243.027 291.114C242.679 291.159 242.353 291.233 242.05 291.335C241.75 291.434 241.508 291.583 241.322 291.784C241.141 291.981 241.05 292.25 241.05 292.591C241.05 293.057 241.222 293.409 241.567 293.648C241.915 293.883 242.357 294 242.891 294ZM255.315 288.227L254.111 288.568C254.035 288.367 253.923 288.172 253.776 287.983C253.632 287.79 253.435 287.631 253.185 287.506C252.935 287.381 252.615 287.318 252.224 287.318C251.69 287.318 251.245 287.441 250.889 287.688C250.537 287.93 250.361 288.239 250.361 288.614C250.361 288.947 250.482 289.21 250.724 289.403C250.967 289.597 251.346 289.758 251.861 289.886L253.156 290.205C253.937 290.394 254.518 290.684 254.901 291.074C255.283 291.46 255.474 291.958 255.474 292.568C255.474 293.068 255.33 293.515 255.043 293.909C254.759 294.303 254.361 294.614 253.849 294.841C253.338 295.068 252.743 295.182 252.065 295.182C251.175 295.182 250.438 294.989 249.855 294.602C249.272 294.216 248.902 293.652 248.747 292.909L250.02 292.591C250.141 293.061 250.37 293.413 250.707 293.648C251.048 293.883 251.493 294 252.043 294C252.668 294 253.164 293.867 253.531 293.602C253.902 293.333 254.088 293.011 254.088 292.636C254.088 292.333 253.982 292.08 253.77 291.875C253.558 291.667 253.232 291.511 252.793 291.409L251.338 291.068C250.539 290.879 249.952 290.585 249.577 290.188C249.205 289.786 249.02 289.284 249.02 288.682C249.02 288.189 249.158 287.754 249.435 287.375C249.715 286.996 250.096 286.699 250.577 286.483C251.062 286.267 251.611 286.159 252.224 286.159C253.088 286.159 253.766 286.348 254.259 286.727C254.755 287.106 255.107 287.606 255.315 288.227ZM32.3636 312.273L29.1364 321H27.7727L24.5455 312.273H26L28.4091 319.227H28.5L30.9091 312.273H32.3636ZM36.4361 321.205C35.883 321.205 35.3812 321.1 34.9304 320.892C34.4796 320.68 34.1217 320.375 33.8565 319.977C33.5914 319.576 33.4588 319.091 33.4588 318.523C33.4588 318.023 33.5573 317.617 33.7543 317.307C33.9512 316.992 34.2145 316.746 34.544 316.568C34.8736 316.39 35.2372 316.258 35.6349 316.17C36.0365 316.08 36.4399 316.008 36.8452 315.955C37.3755 315.886 37.8054 315.835 38.1349 315.801C38.4683 315.763 38.7107 315.701 38.8622 315.614C39.0175 315.527 39.0952 315.375 39.0952 315.159V315.114C39.0952 314.553 38.9418 314.117 38.6349 313.807C38.3319 313.496 37.8717 313.341 37.2543 313.341C36.6141 313.341 36.1122 313.481 35.7486 313.761C35.3849 314.042 35.1293 314.341 34.9815 314.659L33.7088 314.205C33.9361 313.674 34.2391 313.261 34.6179 312.966C35.0005 312.667 35.4171 312.458 35.8679 312.341C36.3224 312.22 36.7694 312.159 37.2088 312.159C37.4891 312.159 37.8111 312.193 38.1747 312.261C38.5421 312.326 38.8963 312.46 39.2372 312.665C39.5819 312.869 39.8679 313.178 40.0952 313.591C40.3224 314.004 40.4361 314.557 40.4361 315.25V321H39.0952V319.818H39.027C38.9361 320.008 38.7846 320.21 38.5724 320.426C38.3603 320.642 38.0781 320.826 37.7259 320.977C37.3736 321.129 36.9437 321.205 36.4361 321.205ZM36.6406 320C37.1709 320 37.6179 319.896 37.9815 319.688C38.349 319.479 38.6255 319.21 38.8111 318.881C39.0005 318.551 39.0952 318.205 39.0952 317.841V316.614C39.0384 316.682 38.9134 316.744 38.7202 316.801C38.5308 316.854 38.3111 316.902 38.0611 316.943C37.8149 316.981 37.5743 317.015 37.3395 317.045C37.1084 317.072 36.9209 317.095 36.777 317.114C36.4285 317.159 36.1027 317.233 35.7997 317.335C35.5005 317.434 35.258 317.583 35.0724 317.784C34.8906 317.981 34.7997 318.25 34.7997 318.591C34.7997 319.057 34.9721 319.409 35.3168 319.648C35.6652 319.883 36.1065 320 36.6406 320ZM46.4062 324.455C45.7585 324.455 45.2017 324.371 44.7358 324.205C44.2699 324.042 43.8816 323.826 43.571 323.557C43.2642 323.292 43.0199 323.008 42.8381 322.705L43.9062 321.955C44.0275 322.114 44.1809 322.295 44.3665 322.5C44.5521 322.708 44.8059 322.888 45.1278 323.04C45.4536 323.195 45.8797 323.273 46.4062 323.273C47.1108 323.273 47.6922 323.102 48.1506 322.761C48.6089 322.42 48.8381 321.886 48.8381 321.159V319.386H48.7244C48.6259 319.545 48.4858 319.742 48.304 319.977C48.1259 320.208 47.8684 320.415 47.5312 320.597C47.1979 320.775 46.7472 320.864 46.179 320.864C45.4744 320.864 44.8419 320.697 44.2812 320.364C43.7244 320.03 43.2831 319.545 42.9574 318.909C42.6354 318.273 42.4744 317.5 42.4744 316.591C42.4744 315.697 42.6316 314.919 42.946 314.256C43.2604 313.589 43.6979 313.074 44.2585 312.71C44.8191 312.343 45.4669 312.159 46.2017 312.159C46.7699 312.159 47.2206 312.254 47.554 312.443C47.8911 312.629 48.1487 312.841 48.3267 313.08C48.5085 313.314 48.6487 313.508 48.7472 313.659H48.8835V312.273H50.179V321.25C50.179 322 50.0085 322.61 49.6676 323.08C49.3305 323.553 48.8759 323.9 48.304 324.119C47.7358 324.343 47.1032 324.455 46.4062 324.455ZM46.3608 319.659C46.8987 319.659 47.3532 319.536 47.7244 319.29C48.0956 319.044 48.3778 318.689 48.571 318.227C48.7642 317.765 48.8608 317.212 48.8608 316.568C48.8608 315.939 48.7661 315.384 48.5767 314.903C48.3873 314.422 48.107 314.045 47.7358 313.773C47.3646 313.5 46.9063 313.364 46.3608 313.364C45.7926 313.364 45.3191 313.508 44.9403 313.795C44.5653 314.083 44.2831 314.47 44.0938 314.955C43.9081 315.439 43.8153 315.977 43.8153 316.568C43.8153 317.174 43.91 317.71 44.0994 318.176C44.2926 318.638 44.5767 319.002 44.9517 319.267C45.3305 319.528 45.8002 319.659 46.3608 319.659ZM55.2017 321.205C54.6487 321.205 54.1468 321.1 53.696 320.892C53.2453 320.68 52.8873 320.375 52.6222 319.977C52.357 319.576 52.2244 319.091 52.2244 318.523C52.2244 318.023 52.3229 317.617 52.5199 317.307C52.7169 316.992 52.9801 316.746 53.3097 316.568C53.6392 316.39 54.0028 316.258 54.4006 316.17C54.8021 316.08 55.2055 316.008 55.6108 315.955C56.1411 315.886 56.571 315.835 56.9006 315.801C57.2339 315.763 57.4763 315.701 57.6278 315.614C57.7831 315.527 57.8608 315.375 57.8608 315.159V315.114C57.8608 314.553 57.7074 314.117 57.4006 313.807C57.0975 313.496 56.6373 313.341 56.0199 313.341C55.3797 313.341 54.8778 313.481 54.5142 313.761C54.1506 314.042 53.8949 314.341 53.7472 314.659L52.4744 314.205C52.7017 313.674 53.0047 313.261 53.3835 312.966C53.7661 312.667 54.1828 312.458 54.6335 312.341C55.0881 312.22 55.535 312.159 55.9744 312.159C56.2547 312.159 56.5767 312.193 56.9403 312.261C57.3078 312.326 57.6619 312.46 58.0028 312.665C58.3475 312.869 58.6335 313.178 58.8608 313.591C59.0881 314.004 59.2017 314.557 59.2017 315.25V321H57.8608V319.818H57.7926C57.7017 320.008 57.5502 320.21 57.3381 320.426C57.1259 320.642 56.8438 320.826 56.4915 320.977C56.1392 321.129 55.7093 321.205 55.2017 321.205ZM55.4062 320C55.9366 320 56.3835 319.896 56.7472 319.688C57.1146 319.479 57.3911 319.21 57.5767 318.881C57.7661 318.551 57.8608 318.205 57.8608 317.841V316.614C57.804 316.682 57.679 316.744 57.4858 316.801C57.2964 316.854 57.0767 316.902 56.8267 316.943C56.5805 316.981 56.34 317.015 56.1051 317.045C55.8741 317.072 55.6866 317.095 55.5426 317.114C55.1941 317.159 54.8684 317.233 54.5653 317.335C54.2661 317.434 54.0237 317.583 53.8381 317.784C53.6563 317.981 53.5653 318.25 53.5653 318.591C53.5653 319.057 53.7377 319.409 54.0824 319.648C54.4309 319.883 54.8722 320 55.4062 320ZM67.831 314.227L66.6264 314.568C66.5507 314.367 66.4389 314.172 66.2912 313.983C66.1473 313.79 65.9503 313.631 65.7003 313.506C65.4503 313.381 65.1302 313.318 64.7401 313.318C64.206 313.318 63.7609 313.441 63.4048 313.688C63.0526 313.93 62.8764 314.239 62.8764 314.614C62.8764 314.947 62.9976 315.21 63.2401 315.403C63.4825 315.597 63.8613 315.758 64.3764 315.886L65.6719 316.205C66.4522 316.394 67.0336 316.684 67.4162 317.074C67.7988 317.46 67.9901 317.958 67.9901 318.568C67.9901 319.068 67.8461 319.515 67.5582 319.909C67.2741 320.303 66.8764 320.614 66.3651 320.841C65.8537 321.068 65.259 321.182 64.581 321.182C63.6908 321.182 62.9541 320.989 62.3707 320.602C61.7874 320.216 61.4181 319.652 61.2628 318.909L62.5355 318.591C62.6567 319.061 62.8859 319.413 63.223 319.648C63.5639 319.883 64.009 320 64.5582 320C65.1832 320 65.6795 319.867 66.0469 319.602C66.4181 319.333 66.6037 319.011 66.6037 318.636C66.6037 318.333 66.4976 318.08 66.2855 317.875C66.0734 317.667 65.7476 317.511 65.3082 317.409L63.8537 317.068C63.0545 316.879 62.4673 316.585 62.0923 316.188C61.7211 315.786 61.5355 315.284 61.5355 314.682C61.5355 314.189 61.6738 313.754 61.9503 313.375C62.2306 312.996 62.6113 312.699 63.0923 312.483C63.5772 312.267 64.1264 312.159 64.7401 312.159C65.6037 312.159 66.2817 312.348 66.7741 312.727C67.2704 313.106 67.6226 313.606 67.831 314.227Z" fill="black"/>
<mask id="mask0_451_211" style="mask-type:luminance" maskUnits="userSpaceOnUse" x="65" y="43" width="171" height="171">
<path d="M65.2059 43.2061H235.306V213.306H65.2059V43.2061Z" fill="white"/>
</mask>
<g mask="url(#mask0_451_211)">
<path d="M227.024 189.583L207.875 193.061V65.1576C207.875 62.1323 205.407 59.6714 202.382 59.6714H152.999V56.5739L210.605 48.7251C212.258 48.5217 213.768 49.6898 213.952 51.3436L229.8 185.849C229.813 185.98 229.82 186.111 229.82 186.236C229.82 187.876 228.652 189.281 227.024 189.583ZM202.382 207.82H114.589V154.493L121.932 163.3C125.167 167.185 129.938 169.409 135.149 169.409C138.942 169.409 142.027 166.325 142.027 162.368C142.027 161.095 141.672 159.841 141.022 158.745L128.377 137.654C125.909 133.552 121.394 130.999 116.603 130.999H114.589V65.1576H125.568V73.387C125.568 77.9282 129.249 81.6164 133.797 81.6164C138.338 81.6164 142.027 77.9282 142.027 73.387V65.1576H147.513V76.1301H152.999V65.1576H202.382V207.82ZM92.2762 181.255L87.1575 178.689V146.185L97.5525 139.255C100.276 137.444 103.426 136.485 106.681 136.485H116.603C119.478 136.485 122.188 138.021 123.671 140.489L136.317 161.574C136.468 161.81 136.54 162.092 136.54 162.532C136.54 163.3 135.917 163.923 135.018 163.923C131.566 163.923 128.344 162.414 126.145 159.789L114.786 146.145L112.18 148.738C107.692 153.22 101.733 155.694 95.3869 155.694V161.18C100.25 161.18 104.922 159.973 109.102 157.748V185.711C103.275 185.337 97.5066 183.867 92.2762 181.255ZM70.6922 185.875V141.978H81.6712V185.875H70.6922ZM131.054 65.1576H136.54V73.387C136.54 74.8964 135.307 76.1301 133.797 76.1301C132.288 76.1301 131.054 74.8964 131.054 73.387V65.1576ZM131.054 54.1851C131.054 51.1598 133.515 48.6923 136.54 48.6923H142.027C145.052 48.6923 147.513 51.1598 147.513 54.1851V59.6714H142.027V54.1851H136.54V59.6714H131.054V54.1851ZM235.24 185.199L219.405 50.707C218.919 46.4348 215.31 43.2061 211.012 43.2061C210.624 43.2061 210.231 43.2323 209.857 43.2848L152.507 51.1073C151.168 46.5595 147.007 43.2061 142.027 43.2061H136.54C130.483 43.2061 125.568 48.1279 125.568 54.1851V59.6714H114.589C111.57 59.6714 109.102 62.1323 109.102 65.1576V130.999H106.681C102.343 130.999 98.13 132.279 94.5075 134.687L86.7244 139.878C85.9041 137.89 83.9484 136.485 81.6712 136.485H70.6922C67.6734 136.485 65.2059 138.953 65.2059 141.978V185.875C65.2059 188.894 67.6734 191.361 70.6922 191.361H81.6712C84.69 191.361 87.1575 188.894 87.1575 185.875V184.825L89.835 186.164C95.8134 189.149 102.428 190.902 109.102 191.276V207.82C109.102 210.845 111.57 213.306 114.589 213.306H202.382C205.407 213.306 207.875 210.845 207.875 207.82V198.639L228.008 194.984C232.241 194.209 235.306 190.534 235.306 186.236C235.306 185.881 235.286 185.527 235.24 185.199Z" fill="#101820"/>
</g>
<path d="M158.485 141.978H191.409V174.896H158.485V141.978ZM152.999 180.382H196.896V136.485H152.999V180.382Z" fill="#101820"/>
<path d="M169.464 191.361H196.896V185.875H169.464V191.361Z" fill="#101820"/>
<path d="M152.999 185.875V191.361H163.978V185.875H152.999Z" fill="#101820"/>
<path d="M152.999 202.333H196.896V196.847H152.999V202.333Z" fill="#101820"/>
<path d="M120.082 191.361H147.513V185.875H120.082V191.361Z" fill="#101820"/>
<path d="M120.082 202.333H147.513V196.847H120.082V202.333Z" fill="#101820"/>
<path d="M136.54 180.382H147.513V174.896H136.54V180.382Z" fill="#101820"/>
<path d="M131.054 174.896H120.082V180.382H131.054V174.896Z" fill="#101820"/>
<path d="M152.999 130.999H196.896V125.513H152.999V130.999Z" fill="#101820"/>
<path d="M125.568 120.027H147.513V114.541H125.568V120.027Z" fill="#101820"/>
<path d="M125.568 109.054H147.513V103.568H125.568V109.054Z" fill="#101820"/>
<path d="M152.999 109.054H196.896V103.568H152.999V109.054Z" fill="#101820"/>
<path d="M125.568 98.0817H196.896V92.5889H125.568V98.0817Z" fill="#101820"/>
<path d="M152.999 114.541V120.027H163.978V114.541H152.999Z" fill="#101820"/>
<path d="M169.464 120.027H196.896V114.541H169.464V120.027Z" fill="#101820"/>
<path d="M196.896 81.6162H169.464V87.1025H196.896V81.6162Z" fill="#101820"/>
<path d="M163.978 81.6162H152.999V87.1025H163.978V81.6162Z" fill="#101820"/>
</svg>
