<svg xmlns="http://www.w3.org/2000/svg" xmlns:xlink="http://www.w3.org/1999/xlink" width="200" zoomAndPan="magnify" viewBox="0 0 150 149.999998" height="200" preserveAspectRatio="xMidYMid meet" version="1.0"><defs><clipPath id="a44030013a"><path d="M 24.527344 24.527344 L 125.777344 24.527344 L 125.777344 125.777344 L 24.527344 125.777344 Z M 24.527344 24.527344 " clip-rule="nonzero"/></clipPath></defs><g clip-path="url(#a44030013a)"><path fill="#101820" d="M 120.847656 111.65625 L 109.449219 113.726562 L 109.449219 37.59375 C 109.449219 35.792969 107.980469 34.328125 106.179688 34.328125 L 76.785156 34.328125 L 76.785156 32.484375 L 111.074219 27.8125 C 112.058594 27.691406 112.957031 28.386719 113.066406 29.371094 L 122.5 109.433594 C 122.507812 109.511719 122.511719 109.589844 122.511719 109.664062 C 122.511719 110.640625 121.816406 111.476562 120.847656 111.65625 Z M 106.179688 122.511719 L 53.921875 122.511719 L 53.921875 90.769531 L 58.292969 96.011719 C 60.21875 98.324219 63.058594 99.648438 66.160156 99.648438 C 68.417969 99.648438 70.253906 97.8125 70.253906 95.457031 C 70.253906 94.699219 70.042969 93.953125 69.65625 93.300781 L 62.128906 80.746094 C 60.660156 78.304688 57.972656 76.785156 55.121094 76.785156 L 53.921875 76.785156 L 53.921875 37.59375 L 60.457031 37.59375 L 60.457031 42.492188 C 60.457031 45.195312 62.648438 47.390625 65.355469 47.390625 C 68.058594 47.390625 70.253906 45.195312 70.253906 42.492188 L 70.253906 37.59375 L 73.519531 37.59375 L 73.519531 44.125 L 76.785156 44.125 L 76.785156 37.59375 L 106.179688 37.59375 Z M 40.640625 106.699219 L 37.59375 105.171875 L 37.59375 85.824219 L 43.78125 81.699219 C 45.402344 80.621094 47.277344 80.050781 49.214844 80.050781 L 55.121094 80.050781 C 56.832031 80.050781 58.445312 80.964844 59.328125 82.433594 L 66.855469 94.984375 C 66.945312 95.125 66.988281 95.292969 66.988281 95.554688 C 66.988281 96.011719 66.617188 96.382812 66.082031 96.382812 C 64.027344 96.382812 62.109375 95.484375 60.800781 93.921875 L 54.039062 85.800781 L 52.488281 87.34375 C 49.816406 90.011719 46.269531 91.484375 42.492188 91.484375 L 42.492188 94.75 C 45.386719 94.75 48.167969 94.03125 50.65625 92.707031 L 50.65625 109.351562 C 47.1875 109.128906 43.753906 108.253906 40.640625 106.699219 Z M 27.792969 109.449219 L 27.792969 83.320312 L 34.328125 83.320312 L 34.328125 109.449219 Z M 63.722656 37.59375 L 66.988281 37.59375 L 66.988281 42.492188 C 66.988281 43.390625 66.253906 44.125 65.355469 44.125 C 64.457031 44.125 63.722656 43.390625 63.722656 42.492188 Z M 63.722656 31.0625 C 63.722656 29.261719 65.1875 27.792969 66.988281 27.792969 L 70.253906 27.792969 C 72.054688 27.792969 73.519531 29.261719 73.519531 31.0625 L 73.519531 34.328125 L 70.253906 34.328125 L 70.253906 31.0625 L 66.988281 31.0625 L 66.988281 34.328125 L 63.722656 34.328125 Z M 125.738281 109.046875 L 116.3125 28.992188 C 116.023438 26.449219 113.875 24.527344 111.316406 24.527344 C 111.085938 24.527344 110.851562 24.542969 110.628906 24.574219 L 76.492188 29.230469 C 75.695312 26.523438 73.21875 24.527344 70.253906 24.527344 L 66.988281 24.527344 C 63.382812 24.527344 60.457031 27.457031 60.457031 31.0625 L 60.457031 34.328125 L 53.921875 34.328125 C 52.125 34.328125 50.65625 35.792969 50.65625 37.59375 L 50.65625 76.785156 L 49.214844 76.785156 C 46.632812 76.785156 44.125 77.546875 41.96875 78.980469 L 37.335938 82.070312 C 36.847656 80.886719 35.683594 80.050781 34.328125 80.050781 L 27.792969 80.050781 C 25.996094 80.050781 24.527344 81.519531 24.527344 83.320312 L 24.527344 109.449219 C 24.527344 111.246094 25.996094 112.714844 27.792969 112.714844 L 34.328125 112.714844 C 36.125 112.714844 37.59375 111.246094 37.59375 109.449219 L 37.59375 108.824219 L 39.1875 109.621094 C 42.746094 111.398438 46.683594 112.441406 50.65625 112.664062 L 50.65625 122.511719 C 50.65625 124.3125 52.125 125.777344 53.921875 125.777344 L 106.179688 125.777344 C 107.980469 125.777344 109.449219 124.3125 109.449219 122.511719 L 109.449219 117.046875 L 121.433594 114.871094 C 123.953125 114.410156 125.777344 112.222656 125.777344 109.664062 C 125.777344 109.453125 125.765625 109.242188 125.738281 109.046875 " fill-opacity="1" fill-rule="nonzero"/></g><path fill="#101820" d="M 80.050781 83.320312 L 99.648438 83.320312 L 99.648438 102.914062 L 80.050781 102.914062 Z M 76.785156 106.179688 L 102.914062 106.179688 L 102.914062 80.050781 L 76.785156 80.050781 L 76.785156 106.179688 " fill-opacity="1" fill-rule="nonzero"/><path fill="#101820" d="M 86.585938 112.714844 L 102.914062 112.714844 L 102.914062 109.449219 L 86.585938 109.449219 L 86.585938 112.714844 " fill-opacity="1" fill-rule="nonzero"/><path fill="#101820" d="M 76.785156 109.449219 L 76.785156 112.714844 L 83.320312 112.714844 L 83.320312 109.449219 L 76.785156 109.449219 " fill-opacity="1" fill-rule="nonzero"/><path fill="#101820" d="M 76.785156 119.246094 L 102.914062 119.246094 L 102.914062 115.980469 L 76.785156 115.980469 L 76.785156 119.246094 " fill-opacity="1" fill-rule="nonzero"/><path fill="#101820" d="M 57.191406 112.714844 L 73.519531 112.714844 L 73.519531 109.449219 L 57.191406 109.449219 L 57.191406 112.714844 " fill-opacity="1" fill-rule="nonzero"/><path fill="#101820" d="M 57.191406 119.246094 L 73.519531 119.246094 L 73.519531 115.980469 L 57.191406 115.980469 L 57.191406 119.246094 " fill-opacity="1" fill-rule="nonzero"/><path fill="#101820" d="M 66.988281 106.179688 L 73.519531 106.179688 L 73.519531 102.914062 L 66.988281 102.914062 L 66.988281 106.179688 " fill-opacity="1" fill-rule="nonzero"/><path fill="#101820" d="M 63.722656 102.914062 L 57.191406 102.914062 L 57.191406 106.179688 L 63.722656 106.179688 L 63.722656 102.914062 " fill-opacity="1" fill-rule="nonzero"/><path fill="#101820" d="M 76.785156 76.785156 L 102.914062 76.785156 L 102.914062 73.519531 L 76.785156 73.519531 L 76.785156 76.785156 " fill-opacity="1" fill-rule="nonzero"/><path fill="#101820" d="M 60.457031 70.253906 L 73.519531 70.253906 L 73.519531 66.988281 L 60.457031 66.988281 L 60.457031 70.253906 " fill-opacity="1" fill-rule="nonzero"/><path fill="#101820" d="M 60.457031 63.722656 L 73.519531 63.722656 L 73.519531 60.457031 L 60.457031 60.457031 L 60.457031 63.722656 " fill-opacity="1" fill-rule="nonzero"/><path fill="#101820" d="M 76.785156 63.722656 L 102.914062 63.722656 L 102.914062 60.457031 L 76.785156 60.457031 L 76.785156 63.722656 " fill-opacity="1" fill-rule="nonzero"/><path fill="#101820" d="M 60.457031 57.191406 L 102.914062 57.191406 L 102.914062 53.921875 L 60.457031 53.921875 L 60.457031 57.191406 " fill-opacity="1" fill-rule="nonzero"/><path fill="#101820" d="M 76.785156 66.988281 L 76.785156 70.253906 L 83.320312 70.253906 L 83.320312 66.988281 L 76.785156 66.988281 " fill-opacity="1" fill-rule="nonzero"/><path fill="#101820" d="M 86.585938 70.253906 L 102.914062 70.253906 L 102.914062 66.988281 L 86.585938 66.988281 L 86.585938 70.253906 " fill-opacity="1" fill-rule="nonzero"/><path fill="#101820" d="M 102.914062 47.390625 L 86.585938 47.390625 L 86.585938 50.65625 L 102.914062 50.65625 L 102.914062 47.390625 " fill-opacity="1" fill-rule="nonzero"/><path fill="#101820" d="M 83.320312 47.390625 L 76.785156 47.390625 L 76.785156 50.65625 L 83.320312 50.65625 L 83.320312 47.390625 " fill-opacity="1" fill-rule="nonzero"/></svg>