<svg width="26" height="26" viewBox="0 0 26 26" fill="none" xmlns="http://www.w3.org/2000/svg">
<path d="M19.0734 14.7755C19.0281 14.7531 17.3259 13.9135 17.0239 13.8045C16.9 13.7599 16.768 13.7165 16.6278 13.7165C16.3976 13.7165 16.2046 13.8316 16.0543 14.0571C15.8844 14.3103 15.3698 14.9129 15.2107 15.093C15.1904 15.1174 15.1619 15.1452 15.1443 15.1452C15.1294 15.1452 14.866 15.0368 14.7862 15.0023C12.9607 14.2074 11.5754 12.2953 11.3858 11.973C11.3581 11.927 11.3574 11.906 11.3574 11.906C11.3635 11.8816 11.4251 11.8193 11.4569 11.7875C11.5497 11.6961 11.6499 11.5749 11.7474 11.4571C11.7928 11.4016 11.8388 11.346 11.8842 11.2939C12.025 11.1294 12.088 11.0014 12.1611 10.8538L12.199 10.7773C12.3764 10.4232 12.2247 10.1246 12.176 10.0284C12.1354 9.94787 11.417 8.20912 11.3405 8.02631C11.157 7.58553 10.9139 7.38037 10.5767 7.38037C10.5456 7.38037 10.5767 7.38037 10.446 7.38646C10.2856 7.39324 9.41553 7.50766 9.03094 7.75074C8.62266 8.0087 7.93204 8.83136 7.93204 10.2769C7.93204 11.5783 8.75605 12.8072 9.10949 13.2744C9.11829 13.2859 9.13454 13.3103 9.15824 13.3448C10.5124 15.3273 12.201 16.7972 13.9127 17.4825C15.5607 18.1426 16.3407 18.2191 16.7849 18.2191C16.9711 18.2191 17.1201 18.2042 17.2521 18.1914L17.3354 18.1832C17.9048 18.1325 19.1554 17.4825 19.4404 16.6903C19.6645 16.0653 19.7234 15.3835 19.5745 15.1357C19.4722 14.9671 19.2962 14.8825 19.0734 14.7755Z" fill="#101820"/>
<mask id="mask0_419_2976" style="mask-type:luminance" maskUnits="userSpaceOnUse" x="1" y="1" width="25" height="24">
<path d="M1.76111 1.3291H25.1611V24.7291H1.76111V1.3291Z" fill="white"/>
</mask>
<g mask="url(#mask0_419_2976)">
<path d="M13.6798 21.7662C11.8957 21.7662 10.1684 21.2496 8.68292 20.2725C8.63282 20.2394 8.57526 20.2224 8.51704 20.2224C8.48589 20.2224 8.45474 20.2272 8.42495 20.2367L5.39094 21.2035L6.37068 18.307C6.40183 18.2129 6.38626 18.1099 6.32803 18.03C5.19662 16.4809 4.59876 14.65 4.59876 12.7366C4.59876 7.75665 8.67277 3.70566 13.6798 3.70566C18.6862 3.70566 22.7595 7.75665 22.7595 12.7366C22.7595 17.7152 18.6862 21.7662 13.6798 21.7662ZM13.6798 1.3291C7.35855 1.3291 2.21542 6.4465 2.21542 12.7366C2.21542 14.7706 2.75844 16.7619 3.78693 18.5047L1.81797 24.3276C1.78141 24.4366 1.80849 24.5564 1.88907 24.6384C1.94662 24.6973 2.02516 24.7291 2.10506 24.7291C2.1362 24.7291 2.16667 24.7244 2.19714 24.7149L8.25365 22.7859C9.91115 23.6735 11.784 24.1421 13.6798 24.1421C20.001 24.1421 25.1435 19.0254 25.1435 12.7366C25.1435 6.4465 20.001 1.3291 13.6798 1.3291Z" fill="#101820"/>
</g>
</svg>
