<svg width="151" height="34" viewBox="0 0 151 34" fill="none" xmlns="http://www.w3.org/2000/svg">
<path d="M28.196 11.0938H21.9744C21.8608 10.2888 21.6288 9.57386 21.2784 8.94886C20.928 8.31439 20.4782 7.77462 19.929 7.32955C19.3797 6.88447 18.7453 6.54356 18.0256 6.30682C17.3153 6.07008 16.5436 5.9517 15.7102 5.9517C14.2045 5.9517 12.893 6.32576 11.7756 7.07386C10.6581 7.8125 9.79167 8.89205 9.17614 10.3125C8.56061 11.7235 8.25284 13.4375 8.25284 15.4545C8.25284 17.5284 8.56061 19.2708 9.17614 20.6818C9.80114 22.0928 10.6723 23.1581 11.7898 23.8778C12.9072 24.5975 14.1998 24.9574 15.6676 24.9574C16.4915 24.9574 17.2538 24.8485 17.9545 24.6307C18.6648 24.4129 19.2945 24.0956 19.8438 23.679C20.393 23.2528 20.8475 22.7367 21.2074 22.1307C21.5767 21.5246 21.8324 20.8333 21.9744 20.0568L28.196 20.0852C28.035 21.4205 27.6326 22.7083 26.9886 23.9489C26.3542 25.1799 25.4972 26.2831 24.4176 27.2585C23.3475 28.2244 22.0691 28.9915 20.5824 29.5597C19.1051 30.1184 17.4337 30.3977 15.5682 30.3977C12.9735 30.3977 10.6534 29.8106 8.60795 28.6364C6.57197 27.4621 4.96212 25.7623 3.77841 23.5369C2.60417 21.3116 2.01705 18.6174 2.01705 15.4545C2.01705 12.2822 2.61364 9.58333 3.80682 7.35795C5 5.13258 6.61932 3.4375 8.66477 2.27273C10.7102 1.09848 13.0114 0.511363 15.5682 0.511363C17.2538 0.511363 18.8163 0.748105 20.2557 1.22159C21.7045 1.69508 22.9877 2.38636 24.1051 3.29545C25.2225 4.19507 26.1316 5.29829 26.8324 6.60511C27.5426 7.91193 27.9972 9.40814 28.196 11.0938ZM38.7145 30.4119C37.3224 30.4119 36.0819 30.1705 34.9929 29.6875C33.9039 29.1951 33.0421 28.4706 32.4077 27.5142C31.7827 26.5483 31.4702 25.3456 31.4702 23.9062C31.4702 22.6941 31.6927 21.6761 32.1378 20.8523C32.5829 20.0284 33.1889 19.3655 33.956 18.8636C34.723 18.3617 35.5942 17.983 36.5696 17.7273C37.5545 17.4716 38.5866 17.2917 39.6662 17.1875C40.9351 17.0549 41.9579 16.9318 42.7344 16.8182C43.5109 16.6951 44.0743 16.5152 44.4247 16.2784C44.7751 16.0417 44.9503 15.6913 44.9503 15.2273V15.142C44.9503 14.2424 44.6662 13.5464 44.098 13.054C43.5393 12.5616 42.7438 12.3153 41.7116 12.3153C40.6226 12.3153 39.7562 12.5568 39.1122 13.0398C38.4683 13.5133 38.0421 14.1098 37.8338 14.8295L32.2372 14.375C32.5213 13.0492 33.08 11.9034 33.9134 10.9375C34.7467 9.96212 35.8215 9.21401 37.1378 8.69318C38.4635 8.16288 39.9976 7.89773 41.7401 7.89773C42.9522 7.89773 44.1122 8.03977 45.2202 8.32386C46.3376 8.60795 47.3272 9.0483 48.1889 9.64489C49.0601 10.2415 49.7467 11.0085 50.2486 11.946C50.7505 12.8741 51.0014 13.9867 51.0014 15.2841V30H45.2628V26.9744H45.0923C44.742 27.6562 44.2732 28.2576 43.6861 28.7784C43.099 29.2898 42.3935 29.6922 41.5696 29.9858C40.7457 30.2699 39.794 30.4119 38.7145 30.4119ZM40.4474 26.2358C41.3376 26.2358 42.1236 26.0606 42.8054 25.7102C43.4872 25.3504 44.0223 24.8674 44.4105 24.2614C44.7988 23.6553 44.9929 22.9687 44.9929 22.2017V19.8864C44.8035 20.0095 44.5431 20.1231 44.2116 20.2273C43.8897 20.322 43.5251 20.4119 43.1179 20.4972C42.7107 20.5729 42.3035 20.6439 41.8963 20.7102C41.4891 20.767 41.1198 20.8191 40.7884 20.8665C40.0781 20.9706 39.4579 21.1364 38.9276 21.3636C38.3973 21.5909 37.9853 21.8987 37.6918 22.2869C37.3982 22.6657 37.2514 23.1392 37.2514 23.7074C37.2514 24.5312 37.5497 25.161 38.1463 25.5966C38.7524 26.0227 39.5194 26.2358 40.4474 26.2358ZM55.696 30V8.18182H61.5625V11.9886H61.7898C62.1875 10.6345 62.8551 9.61174 63.7926 8.92045C64.7301 8.2197 65.8097 7.86932 67.0312 7.86932C67.3343 7.86932 67.661 7.88826 68.0114 7.92614C68.3617 7.96402 68.6695 8.0161 68.9347 8.08239V13.4517C68.6506 13.3665 68.2576 13.2907 67.7557 13.2244C67.2538 13.1581 66.7945 13.125 66.3778 13.125C65.4877 13.125 64.6922 13.3191 63.9915 13.7074C63.3002 14.0862 62.7509 14.6165 62.3438 15.2983C61.946 15.9801 61.7472 16.7661 61.7472 17.6562V30H55.696ZM80.9908 30.4261C78.7464 30.4261 76.8146 29.9716 75.1953 29.0625C73.5855 28.1439 72.3449 26.8466 71.4737 25.1705C70.6025 23.4848 70.1669 21.4915 70.1669 19.1903C70.1669 16.946 70.6025 14.9763 71.4737 13.2812C72.3449 11.5862 73.5713 10.2652 75.1527 9.31818C76.7436 8.37121 78.6091 7.89773 80.7493 7.89773C82.1887 7.89773 83.5286 8.12973 84.7692 8.59375C86.0192 9.0483 87.1082 9.73485 88.0362 10.6534C88.9737 11.572 89.7029 12.7273 90.2237 14.1193C90.7446 15.5019 91.005 17.1212 91.005 18.9773V20.6392H72.5817V16.8892H85.3089C85.3089 16.018 85.1196 15.2462 84.7408 14.5739C84.362 13.9015 83.8364 13.3759 83.1641 12.9972C82.5012 12.6089 81.7294 12.4148 80.8487 12.4148C79.9302 12.4148 79.1158 12.6278 78.4055 13.054C77.7048 13.4706 77.1555 14.0341 76.7578 14.7443C76.3601 15.4451 76.1565 16.2263 76.147 17.0881V20.6534C76.147 21.733 76.3459 22.6657 76.7436 23.4517C77.1508 24.2377 77.7237 24.8438 78.4624 25.2699C79.201 25.696 80.0769 25.9091 81.0902 25.9091C81.7625 25.9091 82.3781 25.8144 82.9368 25.625C83.4955 25.4356 83.9737 25.1515 84.3714 24.7727C84.7692 24.3939 85.0722 23.9299 85.2805 23.3807L90.8771 23.75C90.593 25.0947 90.0107 26.2689 89.13 27.2727C88.2588 28.267 87.1319 29.0436 85.7493 29.6023C84.3762 30.1515 82.79 30.4261 80.9908 30.4261ZM114.357 10.3125C114.158 9.62121 113.879 9.01042 113.519 8.48011C113.159 7.94034 112.719 7.4858 112.198 7.11648C111.687 6.73769 111.1 6.44886 110.437 6.25C109.783 6.05114 109.059 5.9517 108.263 5.9517C106.777 5.9517 105.47 6.32102 104.343 7.05966C103.226 7.79829 102.354 8.87311 101.729 10.2841C101.104 11.6856 100.792 13.3996 100.792 15.4261C100.792 17.4527 101.1 19.1761 101.715 20.5966C102.331 22.017 103.202 23.1013 104.329 23.8494C105.456 24.5881 106.786 24.9574 108.32 24.9574C109.712 24.9574 110.901 24.7112 111.886 24.2188C112.88 23.7169 113.638 23.0114 114.158 22.1023C114.689 21.1932 114.954 20.1184 114.954 18.8778L116.204 19.0625H108.704V14.4318H120.877V18.0966C120.877 20.6534 120.337 22.8504 119.258 24.6875C118.178 26.5152 116.692 27.9261 114.798 28.9205C112.904 29.9053 110.735 30.3977 108.292 30.3977C105.565 30.3977 103.169 29.7964 101.104 28.5938C99.04 27.3816 97.4302 25.6629 96.2749 23.4375C95.129 21.2027 94.5561 18.5511 94.5561 15.483C94.5561 13.125 94.897 11.0227 95.5788 9.17614C96.2701 7.32008 97.236 5.74811 98.4766 4.46023C99.7171 3.17235 101.161 2.19223 102.809 1.51989C104.457 0.847537 106.242 0.511363 108.164 0.511363C109.812 0.511363 111.346 0.75284 112.766 1.2358C114.187 1.70928 115.446 2.38163 116.545 3.25284C117.653 4.12405 118.557 5.16098 119.258 6.36364C119.959 7.55682 120.408 8.87311 120.607 10.3125H114.357Z" fill="#F565F2"/>
<g clip-path="url(#clip0_535_1478)">
<path d="M131.333 17.5937C130.413 17.5937 129.667 18.3171 129.667 19.2083C129.667 20.0996 130.413 20.8229 131.333 20.8229C132.253 20.8229 133 20.0996 133 19.2083C133 18.3171 132.253 17.5937 131.333 17.5937ZM139.333 17.5937C138.413 17.5937 137.667 18.3171 137.667 19.2083C137.667 20.0996 138.413 20.8229 139.333 20.8229C140.253 20.8229 141 20.0996 141 19.2083C141 18.3171 140.253 17.5937 139.333 17.5937ZM135.333 5C127.973 5 122 10.7867 122 17.9167C122 25.0467 127.973 30.8333 135.333 30.8333C142.693 30.8333 148.667 25.0467 148.667 17.9167C148.667 10.7867 142.693 5 135.333 5ZM135.333 28.25C129.453 28.25 124.667 23.6129 124.667 17.9167C124.667 17.5421 124.693 17.1675 124.733 16.8058C127.88 15.4496 130.373 12.9567 131.68 9.86958C134.093 13.1762 138.067 15.3333 142.56 15.3333C143.6 15.3333 144.6 15.2171 145.56 14.9975C145.84 15.9146 146 16.8962 146 17.9167C146 23.6129 141.213 28.25 135.333 28.25Z" fill="#F565F2"/>
</g>
<defs>
<clipPath id="clip0_535_1478">
<rect width="32" height="31" fill="white" transform="translate(119 3)"/>
</clipPath>
</defs>
</svg>
