<svg width="18" height="17" viewBox="0 0 18 17" fill="none" xmlns="http://www.w3.org/2000/svg">
<path d="M16.3425 11.4575C15.215 11.4575 14.1242 11.2825 13.1067 10.9675C12.7858 10.8625 12.4283 10.9413 12.1808 11.1775L10.7417 12.9013C8.1475 11.72 5.71833 9.48875 4.42583 6.925L6.21333 5.4725C6.46083 5.2275 6.53417 4.88625 6.43333 4.58C6.09417 3.60875 5.92 2.5675 5.92 1.49125C5.92 1.01875 5.5075 0.625 5.0125 0.625H1.84083C1.34583 0.625 0.75 0.835 0.75 1.49125C0.75 9.62 7.83583 16.375 16.3425 16.375C16.9933 16.375 17.25 15.8237 17.25 15.3425V12.3238C17.25 11.8513 16.8375 11.4575 16.3425 11.4575Z" fill="#F2C171"/>
</svg>
